#N canvas 1 67 450 300 10;
#X obj 954 484 tgl 27 0 empty empty empty 17 7 0 10 -155589 -1 -262144
0 1;
#X msg 948 555 size \$1;
#X obj 921 524 hsl 128 15 0 127 0 0 empty empty empty -2 -8 0 10 -262144
-1 -1 0 1;
#X obj 997 343 hsl 128 15 0 50 0 0 empty empty empty -2 -8 0 10 -262144
-1 -1 0 1;
#X obj 996 387 nbx 5 14 -1e+37 1e+37 0 0 empty empty empty 0 -8 0 10
-241291 -1 -262144 0 256;
#X msg 971 419 color \$1;
#X obj 998 365 int;
#X obj 1002 200 hsl 128 15 0 255 0 0 empty empty empty -2 -8 0 10 -4160
-1 -1 0 1;
#X obj 935 106 hsl 128 15 0 255 0 0 empty empty empty -2 -8 0 10 -258113
-1 -1 0 1;
#X obj 987 131 hsl 128 15 0 255 0 0 empty empty empty -2 -8 0 10 -4034
-1 -1 0 1;
#X obj 961 267 +;
#X obj 942 181 +;
#X obj 932 127 * 256;
#X obj 959 152 t b f;
#X obj 975 231 t b f;
#X obj 961 294 * -1;
#X obj 941 216 * 256;
#X floatatom 972 318 10 0 0 0 - - -, f 10;
#X obj 996 483 hsl 27 15 0 127 0 0 empty empty empty -2 -8 0 10 -155589
-1 -262144 0 1;
#X obj 1033 504 vsl 27 128 0 127 0 0 empty empty empty 0 -9 0 10 -155589
-1 -262144 0 1;
#X obj 1079 558 bng 27 250 50 0 empty empty empty 17 7 0 10 -155589
-1 -262144;
#X connect 1 0 0 0;
#X connect 1 0 18 0;
#X connect 1 0 19 0;
#X connect 1 0 20 0;
#X connect 2 0 1 0;
#X connect 3 0 6 0;
#X connect 4 0 5 0;
#X connect 5 0 0 0;
#X connect 5 0 18 0;
#X connect 5 0 19 0;
#X connect 5 0 20 0;
#X connect 6 0 4 0;
#X connect 7 0 14 0;
#X connect 8 0 12 0;
#X connect 9 0 13 0;
#X connect 10 0 15 0;
#X connect 11 0 16 0;
#X connect 12 0 11 0;
#X connect 13 0 11 0;
#X connect 13 1 11 1;
#X connect 14 0 10 0;
#X connect 14 1 10 1;
#X connect 15 0 5 0;
#X connect 15 0 17 0;
#X connect 16 0 10 0;
