#N canvas 186 188 945 585 10;
#X obj 166 255 s A1;
#X msg 96 229 color 0;
#X msg 164 230 color 1;
#X msg 227 229 color 2;
#X msg 294 229 color 3;
#X msg 362 230 color 4;
#X msg 428 232 color 5;
#X msg 493 230 color 6;
#X msg 560 231 color 7;
#X msg 623 229 color 8;
#X msg 689 230 color 9;
#X msg 96 289 color 10;
#X msg 164 289 color 11;
#X msg 227 289 color 12;
#X msg 294 287 color 13;
#X msg 362 290 color 14;
#X msg 429 289 color 15;
#X msg 493 290 color 16;
#X msg 560 291 color 17;
#X msg 627 292 color 18;
#X msg 689 289 color 19;
#X msg 689 346 color 29;
#X msg 623 345 color 28;
#X msg 560 347 color 27;
#X msg 493 346 color 26;
#X msg 429 347 color 25;
#X msg 362 346 color 24;
#X msg 294 344 color 23;
#X msg 227 345 color 22;
#X msg 164 346 color 21;
#X msg 96 345 color 21;
#X obj 233 256 s A2;
#X obj 297 255 s A3;
#X obj 364 255 s A4;
#X obj 432 256 s A5;
#X obj 499 256 s A6;
#X obj 562 254 s A7;
#X obj 630 256 s A8;
#X obj 694 256 s A9;
#X obj 97 255 s A0;
#X obj 97 310 s B0;
#X obj 165 311 s B1;
#X obj 233 310 s B2;
#X obj 297 308 s B3;
#X obj 363 311 s B4;
#X obj 432 311 s B5;
#X obj 499 310 s B6;
#X obj 561 312 s B7;
#X obj 630 311 s B8;
#X obj 693 311 s B9;
#X obj 692 368 s C9;
#X obj 630 368 s C8;
#X obj 560 366 s C7;
#X obj 498 367 s C6;
#X obj 431 368 s C5;
#X obj 362 367 s C4;
#X obj 295 365 s C3;
#X obj 232 367 s C2;
#X obj 164 368 s C1;
#X obj 46 209 bng 15 250 50 0 empty empty empty 17 7 0 10 -262144 -1
-1;
#X obj 46 270 bng 15 250 50 0 empty empty empty 17 7 0 10 -262144 -1
-1;
#X obj 46 319 bng 15 250 50 0 empty empty empty 17 7 0 10 -262144 -1
-1;
#X obj 48 147 bng 30 250 50 0 empty empty push 17 7 0 10 -262144 -1
-1;
#X obj 96 368 s C0;
#X obj 187 76 tgl 15 0 empty empty A1 1 6 0 9 -228856 -1 -1 0 1;
#X obj 172 76 tgl 15 0 empty empty A0 1 6 0 9 -262144 -1 -1 0 1;
#X obj 217 76 tgl 15 0 empty empty A3 1 6 0 9 -261234 -1 -1 0 1;
#X obj 202 76 tgl 15 0 empty empty A2 1 6 0 9 -191407 -1 -1 0 1;
#X obj 247 76 tgl 15 0 empty empty A5 1 6 0 9 -262130 -1 -1 0 1;
#X obj 232 76 tgl 15 0 empty empty A4 1 6 0 9 -261682 -1 -1 0 1;
#X obj 277 76 tgl 15 0 empty empty A7 1 6 0 8 -204800 -1 -1 0 1;
#X obj 262 76 tgl 15 0 empty empty A6 1 6 0 9 -204786 -1 -1 0 1;
#X obj 307 76 tgl 15 0 empty empty A9 1 6 0 9 -232576 -1 -1 0 1;
#X obj 292 76 tgl 15 0 empty empty A8 1 6 0 9 -203904 -1 -1 0 1;
#X obj 187 91 tgl 15 0 empty empty B1 1 6 0 9 -128992 -1 -1 0 1;
#X obj 172 91 tgl 15 0 empty empty B0 1 6 0 9 -162280 -1 -1 0 1;
#X obj 217 91 tgl 15 0 empty empty B3 1 6 0 9 -258113 -1 -1 0 1;
#X obj 202 91 tgl 15 0 empty empty B2 1 6 0 9 -99865 -1 -1 0 1;
#X obj 247 91 tgl 15 0 empty empty B5 1 6 0 9 -257985 -1 -1 0 1;
#X obj 232 91 tgl 15 0 empty empty B4 1 6 0 9 -260097 -1 -1 0 1;
#X obj 277 91 tgl 15 0 empty empty B7 1 6 0 9 -4032 -1 -1 0 1;
#X obj 262 91 tgl 15 0 empty empty B6 1 6 0 9 -4034 -1 -1 0 1;
#X obj 307 91 tgl 15 0 empty empty B9 1 6 0 9 -159808 -1 -262144 0
1;
#X obj 292 91 tgl 15 0 empty empty B8 1 6 0 9 -4160 -1 -262144 0 1
;
#X obj 187 106 tgl 15 0 empty empty C1 1 6 0 9 -33289 -1 -262144 0
1;
#X obj 172 106 tgl 15 0 empty empty C0 1 6 0 9 -66577 -1 -262144 0
1;
#X obj 217 106 tgl 15 0 empty empty C3 1 6 0 9 -86277 -1 -262144 0
1;
#X obj 202 106 tgl 15 0 empty empty C2 1 6 0 9 -1 -1 -262144 0 1;
#X obj 247 106 tgl 15 0 empty empty C5 1 6 0 9 -83269 -262144 -262144
0 1;
#X obj 232 106 tgl 15 0 empty C4 C4 1 6 0 9 -90881 -1 -262144 0 1;
#X obj 277 106 tgl 15 0 empty C7 C7 1 6 0 9 -1109 -1 -262144 0 1;
#X obj 262 106 tgl 15 0 empty C6 C6 1 6 0 9 -42246 -1 -262144 0 1;
#X obj 307 106 tgl 15 0 empty C9 C9 1 6 0 9 -90133 -1 -262144 0 1;
#X obj 292 106 tgl 15 0 empty C8 C8 1 6 0 9 -355 -1 -262144 0 1;
#X obj 358 149 bng 15 250 50 0 empty A1 A1 1 6 0 9 -228856 -1 -1;
#X obj 343 149 bng 15 250 50 0 empty A0 A0 1 6 0 9 -262144 -1 -1;
#X obj 388 149 bng 15 250 50 0 empty A3 A3 1 6 0 9 -261234 -1 -1;
#X obj 373 149 bng 15 250 50 0 empty A2 A2 1 6 0 9 -191407 -1 -1;
#X obj 418 149 bng 15 250 50 0 empty A5 A5 1 6 0 9 -262130 -1 -1;
#X obj 403 149 bng 15 250 50 0 empty A4 A4 1 5 0 9 -261682 -1 -1;
#X obj 448 149 bng 15 250 50 0 empty A7 A7 1 6 0 9 -204800 -1 -1;
#X obj 433 149 bng 15 250 50 0 empty A6 A6 1 6 0 9 -204786 -1 -1;
#X obj 358 164 bng 15 250 50 0 empty B1 B1 1 6 0 9 -128992 -1 -1;
#X obj 343 164 bng 15 250 50 0 empty B0 B0 1 6 0 9 -162280 -1 -1;
#X obj 388 164 bng 15 250 50 0 empty B3 B3 1 6 0 9 -258113 -1 -1;
#X obj 373 164 bng 15 250 50 0 empty B2 B2 1 6 0 9 -99865 -1 -1;
#X obj 418 164 bng 15 250 50 0 empty B5 B5 1 6 0 9 -257985 -1 -1;
#X obj 403 164 bng 15 250 50 0 empty B4 B4 1 6 0 9 -260097 -1 -1;
#X obj 448 164 bng 15 250 50 0 empty B7 B7 1 6 0 9 -4032 -1 -1;
#X obj 433 164 bng 15 250 50 0 empty B6 B6 1 6 0 9 -4034 -1 -1;
#X obj 478 149 bng 15 250 50 0 empty A9 A9 1 6 0 9 -232576 -1 -1;
#X obj 463 149 bng 15 250 50 0 empty A8 A8 1 6 0 9 -203904 -1 -1;
#X obj 478 164 bng 15 250 50 0 empty B9 B9 1 6 0 9 -159808 -1 -262144
;
#X obj 463 164 bng 15 250 50 0 empty B8 B8 1 6 0 9 -4160 -1 -262144
;
#X obj 358 178 bng 15 250 50 0 empty C1 C1 1 6 0 9 -33289 -1 -262144
;
#X obj 343 178 bng 15 250 50 0 empty C0 C0 1 6 0 9 -66577 -1 -262144
;
#X obj 388 178 bng 15 250 50 0 empty C3 C3 1 6 0 9 -86277 -1 -262144
;
#X obj 373 178 bng 15 250 50 0 empty C2 C2 1 6 0 9 -99865 -1 -262144
;
#X obj 418 178 bng 15 250 50 0 empty C5 C5 1 6 0 9 -83269 -1 -262144
;
#X obj 403 178 bng 15 250 50 0 empty C4 C4 1 6 0 9 -86853 -1 -262144
;
#X obj 448 178 bng 15 250 50 0 empty C7 C7 1 6 0 9 -13330 -1 -262144
;
#X obj 433 178 bng 15 250 50 0 empty C6 C6 1 6 0 9 -13381 -1 -262144
;
#X obj 478 178 bng 15 250 50 0 empty C9 C9 1 6 0 9 -45076 -1 -262144
;
#X obj 463 178 bng 15 250 50 0 empty C8 C8 1 6 0 9 -16662 -1 -262144
;
#X obj 360 75 tgl 15 0 empty A1 A1 1 6 0 9 -228856 -1 -1 0 1;
#X obj 345 75 tgl 15 0 empty A0 A0 1 6 0 9 -262144 -1 -1 0 1;
#X obj 390 75 tgl 15 0 empty A3 A3 1 6 0 9 -261234 -1 -1 0 1;
#X obj 375 75 tgl 15 0 empty A2 A2 1 6 0 9 -191407 -1 -1 0 1;
#X obj 420 75 tgl 15 0 empty A5 A5 1 6 0 9 -262130 -1 -1 0 1;
#X obj 405 75 tgl 15 0 empty A4 A4 1 6 0 9 -261682 -1 -1 0 1;
#X obj 450 75 tgl 15 0 empty A7 A7 1 6 0 8 -204800 -1 -1 0 1;
#X obj 435 75 tgl 15 0 empty A6 A6 1 6 0 9 -204786 -1 -1 0 1;
#X obj 480 75 tgl 15 0 empty A9 A9 1 6 0 9 -232576 -1 -1 0 1;
#X obj 465 75 tgl 15 0 empty A8 A8 1 6 0 9 -203904 -1 -1 0 1;
#X obj 360 90 tgl 15 0 empty B1 B1 1 6 0 9 -128992 -1 -1 0 1;
#X obj 345 90 tgl 15 0 empty B0 B0 1 6 0 9 -162280 -1 -1 0 1;
#X obj 390 90 tgl 15 0 empty B3 B3 1 6 0 9 -258113 -1 -1 0 1;
#X obj 375 90 tgl 15 0 empty B2 B2 1 6 0 9 -99865 -1 -1 0 1;
#X obj 420 90 tgl 15 0 empty B5 B5 1 6 0 9 -257985 -1 -1 0 1;
#X obj 405 90 tgl 15 0 empty B4 B4 1 6 0 9 -260097 -1 -1 0 1;
#X obj 450 90 tgl 15 0 empty B7 B7 1 6 0 9 -4032 -1 -1 0 1;
#X obj 435 90 tgl 15 0 empty B6 B6 1 6 0 9 -4034 -1 -1 0 1;
#X obj 480 90 tgl 15 0 empty B9 B9 1 6 0 9 -159808 -1 -262144 0
1;
#X obj 465 90 tgl 15 0 empty B8 B8 1 6 0 9 -4160 -1 -262144 0 1
;
#X obj 360 105 tgl 15 0 empty C1 C1 1 6 0 9 -33289 -1 -262144 0
1;
#X obj 345 105 tgl 15 0 empty C0 C0 1 6 0 9 -66577 -1 -262144 0
1;
#X obj 390 105 tgl 15 0 empty C3 C3 1 6 0 9 -86277 -1 -262144 0
1;
#X obj 375 105 tgl 15 0 empty C2 C2 1 6 0 9 -1 -1 -262144 0 1;
#X obj 420 105 tgl 15 0 empty C5 C5 1 6 0 9 -83269 -262144 -262144
0 1;
#X obj 405 105 tgl 15 0 empty C4 C4 1 6 0 9 -90881 -1 -262144 0 1;
#X obj 450 105 tgl 15 0 empty C7 C7 1 6 0 9 -1109 -1 -262144 0 1;
#X obj 435 105 tgl 15 0 empty C6 C6 1 6 0 9 -42246 -1 -262144 0 1;
#X obj 480 105 tgl 15 0 empty C9 C9 1 6 0 9 -90133 -1 -262144 0 1
;
#X obj 465 105 tgl 15 0 empty C8 C8 1 6 0 9 -355 -1 -262144 0 1;
#X connect 1 0 39 0;
#X connect 2 0 0 0;
#X connect 3 0 31 0;
#X connect 4 0 32 0;
#X connect 5 0 33 0;
#X connect 6 0 34 0;
#X connect 7 0 35 0;
#X connect 8 0 36 0;
#X connect 9 0 37 0;
#X connect 10 0 38 0;
#X connect 11 0 40 0;
#X connect 12 0 41 0;
#X connect 13 0 42 0;
#X connect 14 0 43 0;
#X connect 15 0 44 0;
#X connect 16 0 45 0;
#X connect 17 0 46 0;
#X connect 18 0 47 0;
#X connect 19 0 48 0;
#X connect 20 0 49 0;
#X connect 21 0 50 0;
#X connect 22 0 51 0;
#X connect 23 0 52 0;
#X connect 24 0 53 0;
#X connect 25 0 54 0;
#X connect 26 0 55 0;
#X connect 27 0 56 0;
#X connect 28 0 57 0;
#X connect 29 0 58 0;
#X connect 30 0 63 0;
#X connect 59 0 60 0;
#X connect 59 0 1 0;
#X connect 59 0 2 0;
#X connect 59 0 3 0;
#X connect 59 0 4 0;
#X connect 59 0 5 0;
#X connect 59 0 6 0;
#X connect 59 0 7 0;
#X connect 59 0 8 0;
#X connect 59 0 9 0;
#X connect 59 0 10 0;
#X connect 60 0 61 0;
#X connect 60 0 11 0;
#X connect 60 0 12 0;
#X connect 60 0 13 0;
#X connect 60 0 14 0;
#X connect 60 0 15 0;
#X connect 60 0 16 0;
#X connect 60 0 17 0;
#X connect 60 0 18 0;
#X connect 60 0 19 0;
#X connect 60 0 20 0;
#X connect 61 0 30 0;
#X connect 61 0 29 0;
#X connect 61 0 28 0;
#X connect 61 0 27 0;
#X connect 61 0 26 0;
#X connect 61 0 25 0;
#X connect 61 0 24 0;
#X connect 61 0 23 0;
#X connect 61 0 22 0;
#X connect 61 0 21 0;
#X connect 62 0 59 0;
