#N canvas 1 67 847 495 10;
#X obj 311 151 multi-osc~;
#X obj 231 110 mtof;
#X obj 345 405 ADSR;
#X obj 240 39 unpack f f;
#X obj 168 86 sel 0;
#X obj 253 337 bng 15 250 50 0 empty empty empty 17 7 0 10 -262144
-1 -1;
#X obj 213 294 bng 15 250 50 0 empty empty empty 17 7 0 10 -262144
-1 -1;
#X obj 240 12 inlet;
#X msg 235 64 MIDI note;
#X msg 321 66 Velocity;
#X obj 213 567 outlet~;
#X floatatom 389 104 5 0 0 0 - - -, f 5;
#X floatatom 189 41 5 0 0 0 - - -, f 5;
#X obj 156 116 bng 15 250 50 0 empty empty empty 17 7 0 10 -262144
-1 -1;
#X obj 203 131 bng 15 250 50 0 empty empty empty 17 7 0 10 -262144
-1 -1;
#X msg 290 12 note \, velocity;
#X obj 420 10 inlet;
#X msg 472 14 osc control;
#X obj 575 16 inlet;
#X msg 626 18 ADSR control;
#X obj 579 53 unpack f f f f f;
#X obj 548 122 s \$0A;
#X obj 597 120 s \$0D;
#X obj 643 120 s \$0S;
#X obj 698 121 s \$0R;
#X obj 756 125 s \$0G;
#X obj 337 347 r \$0A;
#X obj 383 345 r \$0D;
#X obj 427 345 r \$0S;
#X obj 483 346 r \$0R;
#X obj 541 350 r \$0G;
#X connect 0 0 2 0;
#X connect 1 0 0 0;
#X connect 1 0 5 0;
#X connect 2 0 10 0;
#X connect 3 0 4 0;
#X connect 3 0 12 0;
#X connect 3 1 2 7;
#X connect 3 1 11 0;
#X connect 4 0 6 0;
#X connect 4 0 13 0;
#X connect 4 1 1 0;
#X connect 4 1 14 0;
#X connect 5 0 2 5;
#X connect 6 0 2 6;
#X connect 7 0 3 0;
#X connect 18 0 20 0;
#X connect 20 0 21 0;
#X connect 20 1 22 0;
#X connect 20 2 23 0;
#X connect 20 3 24 0;
#X connect 20 4 25 0;
#X connect 26 0 2 1;
#X connect 27 0 2 2;
#X connect 28 0 2 3;
#X connect 29 0 2 4;
#X connect 30 0 2 7;
