#N canvas 10 128 1136 612 10;
#X obj 231 110 mtof;
#X obj 311 408 ADSR;
#X obj 240 39 unpack f f;
#X obj 168 86 sel 0;
#X obj 253 337 bng 15 250 50 0 empty empty empty 17 7 0 10 -262144
-1 -1;
#X obj 213 294 bng 15 250 50 0 empty empty empty 17 7 0 10 -262144
-1 -1;
#X obj 240 12 inlet;
#X msg 235 64 MIDI note;
#X msg 321 66 Velocity;
#X obj 213 567 outlet~;
#X floatatom 352 94 5 0 0 0 - - -, f 5;
#X floatatom 189 41 5 0 0 0 - - -, f 5;
#X obj 156 116 bng 15 250 50 0 empty empty empty 17 7 0 10 -262144
-1 -1;
#X obj 203 131 bng 15 250 50 0 empty empty empty 17 7 0 10 -262144
-1 -1;
#X msg 290 12 note \, velocity;
#X obj 420 10 inlet;
#X obj 575 16 inlet;
#X msg 626 18 ADSR control;
#X obj 588 131 s \$0A;
#X obj 637 129 s \$0D;
#X obj 683 129 s \$0S;
#X obj 738 130 s \$0R;
#X obj 796 134 s \$0G;
#X obj 337 347 r \$0A;
#X obj 383 345 r \$0D;
#X obj 427 345 r \$0S;
#X obj 483 346 r \$0R;
#X obj 541 350 r \$0G;
#X obj 625 75 unpackOSC;
#N canvas 1 81 450 300 foo 0;
#X obj 106 75 inlet;
#X obj 120 112 bng 15 250 50 0 empty empty empty 17 7 0 10 -262144
-1 -1;
#X floatatom 140 113 5 0 0 0 - - -, f 5;
#X connect 0 0 1 0;
#X connect 0 0 2 0;
#X coords 0 -1 1 1 80 30 1 100 100;
#X restore 567 189 pd foo;
#X obj 625 106 routeOSC /A /D /S /R /Gain;
#N canvas 1 81 450 300 foo 0;
#X obj 106 75 inlet;
#X obj 120 112 bng 15 250 50 0 empty empty empty 17 7 0 10 -262144
-1 -1;
#X floatatom 140 113 5 0 0 0 - - -, f 5;
#X connect 0 0 1 0;
#X connect 0 0 2 0;
#X coords 0 -1 1 1 80 30 1 100 100;
#X restore 628 152 pd foo;
#N canvas 1 81 450 300 foo 0;
#X obj 106 75 inlet;
#X obj 120 112 bng 15 250 50 0 empty empty empty 17 7 0 10 -262144
-1 -1;
#X floatatom 140 113 5 0 0 0 - - -, f 5;
#X connect 0 0 1 0;
#X connect 0 0 2 0;
#X coords 0 -1 1 1 80 30 1 100 100;
#X restore 693 193 pd foo;
#N canvas 1 81 450 300 foo 0;
#X obj 106 75 inlet;
#X obj 120 112 bng 15 250 50 0 empty empty empty 17 7 0 10 -262144
-1 -1;
#X floatatom 140 113 5 0 0 0 - - -, f 5;
#X connect 0 0 1 0;
#X connect 0 0 2 0;
#X coords 0 -1 1 1 80 30 1 100 100;
#X restore 811 195 pd foo;
#N canvas 1 81 450 300 foo 0;
#X obj 106 75 inlet;
#X obj 120 112 bng 15 250 50 0 empty empty empty 17 7 0 10 -262144
-1 -1;
#X floatatom 140 113 5 0 0 0 - - -, f 5;
#X connect 0 0 1 0;
#X connect 0 0 2 0;
#X coords 0 -1 1 1 80 30 1 100 100;
#X restore 734 155 pd foo;
#X obj 889 227 unpackOSC;
#N canvas 1 81 450 300 foo 0;
#X obj 106 75 inlet;
#X obj 120 112 bng 15 250 50 0 empty empty empty 17 7 0 10 -262144
-1 -1;
#X floatatom 140 113 5 0 0 0 - - -, f 5;
#X connect 0 0 1 0;
#X connect 0 0 2 0;
#X coords 0 -1 1 1 80 30 1 100 100;
#X restore 889 297 pd foo;
#N canvas 1 81 450 300 foo 0;
#X obj 106 75 inlet;
#X obj 120 112 bng 15 250 50 0 empty empty empty 17 7 0 10 -262144
-1 -1;
#X floatatom 140 113 5 0 0 0 - - -, f 5;
#X connect 0 0 1 0;
#X connect 0 0 2 0;
#X coords 0 -1 1 1 80 30 1 100 100;
#X restore 978 301 pd foo;
#N canvas 1 81 450 300 foo 0;
#X obj 106 75 inlet;
#X obj 120 112 bng 15 250 50 0 empty empty empty 17 7 0 10 -262144
-1 -1;
#X floatatom 140 113 5 0 0 0 - - -, f 5;
#X connect 0 0 1 0;
#X connect 0 0 2 0;
#X coords 0 -1 1 1 80 30 1 100 100;
#X restore 933 346 pd foo;
#N canvas 1 81 450 300 foo 0;
#X obj 106 75 inlet;
#X obj 120 112 bng 15 250 50 0 empty empty empty 17 7 0 10 -262144
-1 -1;
#X floatatom 140 113 5 0 0 0 - - -, f 5;
#X connect 0 0 1 0;
#X connect 0 0 2 0;
#X coords 0 -1 1 1 80 30 1 100 100;
#X restore 1022 347 pd foo;
#N canvas 1 81 450 300 foo 0;
#X obj 106 75 inlet;
#X obj 120 112 bng 15 250 50 0 empty empty empty 17 7 0 10 -262144
-1 -1;
#X floatatom 140 113 5 0 0 0 - - -, f 5;
#X connect 0 0 1 0;
#X connect 0 0 2 0;
#X coords 0 -1 1 1 80 30 1 100 100;
#X restore 1068 300 pd foo;
#N canvas 1 81 450 300 foo 0;
#X obj 106 75 inlet;
#X obj 120 112 bng 15 250 50 0 empty empty empty 17 7 0 10 -262144
-1 -1;
#X floatatom 140 113 5 0 0 0 - - -, f 5;
#X connect 0 0 1 0;
#X connect 0 0 2 0;
#X coords 0 -1 1 1 80 30 1 100 100;
#X restore 1157 304 pd foo;
#N canvas 1 81 450 300 foo 0;
#X obj 106 75 inlet;
#X obj 120 112 bng 15 250 50 0 empty empty empty 17 7 0 10 -262144
-1 -1;
#X floatatom 140 113 5 0 0 0 - - -, f 5;
#X connect 0 0 1 0;
#X connect 0 0 2 0;
#X coords 0 -1 1 1 80 30 1 100 100;
#X restore 1112 349 pd foo;
#N canvas 1 81 450 300 foo 0;
#X obj 106 75 inlet;
#X obj 120 112 bng 15 250 50 0 empty empty empty 17 7 0 10 -262144
-1 -1;
#X floatatom 140 113 5 0 0 0 - - -, f 5;
#X connect 0 0 1 0;
#X connect 0 0 2 0;
#X coords 0 -1 1 1 80 30 1 100 100;
#X restore 1202 350 pd foo;
#N canvas 1 81 450 300 foo 0;
#X obj 106 75 inlet;
#X obj 120 112 bng 15 250 50 0 empty empty empty 17 7 0 10 -262144
-1 -1;
#X floatatom 140 113 5 0 0 0 - - -, f 5;
#X connect 0 0 1 0;
#X connect 0 0 2 0;
#X coords 0 -1 1 1 80 30 1 100 100;
#X restore 1247 306 pd foo;
#N canvas 1 81 450 300 foo 0;
#X obj 106 75 inlet;
#X obj 120 112 bng 15 250 50 0 empty empty empty 17 7 0 10 -262144
-1 -1;
#X floatatom 140 113 5 0 0 0 - - -, f 5;
#X connect 0 0 1 0;
#X connect 0 0 2 0;
#X coords 0 -1 1 1 80 30 1 100 100;
#X restore 1292 350 pd foo;
#X obj 889 254 routeOSC /Freq /FreqFine /Rate /Sin /Saw /PWM /Duty
/Noise /InvertSaw /Sub;
#N canvas 1 81 450 300 foo 0;
#X obj 106 75 inlet;
#X obj 120 112 bng 15 250 50 0 empty empty empty 17 7 0 10 -262144
-1 -1;
#X floatatom 140 113 5 0 0 0 - - -, f 5;
#X connect 0 0 1 0;
#X connect 0 0 2 0;
#X coords 0 -1 1 1 80 30 1 100 100;
#X restore 1336 308 pd foo;
#X obj 269 167 MultiOscOSC~;
#X msg 987 441 OSC;
#X msg 259 134 LFO~;
#X msg 306 145 PW~, f 4;
#X msg 320 125 noise level~;
#X msg 472 14 osc control;
#X msg 388 146 OSC (packed);
#X connect 0 0 4 0;
#X connect 1 0 9 0;
#X connect 2 0 3 0;
#X connect 2 0 11 0;
#X connect 2 1 1 7;
#X connect 2 1 10 0;
#X connect 3 0 5 0;
#X connect 3 0 12 0;
#X connect 3 1 0 0;
#X connect 3 1 13 0;
#X connect 4 0 1 5;
#X connect 5 0 1 6;
#X connect 6 0 2 0;
#X connect 15 0 48 3;
#X connect 16 0 28 0;
#X connect 23 0 1 1;
#X connect 24 0 1 2;
#X connect 25 0 1 3;
#X connect 26 0 1 4;
#X connect 27 0 1 7;
#X connect 28 0 30 0;
#X connect 30 0 29 0;
#X connect 30 0 18 0;
#X connect 30 1 31 0;
#X connect 30 1 19 0;
#X connect 30 2 32 0;
#X connect 30 2 20 0;
#X connect 30 3 34 0;
#X connect 30 3 21 0;
#X connect 30 4 33 0;
#X connect 30 4 22 0;
#X connect 35 0 46 0;
#X connect 46 0 36 0;
#X connect 46 1 38 0;
#X connect 46 2 37 0;
#X connect 46 3 39 0;
#X connect 46 4 40 0;
#X connect 46 5 42 0;
#X connect 46 6 41 0;
#X connect 46 7 43 0;
#X connect 46 8 44 0;
#X connect 46 9 45 0;
#X connect 46 10 47 0;
#X connect 48 0 1 0;
