#N canvas 1 95 728 538 10;
#X obj 103 102 cnv 15 115 130 empty empty empty 20 12 0 14 -233017
-66577 0;
#X obj 107 128 vsl 15 100 3 300 1 0 empty empty A 0 -9 0 10 -261234
-1 -1 0 1;
#X obj 145 128 vsl 15 100 0 1 0 0 empty empty S 0 -9 0 10 -262130 -1
-1 0 0;
#X obj 126 128 vsl 15 100 5 500 1 0 empty empty D 0 -9 0 10 -203904
-1 -1 0 1;
#X obj 164 128 vsl 15 100 0 1000 0 0 empty empty R 0 -9 0 10 -204786
-1 -1 0 1;
#X obj 183 129 vsl 15 100 0 1 0 0 empty empty Gain -5 -9 0 10 -4032
-1 -1 0 1;
#X obj 107 402 pack f f f f f;
#X obj 145 307 t b f;
#X obj 164 338 t b f;
#X obj 183 369 t b f;
#X obj 126 284 t b f;
#X obj 106 428 outlet;
#X obj 118 37 inlet;
#X obj 118 66 unpack f f f f f;
#X obj 203 103 bng 15 250 50 0 \$0Panic \$0PanicIn P 5 7 0 10 -258113
-1 -1;
#X obj 338 160 loadbang;
#X msg 229 34 10 200 0.5 200 0.5;
#X obj 187 103 bng 15 250 50 0 \$0Init \$0InitIn I 5 7 0 10 -4034 -1
-1;
#X obj 338 189 s \$0InitIn;
#X msg 263 121 0;
#X obj 235 12 r \$0Init;
#X connect 1 0 6 0;
#X connect 2 0 7 0;
#X connect 3 0 10 0;
#X connect 4 0 8 0;
#X connect 5 0 9 0;
#X connect 6 0 11 0;
#X connect 7 0 6 0;
#X connect 7 1 6 2;
#X connect 8 0 6 0;
#X connect 8 1 6 3;
#X connect 9 0 6 0;
#X connect 9 1 6 4;
#X connect 10 0 6 0;
#X connect 10 1 6 1;
#X connect 12 0 13 0;
#X connect 13 0 1 0;
#X connect 13 1 3 0;
#X connect 13 2 2 0;
#X connect 13 3 4 0;
#X connect 13 4 5 0;
#X connect 14 0 19 0;
#X connect 15 0 18 0;
#X connect 16 0 13 0;
#X connect 19 0 5 0;
#X connect 20 0 16 0;
#X coords 0 -1 1 1 120 135 1 100 100;
