#N canvas 212 225 903 607 10;
#X obj 23 37 vsl 15 128 3 1500 1 0 \$0At \$0At At 0 -9 0 10 -261234
-1 -1 0 1;
#X obj 68 37 vsl 15 128 0.001 2 1 0 \$0Sf \$0Sf Sl 0 -9 0 10 -257985
-1 -1 0 1;
#X obj 53 37 vsl 15 128 5 2500 1 0 \$0Dt empty Dt 0 -9 0 10 -203904
-1 -1 0 1;
#X obj 83 37 vsl 15 128 20 2000 1 0 \$0Rt \$0Rt Rt 0 -9 0 10 -204786
-1 -1 0 1;
#X obj 333 -44 inlet;
#X msg 329 -69 Note On;
#X msg 383 -70 Note Off;
#X obj 388 -47 inlet;
#X obj -71 -51 inlet;
#X obj -32 -51 inlet;
#X obj 219 -51 inlet;
#X obj 24 -59 inlet;
#X obj 412 510 outlet~;
#X obj 335 -11 bng 15 250 50 0 empty empty empty 17 7 0 10 -262144
-1 -1;
#X obj 392 -7 bng 15 250 50 0 empty empty empty 17 7 0 10 -262144 -1
-1;
#X obj 530 477 Snapshot~;
#X obj 545 433 r MetroGlobal;
#X obj 555 503 outlet;
#X obj 84 3 bng 15 250 50 0 empty empty I 4 6 0 10 -4034 -1 -1;
#X obj 37 37 vsl 15 128 0.001 2 1 0 \$0Mxf \$0Mxf Mxl 0 -9 0 10 -159808
-1 -1 0 1;
#X obj 8 37 vsl 15 128 0.001 2 1 0 \$0If \$0If Il 0 -9 0 10 -258113
-1 -1 0 1;
#X obj 98 37 vsl 15 128 0.001 2 1 0 \$0Rf \$0Rf Rf 0 -9 0 10 -4034
-1 -1 0 1;
#X obj 101 3 bng 15 250 50 0 empty empty P 4 6 0 10 -258113 -1 -1;
#X obj -75 -29 s \$0At;
#X obj -24 -27 s \$0Dt;
#X obj 226 -29 s \$0Sf;
#X obj 26 -31 s \$0Rt;
#X obj 106 -58 inlet;
#X obj 174 -48 inlet;
#X obj 263 -58 inlet;
#X msg 112 -81 If;
#X msg 177 -79 MxF;
#X msg 220 -77 Sf;
#X msg 254 -82 Rf;
#X msg 32 -81 Rt;
#X msg -28 -80 Dt;
#X msg -66 -82 At;
#X obj 112 -32 s \$0If;
#X obj 171 -27 s \$0Mxf;
#X obj 272 -35 s \$0Rf;
#X obj 238 257 r \$0At;
#X obj 288 258 r \$0Dt;
#X obj 338 258 r \$0Rt;
#X obj 398 257 r \$0If;
#X obj 455 258 r \$0Mxf;
#X obj 513 259 r \$0Sf;
#X obj 564 257 r \$0Rf;
#X floatatom 238 282 5 0 0 0 - - -, f 5;
#X floatatom 288 280 5 0 0 0 - - -, f 5;
#X floatatom 338 280 5 0 0 0 - - -, f 5;
#X floatatom 398 279 5 0 0 0 - - -, f 5;
#X floatatom 455 280 5 0 0 0 - - -, f 5;
#X floatatom 513 281 5 0 0 0 - - -, f 5;
#X floatatom 564 279 5 0 0 0 - - -, f 5;
#X floatatom 511 510 5 0 0 0 - - -, f 5;
#X obj 215 263 bng 15 250 50 0 empty empty empty 17 7 0 10 -262144
-1 -1;
#X obj 568 325 delay;
#X obj 342 174 bng 30 250 50 0 empty empty empty 17 7 0 10 -4034 -1
-1;
#X obj 498 354 pack f f f;
#X msg 503 388 \$2 \$3;
#X text 26 172 A D S R;
#X obj 358 345 pack f f f f;
#X msg 362 381 \$2 \, \$3 \$4;
#X obj 394 170 bng 30 250 50 0 empty empty empty 17 7 0 10 -258113
-1 -1;
#X obj 648 358 pack f f f;
#X msg 652 393 \$2 \$3;
#X obj 392 409 line~;
#X obj 101 260 pack \$0;
#X obj 102 239 bng 15 250 50 0 empty empty empty 17 7 0 10 -262144
-1 -1;
#X msg 108 297 \; \$1At 0;
#X connect 4 0 13 0;
#X connect 7 0 14 0;
#X connect 8 0 23 0;
#X connect 9 0 24 0;
#X connect 10 0 25 0;
#X connect 11 0 26 0;
#X connect 13 0 57 0;
#X connect 14 0 63 0;
#X connect 15 0 17 0;
#X connect 15 0 54 0;
#X connect 16 0 15 0;
#X connect 27 0 37 0;
#X connect 28 0 38 0;
#X connect 29 0 39 0;
#X connect 40 0 47 0;
#X connect 41 0 48 0;
#X connect 42 0 49 0;
#X connect 43 0 50 0;
#X connect 44 0 51 0;
#X connect 45 0 52 0;
#X connect 46 0 53 0;
#X connect 47 0 56 1;
#X connect 47 0 61 3;
#X connect 48 0 58 2;
#X connect 49 0 64 2;
#X connect 50 0 61 1;
#X connect 51 0 61 2;
#X connect 52 0 58 1;
#X connect 53 0 64 1;
#X connect 55 0 50 0;
#X connect 55 0 47 0;
#X connect 55 0 51 0;
#X connect 55 0 48 0;
#X connect 55 0 49 0;
#X connect 55 0 52 0;
#X connect 55 0 53 0;
#X connect 56 0 58 0;
#X connect 57 0 56 0;
#X connect 57 0 61 0;
#X connect 58 0 59 0;
#X connect 59 0 66 0;
#X connect 61 0 62 0;
#X connect 62 0 66 0;
#X connect 63 0 64 0;
#X connect 64 0 65 0;
#X connect 65 0 66 0;
#X connect 66 0 15 0;
#X connect 66 0 12 0;
#X connect 67 0 69 0;
#X connect 68 0 67 0;
#X coords 0 1 1 40 120 200 1 0 0;
