#N canvas 1 151 728 538 10;
#X obj 103 102 cnv 15 115 130 empty empty empty 20 12 0 14 -233017
-66577 0;
#X obj 107 128 vsl 15 100 3 300 1 0 \$0A \$0AIn A 0 -9 0 10 -261234
-1 -1 2588 1;
#X obj 145 128 vsl 15 100 0 1 0 0 \$0S \$0SIn S 0 -9 0 10 -262130 -1
-1 4950 0;
#X obj 126 128 vsl 15 100 5 500 1 0 \$0D \$0DIn D 0 -9 0 10 -203904
-1 -1 7930 1;
#X obj 164 128 vsl 15 100 0 1000 0 0 \$0R \$0RIn R 0 -9 0 10 -204786
-1 -1 1980 1;
#X obj 183 129 vsl 15 100 0 1 0 0 \$0Gain \$0GainIn Gain -5 -9 0 10
-4032 -1 -1 1980 1;
#X obj 106 428 outlet;
#X obj 118 37 inlet;
#X obj 118 66 unpack f f f f f;
#X obj 203 103 bng 15 250 50 0 \$0Panic \$0PanicIn P 5 7 0 10 -258113
-1 -1;
#X obj 237 163 loadbang;
#X obj 187 103 bng 15 250 50 0 \$0Init \$0InitIn I 5 7 0 10 -4034 -1
-1;
#X obj 237 192 s \$0InitIn;
#X msg 225 122 0;
#X obj 235 12 r \$0Init;
#X floatatom 332 178 5 0 0 0 - - -, f 5;
#X obj 332 219 s \$0OSC;
#X obj 332 155 r \$0A;
#X msg 332 197 send /A \$1;
#X floatatom 417 178 5 0 0 0 - - -, f 5;
#X obj 417 220 s \$0OSC;
#X obj 417 155 r \$0D;
#X msg 418 198 send /D \$1;
#X obj 106 360 r \$0OSC;
#X floatatom 331 268 5 0 0 0 - - -, f 5;
#X obj 331 309 s \$0OSC;
#X floatatom 416 268 5 0 0 0 - - -, f 5;
#X obj 416 310 s \$0OSC;
#X obj 331 245 r \$0S;
#X msg 331 287 send /S \$1;
#X obj 416 245 r \$0R;
#X msg 417 288 send /R \$1;
#X floatatom 503 267 5 0 0 0 - - -, f 5;
#X obj 503 309 s \$0OSC;
#X obj 503 244 r \$0Gain;
#X msg 504 287 send /Gain \$1;
#X obj 106 385 packOSC;
#X obj 252 389 unpackOSC;
#N canvas 1 81 450 300 foo 0;
#X obj 106 75 inlet;
#X obj 120 112 bng 15 250 50 0 empty empty empty 17 7 0 10 -262144
-1 -1;
#X floatatom 140 113 5 0 0 0 - - -, f 5;
#X connect 0 0 1 0;
#X connect 0 0 2 0;
#X coords 0 -1 1 1 80 30 1 100 100;
#X restore 167 476 pd foo;
#X obj 252 416 routeOSC /A /D /S /R /Gain;
#N canvas 1 81 450 300 foo 0;
#X obj 106 75 inlet;
#X obj 120 112 bng 15 250 50 0 empty empty empty 17 7 0 10 -262144
-1 -1;
#X floatatom 140 113 5 0 0 0 - - -, f 5;
#X connect 0 0 1 0;
#X connect 0 0 2 0;
#X coords 0 -1 1 1 80 30 1 100 100;
#X restore 252 459 pd foo;
#N canvas 1 81 450 300 foo 0;
#X obj 106 75 inlet;
#X obj 120 112 bng 15 250 50 0 empty empty empty 17 7 0 10 -262144
-1 -1;
#X floatatom 140 113 5 0 0 0 - - -, f 5;
#X connect 0 0 1 0;
#X connect 0 0 2 0;
#X coords 0 -1 1 1 80 30 1 100 100;
#X restore 278 495 pd foo;
#N canvas 1 81 450 300 foo 0;
#X obj 106 75 inlet;
#X obj 120 112 bng 15 250 50 0 empty empty empty 17 7 0 10 -262144
-1 -1;
#X floatatom 140 113 5 0 0 0 - - -, f 5;
#X connect 0 0 1 0;
#X connect 0 0 2 0;
#X coords 0 -1 1 1 80 30 1 100 100;
#X restore 402 446 pd foo;
#N canvas 1 81 450 300 foo 0;
#X obj 106 75 inlet;
#X obj 120 112 bng 15 250 50 0 empty empty empty 17 7 0 10 -262144
-1 -1;
#X floatatom 140 113 5 0 0 0 - - -, f 5;
#X connect 0 0 1 0;
#X connect 0 0 2 0;
#X coords 0 -1 1 1 80 30 1 100 100;
#X restore 363 478 pd foo;
#X msg 474 373 OSC only enabled for output for now....;
#X floatatom 183 237 5 0 0 0 - - -, f 5;
#X msg 229 34 10 200 0.5 200 0.2;
#X connect 5 0 45 0;
#X connect 7 0 8 0;
#X connect 8 0 1 0;
#X connect 8 1 3 0;
#X connect 8 2 2 0;
#X connect 8 3 4 0;
#X connect 8 4 5 0;
#X connect 9 0 13 0;
#X connect 10 0 12 0;
#X connect 13 0 5 0;
#X connect 14 0 46 0;
#X connect 15 0 18 0;
#X connect 17 0 15 0;
#X connect 18 0 16 0;
#X connect 19 0 22 0;
#X connect 21 0 19 0;
#X connect 22 0 20 0;
#X connect 23 0 36 0;
#X connect 24 0 29 0;
#X connect 26 0 31 0;
#X connect 28 0 24 0;
#X connect 29 0 25 0;
#X connect 30 0 26 0;
#X connect 31 0 27 0;
#X connect 32 0 35 0;
#X connect 34 0 32 0;
#X connect 35 0 33 0;
#X connect 36 0 6 0;
#X connect 36 0 37 0;
#X connect 37 0 39 0;
#X connect 39 0 38 0;
#X connect 39 1 40 0;
#X connect 39 2 41 0;
#X connect 39 3 43 0;
#X connect 39 4 42 0;
#X connect 46 0 8 0;
#X coords 0 -1 1 1 120 135 1 100 100;
