#N canvas 2119 212 979 533 10;
#X msg 291 -75 0;
#X obj 504 -103 bng 15 250 50 0 empty empty empty 17 7 0 10 -262144
-1 -1;
#X obj 120 122 hsl 128 15 0.01 10 1 0 empty empty Phase_Rate 7 7 0
10 -4034 -1 -1 10200 1;
#X obj 116 143 hsl 60 15 0 0.5 0 0 \$0PhaseAmt empty Phase_Amt 7 7
0 10 -257985 -1 -1 3800 1;
#X obj 185 144 hsl 60 15 0 1 0 0 \$0PhaseOff empty PhaseLRoffset -2
7 0 10 -257985 -1 -1 2800 1;
#X obj 504 -126 loadbang;
#X obj 148 369 outlet~;
#X obj 212 363 outlet~;
#X obj 59 -77 inlet~;
#X obj 111 -75 inlet~;
#X obj 164 -76 inlet~;
#X obj 276 132 vsl 15 90 0 2 0 0 empty empty empty 0 -9 0 10 -204800
-1 -1 8050 1;
#X obj 135 329 *~;
#X obj 216 327 *~;
#X msg 43 126 0.5;
#X floatatom 366 292 5 0 0 0 - - -;
#X msg 320 110 1;
#X obj 116 164 hsl 128 15 0 1 0 0 \$0PhaseDistance empty Phase_Distance
5 8 0 10 -159808 -262144 -257985 9100 1;
#X obj 271 -99 bng 15 250 50 0 empty empty empty 17 7 0 10 -262144
-1 -1;
#X obj 262 -125 r \$0PhaseDistance;
#X obj 104 187 BillPan2~;
#X obj 264 229 tgl 15 0 empty empty empty 17 7 0 10 -257985 -258113
-1 1 1;
#X obj 104 227 BillPan2~;
#X obj 104 207 BillPan2~;
#X obj 670 -88 phasor~ 1;
#X obj 277 -7 cos~;
#X obj 277 17 *~ 0.5;
#X obj 278 38 +~ 0.5;
#X obj 464 70 cos~;
#X obj 465 92 *~ 0.5;
#X obj 467 113 +~ 0.5;
#X obj 744 105 cos~;
#X obj 744 127 *~ 0.5;
#X obj 743 150 +~ 0.5;
#X obj 682 -113 f;
#X obj 404 193 Snapshot;
#X msg 730 -14 0.66667;
#X obj 741 41 *;
#X obj 773 12 t b f;
#X floatatom 838 3 5 0 0 0 - - -;
#X obj 799 -22 r \$0PhaseDistance;
#X obj 731 -47 bng 15 250 50 0 empty empty empty 17 7 0 10 -262144
-1 -1;
#X obj 736 68 +~;
#X obj 508 27 *;
#X obj 540 -2 t b f;
#X floatatom 546 32 5 0 0 0 - - -;
#X obj 504 -25 r \$0PhaseDistance;
#X obj 479 -21 bng 15 250 50 0 empty empty empty 17 7 0 10 -262144
-1 -1;
#X obj 503 54 +~;
#X msg 478 2 0.333333;
#X obj 782 85 r \$0PhaseAmt;
#X obj 522 71 r \$0PhaseAmt;
#X obj 325 -5 r \$0PhaseAmt;
#X obj 527 94 r \$0PhaseOff;
#X obj 796 123 r \$0PhaseOff;
#X obj 338 16 r \$0PhaseOff;
#X connect 1 0 0 0;
#X connect 1 0 14 0;
#X connect 1 0 16 0;
#X connect 1 0 47 0;
#X connect 1 0 41 0;
#X connect 2 0 34 0;
#X connect 5 0 1 0;
#X connect 8 0 20 0;
#X connect 9 0 23 0;
#X connect 10 0 22 0;
#X connect 11 0 12 1;
#X connect 11 0 13 1;
#X connect 11 0 15 0;
#X connect 12 0 6 0;
#X connect 13 0 7 0;
#X connect 14 0 3 0;
#X connect 14 0 4 0;
#X connect 16 0 11 0;
#X connect 18 0 0 0;
#X connect 19 0 18 0;
#X connect 20 0 12 0;
#X connect 20 1 13 0;
#X connect 21 0 20 2;
#X connect 21 0 22 2;
#X connect 21 0 23 2;
#X connect 22 0 12 0;
#X connect 22 1 13 0;
#X connect 23 0 12 0;
#X connect 23 1 13 0;
#X connect 24 0 25 0;
#X connect 24 0 48 0;
#X connect 24 0 42 0;
#X connect 25 0 26 0;
#X connect 26 0 27 0;
#X connect 27 0 20 1;
#X connect 28 0 29 0;
#X connect 29 0 30 0;
#X connect 30 0 23 1;
#X connect 31 0 32 0;
#X connect 32 0 33 0;
#X connect 33 0 22 1;
#X connect 34 0 24 0;
#X connect 36 0 37 0;
#X connect 37 0 42 1;
#X connect 38 0 37 0;
#X connect 38 1 37 1;
#X connect 40 0 39 0;
#X connect 40 0 38 0;
#X connect 41 0 36 0;
#X connect 42 0 31 0;
#X connect 43 0 48 1;
#X connect 44 0 43 0;
#X connect 44 1 43 1;
#X connect 46 0 45 0;
#X connect 46 0 44 0;
#X connect 47 0 49 0;
#X connect 48 0 28 0;
#X connect 49 0 43 0;
#X connect 50 0 32 1;
#X connect 51 0 29 1;
#X connect 52 0 26 1;
#X connect 53 0 30 1;
#X connect 54 0 33 1;
#X connect 55 0 27 1;
#X coords 0 -1 1 1 200 160 1 100 100;
