#N canvas 377 166 979 533 10;
#X obj 504 -103 bng 15 250 50 0 empty empty empty 17 7 0 10 -262144
-1 -1;
#X obj 120 122 hsl 128 15 0.01 10 1 0 \$0PhaseRate empty Phase_Rate
7 7 0 10 -4034 -1 -1 6400 1;
#X obj 116 143 hsl 60 15 0 0.5 0 0 \$0PhaseAmt empty Phase_Amt 7 7
0 10 -257985 -1 -1 5900 1;
#X obj 185 144 hsl 60 15 0 1 0 0 \$0PhaseOff empty PhaseLRoffset -2
7 0 10 -257985 -1 -1 2950 1;
#X obj 504 -126 loadbang;
#X obj 148 369 outlet~;
#X obj 212 363 outlet~;
#X obj 59 -77 inlet~;
#X obj 111 -75 inlet~;
#X obj 164 -76 inlet~;
#X obj 276 132 vsl 15 90 0 2 0 0 empty empty empty 0 -9 0 10 -204800
-1 -1 4450 1;
#X obj 135 329 *~;
#X obj 216 327 *~;
#X msg 43 126 0.5;
#X floatatom 366 292 5 0 0 0 - - -, f 5;
#X msg 320 110 1;
#X obj 116 162 hsl 128 15 0 1 0 0 \$0PhaseDistance empty Phase_Distance
5 8 0 10 -159808 -262144 -257985 8400 1;
#X obj 108 184 BillPan2~;
#X obj 264 229 tgl 15 0 empty empty empty 17 7 0 10 -257985 -258113
-1 0 1;
#X obj 108 216 BillPan2~;
#X obj 108 200 BillPan2~;
#X obj 670 -88 phasor~ 1;
#X obj 600 237 DVM~;
#X msg 696 14 0.66667;
#X obj 694 -46 bng 15 250 50 0 empty empty empty 17 7 0 10 -262144
-1 -1;
#X obj 479 -21 bng 15 250 50 0 empty empty empty 17 7 0 10 -262144
-1 -1;
#X msg 478 2 0.333333;
#X obj 777 -91 bng 15 250 50 0 empty empty empty 17 7 0 10 -4034 -1
-1;
#X obj 670 -111 r \$0PhaseRate, f 14;
#X obj 729 -77 s~ \$0MasterPhasor;
#N canvas 1 109 450 300 PanLogic 0;
#X obj 214 139 cos~;
#X obj 214 161 *~ 0.5;
#X obj 214 185 +~ 0.5;
#X obj 211 75 *;
#X obj 243 46 t b f;
#X floatatom 303 38 5 0 0 0 - - -, f 5;
#X obj 265 18 r \$0PhaseDistance;
#X obj 206 102 +~;
#X obj 252 119 r \$0PhaseAmt;
#X obj 266 157 r \$0PhaseOff;
#X obj 72 39 r~ \$0MasterPhasor;
#X obj 215 0 inlet;
#X obj 214 224 outlet~;
#X floatatom 215 22 5 0 0 0 - - -, f 5;
#X connect 0 0 1 0;
#X connect 1 0 2 0;
#X connect 2 0 12 0;
#X connect 3 0 7 1;
#X connect 4 0 3 0;
#X connect 4 1 3 1;
#X connect 6 0 5 0;
#X connect 6 0 4 0;
#X connect 7 0 0 0;
#X connect 8 0 1 1;
#X connect 9 0 2 1;
#X connect 10 0 7 0;
#X connect 11 0 13 0;
#X connect 13 0 3 0;
#X restore 480 64 pd PanLogic;
#X obj 333 -19 bng 15 250 50 0 empty empty empty 17 7 0 10 -262144
-1 -1;
#X msg 333 4 0;
#X obj 256 -43 bng 15 250 50 0 empty empty empty 17 7 0 10 -262144
-1 -1;
#X obj 247 -69 r \$0PhaseDistance;
#N canvas 1 109 450 300 PanLogic 0;
#X obj 214 139 cos~;
#X obj 214 161 *~ 0.5;
#X obj 214 185 +~ 0.5;
#X obj 211 75 *;
#X obj 243 46 t b f;
#X floatatom 303 38 5 0 0 0 - - -, f 5;
#X obj 265 18 r \$0PhaseDistance;
#X obj 206 102 +~;
#X obj 252 119 r \$0PhaseAmt;
#X obj 266 157 r \$0PhaseOff;
#X obj 72 39 r~ \$0MasterPhasor;
#X obj 215 0 inlet;
#X obj 214 224 outlet~;
#X floatatom 215 22 5 0 0 0 - - -, f 5;
#X connect 0 0 1 0;
#X connect 1 0 2 0;
#X connect 2 0 12 0;
#X connect 3 0 7 1;
#X connect 4 0 3 0;
#X connect 4 1 3 1;
#X connect 6 0 5 0;
#X connect 6 0 4 0;
#X connect 7 0 0 0;
#X connect 8 0 1 1;
#X connect 9 0 2 1;
#X connect 10 0 7 0;
#X connect 11 0 13 0;
#X connect 13 0 3 0;
#X restore 342 33 pd PanLogic;
#N canvas 1 109 450 300 PanLogic 0;
#X obj 214 139 cos~;
#X obj 214 161 *~ 0.5;
#X obj 214 185 +~ 0.5;
#X obj 211 75 *;
#X obj 243 46 t b f;
#X floatatom 303 38 5 0 0 0 - - -, f 5;
#X obj 265 18 r \$0PhaseDistance;
#X obj 206 102 +~;
#X obj 252 119 r \$0PhaseAmt;
#X obj 266 157 r \$0PhaseOff;
#X obj 72 39 r~ \$0MasterPhasor;
#X obj 215 0 inlet;
#X obj 214 224 outlet~;
#X floatatom 215 22 5 0 0 0 - - -, f 5;
#X connect 0 0 1 0;
#X connect 1 0 2 0;
#X connect 2 0 12 0;
#X connect 3 0 7 1;
#X connect 4 0 3 0;
#X connect 4 1 3 1;
#X connect 6 0 5 0;
#X connect 6 0 4 0;
#X connect 7 0 0 0;
#X connect 8 0 1 1;
#X connect 9 0 2 1;
#X connect 10 0 7 0;
#X connect 11 0 13 0;
#X connect 13 0 3 0;
#X restore 689 121 pd PanLogic;
#X connect 0 0 13 0;
#X connect 0 0 15 0;
#X connect 0 0 25 0;
#X connect 0 0 24 0;
#X connect 0 0 31 0;
#X connect 4 0 0 0;
#X connect 7 0 17 0;
#X connect 8 0 20 0;
#X connect 9 0 19 0;
#X connect 10 0 11 1;
#X connect 10 0 12 1;
#X connect 10 0 14 0;
#X connect 11 0 5 0;
#X connect 12 0 6 0;
#X connect 13 0 2 0;
#X connect 13 0 3 0;
#X connect 15 0 10 0;
#X connect 17 0 11 0;
#X connect 17 1 12 0;
#X connect 18 0 17 2;
#X connect 18 0 19 2;
#X connect 18 0 20 2;
#X connect 19 0 11 0;
#X connect 19 1 12 0;
#X connect 20 0 11 0;
#X connect 20 1 12 0;
#X connect 21 0 29 0;
#X connect 23 0 36 0;
#X connect 24 0 23 0;
#X connect 25 0 26 0;
#X connect 26 0 30 0;
#X connect 28 0 21 0;
#X connect 28 0 27 0;
#X connect 30 0 20 1;
#X connect 31 0 32 0;
#X connect 32 0 35 0;
#X connect 34 0 33 0;
#X connect 35 0 17 1;
#X connect 36 0 19 1;
#X coords 0 -1 1 1 200 160 1 100 100;
