#N canvas 20 198 1185 495 10;
#X obj 154 127 bng 15 250 50 0 \$0Reset \$0ResetIn reset -15 20 0 10
-258113 -1 -1;
#X obj 727 428 hsl 128 15 0.01 20 1 0 empty empty Phase_Speed_Scaled
7 7 0 10 -4034 -1 -1 7779 1;
#X obj 515 357 hsl 70 15 0.04 1 1 0 empty empty Phase_Amt 2 7 0 10
-232576 -1 -1 3812 1;
#X obj 381 30 loadbang;
#X obj 117 174 hsl 120 15 0.03 6 1 0 \$0PhaseDisp \$0PhaseDispIn Phase_Disp
0 8 0 10 -159808 -1 -1 6100 0;
#X obj 178 128 hsl 65 15 1 127 1 0 \$0PhaseScaleHi empty PhaseScaleHi
0 8 0 10 -203904 -1 -1 2300 0;
#X obj 74 568 outlet~;
#X obj 186 567 outlet~;
#X obj 300 568 outlet~;
#X obj 130 569 s \$0p1;
#X obj 359 569 s \$0p3;
#X obj 245 567 s \$0p2;
#X obj 138 388 DVM~;
#X obj 302 219 inlet~;
#X obj 301 243 delwrite~ \$0FOO 5000;
#X obj 1004 79 line~;
#X msg 1003 54 \$1 50;
#X obj 687 65 r \$0PhaseAmt;
#X obj 631 181 line~;
#X msg 630 161 \$1 50;
#X obj 412 178 line~;
#X msg 411 154 \$1 50;
#X obj 411 131 r \$0PhaseOffset;
#X obj 108 156 hsl 128 15 0.1 1 0 0 \$0PhaseSpeed \$0PhaseSpeedIn PhaseSpeed
7 8 0 10 -4034 -1 -1 9100 0;
#X floatatom 506 341 5 0 0 0 - - -, f 5;
#X floatatom 743 383 7 0 0 0 - - -, f 7;
#X obj 506 376 s \$0PhaseAmt;
#X floatatom 242 172 5 0 0 0 - - -, f 5;
#X obj 172 106 hsl 70 15 0.3 5 1 0 \$0PhaseScaleLo \$0PhaseScaleLoIn
PhaseScaleLo 0 7 0 10 -203904 -1 -1 2600 0;
#X obj 781 134 *;
#X obj 796 93 t b f;
#X obj 454 281 r \$0PhaseSpeed;
#X msg 794 37 This is Phase Depth;
#X msg 203 33 0.6;
#X obj 107 116 hsl 40 15 0 1 0 0 \$0RateComp \$0RateCompIn RateComp
-2 -5 0 10 -232576 -1 -1 2600 0;
#X obj 588 281 t b f;
#X msg 362 105 18;
#X floatatom 103 134 5 0 0 0 - - -, f 5;
#X floatatom 778 158 5 0 0 0 - - -, f 5;
#N canvas 316 261 601 477 InPhaseComp 0;
#X floatatom 325 199 5 0 0 0 - - -, f 5;
#X obj 307 175 < 0.02;
#X obj 289 240 *;
#X floatatom 231 238 5 0 0 0 - - -, f 5;
#X obj 252 140 * 30;
#X obj 247 207 -;
#X floatatom 288 314 5 0 0 0 - - -, f 5;
#X msg 289 265 1 \$1;
#X obj 271 289 -;
#X obj 275 104 inlet;
#X msg 279 81 Phase Delta;
#X msg 82 30 As Phase Delta approaches zero reduce final output by
factor;
#X obj 261 347 outlet;
#X obj 103 113 tgl 15 0 empty empty COMP 17 7 0 10 -4034 -1 -1 0 1
;
#X obj 107 132 hsl 40 15 0 1 0 0 empty empty empty -2 -8 0 10 -262144
-1 -1 1170 1;
#X floatatom 100 171 5 0 0 0 - - -, f 5;
#X obj 240 179 t b f;
#X obj 156 133 bng 15 250 50 0 empty empty empty 17 7 0 10 -262144
-1 -1;
#X msg 59 110 0.3;
#X obj 66 65 loadbang;
#X connect 1 0 0 0;
#X connect 1 0 2 1;
#X connect 1 0 13 0;
#X connect 2 0 7 0;
#X connect 4 0 16 0;
#X connect 5 0 3 0;
#X connect 5 0 2 0;
#X connect 7 0 8 0;
#X connect 8 0 6 0;
#X connect 8 0 12 0;
#X connect 9 0 4 0;
#X connect 9 0 1 0;
#X connect 14 0 15 0;
#X connect 14 0 5 0;
#X connect 16 0 5 0;
#X connect 16 1 5 1;
#X connect 17 0 18 0;
#X connect 18 0 14 0;
#X connect 19 0 18 0;
#X coords 0 -1 1 1 50 55 1 100 100;
#X restore 778 178 pd InPhaseComp;
#X floatatom 797 243 5 0 0 0 - - -, f 5;
#X obj 753 269 s \$0InPhaseComp;
#X obj 757 406 s \$0PhaseRateComp;
#X obj 412 198 s~ \$0PhaseOffsetSmooth;
#X obj 628 207 s~ \$0PhaseAmtSmooth;
#X obj 961 244 phasor~;
#X obj 962 215 r \$0PhaseRateComp;
#X floatatom 1036 240 5 0 0 0 - - -, f 5;
#X obj 331 358 r \$0PhaseDisp;
#X floatatom 397 377 5 0 0 0 - - -, f 5;
#X obj 186 503 bng 15 250 50 0 empty empty empty 17 7 0 10 -258113
-1 -1;
#X obj 384 417 line~;
#X msg 383 393 \$1 300;
#N canvas 1 199 1049 548 MIDI 0;
#X obj 79 9 ctlin;
#X obj 108 372 / 127;
#X floatatom 158 387 5 0 0 0 - - -, f 5;
#X obj 109 427 s \$0PhaseSpeedIn;
#X obj 113 33 * 100;
#X obj 95 56 +;
#X obj 120 238 bng 15 250 50 0 empty empty empty 17 7 0 10 -262144
-1 -1;
#X floatatom 114 77 5 0 0 0 - - -, f 5;
#X msg 228 28 KorgNano = 1;
#X msg 228 76 MPD18 = 33;
#X msg 227 52 KorgMicro37 = 17;
#X obj 106 284 spigot;
#X floatatom 105 307 5 0 0 0 - - -, f 5;
#X obj 145 261 tgl 15 0 empty empty empty 17 7 0 10 -262144 -1 -1 0
1;
#X obj 17 51 f;
#X floatatom 17 76 5 0 0 0 - - -, f 5;
#X obj 17 98 s \$0CtlVal;
#X obj 289 237 bng 15 250 50 0 empty empty empty 17 7 0 10 -262144
-1 -1;
#X obj 275 285 spigot;
#X floatatom 274 308 5 0 0 0 - - -, f 5;
#X obj 314 260 tgl 15 0 empty empty empty 17 7 0 10 -262144 -1 -1 0
1;
#X obj 95 99 s \$0CtlNum;
#X obj 478 237 bng 15 250 50 0 empty empty empty 17 7 0 10 -262144
-1 -1;
#X obj 464 283 spigot;
#X floatatom 463 306 5 0 0 0 - - -, f 5;
#X obj 438 172 r \$0CtlNum;
#X obj 288 161 r \$0CtlNum;
#X obj 88 172 r \$0CtlNum;
#X obj 233 262 r \$0CtlVal;
#X obj 43 261 r \$0CtlVal;
#X obj 421 261 r \$0CtlVal;
#X obj 503 260 tgl 15 0 empty empty empty 17 7 0 10 -262144 -1 -1 0
1;
#X floatatom 159 240 5 0 0 0 - - -, f 5;
#X obj 141 215 == 100;
#X obj 311 214 == 101;
#X obj 264 364 / 127;
#X floatatom 274 393 5 0 0 0 - - -, f 5;
#X obj 450 350 / 127;
#X floatatom 460 379 5 0 0 0 - - -, f 5;
#X obj 502 216 == 102;
#X obj 515 378 * 5;
#X obj 626 235 bng 15 250 50 0 empty empty empty 17 7 0 10 -262144
-1 -1;
#X obj 612 281 spigot;
#X floatatom 611 304 5 0 0 0 - - -, f 5;
#X obj 647 173 r \$0CtlNum;
#X obj 569 259 r \$0CtlVal;
#X obj 651 258 tgl 15 0 empty empty empty 17 7 0 10 -262144 -1 -1 0
1;
#X obj 598 348 / 127;
#X floatatom 608 377 5 0 0 0 - - -, f 5;
#X obj 661 367 * 5;
#X obj 650 214 == 103;
#X obj 602 414 s \$0PhaseOffsetIn;
#X obj 265 418 s \$0PhaseDispIn;
#X floatatom 453 477 5 0 0 0 - - -, f 5;
#X obj 495 438 + 0.3;
#X obj 106 399 + 0.05;
#X msg 480 17 33;
#X msg 523 19 1;
#X msg 568 20 17;
#X msg 377 169 1;
#X msg 560 167 2;
#X msg 736 175 3;
#X obj 515 53 * 100;
#X obj 542 187 +;
#X obj 350 190 +, f 4;
#X obj 708 197 +, f 4;
#X obj 514 77 t f b;
#X floatatom 730 225 5 0 0 0 - - -, f 5;
#X floatatom 560 217 5 0 0 0 - - -, f 5;
#X floatatom 377 216 5 0 0 0 - - -, f 5;
#X obj 186 192 +, f 4;
#X floatatom 213 218 5 0 0 0 - - -, f 5;
#X msg 213 171 0;
#X obj 497 466 s \$0PhaseScaleLoIn;
#X floatatom 66 413 5 0 0 0 - - -, f 5;
#X floatatom 661 389 5 0 0 0 - - -, f 5;
#X connect 0 0 14 0;
#X connect 0 1 5 0;
#X connect 0 2 4 0;
#X connect 1 0 2 0;
#X connect 1 0 55 0;
#X connect 4 0 5 1;
#X connect 5 0 7 0;
#X connect 5 0 21 0;
#X connect 11 0 12 0;
#X connect 12 0 1 0;
#X connect 13 0 11 1;
#X connect 14 0 15 0;
#X connect 15 0 16 0;
#X connect 18 0 19 0;
#X connect 19 0 35 0;
#X connect 20 0 18 1;
#X connect 23 0 24 0;
#X connect 24 0 37 0;
#X connect 25 0 39 0;
#X connect 26 0 34 0;
#X connect 27 0 33 0;
#X connect 28 0 18 0;
#X connect 29 0 11 0;
#X connect 30 0 23 0;
#X connect 31 0 23 1;
#X connect 33 0 6 0;
#X connect 33 0 13 0;
#X connect 33 0 32 0;
#X connect 34 0 17 0;
#X connect 34 0 20 0;
#X connect 35 0 36 0;
#X connect 35 0 52 0;
#X connect 37 0 38 0;
#X connect 37 0 40 0;
#X connect 39 0 22 0;
#X connect 39 0 31 0;
#X connect 40 0 54 0;
#X connect 42 0 43 0;
#X connect 43 0 47 0;
#X connect 44 0 50 0;
#X connect 45 0 42 0;
#X connect 46 0 42 1;
#X connect 47 0 48 0;
#X connect 47 0 49 0;
#X connect 49 0 51 0;
#X connect 49 0 75 0;
#X connect 50 0 41 0;
#X connect 50 0 46 0;
#X connect 54 0 73 0;
#X connect 54 0 53 0;
#X connect 55 0 3 0;
#X connect 55 0 74 0;
#X connect 56 0 62 0;
#X connect 57 0 62 0;
#X connect 58 0 62 0;
#X connect 59 0 64 1;
#X connect 60 0 63 1;
#X connect 61 0 65 1;
#X connect 62 0 66 0;
#X connect 63 0 39 1;
#X connect 63 0 68 0;
#X connect 64 0 34 1;
#X connect 64 0 69 0;
#X connect 65 0 50 1;
#X connect 65 0 67 0;
#X connect 66 0 64 0;
#X connect 66 0 63 0;
#X connect 66 0 65 0;
#X connect 66 0 70 0;
#X connect 66 1 60 0;
#X connect 66 1 61 0;
#X connect 66 1 59 0;
#X connect 66 1 72 0;
#X connect 70 0 71 0;
#X connect 70 0 33 1;
#X connect 72 0 70 1;
#X restore 179 361 pd MIDI stuff;
#X obj 611 246 r \$0RateComp;
#X obj 159 62 s \$0RateCompIn;
#X obj 187 483 r \$0Reset;
#X obj 304 78 s \$0ResetIn;
#X obj 293 56 bng 15 250 50 0 empty empty empty 17 7 0 10 -258113 -1
-1;
#X obj 1003 32 r \$0PhaseScaleHi;
#X obj 1004 103 s~ \$0PhaseScaleHiRamp;
#X obj 457 308 bng 15 250 50 0 empty empty empty 17 7 0 10 -4034 -1
-1;
#X obj 129 1003 bng 15 250 50 0 empty empty empty 17 7 0 10 -262144
-1 -1;
#X obj 125 1029 bng 15 250 50 0 empty empty empty 17 7 0 10 -262144
-1 -1;
#X obj 127 879 bng 15 250 50 0 empty empty empty 17 7 0 10 -262144
-1 -1;
#X obj 2 -18 bng 15 250 50 0 empty empty empty 17 7 0 10 -262144 -1
-1;
#X obj 0 -142 bng 15 250 50 0 empty empty empty 17 7 0 10 -262144 -1
-1;
#X obj 302 505 bng 15 250 50 0 empty empty empty 17 7 0 10 -258113
-1 -1;
#X obj 302 483 r \$0Reset;
#X obj 409 570 outlet~;
#X obj 410 509 bng 15 250 50 0 empty empty empty 17 7 0 10 -258113
-1 -1;
#X obj 410 487 r \$0Reset;
#X obj 525 572 outlet~;
#X obj 525 506 bng 15 250 50 0 empty empty empty 17 7 0 10 -258113
-1 -1;
#X obj 525 484 r \$0Reset;
#X obj 647 573 outlet~;
#X obj 647 513 bng 15 250 50 0 empty empty empty 17 7 0 10 -258113
-1 -1;
#X obj 647 491 r \$0Reset;
#X obj 758 576 outlet~;
#X obj 759 510 bng 15 250 50 0 empty empty empty 17 7 0 10 -258113
-1 -1;
#X obj 759 488 r \$0Reset;
#X obj 872 574 outlet~;
#X obj 869 510 bng 15 250 50 0 empty empty empty 17 7 0 10 -258113
-1 -1;
#X obj 869 488 r \$0Reset;
#X obj 979 572 outlet~;
#X msg 978 531 0.66667;
#X obj 978 513 bng 15 250 50 0 empty empty empty 17 7 0 10 -258113
-1 -1;
#X obj 978 490 r \$0Reset;
#X obj 1089 573 outlet~;
#X obj 1092 507 bng 15 250 50 0 empty empty empty 17 7 0 10 -258113
-1 -1;
#X obj 1092 485 r \$0Reset;
#X obj 1203 575 outlet~;
#X obj 1206 509 bng 15 250 50 0 empty empty empty 17 7 0 10 -258113
-1 -1;
#X obj 1203 487 r \$0Reset;
#X obj 1316 574 outlet~;
#X obj 1316 514 bng 15 250 50 0 empty empty empty 17 7 0 10 -258113
-1 -1;
#X obj 1316 492 r \$0Reset;
#X obj 470 572 s \$0p4;
#X obj 587 574 s \$0p5;
#X obj 708 576 s \$0p6;
#X obj 819 578 s \$0p7;
#X obj 928 573 s \$0p8;
#X obj 1037 574 s \$0p9;
#X obj 1144 574 s \$0p10;
#X obj 1255 575 s \$0p11;
#X obj 1372 575 s \$0p12;
#X msg 186 522 0.0833333;
#X msg 302 524 0.166667;
#X msg 410 528 0.25;
#X msg 526 525 0.333333;
#X msg 647 531 0.416667;
#X msg 759 529 0.5;
#X msg 869 529 0.583333;
#X msg 1092 526 0.75;
#X msg 1203 527 0.833333;
#X msg 1316 532 0.916667;
#X obj 382 440 s~ \$0PhaseDispRamp;
#X obj 963 269 s~ \$0MasterPhasor;
#X obj 332 386 bng 15 250 50 0 empty empty empty 17 7 0 10 -159808
-1 -1;
#N canvas 1 151 1185 701 PhaserUnit1 0;
#X obj 161 141 *~;
#X obj 237 192 r MetroGlobal;
#X obj 160 162 vd~ \$0FOO;
#X obj 226 102 *~;
#X obj 227 123 +~;
#X obj 161 270 *~;
#X obj 247 244 r \$0InPhaseComp;
#X obj 275 101 r~ \$0PhaseOffsetSmooth;
#X obj 277 84 r~ \$0PhaseAmtSmooth;
#X obj 212 81 cos~ 1;
#X obj 229 214 Snapshot~;
#X obj 32 113 r~ \$0PhaseScaleHiRamp;
#X obj 160 292 outlet~, f 8;
#X obj 229 275 outlet;
#X obj 212 60 +~;
#X obj 269 37 *~;
#X obj 269 13 r~ \$0PhaseDispRamp;
#X obj 416 13 inlet~;
#X obj 73 31 r~ \$0MasterPhasor;
#X connect 0 0 2 0;
#X connect 1 0 10 0;
#X connect 2 0 5 0;
#X connect 3 0 4 0;
#X connect 4 0 0 0;
#X connect 4 0 10 0;
#X connect 5 0 12 0;
#X connect 6 0 5 1;
#X connect 7 0 4 1;
#X connect 8 0 3 1;
#X connect 9 0 3 0;
#X connect 10 0 13 0;
#X connect 11 0 0 1;
#X connect 14 0 9 0;
#X connect 15 0 14 1;
#X connect 16 0 15 0;
#X connect 17 0 15 1;
#X connect 18 0 14 0;
#X restore 301 546 pd PhaserUnit1;
#N canvas 1 165 1185 701 PhaserUnit1 0;
#X obj 161 141 *~;
#X obj 237 192 r MetroGlobal;
#X obj 160 162 vd~ \$0FOO;
#X obj 226 102 *~;
#X obj 227 123 +~;
#X obj 161 270 *~;
#X obj 247 244 r \$0InPhaseComp;
#X obj 275 101 r~ \$0PhaseOffsetSmooth;
#X obj 277 84 r~ \$0PhaseAmtSmooth;
#X obj 212 81 cos~ 1;
#X obj 229 214 Snapshot~;
#X obj 32 113 r~ \$0PhaseScaleHiRamp;
#X obj 160 292 outlet~, f 8;
#X obj 229 275 outlet;
#X obj 212 60 +~;
#X obj 269 37 *~;
#X obj 269 13 r~ \$0PhaseDispRamp;
#X obj 416 13 inlet~;
#X obj 73 31 r~ \$0MasterPhasor;
#X obj 527 273 DVM~;
#X floatatom 278 378 5 0 0 0 - - -, f 5;
#X obj 338 212 bng 15 250 50 0 empty empty empty 17 7 0 10 -262144
-1 -1;
#X connect 0 0 2 0;
#X connect 1 0 10 0;
#X connect 1 0 21 0;
#X connect 2 0 5 0;
#X connect 3 0 4 0;
#X connect 3 0 19 0;
#X connect 4 0 0 0;
#X connect 4 0 10 0;
#X connect 5 0 12 0;
#X connect 6 0 5 1;
#X connect 7 0 4 1;
#X connect 8 0 3 1;
#X connect 9 0 3 0;
#X connect 10 0 13 0;
#X connect 10 0 20 0;
#X connect 11 0 0 1;
#X connect 14 0 9 0;
#X connect 15 0 14 1;
#X connect 16 0 15 0;
#X connect 17 0 15 1;
#X connect 18 0 14 0;
#X restore 526 548 pd PhaserUnit1;
#N canvas 0 308 1185 701 PhaserUnit1 0;
#X obj 226 154 *~;
#X obj 418 182 r MetroGlobal;
#X obj 225 175 vd~ \$0FOO;
#X obj 226 102 *~;
#X obj 227 123 +~;
#X obj 226 283 *~;
#X obj 251 256 r \$0InPhaseComp;
#X obj 275 101 r~ \$0PhaseOffsetSmooth;
#X obj 277 84 r~ \$0PhaseAmtSmooth;
#X obj 212 81 cos~ 1;
#X obj 439 230 Snapshot~;
#X obj 279 128 r~ \$0PhaseScaleHiRamp;
#X obj 225 305 outlet~, f 8;
#X obj 439 301 outlet;
#X obj 212 60 +~;
#X obj 269 37 *~;
#X obj 269 13 r~ \$0PhaseDispRamp;
#X obj 416 13 inlet~;
#X obj 73 31 r~ \$0MasterPhasor;
#X obj 30 157 DVM~;
#X connect 0 0 2 0;
#X connect 1 0 10 0;
#X connect 2 0 5 0;
#X connect 3 0 4 0;
#X connect 4 0 0 0;
#X connect 4 0 10 0;
#X connect 5 0 12 0;
#X connect 6 0 5 1;
#X connect 7 0 4 1;
#X connect 8 0 3 1;
#X connect 9 0 3 0;
#X connect 10 0 13 0;
#X connect 11 0 0 1;
#X connect 14 0 9 0;
#X connect 15 0 14 1;
#X connect 16 0 15 0;
#X connect 17 0 15 1;
#X connect 18 0 14 0;
#X connect 18 0 19 0;
#X restore 410 548 pd PhaserUnit1;
#N canvas 1 151 1185 701 PhaserUnit1 0;
#X obj 161 141 *~;
#X obj 237 192 r MetroGlobal;
#X obj 160 162 vd~ \$0FOO;
#X obj 226 102 *~;
#X obj 227 123 +~;
#X obj 161 270 *~;
#X obj 247 244 r \$0InPhaseComp;
#X obj 275 101 r~ \$0PhaseOffsetSmooth;
#X obj 277 84 r~ \$0PhaseAmtSmooth;
#X obj 212 81 cos~ 1;
#X obj 229 214 Snapshot~;
#X obj 32 113 r~ \$0PhaseScaleHiRamp;
#X obj 160 292 outlet~, f 8;
#X obj 229 275 outlet;
#X obj 212 60 +~;
#X obj 269 37 *~;
#X obj 269 13 r~ \$0PhaseDispRamp;
#X obj 416 13 inlet~;
#X obj 73 31 r~ \$0MasterPhasor;
#X connect 0 0 2 0;
#X connect 1 0 10 0;
#X connect 2 0 5 0;
#X connect 3 0 4 0;
#X connect 4 0 0 0;
#X connect 4 0 10 0;
#X connect 5 0 12 0;
#X connect 6 0 5 1;
#X connect 7 0 4 1;
#X connect 8 0 3 1;
#X connect 9 0 3 0;
#X connect 10 0 13 0;
#X connect 11 0 0 1;
#X connect 14 0 9 0;
#X connect 15 0 14 1;
#X connect 16 0 15 0;
#X connect 17 0 15 1;
#X connect 18 0 14 0;
#X restore 759 553 pd PhaserUnit1;
#N canvas 0 213 1185 701 PhaserUnit1 0;
#X obj 161 141 *~;
#X obj 237 192 r MetroGlobal;
#X obj 160 162 vd~ \$0FOO;
#X obj 226 102 *~;
#X obj 227 123 +~;
#X obj 161 270 *~;
#X obj 247 244 r \$0InPhaseComp;
#X obj 275 101 r~ \$0PhaseOffsetSmooth;
#X obj 277 84 r~ \$0PhaseAmtSmooth;
#X obj 223 68 cos~ 1;
#X obj 229 214 Snapshot~;
#X obj 32 113 r~ \$0PhaseScaleHiRamp;
#X obj 160 292 outlet~, f 8;
#X obj 229 275 outlet;
#X obj 173 29 +~;
#X obj 230 6 *~;
#X obj 230 -18 r~ \$0PhaseDispRamp;
#X obj 416 13 inlet~;
#X obj 34 0 r~ \$0MasterPhasor;
#X connect 0 0 2 0;
#X connect 1 0 10 0;
#X connect 2 0 5 0;
#X connect 3 0 4 0;
#X connect 4 0 0 0;
#X connect 4 0 10 0;
#X connect 5 0 12 0;
#X connect 6 0 5 1;
#X connect 7 0 4 1;
#X connect 8 0 3 1;
#X connect 9 0 3 0;
#X connect 10 0 13 0;
#X connect 11 0 0 1;
#X connect 14 0 9 0;
#X connect 15 0 14 1;
#X connect 16 0 15 0;
#X connect 17 0 15 1;
#X connect 18 0 14 0;
#X restore 647 553 pd PhaserUnit1;
#N canvas 1 151 1185 701 PhaserUnit1 0;
#X obj 161 141 *~;
#X obj 237 192 r MetroGlobal;
#X obj 160 162 vd~ \$0FOO;
#X obj 226 102 *~;
#X obj 227 123 +~;
#X obj 161 270 *~;
#X obj 247 244 r \$0InPhaseComp;
#X obj 275 101 r~ \$0PhaseOffsetSmooth;
#X obj 277 84 r~ \$0PhaseAmtSmooth;
#X obj 212 81 cos~ 1;
#X obj 229 214 Snapshot~;
#X obj 32 113 r~ \$0PhaseScaleHiRamp;
#X obj 160 292 outlet~, f 8;
#X obj 229 275 outlet;
#X obj 212 60 +~;
#X obj 269 37 *~;
#X obj 269 13 r~ \$0PhaseDispRamp;
#X obj 416 13 inlet~;
#X obj 73 31 r~ \$0MasterPhasor;
#X connect 0 0 2 0;
#X connect 1 0 10 0;
#X connect 2 0 5 0;
#X connect 3 0 4 0;
#X connect 4 0 0 0;
#X connect 4 0 10 0;
#X connect 5 0 12 0;
#X connect 6 0 5 1;
#X connect 7 0 4 1;
#X connect 8 0 3 1;
#X connect 9 0 3 0;
#X connect 10 0 13 0;
#X connect 11 0 0 1;
#X connect 14 0 9 0;
#X connect 15 0 14 1;
#X connect 16 0 15 0;
#X connect 17 0 15 1;
#X connect 18 0 14 0;
#X restore 978 551 pd PhaserUnit1;
#N canvas 1 151 1185 701 PhaserUnit1 0;
#X obj 161 141 *~;
#X obj 237 192 r MetroGlobal;
#X obj 160 162 vd~ \$0FOO;
#X obj 226 102 *~;
#X obj 227 123 +~;
#X obj 161 270 *~;
#X obj 247 244 r \$0InPhaseComp;
#X obj 275 101 r~ \$0PhaseOffsetSmooth;
#X obj 277 84 r~ \$0PhaseAmtSmooth;
#X obj 212 81 cos~ 1;
#X obj 229 214 Snapshot~;
#X obj 32 113 r~ \$0PhaseScaleHiRamp;
#X obj 160 292 outlet~, f 8;
#X obj 229 275 outlet;
#X obj 212 60 +~;
#X obj 269 37 *~;
#X obj 269 13 r~ \$0PhaseDispRamp;
#X obj 416 13 inlet~;
#X obj 73 31 r~ \$0MasterPhasor;
#X connect 0 0 2 0;
#X connect 1 0 10 0;
#X connect 2 0 5 0;
#X connect 3 0 4 0;
#X connect 4 0 0 0;
#X connect 4 0 10 0;
#X connect 5 0 12 0;
#X connect 6 0 5 1;
#X connect 7 0 4 1;
#X connect 8 0 3 1;
#X connect 9 0 3 0;
#X connect 10 0 13 0;
#X connect 11 0 0 1;
#X connect 14 0 9 0;
#X connect 15 0 14 1;
#X connect 16 0 15 0;
#X connect 17 0 15 1;
#X connect 18 0 14 0;
#X restore 870 551 pd PhaserUnit1;
#N canvas 1 151 1185 701 PhaserUnit1 0;
#X obj 161 141 *~;
#X obj 237 192 r MetroGlobal;
#X obj 160 162 vd~ \$0FOO;
#X obj 226 102 *~;
#X obj 227 123 +~;
#X obj 161 270 *~;
#X obj 247 244 r \$0InPhaseComp;
#X obj 275 101 r~ \$0PhaseOffsetSmooth;
#X obj 277 84 r~ \$0PhaseAmtSmooth;
#X obj 212 81 cos~ 1;
#X obj 229 214 Snapshot~;
#X obj 32 113 r~ \$0PhaseScaleHiRamp;
#X obj 160 292 outlet~, f 8;
#X obj 229 275 outlet;
#X obj 212 60 +~;
#X obj 269 37 *~;
#X obj 269 13 r~ \$0PhaseDispRamp;
#X obj 416 13 inlet~;
#X obj 73 31 r~ \$0MasterPhasor;
#X connect 0 0 2 0;
#X connect 1 0 10 0;
#X connect 2 0 5 0;
#X connect 3 0 4 0;
#X connect 4 0 0 0;
#X connect 4 0 10 0;
#X connect 5 0 12 0;
#X connect 6 0 5 1;
#X connect 7 0 4 1;
#X connect 8 0 3 1;
#X connect 9 0 3 0;
#X connect 10 0 13 0;
#X connect 11 0 0 1;
#X connect 14 0 9 0;
#X connect 15 0 14 1;
#X connect 16 0 15 0;
#X connect 17 0 15 1;
#X connect 18 0 14 0;
#X restore 1203 550 pd PhaserUnit1;
#N canvas 1 151 1185 701 PhaserUnit1 0;
#X obj 161 141 *~;
#X obj 237 192 r MetroGlobal;
#X obj 160 162 vd~ \$0FOO;
#X obj 226 102 *~;
#X obj 227 123 +~;
#X obj 161 270 *~;
#X obj 247 244 r \$0InPhaseComp;
#X obj 275 101 r~ \$0PhaseOffsetSmooth;
#X obj 277 84 r~ \$0PhaseAmtSmooth;
#X obj 212 81 cos~ 1;
#X obj 229 214 Snapshot~;
#X obj 32 113 r~ \$0PhaseScaleHiRamp;
#X obj 160 292 outlet~, f 8;
#X obj 229 275 outlet;
#X obj 212 60 +~;
#X obj 269 37 *~;
#X obj 269 13 r~ \$0PhaseDispRamp;
#X obj 416 13 inlet~;
#X obj 73 31 r~ \$0MasterPhasor;
#X connect 0 0 2 0;
#X connect 1 0 10 0;
#X connect 2 0 5 0;
#X connect 3 0 4 0;
#X connect 4 0 0 0;
#X connect 4 0 10 0;
#X connect 5 0 12 0;
#X connect 6 0 5 1;
#X connect 7 0 4 1;
#X connect 8 0 3 1;
#X connect 9 0 3 0;
#X connect 10 0 13 0;
#X connect 11 0 0 1;
#X connect 14 0 9 0;
#X connect 15 0 14 1;
#X connect 16 0 15 0;
#X connect 17 0 15 1;
#X connect 18 0 14 0;
#X restore 1090 552 pd PhaserUnit1;
#N canvas 1 165 1185 701 PhaserUnit1 0;
#X obj 161 141 *~;
#X obj 237 192 r MetroGlobal;
#X obj 160 162 vd~ \$0FOO;
#X obj 226 102 *~;
#X obj 227 123 +~;
#X obj 161 270 *~;
#X obj 247 244 r \$0InPhaseComp;
#X obj 275 101 r~ \$0PhaseOffsetSmooth;
#X obj 277 84 r~ \$0PhaseAmtSmooth;
#X obj 212 81 cos~ 1;
#X obj 229 214 Snapshot~;
#X obj 32 113 r~ \$0PhaseScaleHiRamp;
#X obj 160 292 outlet~, f 8;
#X obj 229 275 outlet;
#X obj 212 60 +~;
#X obj 269 37 *~;
#X obj 269 13 r~ \$0PhaseDispRamp;
#X obj 416 13 inlet~;
#X obj 73 31 r~ \$0MasterPhasor;
#X obj 349 215 bng 15 250 50 0 empty empty empty 17 7 0 10 -262144
-1 -1;
#X connect 0 0 2 0;
#X connect 1 0 10 0;
#X connect 1 0 19 0;
#X connect 2 0 5 0;
#X connect 3 0 4 0;
#X connect 4 0 0 0;
#X connect 4 0 10 0;
#X connect 5 0 12 0;
#X connect 6 0 5 1;
#X connect 7 0 4 1;
#X connect 8 0 3 1;
#X connect 9 0 3 0;
#X connect 10 0 13 0;
#X connect 11 0 0 1;
#X connect 14 0 9 0;
#X connect 15 0 14 1;
#X connect 16 0 15 0;
#X connect 17 0 15 1;
#X connect 18 0 14 0;
#X restore 186 545 pd PhaserUnit1;
#N canvas 1 151 1185 701 PhaserUnit1 0;
#X obj 161 141 *~;
#X obj 237 192 r MetroGlobal;
#X obj 160 162 vd~ \$0FOO;
#X obj 226 102 *~;
#X obj 227 123 +~;
#X obj 161 270 *~;
#X obj 247 244 r \$0InPhaseComp;
#X obj 275 101 r~ \$0PhaseOffsetSmooth;
#X obj 277 84 r~ \$0PhaseAmtSmooth;
#X obj 212 81 cos~ 1;
#X obj 229 214 Snapshot~;
#X obj 32 113 r~ \$0PhaseScaleHiRamp;
#X obj 160 292 outlet~, f 8;
#X obj 229 275 outlet;
#X obj 212 60 +~;
#X obj 269 37 *~;
#X obj 269 13 r~ \$0PhaseDispRamp;
#X obj 416 13 inlet~;
#X obj 73 31 r~ \$0MasterPhasor;
#X connect 0 0 2 0;
#X connect 1 0 10 0;
#X connect 2 0 5 0;
#X connect 3 0 4 0;
#X connect 4 0 0 0;
#X connect 4 0 10 0;
#X connect 5 0 12 0;
#X connect 6 0 5 1;
#X connect 7 0 4 1;
#X connect 8 0 3 1;
#X connect 9 0 3 0;
#X connect 10 0 13 0;
#X connect 11 0 0 1;
#X connect 14 0 9 0;
#X connect 15 0 14 1;
#X connect 16 0 15 0;
#X connect 17 0 15 1;
#X connect 18 0 14 0;
#X restore 1316 554 pd PhaserUnit1;
#X obj 75 502 bng 15 250 50 0 empty empty empty 17 7 0 10 -258113 -1
-1;
#X obj 75 482 r \$0Reset;
#N canvas 1 151 1185 701 PhaserUnit1 0;
#X obj 161 141 *~;
#X obj 237 192 r MetroGlobal;
#X obj 160 162 vd~ \$0FOO;
#X obj 226 102 *~;
#X obj 227 123 +~;
#X obj 161 270 *~;
#X obj 247 244 r \$0InPhaseComp;
#X obj 275 101 r~ \$0PhaseOffsetSmooth;
#X obj 277 84 r~ \$0PhaseAmtSmooth;
#X obj 212 81 cos~ 1;
#X obj 229 214 Snapshot~;
#X obj 32 113 r~ \$0PhaseScaleHiRamp;
#X obj 160 292 outlet~, f 8;
#X obj 229 275 outlet;
#X obj 212 60 +~;
#X obj 269 37 *~;
#X obj 269 13 r~ \$0PhaseDispRamp;
#X obj 416 13 inlet~;
#X obj 73 31 r~ \$0MasterPhasor;
#X connect 0 0 2 0;
#X connect 1 0 10 0;
#X connect 2 0 5 0;
#X connect 3 0 4 0;
#X connect 4 0 0 0;
#X connect 4 0 10 0;
#X connect 5 0 12 0;
#X connect 6 0 5 1;
#X connect 7 0 4 1;
#X connect 8 0 3 1;
#X connect 9 0 3 0;
#X connect 10 0 13 0;
#X connect 11 0 0 1;
#X connect 14 0 9 0;
#X connect 15 0 14 1;
#X connect 16 0 15 0;
#X connect 17 0 15 1;
#X connect 18 0 14 0;
#X restore 75 544 pd PhaserUnit1;
#X msg 75 523 0;
#X obj 1385 409 bng 15 250 50 0 empty empty empty 17 7 0 10 -262144
-1 -1;
#X obj 1712 424 bng 15 250 50 0 empty empty empty 17 7 0 10 -262144
-1 -1;
#X obj 565 57 r MetroGlobal;
#X obj 565 76 bng 15 250 50 0 empty empty empty 17 7 0 10 -262144 -1
-1;
#X obj 1069 54 bng 15 250 50 0 empty empty empty 17 7 0 10 -203904
-1 -1;
#X floatatom 960 33 5 0 0 0 - - -, f 5;
#X floatatom 314 173 5 0 0 0 - - -, f 5;
#X obj 465 154 bng 15 250 50 0 empty empty empty 17 7 0 10 -257985
-1 -1;
#X obj 490 157 nbx 5 14 -1e+37 1e+37 0 0 empty empty empty 0 -8 0 10
-257985 -1 -1 0.5 256;
#N canvas 1 67 450 300 Reset 0;
#X msg 138 154 0.5;
#X obj 194 164 s \$0PhaseRateIn;
#X obj 149 214 s \$0PhaseOffsetIn;
#X obj 159 191 s \$0PhaseAmtIn;
#X msg 192 141 aet 1;
#X obj 137 120 r \$0Reset;
#X obj 111 150 bng 15 250 50 0 empty empty empty 17 7 0 10 -258113
-1 -1;
#X connect 0 0 2 0;
#X connect 0 0 3 0;
#X connect 4 0 1 0;
#X connect 5 0 0 0;
#X connect 5 0 4 0;
#X connect 5 0 6 0;
#X restore 928 146 pd Reset Logic;
#X obj 647 287 nbx 5 14 -1e+37 1e+37 0 0 empty empty empty 0 -8 0 12
-232576 -1 -1 0.666667 256;
#X obj 719 92 nbx 5 14 -1e+37 1e+37 0 0 empty empty empty 0 -8 0 12
-232576 -1 -1 0.236745 256;
#X obj 863 92 nbx 5 14 -1e+37 1e+37 0 0 empty empty empty 0 -8 0 12
-203904 -1 -1 0.86602 256;
#X obj 796 61 r \$0PhaseScaleLo;
#X obj 122 194 vsl 8 100 0 1 0 0 empty \$0p2 empty 0 -9 0 10 -260097
-1 -1 6875 1;
#X obj 114 194 vsl 8 100 0 1 0 0 empty \$0p1 empty 0 -9 0 10 -260097
-1 -1 6972 1;
#X obj 138 194 vsl 8 100 0 1 0 0 empty \$0p4 empty 0 -9 0 10 -260097
-1 -1 6368 1;
#X obj 130 194 vsl 8 100 0 1 0 0 empty \$0p3 empty 0 -9 0 10 -260097
-1 -1 6670 1;
#X obj 154 194 vsl 8 100 0 1 0 0 empty \$0p6 empty 0 -9 0 10 -260097
-1 -1 5546 1;
#X obj 146 194 vsl 8 100 0 1 0 0 empty \$0p5 empty 0 -9 0 10 -260097
-1 -1 5986 1;
#X obj 170 194 vsl 8 100 0 1 0 0 empty \$0p8 empty 0 -9 0 10 -260097
-1 -1 4593 1;
#X obj 162 194 vsl 8 100 0 1 0 0 empty \$0p7 empty 0 -9 0 10 -260097
-1 -1 5073 1;
#X obj 186 194 vsl 8 100 0 1 0 0 empty \$0p10 empty 0 -9 0 10 -260097
-1 -1 3719 1;
#X obj 178 194 vsl 8 100 0 1 0 0 empty \$0p9 empty 0 -9 0 10 -260097
-1 -1 4133 1;
#X obj 202 194 vsl 8 100 0 1 0 0 empty \$0p12 empty 0 -9 0 10 -260097
-1 -1 3117 1;
#X obj 194 194 vsl 8 100 0 1 0 0 empty \$0p11 empty 0 -9 0 10 -260097
-1 -1 3374 1;
#X obj 221 209 vsl 15 80 -0 1.3 0 0 \$0PhaseOffset \$0PhaseOffsetIn
Ph_Off 0 -9 0 8 -257985 -1 -1 3038 1;
#X obj 744 344 expr pow($f1 \, 10)*20;
#X obj 720 318 r \$0PhaseSpeed;
#X obj 723 345 bng 15 250 50 0 empty empty empty 17 7 0 10 -4034 -1
-1;
#X obj 507 312 expr (1.1-$f1)*$f2;
#X msg 806 374 Take linear 0-1 make exp 0-20?;
#X connect 3 0 36 0;
#X connect 3 0 33 0;
#X connect 3 0 58 0;
#X connect 13 0 14 0;
#X connect 15 0 60 0;
#X connect 16 0 15 0;
#X connect 17 0 29 0;
#X connect 17 0 145 0;
#X connect 18 0 44 0;
#X connect 18 0 12 0;
#X connect 19 0 18 0;
#X connect 20 0 43 0;
#X connect 21 0 20 0;
#X connect 22 0 21 0;
#X connect 22 0 141 0;
#X connect 22 0 142 0;
#X connect 23 0 27 0;
#X connect 24 0 26 0;
#X connect 24 0 2 0;
#X connect 25 0 42 0;
#X connect 25 0 1 0;
#X connect 29 0 19 0;
#X connect 29 0 38 0;
#X connect 30 0 29 0;
#X connect 30 1 29 1;
#X connect 31 0 61 0;
#X connect 31 0 164 0;
#X connect 33 0 55 0;
#X connect 34 0 37 0;
#X connect 35 0 164 0;
#X connect 35 1 164 1;
#X connect 36 0 5 0;
#X connect 38 0 39 0;
#X connect 39 0 40 0;
#X connect 39 0 41 0;
#X connect 45 0 117 0;
#X connect 46 0 47 0;
#X connect 46 0 45 0;
#X connect 48 0 49 0;
#X connect 48 0 52 0;
#X connect 48 0 118 0;
#X connect 50 0 106 0;
#X connect 51 0 116 0;
#X connect 52 0 51 0;
#X connect 54 0 35 0;
#X connect 54 0 144 0;
#X connect 56 0 50 0;
#X connect 58 0 57 0;
#X connect 59 0 16 0;
#X connect 59 0 138 0;
#X connect 59 0 139 0;
#X connect 67 0 107 0;
#X connect 68 0 67 0;
#X connect 70 0 108 0;
#X connect 71 0 70 0;
#X connect 73 0 109 0;
#X connect 74 0 73 0;
#X connect 76 0 110 0;
#X connect 77 0 76 0;
#X connect 79 0 111 0;
#X connect 80 0 79 0;
#X connect 82 0 112 0;
#X connect 83 0 82 0;
#X connect 85 0 124 0;
#X connect 86 0 85 0;
#X connect 87 0 86 0;
#X connect 89 0 113 0;
#X connect 90 0 89 0;
#X connect 92 0 114 0;
#X connect 93 0 92 0;
#X connect 95 0 115 0;
#X connect 96 0 95 0;
#X connect 106 0 128 0;
#X connect 107 0 119 0;
#X connect 108 0 121 0;
#X connect 109 0 120 0;
#X connect 110 0 123 0;
#X connect 111 0 122 0;
#X connect 112 0 125 0;
#X connect 113 0 127 0;
#X connect 114 0 126 0;
#X connect 115 0 129 0;
#X connect 119 0 8 0;
#X connect 119 1 10 0;
#X connect 120 0 72 0;
#X connect 120 1 98 0;
#X connect 121 0 69 0;
#X connect 121 1 97 0;
#X connect 122 0 78 0;
#X connect 122 1 100 0;
#X connect 123 0 75 0;
#X connect 123 1 99 0;
#X connect 124 0 84 0;
#X connect 124 1 102 0;
#X connect 125 0 81 0;
#X connect 125 1 101 0;
#X connect 126 0 91 0;
#X connect 126 1 104 0;
#X connect 127 0 88 0;
#X connect 127 1 103 0;
#X connect 128 0 7 0;
#X connect 128 1 11 0;
#X connect 129 0 94 0;
#X connect 129 1 105 0;
#X connect 130 0 133 0;
#X connect 131 0 130 0;
#X connect 132 0 6 0;
#X connect 132 1 9 0;
#X connect 133 0 132 0;
#X connect 136 0 137 0;
#X connect 147 0 30 0;
#X connect 147 0 146 0;
#X connect 161 0 25 0;
#X connect 162 0 163 0;
#X connect 162 0 161 0;
#X connect 164 0 24 0;
#X coords 0 -1 1 1 150 200 1 100 100;
