#N canvas 437 186 1401 754 10;
#X obj 64 136 multi-osc~;
#X obj 264 769 output~;
#X obj 59 642 delwrite~ FOO 5000;
#X obj 303 398 sig~;
#X floatatom 303 375 5 0 0 0 - - -;
#X obj 616 690 vd~ FOO;
#X obj 771 3 MetroGlobal;
#X obj 665 609 osc~ 1;
#X obj 840 613 osc~ 1;
#X obj 1024 611 osc~ 1;
#X msg 710 564 0;
#X msg 895 479 0.3333;
#X msg 1042 492 0.66667;
#X obj 923 432 bng 15 250 50 0 empty empty empty 17 7 0 10 -262144
-1 -1;
#X obj 1035 371 hsl 128 15 0.01 10 1 0 \$0PhaseRate \$0PhaseRateIn
Phase_Rate 7 7 0 10 -4034 -1 -1 6800 1;
#X obj 1032 345 hsl 60 15 0.005 0.5 1 0 \$0PhaseAmt \$0PhaseAmtIn Phase_Amt
7 7 0 10 -203904 -1 -1 4700 1;
#X obj 1102 345 hsl 60 15 1 0 0 0 \$0PhaseOffset \$0PhaseOffsetIn PhaseLRoffset
-2 7 0 10 -257985 -1 -1 3800 1;
#X obj 923 409 loadbang;
#X floatatom 1165 371 5 0 0 0 - - -;
#X obj 678 630 *~ 0.5;
#X obj 679 651 +~ 0.5;
#X obj 839 636 *~ 0.5;
#X obj 841 661 +~ 0.5;
#X obj 1023 637 *~ 0.5;
#X obj 1025 657 +~ 0.5;
#X msg 1137 478 0.5;
#X msg 840 421 1;
#X msg 941 503 1;
#X obj 1036 394 hsl 120 15 0 1 0 0 \$0PhaseDisp empty Phase_Disp 0
8 0 10 -159808 -1 -1 5900 1;
#X obj 862 506 *;
#X floatatom 1164 392 5 0 0 0 - #0PhaseDisp -;
#X obj 1042 517 *;
#X obj 770 468 r \$0PhaseDisp;
#X obj 937 526 s \$0PhaseRateIn;
#X obj 609 579 r \$0PhaseRate;
#X obj 1105 528 s \$0PhaseOffsetIn;
#X obj 727 633 r \$0PhaseOffset;
#X obj 817 587 r \$0PhaseRate;
#X obj 993 575 r \$0PhaseRate;
#X obj 893 638 r \$0PhaseOffset;
#X obj 1086 623 r \$0PhaseOffset;
#X obj 1188 496 s \$0PhaseAmtIn;
#X obj 1085 603 r \$0PhaseAmt;
#X obj 890 616 r \$0PhaseAmt;
#X obj 713 608 r \$0PhaseAmt;
#X floatatom 609 613 5 0 0 0 - - -;
#X obj 372 770 DVM~;
#X obj 618 668 *~;
#X obj 582 463 hsl 128 15 0 127 0 0 \$0PhaseFinal empty Phase_Final
-2 -8 0 10 -203904 -1 -1 2071 1;
#X obj 716 824 vd~ FOO;
#X obj 717 803 *~;
#X obj 813 827 vd~ FOO;
#X obj 816 806 *~;
#X obj 80 51 hsl 128 15 0 1 0 0 empty empty Duty -2 -8 0 10 -262144
-1 -1 10400 1;
#X obj 79 75 sig~;
#X floatatom 531 492 5 0 0 0 - - -;
#X obj 680 746 hsl 128 15 0 1 0 0 empty empty empty -2 -8 0 10 -260097
-1 -1 8904 1;
#X obj 675 674 expr~ 1-pow($v1 \, 2) \; 1-pow(1-$v1 \, 2);
#X obj 687 702 r MetroGlobal;
#X obj 676 721 Snapshot~;
#X obj 680 768 hsl 128 15 0 1 0 0 empty empty empty -2 -8 0 10 -260097
-1 -1 12076 1;
#X obj 842 683 expr~ 1-pow($v1 \, 2) \; 1-pow(1-$v1 \, 2);
#X obj 852 717 r MetroGlobal;
#X obj 842 737 Snapshot~;
#X obj 680 790 hsl 128 15 0 1 0 0 empty empty empty -2 -8 0 10 -260097
-1 -1 11562 1;
#X obj 1025 685 expr~ 1-pow($v1 \, 2) \; 1-pow(1-$v1 \, 2);
#X obj 1035 719 r MetroGlobal;
#X obj 1026 739 Snapshot~;
#X obj 51 723 billverb~;
#X obj 286 -16 kbd;
#X floatatom 614 102 5 0 0 0 - - -;
#X floatatom 266 88 5 0 0 0 - - -;
#N canvas 2117 28 665 629 LFO 0;
#X obj 11 12 bendin;
#X floatatom 11 39 5 0 0 0 - - -;
#X obj 7 113 / 8192;
#X floatatom 8 142 5 0 0 0 - - -;
#X obj 7 165 - 1;
#X floatatom 8 191 5 0 0 0 - - -;
#X obj 107 143 hsl 60 15 0 24 0 0 empty empty semitones 5 8 0 10 -203904
-1 -1 2000 1;
#X floatatom 172 143 5 0 0 0 - - -;
#X obj 59 104 int;
#X obj 15 228 *;
#X obj 51 182 t b f;
#X floatatom 15 296 5 0 0 0 - - -;
#X obj 448 16 ctlin;
#X floatatom 422 102 5 0 0 0 - - -;
#X floatatom 466 59 5 0 0 0 - - -;
#X floatatom 607 57 5 0 0 0 - - -;
#X obj 57 36 nbx 5 20 -1e+037 1e+037 0 0 empty empty channel 0 -8 0
15 -261234 -1 -1 2 256;
#X obj 264 85 osc~ 5;
#X obj 106 163 hsl 60 15 0 30 0 0 empty empty empty -2 -8 0 10 -262144
-1 -1 0 1;
#X floatatom 172 181 5 0 0 0 - - -;
#X obj 274 197 DVM~;
#X obj 107 181 hsl 60 15 0 5 0 0 empty empty empty -2 -8 0 10 -262144
-1 -1 5900 1;
#X obj 264 143 *~;
#X obj 15 324 outlet;
#X obj 184 351 outlet~;
#X msg 185 325 LFO out semitones;
#X msg 15 351 BendOnlySemitones;
#X obj 106 121 hsl 60 15 0 127 0 0 \$0MidiIn empty MIDI_In 5 8 0 10
-4032 -1 -1 2400 1;
#X obj 166 17 inlet;
#X floatatom 468 111 5 0 0 0 - - -;
#X obj 466 85 expr ($f1 == 1) && ($f2 == 2);
#X obj 440 149 spigot;
#X obj 473 128 tgl 15 0 empty empty empty 17 7 0 10 -262144 -1 -1 1
1;
#X msg 503 60 controller #;
#X msg 645 54 MIDI channel;
#X obj 443 173 / 127;
#X floatatom 443 195 5 0 0 0 - - -;
#X obj 428 222 *;
#X floatatom 172 163 5 0 0 0 - - -;
#X obj 346 333 +;
#X obj 389 308 t f b;
#X obj 61 322 s \$0BendSemitones;
#X obj 389 288 r \$0BendSemitones;
#X obj 313 291 r \$0MidiIn;
#X obj 344 370 outlet;
#X connect 0 0 1 0;
#X connect 0 1 16 0;
#X connect 1 0 2 0;
#X connect 2 0 3 0;
#X connect 3 0 4 0;
#X connect 4 0 5 0;
#X connect 5 0 9 0;
#X connect 6 0 8 0;
#X connect 8 0 7 0;
#X connect 8 0 10 0;
#X connect 9 0 11 0;
#X connect 10 0 9 0;
#X connect 10 1 9 1;
#X connect 11 0 23 0;
#X connect 11 0 41 0;
#X connect 12 0 13 0;
#X connect 12 1 14 0;
#X connect 12 2 15 0;
#X connect 13 0 31 0;
#X connect 14 0 30 0;
#X connect 15 0 30 1;
#X connect 17 0 22 0;
#X connect 18 0 17 0;
#X connect 18 0 38 0;
#X connect 21 0 19 0;
#X connect 21 0 37 0;
#X connect 22 0 20 0;
#X connect 22 0 24 0;
#X connect 28 0 27 0;
#X connect 29 0 32 0;
#X connect 30 0 29 0;
#X connect 31 0 35 0;
#X connect 32 0 31 1;
#X connect 35 0 36 0;
#X connect 36 0 37 1;
#X connect 37 0 22 1;
#X connect 40 0 39 0;
#X connect 40 1 39 1;
#X connect 42 0 40 0;
#X connect 43 0 39 0;
#X coords 0 -1 1 1 110 100 1 100 100;
#X restore 847 99 pd LFO;
#X obj 42 447 vowellfilter1;
#X obj 339 125 FormantControl;
#X obj 395 310 KeyBender;
#X obj 266 582 AutoPan3~;
#X connect 0 0 73 0;
#X connect 4 0 3 0;
#X connect 5 0 76 0;
#X connect 7 0 19 0;
#X connect 8 0 21 0;
#X connect 9 0 23 0;
#X connect 10 0 7 1;
#X connect 11 0 29 1;
#X connect 12 0 31 1;
#X connect 13 0 11 0;
#X connect 13 0 10 0;
#X connect 13 0 12 0;
#X connect 13 0 25 0;
#X connect 13 0 26 0;
#X connect 13 0 27 0;
#X connect 14 0 18 0;
#X connect 17 0 13 0;
#X connect 19 0 20 0;
#X connect 20 0 47 0;
#X connect 20 0 57 0;
#X connect 21 0 22 0;
#X connect 22 0 50 0;
#X connect 22 0 61 0;
#X connect 23 0 24 0;
#X connect 24 0 52 0;
#X connect 24 0 65 0;
#X connect 25 0 35 0;
#X connect 25 0 41 0;
#X connect 27 0 33 0;
#X connect 29 0 8 1;
#X connect 31 0 9 1;
#X connect 32 0 10 0;
#X connect 32 0 29 0;
#X connect 32 0 31 0;
#X connect 34 0 7 0;
#X connect 34 0 45 0;
#X connect 36 0 20 1;
#X connect 37 0 8 0;
#X connect 38 0 9 0;
#X connect 39 0 22 1;
#X connect 40 0 24 1;
#X connect 42 0 23 1;
#X connect 43 0 21 1;
#X connect 44 0 19 1;
#X connect 47 0 5 0;
#X connect 48 0 47 1;
#X connect 48 0 50 1;
#X connect 48 0 52 1;
#X connect 48 0 55 0;
#X connect 49 0 76 1;
#X connect 50 0 49 0;
#X connect 51 0 76 2;
#X connect 52 0 51 0;
#X connect 53 0 54 0;
#X connect 54 0 0 2;
#X connect 57 0 59 0;
#X connect 58 0 59 0;
#X connect 59 0 56 0;
#X connect 61 0 63 0;
#X connect 62 0 63 0;
#X connect 63 0 60 0;
#X connect 65 0 67 0;
#X connect 66 0 67 0;
#X connect 67 0 64 0;
#X connect 68 0 1 0;
#X connect 68 1 1 1;
#X connect 69 0 71 0;
#X connect 69 1 0 0;
#X connect 69 1 70 0;
#X connect 73 0 2 0;
#X connect 74 0 73 1;
#X connect 75 1 73 3;
#X connect 76 0 68 0;
#X connect 76 1 68 1;
