#N canvas 1 67 1185 701 10;
#X obj 156 115 bng 15 250 50 0 \$0Reset \$0ResetIn reset 0 -5 0 10
-258113 -1 -1;
#X obj 727 428 hsl 128 15 0.01 20 1 0 empty empty Phase_Speed_Scaled
7 7 0 10 -4034 -1 -1 0 1;
#X obj 113 161 hsl 130 15 0.03 5.9 1 0 \$0PhaseDisp \$0PhaseDispIn
Phase_Disp 0 8 0 10 -159808 -1 -1 8421 0;
#X obj 178 115 hsl 65 15 1 127 1 0 \$0PhaseScaleHi \$0PhaseScaleHi
PhaseScaleHi 0 8 0 10 -203904 -1 -1 3819 0;
#X obj 74 592 outlet~;
#X obj 186 591 outlet~;
#X obj 300 592 outlet~;
#X obj 130 593 s \$0p1;
#X obj 359 593 s \$0p3;
#X obj 245 591 s \$0p2;
#X obj 544 333 DVM~;
#X obj 298 230 inlet~;
#X obj 1004 79 line~;
#X msg 1003 54 \$1 50;
#X obj 784 181 line~;
#X msg 783 161 \$1 50;
#X obj 412 178 line~;
#X obj 411 131 r \$0PhaseOffset;
#X obj 115 145 hsl 128 15 0.4 1 1 0 \$0PhaseSpeed \$0PhaseSpeedIn PhaseSpeed
7 8 0 10 -4034 -1 -1 0 0;
#X floatatom 743 383 7 0 0 0 - - -, f 7;
#X floatatom 272 161 5 0 0 0 - - -, f 5;
#X obj 113 130 hsl 130 15 0.05 5 1 0 \$0PhaseScaleLo \$0PhaseScaleLoIn
PhaseScaleLo 0 7 0 10 -203904 -1 -1 7469 0;
#X obj 781 134 *;
#X obj 796 93 t b f;
#X msg 794 37 This is Phase Depth;
#X obj 47 86 hsl 40 15 0 1 0 0 \$0RateComp \$0RateCompIn RateComp -2
-5 0 10 -232576 -1 -1 2340 0;
#X floatatom 44 123 5 0 0 0 - - -, f 5;
#X obj 757 406 s \$0PhaseRateComp;
#X obj 534 230 s~ \$0PhaseOffsetSmooth;
#X obj 781 207 s~ \$0PhaseAmtSmooth;
#X obj 961 244 phasor~;
#X obj 962 215 r \$0PhaseRateComp;
#X floatatom 1036 240 5 0 0 0 - - -, f 5;
#X obj 331 358 r \$0PhaseDisp;
#X floatatom 397 377 5 0 0 0 - - -, f 5;
#X obj 198 503 bng 15 250 50 0 empty empty empty 17 7 0 10 -258113
-1 -1;
#X obj 384 417 line~;
#N canvas 27 251 1049 548 MIDI 0;
#X obj 263 9 ctlin;
#X floatatom 347 272 5 0 0 0 - - -, f 5;
#X obj 347 336 s \$0PhaseSpeedIn;
#X obj 297 33 * 100;
#X obj 279 56 +;
#X floatatom 298 77 5 0 0 0 - - -, f 5;
#X msg 363 26 KorgNano = 1;
#X msg 363 74 MPD18 = 33;
#X msg 362 50 KorgMicro37 = 17;
#X obj 201 51 f;
#X floatatom 201 76 5 0 0 0 - - -, f 5;
#X obj 201 98 s \$0CtlVal;
#X obj 279 99 s \$0CtlNum;
#X floatatom 483 331 5 0 0 0 - - -, f 5;
#X obj 195 270 * 5;
#X floatatom 761 306 5 0 0 0 - - -, f 5;
#X obj 484 352 s \$0PhaseDispIn;
#X floatatom 195 320 5 0 0 0 - - -, f 5;
#X obj 347 294 + 0.05;
#X msg 483 20 33;
#X msg 517 18 1;
#X msg 562 19 17;
#X msg 347 181 1;
#X msg 482 179 2;
#X obj 514 49 * 100;
#X obj 514 73 t f b;
#X msg 195 177 0;
#X obj 195 343 s \$0PhaseScaleLoIn;
#X floatatom 347 316 5 0 0 0 - - -, f 5;
#X floatatom 762 399 5 0 0 0 - - -, f 5;
#X msg 897 277 0;
#X floatatom 1037 303 5 0 0 0 - - -, f 5;
#X obj 1037 325 - 2;
#X obj 1463 582 bng 15 250 50 0 empty empty empty 17 7 0 10 -262144
-1 -1;
#X obj 1037 373 abs;
#X obj 1038 394 sqrt;
#X floatatom 1037 349 5 0 0 0 - - -, f 5;
#X floatatom 989 418 5 0 0 0 - - -, f 5;
#X floatatom 989 462 5 0 0 0 - - -, f 5;
#X obj 989 440 + 1;
#X floatatom 1038 416 5 0 0 0 - - -, f 5;
#X msg 1188 281 0;
#X msg 762 417 \$1 50;
#X msg 1020 553 \$1 50;
#X obj 761 440 line;
#X obj 761 461 s \$0PhaseOffsetIn;
#X obj 1019 604 s \$0DopplerIn;
#X obj 1019 580 line;
#X obj 443 99 s \$0MidiCtlCh;
#X obj 593 97 s \$0MidiCtlChBang;
#X obj 195 153 r \$0MidiCtlChBang;
#N canvas 649 169 450 300 CTL 0;
#X obj 94 228 / 127;
#X obj 94 182 spigot;
#X floatatom 94 205 5 0 0 0 - - -, f 5;
#X obj 148 141 tgl 15 0 empty empty empty 17 7 0 10 -262144 -1 -1 0
1;
#X obj 72 57 r \$0CtlNum;
#X obj 16 155 r \$0CtlVal;
#X floatatom 105 122 5 0 0 0 - - -, f 5;
#X obj 119 81 == 100;
#X obj 170 61 +, f 4;
#X floatatom 147 120 5 0 0 0 - - -, f 5;
#X obj 190 28 inlet;
#X obj 71 21 r \$0MidiCtlCh;
#X obj 94 252 outlet;
#X floatatom 106 142 5 0 0 0 - - -, f 5;
#X msg 187 5 MIDI ctl channel;
#X connect 0 0 12 0;
#X connect 0 0 13 0;
#X connect 1 0 2 0;
#X connect 2 0 0 0;
#X connect 3 0 1 1;
#X connect 4 0 7 0;
#X connect 5 0 1 0;
#X connect 7 0 3 0;
#X connect 7 0 6 0;
#X connect 8 0 9 0;
#X connect 8 0 7 1;
#X connect 10 0 8 1;
#X connect 11 0 8 0;
#X coords 0 -1 1 1 85 60 1 100 100;
#X restore 347 208 pd CTL;
#N canvas 1 81 450 300 CTL 0;
#X obj 94 228 / 127;
#X obj 94 182 spigot;
#X floatatom 94 205 5 0 0 0 - - -, f 5;
#X obj 148 141 tgl 15 0 empty empty empty 17 7 0 10 -262144 -1 -1 0
1;
#X obj 72 57 r \$0CtlNum;
#X obj 16 155 r \$0CtlVal;
#X floatatom 105 122 5 0 0 0 - - -, f 5;
#X obj 119 81 == 100;
#X obj 170 61 +, f 4;
#X floatatom 146 121 5 0 0 0 - - -, f 5;
#X obj 190 28 inlet;
#X obj 71 21 r \$0MidiCtlCh;
#X obj 94 252 outlet;
#X floatatom 106 142 5 0 0 0 - - -, f 5;
#X connect 0 0 12 0;
#X connect 0 0 13 0;
#X connect 1 0 2 0;
#X connect 2 0 0 0;
#X connect 3 0 1 1;
#X connect 4 0 7 0;
#X connect 5 0 1 0;
#X connect 7 0 3 0;
#X connect 7 0 6 0;
#X connect 8 0 9 0;
#X connect 8 0 7 1;
#X connect 10 0 8 1;
#X connect 11 0 8 0;
#X coords 0 -1 1 1 85 60 1 100 100;
#X restore 482 202 pd CTL;
#X obj 347 154 r \$0MidiCtlChBang;
#X obj 483 288 pow 2;
#X obj 482 268 * 2.44;
#X obj 483 309 + 0.02;
#X obj 482 156 r \$0MidiCtlChBang;
#N canvas 1 81 450 300 CTL 0;
#X obj 94 228 / 127;
#X obj 94 182 spigot;
#X floatatom 94 205 5 0 0 0 - - -, f 5;
#X obj 148 141 tgl 15 0 empty empty empty 17 7 0 10 -262144 -1 -1 0
1;
#X obj 72 57 r \$0CtlNum;
#X obj 16 155 r \$0CtlVal;
#X floatatom 105 122 5 0 0 0 - - -, f 5;
#X obj 119 81 == 100;
#X obj 170 61 +, f 4;
#X floatatom 146 121 5 0 0 0 - - -, f 5;
#X obj 190 28 inlet;
#X obj 71 21 r \$0MidiCtlCh;
#X obj 94 252 outlet;
#X floatatom 106 142 5 0 0 0 - - -, f 5;
#X connect 0 0 12 0;
#X connect 0 0 13 0;
#X connect 1 0 2 0;
#X connect 2 0 0 0;
#X connect 3 0 1 1;
#X connect 4 0 7 0;
#X connect 5 0 1 0;
#X connect 7 0 3 0;
#X connect 7 0 6 0;
#X connect 8 0 9 0;
#X connect 8 0 7 1;
#X connect 10 0 8 1;
#X connect 11 0 8 0;
#X coords 0 -1 1 1 85 60 1 100 100;
#X restore 195 203 pd CTL;
#X obj 764 156 r \$0MidiCtlChBang;
#N canvas 1 109 450 300 CTL 0;
#X obj 94 228 / 127;
#X obj 94 182 spigot;
#X floatatom 94 205 5 0 0 0 - - -, f 5;
#X obj 148 141 tgl 15 0 empty empty empty 17 7 0 10 -262144 -1 -1 0
1;
#X obj 72 57 r \$0CtlNum;
#X obj 16 155 r \$0CtlVal;
#X floatatom 105 122 5 0 0 0 - - -, f 5;
#X obj 119 81 == 100;
#X obj 170 61 +, f 4;
#X floatatom 146 121 5 0 0 0 - - -, f 5;
#X obj 190 28 inlet;
#X obj 71 21 r \$0MidiCtlCh;
#X obj 94 252 outlet;
#X floatatom 106 142 5 0 0 0 - - -, f 5;
#X connect 0 0 12 0;
#X connect 0 0 13 0;
#X connect 1 0 2 0;
#X connect 2 0 0 0;
#X connect 3 0 1 1;
#X connect 4 0 7 0;
#X connect 5 0 1 0;
#X connect 7 0 3 0;
#X connect 7 0 6 0;
#X connect 8 0 9 0;
#X connect 8 0 7 1;
#X connect 10 0 8 1;
#X connect 11 0 8 0;
#X coords 0 -1 1 1 85 60 1 100 100;
#X restore 761 207 pd CTL;
#N canvas 377 104 739 413 Button 0;
#X obj 332 192 bng 15 250 50 0 empty empty empty 17 7 0 10 -262144
-1 -1;
#X obj 317 238 spigot;
#X floatatom 317 261 5 0 0 0 - - -, f 5;
#X obj 356 129 r \$0CtlNum;
#X obj 275 216 r \$0CtlVal;
#X obj 356 215 tgl 15 0 empty empty empty 17 7 0 10 -262144 -1 -1 0
1;
#X obj 356 171 == 103;
#X obj 414 154 +, f 4;
#X floatatom 132 120 5 0 0 0 - - -, f 5;
#X obj 317 280 == 127;
#X obj 439 69 inlet;
#X obj 320 62 r \$0MidiCtlCh;
#X obj 317 306 outlet;
#X obj 110 139 bng 15 250 50 0 empty empty empty 17 7 0 10 -262144
-1 -1;
#X floatatom 134 138 5 0 0 0 - - -, f 5;
#X connect 1 0 2 0;
#X connect 2 0 9 0;
#X connect 3 0 6 0;
#X connect 4 0 1 0;
#X connect 5 0 1 1;
#X connect 6 0 0 0;
#X connect 6 0 5 0;
#X connect 7 0 6 1;
#X connect 7 0 8 0;
#X connect 9 0 12 0;
#X connect 9 0 14 0;
#X connect 10 0 7 1;
#X connect 11 0 7 0;
#X connect 14 0 13 0;
#X coords 0 -1 1 1 75 60 1 100 100;
#X restore 898 209 pd Button;
#X obj 901 159 r \$0MidiCtlChBang;
#X obj 1189 164 r \$0MidiCtlChBang;
#X obj 1037 279 * 4;
#X obj 1040 165 r \$0MidiCtlChBang;
#N canvas 1 95 450 300 CTL 0;
#X obj 94 228 / 127;
#X obj 94 182 spigot;
#X floatatom 94 205 5 0 0 0 - - -, f 5;
#X obj 148 141 tgl 15 0 empty empty empty 17 7 0 10 -262144 -1 -1 0
1;
#X obj 72 57 r \$0CtlNum;
#X obj 16 155 r \$0CtlVal;
#X floatatom 105 122 5 0 0 0 - - -, f 5;
#X obj 119 81 == 100;
#X obj 170 61 +, f 4;
#X floatatom 146 121 5 0 0 0 - - -, f 5;
#X obj 190 28 inlet;
#X obj 71 21 r \$0MidiCtlCh;
#X obj 94 252 outlet;
#X floatatom 106 142 5 0 0 0 - - -, f 5;
#X connect 0 0 12 0;
#X connect 0 0 13 0;
#X connect 1 0 2 0;
#X connect 2 0 0 0;
#X connect 3 0 1 1;
#X connect 4 0 7 0;
#X connect 5 0 1 0;
#X connect 7 0 3 0;
#X connect 7 0 6 0;
#X connect 8 0 9 0;
#X connect 8 0 7 1;
#X connect 10 0 8 1;
#X connect 11 0 8 0;
#X coords 0 -1 1 1 85 60 1 100 100;
#X restore 1039 214 pd CTL;
#X obj 195 295 + 0.05;
#X obj 1020 484 *;
#X floatatom 1020 530 5 0 0 0 - - -, f 5;
#X obj 989 394 * -2;
#X obj 1020 508 * 3.5;
#N canvas 377 104 739 413 Button 0;
#X obj 332 192 bng 15 250 50 0 empty empty empty 17 7 0 10 -262144
-1 -1;
#X obj 317 238 spigot;
#X floatatom 317 261 5 0 0 0 - - -, f 5;
#X obj 356 129 r \$0CtlNum;
#X obj 275 216 r \$0CtlVal;
#X obj 356 215 tgl 15 0 empty empty empty 17 7 0 10 -262144 -1 -1 0
1;
#X obj 356 171 == 103;
#X obj 414 154 +, f 4;
#X floatatom 132 120 5 0 0 0 - - -, f 5;
#X obj 317 280 == 127;
#X obj 439 69 inlet;
#X obj 320 62 r \$0MidiCtlCh;
#X obj 317 306 outlet;
#X obj 110 139 bng 15 250 50 0 empty empty empty 17 7 0 10 -262144
-1 -1;
#X floatatom 134 138 5 0 0 0 - - -, f 5;
#X connect 1 0 2 0;
#X connect 2 0 9 0;
#X connect 3 0 6 0;
#X connect 4 0 1 0;
#X connect 5 0 1 1;
#X connect 6 0 0 0;
#X connect 6 0 5 0;
#X connect 7 0 6 1;
#X connect 7 0 8 0;
#X connect 9 0 12 0;
#X connect 9 0 14 0;
#X connect 10 0 7 1;
#X connect 11 0 7 0;
#X connect 14 0 13 0;
#X coords 0 -1 1 1 75 60 1 100 100;
#X restore 1188 212 pd Button;
#N canvas 1 81 450 300 CTL 0;
#X obj 94 228 / 127;
#X obj 94 182 spigot;
#X floatatom 94 205 5 0 0 0 - - -, f 5;
#X obj 148 141 tgl 15 0 empty empty empty 17 7 0 10 -262144 -1 -1 0
1;
#X obj 72 57 r \$0CtlNum;
#X obj 16 155 r \$0CtlVal;
#X floatatom 105 122 5 0 0 0 - - -, f 5;
#X obj 119 81 == 100;
#X obj 170 61 +, f 4;
#X floatatom 146 121 5 0 0 0 - - -, f 5;
#X obj 190 28 inlet;
#X obj 71 21 r \$0MidiCtlCh;
#X obj 94 252 outlet;
#X floatatom 106 142 5 0 0 0 - - -, f 5;
#X connect 0 0 12 0;
#X connect 0 0 13 0;
#X connect 1 0 2 0;
#X connect 2 0 0 0;
#X connect 3 0 1 1;
#X connect 4 0 7 0;
#X connect 5 0 1 0;
#X connect 7 0 3 0;
#X connect 7 0 6 0;
#X connect 8 0 9 0;
#X connect 8 0 7 1;
#X connect 10 0 8 1;
#X connect 11 0 8 0;
#X coords 0 -1 1 1 85 60 1 100 100;
#X restore 620 209 pd CTL;
#X obj 620 158 r \$0MidiCtlChBang;
#X msg 620 178 3;
#X obj 620 276 pow 2;
#X obj 619 300 s \$0FeedbackIn;
#X obj 22 57 bng 15 250 50 0 \$0MIDIChReset empty reset 20 7 0 10 -262144
-1 -1;
#X obj 473 -1 bng 15 250 50 0 empty empty empty 17 7 0 10 -262144 -1
-1;
#X obj 723 -36 r \$0MIDIChReset;
#X msg 764 180 5;
#X msg 901 182 37;
#X msg 1040 189 4, f 2;
#X msg 1189 187 36;
#X obj 761 283 * 2;
#X obj 762 329 - 1;
#X obj 25 299 r \$0MidiCtlChBang;
#N canvas 1 109 450 300 CTL 0;
#X obj 94 228 / 127;
#X obj 94 182 spigot;
#X floatatom 94 205 5 0 0 0 - - -, f 5;
#X obj 148 141 tgl 15 0 empty empty empty 17 7 0 10 -262144 -1 -1 0
1;
#X obj 72 57 r \$0CtlNum;
#X obj 16 155 r \$0CtlVal;
#X floatatom 105 122 5 0 0 0 - - -, f 5;
#X obj 119 81 == 100;
#X obj 170 61 +, f 4;
#X floatatom 146 121 5 0 0 0 - - -, f 5;
#X obj 190 28 inlet;
#X obj 71 21 r \$0MidiCtlCh;
#X obj 94 252 outlet;
#X floatatom 106 142 5 0 0 0 - - -, f 5;
#X connect 0 0 12 0;
#X connect 0 0 13 0;
#X connect 1 0 2 0;
#X connect 2 0 0 0;
#X connect 3 0 1 1;
#X connect 4 0 7 0;
#X connect 5 0 1 0;
#X connect 7 0 3 0;
#X connect 7 0 6 0;
#X connect 8 0 9 0;
#X connect 8 0 7 1;
#X connect 10 0 8 1;
#X connect 11 0 8 0;
#X coords 0 -1 1 1 85 60 1 100 100;
#X restore 24 346 pd CTL;
#X msg 24 322 21;
#X obj 24 415 * 0.2;
#X obj 762 371 +;
#X obj 24 440 - 0.1;
#X obj 799 345 t b f;
#X obj 22 465 s \$0PhaseOffsetFine;
#X obj 807 317 r \$0PhaseOffsetFine;
#X obj 989 372 > 0;
#X obj 23 26 inlet;
#X floatatom 237 57 5 0 0 0 - - -, f 5;
#X connect 0 0 9 0;
#X connect 0 1 4 0;
#X connect 0 1 98 0;
#X connect 0 2 3 0;
#X connect 1 0 18 0;
#X connect 3 0 4 1;
#X connect 4 0 5 0;
#X connect 4 0 12 0;
#X connect 9 0 10 0;
#X connect 10 0 11 0;
#X connect 13 0 16 0;
#X connect 14 0 67 0;
#X connect 17 0 27 0;
#X connect 18 0 28 0;
#X connect 19 0 24 0;
#X connect 20 0 24 0;
#X connect 21 0 24 0;
#X connect 22 0 51 0;
#X connect 23 0 52 0;
#X connect 24 0 25 0;
#X connect 25 0 48 0;
#X connect 25 1 49 0;
#X connect 26 0 58 0;
#X connect 28 0 2 0;
#X connect 29 0 42 0;
#X connect 30 0 29 0;
#X connect 31 0 32 0;
#X connect 32 0 36 0;
#X connect 34 0 35 0;
#X connect 35 0 40 0;
#X connect 36 0 34 0;
#X connect 36 0 96 0;
#X connect 37 0 39 0;
#X connect 38 0 68 0;
#X connect 39 0 38 0;
#X connect 40 0 68 1;
#X connect 41 0 69 0;
#X connect 42 0 44 0;
#X connect 43 0 47 0;
#X connect 44 0 45 0;
#X connect 47 0 46 0;
#X connect 50 0 26 0;
#X connect 51 0 1 0;
#X connect 52 0 55 0;
#X connect 53 0 22 0;
#X connect 54 0 56 0;
#X connect 55 0 54 0;
#X connect 56 0 13 0;
#X connect 57 0 23 0;
#X connect 58 0 14 0;
#X connect 59 0 81 0;
#X connect 60 0 85 0;
#X connect 61 0 30 0;
#X connect 62 0 82 0;
#X connect 63 0 84 0;
#X connect 64 0 31 0;
#X connect 65 0 83 0;
#X connect 66 0 64 0;
#X connect 67 0 17 0;
#X connect 68 0 71 0;
#X connect 69 0 43 0;
#X connect 70 0 37 0;
#X connect 71 0 69 0;
#X connect 72 0 41 0;
#X connect 73 0 76 0;
#X connect 74 0 75 0;
#X connect 75 0 73 0;
#X connect 76 0 77 0;
#X connect 79 0 19 0;
#X connect 80 0 79 0;
#X connect 81 0 60 0;
#X connect 82 0 61 0;
#X connect 83 0 66 0;
#X connect 84 0 72 0;
#X connect 85 0 15 0;
#X connect 85 0 86 0;
#X connect 86 0 91 0;
#X connect 87 0 89 0;
#X connect 88 0 90 0;
#X connect 89 0 88 0;
#X connect 90 0 92 0;
#X connect 91 0 29 0;
#X connect 92 0 94 0;
#X connect 93 0 91 0;
#X connect 93 1 91 1;
#X connect 95 0 93 0;
#X connect 96 0 70 0;
#X connect 97 0 78 0;
#X coords 0 548 1 547 65 40 0;
#X restore 173 373 pd MIDI stuff;
#X obj 187 483 r \$0Reset;
#X obj 1003 32 r \$0PhaseScaleHi;
#X obj 1004 103 s~ \$0PhaseScaleHiRamp;
#X obj 129 1003 bng 15 250 50 0 empty empty empty 17 7 0 10 -262144
-1 -1;
#X obj 125 1029 bng 15 250 50 0 empty empty empty 17 7 0 10 -262144
-1 -1;
#X obj 127 879 bng 15 250 50 0 empty empty empty 17 7 0 10 -262144
-1 -1;
#X obj 2 -18 bng 15 250 50 0 empty empty empty 17 7 0 10 -262144 -1
-1;
#X obj 0 -142 bng 15 250 50 0 empty empty empty 17 7 0 10 -262144 -1
-1;
#X obj 302 505 bng 15 250 50 0 empty empty empty 17 7 0 10 -258113
-1 -1;
#X obj 302 483 r \$0Reset;
#X obj 409 594 outlet~;
#X obj 410 509 bng 15 250 50 0 empty empty empty 17 7 0 10 -258113
-1 -1;
#X obj 410 487 r \$0Reset;
#X obj 525 596 outlet~;
#X obj 525 506 bng 15 250 50 0 empty empty empty 17 7 0 10 -258113
-1 -1;
#X obj 525 484 r \$0Reset;
#X obj 647 597 outlet~;
#X obj 647 513 bng 15 250 50 0 empty empty empty 17 7 0 10 -258113
-1 -1;
#X obj 647 491 r \$0Reset;
#X obj 758 600 outlet~;
#X obj 759 510 bng 15 250 50 0 empty empty empty 17 7 0 10 -258113
-1 -1;
#X obj 759 488 r \$0Reset;
#X obj 872 598 outlet~;
#X obj 869 510 bng 15 250 50 0 empty empty empty 17 7 0 10 -258113
-1 -1;
#X obj 869 488 r \$0Reset;
#X obj 979 596 outlet~;
#X msg 978 531 0.66667;
#X obj 978 513 bng 15 250 50 0 empty empty empty 17 7 0 10 -258113
-1 -1;
#X obj 978 490 r \$0Reset;
#X obj 1089 597 outlet~;
#X obj 1092 507 bng 15 250 50 0 empty empty empty 17 7 0 10 -258113
-1 -1;
#X obj 1092 485 r \$0Reset;
#X obj 1203 597 outlet~;
#X obj 1206 509 bng 15 250 50 0 empty empty empty 17 7 0 10 -258113
-1 -1;
#X obj 1203 487 r \$0Reset;
#X obj 1312 601 outlet~;
#X obj 1316 514 bng 15 250 50 0 empty empty empty 17 7 0 10 -258113
-1 -1;
#X obj 1316 492 r \$0Reset;
#X obj 470 596 s \$0p4;
#X obj 587 598 s \$0p5;
#X obj 708 600 s \$0p6;
#X obj 819 602 s \$0p7;
#X obj 928 597 s \$0p8;
#X obj 1037 598 s \$0p9;
#X obj 1144 598 s \$0p10;
#X obj 1255 597 s \$0p11;
#X obj 1372 597 s \$0p12;
#X msg 186 522 0.0833333;
#X msg 302 524 0.166667;
#X msg 410 528 0.25;
#X msg 526 525 0.333333;
#X msg 647 531 0.416667;
#X msg 759 529 0.5;
#X msg 869 529 0.583333;
#X msg 1092 526 0.75;
#X msg 1203 527 0.833333;
#X msg 1316 532 0.916667;
#X obj 382 440 s~ \$0PhaseDispRamp;
#X obj 963 269 s~ \$0MasterPhasor;
#X obj 332 386 bng 15 250 50 0 empty empty empty 17 7 0 10 -159808
-1 -1;
#X obj 75 502 bng 15 250 50 0 empty empty empty 17 7 0 10 -258113 -1
-1;
#X obj 75 482 r \$0Reset;
#X msg 75 523 0;
#X obj 1385 409 bng 15 250 50 0 empty empty empty 17 7 0 10 -262144
-1 -1;
#X obj 1712 424 bng 15 250 50 0 empty empty empty 17 7 0 10 -262144
-1 -1;
#X obj 1069 54 bng 15 250 50 0 empty empty empty 17 7 0 10 -203904
-1 -1;
#X floatatom 960 33 5 0 0 0 - - -, f 5;
#X obj 464 150 bng 15 250 50 0 empty empty empty 17 7 0 10 -257985
-1 -1;
#X obj 490 157 nbx 5 14 -1e+37 1e+37 0 0 empty empty empty 0 -8 0 10
-257985 -1 -1 -0.112598 256;
#N canvas 450 156 450 300 Reset 0;
#X msg 138 154 0.5;
#X obj 194 164 s \$0PhaseRateIn;
#X obj 149 214 s \$0PhaseOffsetIn;
#X obj 159 191 s \$0PhaseAmtIn;
#X obj 137 120 r \$0Reset;
#X obj 111 150 bng 15 250 50 0 empty empty empty 17 7 0 10 -258113
-1 -1;
#X obj 136 255 s \$0DopplerIn;
#X msg 89 210 0;
#X obj 48 180 r \$0DopplerZeroIn;
#X obj 55 361 s \$0Bias;
#X obj 57 337 hsl 128 15 0.01 5 1 0 empty empty empty -2 -8 0 10 -262144
-1 -1 0 1;
#X obj 58 299 bng 15 250 50 0 empty empty empty 17 7 0 10 -258113 -1
-1;
#X msg 54 317 2;
#X obj 282 274 sig~;
#X msg 281 248 1;
#X obj 282 302 s~ ONE;
#X obj 309 227 bng 15 250 50 0 empty empty empty 17 7 0 10 -258113
-1 -1;
#X msg 192 141 set 1;
#X connect 0 0 2 0;
#X connect 0 0 3 0;
#X connect 4 0 0 0;
#X connect 4 0 17 0;
#X connect 4 0 5 0;
#X connect 5 0 7 0;
#X connect 7 0 6 0;
#X connect 8 0 7 0;
#X connect 10 0 9 0;
#X connect 11 0 12 0;
#X connect 12 0 10 0;
#X connect 13 0 15 0;
#X connect 14 0 13 0;
#X connect 16 0 14 0;
#X connect 17 0 1 0;
#X restore 174 398 pd Reset Logic;
#X obj 719 92 nbx 5 14 -1e+37 1e+37 0 0 empty \$0PhaseAmount empty
0 -8 0 12 -232576 -1 -1 0.1 256;
#X obj 863 92 nbx 5 14 -1e+37 1e+37 0 0 empty empty empty 0 -8 0 12
-203904 -1 -1 0.719291 256;
#X obj 796 61 r \$0PhaseScaleLo;
#X obj 121 211 vsl 8 100 0 1 0 0 empty \$0p2 empty 0 -9 0 10 -260097
-1 -1 7189 1;
#X obj 113 211 vsl 8 100 0 1 0 0 empty \$0p1 empty 0 -9 0 10 -260097
-1 -1 6842 1;
#X obj 137 211 vsl 8 100 0 1 0 0 empty \$0p4 empty 0 -9 0 10 -260097
-1 -1 7716 1;
#X obj 129 211 vsl 8 100 0 1 0 0 empty \$0p3 empty 0 -9 0 10 -260097
-1 -1 7506 1;
#X obj 153 211 vsl 8 100 0 1 0 0 empty \$0p6 empty 0 -9 0 10 -260097
-1 -1 7654 1;
#X obj 145 211 vsl 8 100 0 1 0 0 empty \$0p5 empty 0 -9 0 10 -260097
-1 -1 7770 1;
#X obj 169 211 vsl 8 100 0 1 0 0 empty \$0p8 empty 0 -9 0 10 -260097
-1 -1 7060 1;
#X obj 161 211 vsl 8 100 0 1 0 0 empty \$0p7 empty 0 -9 0 10 -260753
-1 -1 7397 1;
#X obj 185 211 vsl 8 100 0 1 0 0 empty \$0p10 empty 0 -9 0 10 -260097
-1 -1 6466 1;
#X obj 177 211 vsl 8 100 0 1 0 0 empty \$0p9 empty 0 -9 0 10 -260097
-1 -1 6722 1;
#X obj 201 211 vsl 8 100 0 1 0 0 empty \$0p12 empty 0 -9 0 10 -260097
-1 -1 6406 1;
#X obj 193 211 vsl 8 100 0 1 0 0 empty \$0p11 empty 0 -9 0 10 -260097
-1 -1 6351 1;
#X obj 214 225 vsl 15 80 -1 1 0 0 \$0PhaseOffset \$0PhaseOffsetIn Ph_Off
0 -9 0 8 -257985 -1 -1 3505 1;
#X obj 744 344 expr pow($f1 \, 10)*20;
#X obj 720 318 r \$0PhaseSpeed;
#X obj 723 345 bng 15 250 50 0 empty empty empty 17 7 0 10 -4034 -1
-1;
#X msg 806 374 Take linear 0-1 make exp 0-20?;
#X msg 383 392 \$1 1000;
#N canvas 1 109 450 300 Reset 0;
#X obj 42 25 loadbang;
#X msg 31 215 0.6;
#X msg 188 219 18;
#X obj 27 244 s \$0RateCompIn;
#X obj 44 78 s \$0ResetIn;
#X obj 44 51 bng 15 250 50 0 empty empty empty 17 7 0 10 -258113 -1
-1;
#X msg 386 132 0.1;
#X obj 230 218 s \$0InPhaseComp;
#X msg 236 193 1;
#X obj 304 73 bng 15 250 50 0 empty empty empty 17 7 0 10 -258113 -1
-1;
#X obj 305 53 r \$0Reset;
#X obj 365 215 s \$0PhaseSpeedIn;
#X msg 367 185 0.624;
#X obj 353 238 s \$0PhaseDispIn;
#X obj 170 164 s \$0PhaseScaleLoIn;
#X msg 187 144 2.3;
#X obj 183 246 s \$0PhaseScaleHi;
#X obj 386 153 s \$0PhaseAmount;
#X obj 159 95 s \$0PhaseModeIn;
#X msg 177 66 0;
#X obj 52 140 s \$0FeedbackIn;
#X msg 91 114 0.4;
#X connect 0 0 5 0;
#X connect 1 0 3 0;
#X connect 2 0 16 0;
#X connect 5 0 4 0;
#X connect 6 0 17 0;
#X connect 8 0 7 0;
#X connect 9 0 8 0;
#X connect 9 0 6 0;
#X connect 9 0 12 0;
#X connect 9 0 15 0;
#X connect 9 0 2 0;
#X connect 9 0 1 0;
#X connect 9 0 19 0;
#X connect 9 0 21 0;
#X connect 10 0 9 0;
#X connect 12 0 11 0;
#X connect 12 0 13 0;
#X connect 15 0 14 0;
#X connect 19 0 18 0;
#X connect 21 0 20 0;
#X restore 444 61 pd Reset Stuff;
#X obj 209 103 hradio 8 1 0 2 \$0PhaseMode \$0PhaseModeIn empty 0 -8
0 10 -262144 -1 -1 0;
#X obj 303 276 +~;
#X obj 333 259 *~;
#X obj 114 177 hsl 128 15 0.1 1 0 0 \$0Feedback \$0FeedbackIn Feedback
5 7 0 10 -258113 -1 -262144 0 1;
#X floatatom 340 167 5 0 0 0 - - -, f 5;
#X obj 739 672 s~ \$0FeedbackSig;
#X obj 530 100 r~ \$0FeedbackSig;
#X obj 416 227 r \$0Feedback;
#X obj 292 325 delwrite~ \$0FOO 500;
#X obj 42 300 touchin;
#X obj 42 343 / 127;
#X obj 64 433 s \$0FeedbackIn;
#X obj 68 392 *;
#X floatatom 105 409 5 0 0 0 - - -, f 5;
#X floatatom 12 375 5 0 0 0 - - -, f 5;
#X floatatom 413 261 5 0 0 0 - - -, f 5;
#N canvas 1 81 674 419 vu 0;
#X obj 157 64 pvu~;
#X floatatom 146 108 5 0 0 0 - - -, f 5;
#X obj 104 68 env~, f 5;
#X floatatom 106 108 5 0 0 0 - - -, f 5;
#X obj 111 37 inlet~;
#X obj 157 154 outlet;
#X obj 100 152 outlet;
#X connect 0 0 1 0;
#X connect 1 0 5 0;
#X connect 2 0 3 0;
#X connect 3 0 6 0;
#X connect 4 0 2 0;
#X connect 4 0 0 0;
#X coords 0 -1 1 1 85 24 1 100 100;
#X restore 438 301 pd vu;
#N canvas 1 67 674 419 vu 0;
#X obj 157 64 pvu~;
#X floatatom 146 108 5 0 0 0 - - -, f 5;
#X obj 104 68 env~, f 5;
#X floatatom 106 108 5 0 0 0 - - -, f 5;
#X obj 111 37 inlet~;
#X connect 0 0 1 0;
#X connect 2 0 3 0;
#X connect 4 0 2 0;
#X connect 4 0 0 0;
#X coords 0 -1 1 1 85 24 1 100 100;
#X restore 531 287 pd vu;
#X floatatom 42 322 5 0 0 0 - - -, f 5;
#X floatatom 85 322 5 0 0 0 - - -, f 5;
#X obj 63 369 t f f;
#X msg 348 31 0;
#X msg 346 54 0.1;
#X msg 346 72 0.2;
#X msg 344 97 0.3;
#X msg 344 119 0.4;
#X msg 393 26 0.5;
#X msg 393 48 0.6;
#X msg 390 74 0.7;
#X msg 388 98 0.8;
#X msg 388 120 0.9;
#X obj 463 329 - 87.6;
#X floatatom 476 385 5 0 0 0 - - -, f 5;
#X msg 444 25 1;
#X obj 528 120 hip~ 200;
#N canvas 418 184 739 671 PhaserUnit1 0;
#X obj 141 271 *~;
#X obj 237 277 r MetroGlobal;
#X obj 142 310 vd~ \$0FOO;
#X obj 226 187 *~;
#X obj 227 208 +~;
#X obj 161 355 *~;
#X obj 247 329 r \$0InPhaseComp;
#X obj 401 195 r~ \$0PhaseOffsetSmooth;
#X obj 277 169 r~ \$0PhaseAmtSmooth;
#X obj 224 87 cos~ 1;
#X obj 229 299 Snapshot~;
#X obj 32 198 r~ \$0PhaseScaleHiRamp;
#X obj 160 377 outlet~, f 8;
#X obj 229 360 outlet;
#X obj 104 51 +~;
#X obj 214 33 *~;
#X obj 214 9 r~ \$0PhaseDispRamp;
#X obj 361 9 inlet~;
#X obj 73 17 r~ \$0MasterPhasor;
#X obj 503 3 hradio 15 1 0 4 empty empty empty 0 -8 0 10 -262144 -1
-1 0;
#X obj 503 -23 r \$0PhaseMode;
#X obj 524 59 bng 15 250 50 0 empty empty empty 17 7 0 10 -262144 -1
-1;
#X obj 504 58 bng 15 250 50 0 empty empty empty 17 7 0 10 -262144 -1
-1;
#X obj 545 59 bng 15 250 50 0 empty empty empty 17 7 0 10 -262144 -1
-1;
#X obj 271 139 *~;
#X msg 566 105 0;
#X msg 565 132 1;
#X msg 527 105 0;
#X msg 528 130 1;
#X msg 489 103 0;
#X msg 489 127 1;
#X floatatom 244 111 5 0 0 0 - - -, f 5;
#X floatatom 160 125 5 0 0 0 - - -, f 5;
#X floatatom 76 165 5 0 0 0 - - -, f 5;
#X obj 412 270 DVM~;
#X obj 102 89 *~ 2;
#X obj 101 113 -~ 1;
#X obj 130 148 *~;
#X obj 230 239 wrap~;
#X floatatom 304 362 5 0 0 0 - - -, f 5;
#X obj 54 297 +~;
#X obj 29 264 r \$0Bias;
#X obj 504 27 sel 0 1 2 3;
#X obj 571 58 bng 15 250 50 0 empty empty empty 17 7 0 10 -262144 -1
-1;
#X obj 17 155 -~;
#X obj 17 87 r~ ONE;
#X obj 39 175 *~;
#X connect 0 0 40 1;
#X connect 1 0 10 0;
#X connect 2 0 5 0;
#X connect 3 0 4 0;
#X connect 4 0 38 0;
#X connect 5 0 12 0;
#X connect 6 0 5 1;
#X connect 7 0 4 1;
#X connect 8 0 3 1;
#X connect 9 0 24 0;
#X connect 10 0 13 0;
#X connect 10 0 39 0;
#X connect 11 0 0 0;
#X connect 14 0 9 0;
#X connect 14 0 35 0;
#X connect 15 0 14 1;
#X connect 16 0 15 0;
#X connect 17 0 15 1;
#X connect 18 0 14 0;
#X connect 19 0 42 0;
#X connect 20 0 19 0;
#X connect 21 0 28 0;
#X connect 21 0 29 0;
#X connect 21 0 25 0;
#X connect 22 0 30 0;
#X connect 22 0 27 0;
#X connect 22 0 25 0;
#X connect 23 0 26 0;
#X connect 23 0 27 0;
#X connect 23 0 29 0;
#X connect 24 0 3 0;
#X connect 25 0 33 0;
#X connect 26 0 33 0;
#X connect 27 0 32 0;
#X connect 28 0 32 0;
#X connect 29 0 31 0;
#X connect 30 0 31 0;
#X connect 31 0 24 1;
#X connect 32 0 37 1;
#X connect 33 0 46 1;
#X connect 35 0 36 0;
#X connect 36 0 37 0;
#X connect 36 0 44 1;
#X connect 37 0 3 0;
#X connect 38 0 10 0;
#X connect 38 0 0 1;
#X connect 40 0 2 0;
#X connect 41 0 40 0;
#X connect 42 0 22 0;
#X connect 42 1 21 0;
#X connect 42 2 23 0;
#X connect 42 3 43 0;
#X connect 44 0 46 0;
#X connect 45 0 44 0;
#X connect 46 0 3 0;
#X restore 74 561 pd PhaserUnit1;
#X msg 410 153 \$1 200;
#X obj 114 192 hsl 110 15 5 -5 0 0 \$0Doppler \$0DopplerIn Doppler
5 7 0 10 -262109 -1 -1 5450 1;
#X obj 555 197 phasor~ -1;
#X obj 229 193 bng 15 250 50 0 \$0DopplerZeroIn empty Z 5 7 0 10 -262109
-1 -1;
#X obj 598 132 r \$0Doppler;
#N canvas 18 198 739 671 PhaserUnit1 0;
#X obj 141 271 *~;
#X obj 237 277 r MetroGlobal;
#X obj 142 310 vd~ \$0FOO;
#X obj 226 187 *~;
#X obj 227 208 +~;
#X obj 161 355 *~;
#X obj 247 329 r \$0InPhaseComp;
#X obj 401 195 r~ \$0PhaseOffsetSmooth;
#X obj 277 169 r~ \$0PhaseAmtSmooth;
#X obj 224 87 cos~ 1;
#X obj 229 299 Snapshot~;
#X obj 32 198 r~ \$0PhaseScaleHiRamp;
#X obj 160 377 outlet~, f 8;
#X obj 229 360 outlet;
#X obj 104 51 +~;
#X obj 214 33 *~;
#X obj 214 9 r~ \$0PhaseDispRamp;
#X obj 361 9 inlet~;
#X obj 73 17 r~ \$0MasterPhasor;
#X obj 503 3 hradio 15 1 0 3 empty empty empty 0 -8 0 10 -262144 -1
-1 0;
#X obj 503 -23 r \$0PhaseMode;
#X obj 504 27 sel 0 1 2;
#X obj 524 59 bng 15 250 50 0 empty empty empty 17 7 0 10 -262144 -1
-1;
#X obj 504 58 bng 15 250 50 0 empty empty empty 17 7 0 10 -262144 -1
-1;
#X obj 544 59 bng 15 250 50 0 empty empty empty 17 7 0 10 -262144 -1
-1;
#X obj 224 140 *~;
#X msg 566 105 0;
#X msg 565 132 1;
#X msg 527 105 0;
#X msg 528 130 1;
#X msg 489 103 0;
#X msg 489 127 1;
#X floatatom 244 111 5 0 0 0 - - -, f 5;
#X floatatom 160 125 5 0 0 0 - - -, f 5;
#X floatatom 83 148 5 0 0 0 - - -, f 5;
#X obj 412 270 DVM~;
#X obj 102 89 *~ 2;
#X obj 104 118 -~ 1;
#X obj 40 153 *~ -1;
#X obj 130 148 *~;
#X obj 230 239 wrap~;
#X floatatom 304 362 5 0 0 0 - - -, f 5;
#X obj 54 297 +~;
#X obj 29 264 r \$0Bias;
#X connect 0 0 42 1;
#X connect 1 0 10 0;
#X connect 2 0 5 0;
#X connect 3 0 4 0;
#X connect 4 0 40 0;
#X connect 5 0 12 0;
#X connect 6 0 5 1;
#X connect 7 0 4 1;
#X connect 8 0 3 1;
#X connect 9 0 25 0;
#X connect 10 0 13 0;
#X connect 10 0 41 0;
#X connect 11 0 0 0;
#X connect 14 0 9 0;
#X connect 14 0 36 0;
#X connect 15 0 14 1;
#X connect 16 0 15 0;
#X connect 17 0 15 1;
#X connect 18 0 14 0;
#X connect 19 0 21 0;
#X connect 20 0 19 0;
#X connect 21 0 23 0;
#X connect 21 1 22 0;
#X connect 21 2 24 0;
#X connect 22 0 29 0;
#X connect 22 0 30 0;
#X connect 22 0 26 0;
#X connect 23 0 31 0;
#X connect 23 0 28 0;
#X connect 23 0 26 0;
#X connect 24 0 27 0;
#X connect 24 0 28 0;
#X connect 24 0 30 0;
#X connect 25 0 3 0;
#X connect 26 0 34 0;
#X connect 27 0 34 0;
#X connect 28 0 33 0;
#X connect 29 0 33 0;
#X connect 30 0 32 0;
#X connect 31 0 32 0;
#X connect 32 0 25 1;
#X connect 33 0 39 1;
#X connect 34 0 38 1;
#X connect 36 0 37 0;
#X connect 37 0 38 0;
#X connect 37 0 39 0;
#X connect 38 0 3 0;
#X connect 39 0 3 0;
#X connect 40 0 10 0;
#X connect 40 0 0 1;
#X connect 42 0 2 0;
#X connect 43 0 42 0;
#X restore 189 563 pd PhaserUnit1;
#N canvas 20 184 739 671 PhaserUnit1 0;
#X obj 141 271 *~;
#X obj 237 277 r MetroGlobal;
#X obj 142 310 vd~ \$0FOO;
#X obj 226 187 *~;
#X obj 227 208 +~;
#X obj 161 355 *~;
#X obj 247 329 r \$0InPhaseComp;
#X obj 401 195 r~ \$0PhaseOffsetSmooth;
#X obj 277 169 r~ \$0PhaseAmtSmooth;
#X obj 224 87 cos~ 1;
#X obj 229 299 Snapshot~;
#X obj 32 198 r~ \$0PhaseScaleHiRamp;
#X obj 160 377 outlet~, f 8;
#X obj 229 360 outlet;
#X obj 104 51 +~;
#X obj 214 33 *~;
#X obj 214 9 r~ \$0PhaseDispRamp;
#X obj 361 9 inlet~;
#X obj 73 17 r~ \$0MasterPhasor;
#X obj 503 3 hradio 15 1 0 3 empty empty empty 0 -8 0 10 -262144 -1
-1 0;
#X obj 503 -23 r \$0PhaseMode;
#X obj 504 27 sel 0 1 2;
#X obj 524 59 bng 15 250 50 0 empty empty empty 17 7 0 10 -262144 -1
-1;
#X obj 504 58 bng 15 250 50 0 empty empty empty 17 7 0 10 -262144 -1
-1;
#X obj 544 59 bng 15 250 50 0 empty empty empty 17 7 0 10 -262144 -1
-1;
#X obj 224 140 *~;
#X msg 566 105 0;
#X msg 565 132 1;
#X msg 527 105 0;
#X msg 528 130 1;
#X msg 489 103 0;
#X msg 489 127 1;
#X floatatom 244 111 5 0 0 0 - - -, f 5;
#X floatatom 160 125 5 0 0 0 - - -, f 5;
#X floatatom 83 148 5 0 0 0 - - -, f 5;
#X obj 412 270 DVM~;
#X obj 102 89 *~ 2;
#X obj 104 118 -~ 1;
#X obj 40 153 *~ -1;
#X obj 130 148 *~;
#X obj 230 239 wrap~;
#X floatatom 304 362 5 0 0 0 - - -, f 5;
#X obj 54 297 +~;
#X obj 29 264 r \$0Bias;
#X connect 0 0 42 1;
#X connect 1 0 10 0;
#X connect 2 0 5 0;
#X connect 3 0 4 0;
#X connect 4 0 40 0;
#X connect 5 0 12 0;
#X connect 6 0 5 1;
#X connect 7 0 4 1;
#X connect 8 0 3 1;
#X connect 9 0 25 0;
#X connect 10 0 13 0;
#X connect 10 0 41 0;
#X connect 11 0 0 0;
#X connect 14 0 9 0;
#X connect 14 0 36 0;
#X connect 15 0 14 1;
#X connect 16 0 15 0;
#X connect 17 0 15 1;
#X connect 18 0 14 0;
#X connect 19 0 21 0;
#X connect 20 0 19 0;
#X connect 21 0 23 0;
#X connect 21 1 22 0;
#X connect 21 2 24 0;
#X connect 22 0 29 0;
#X connect 22 0 30 0;
#X connect 22 0 26 0;
#X connect 23 0 31 0;
#X connect 23 0 28 0;
#X connect 23 0 26 0;
#X connect 24 0 27 0;
#X connect 24 0 28 0;
#X connect 24 0 30 0;
#X connect 25 0 3 0;
#X connect 26 0 34 0;
#X connect 27 0 34 0;
#X connect 28 0 33 0;
#X connect 29 0 33 0;
#X connect 30 0 32 0;
#X connect 31 0 32 0;
#X connect 32 0 25 1;
#X connect 33 0 39 1;
#X connect 34 0 38 1;
#X connect 36 0 37 0;
#X connect 37 0 38 0;
#X connect 37 0 39 0;
#X connect 38 0 3 0;
#X connect 39 0 3 0;
#X connect 40 0 10 0;
#X connect 40 0 0 1;
#X connect 42 0 2 0;
#X connect 43 0 42 0;
#X restore 296 563 pd PhaserUnit1;
#N canvas 20 184 739 671 PhaserUnit1 0;
#X obj 141 271 *~;
#X obj 237 277 r MetroGlobal;
#X obj 142 310 vd~ \$0FOO;
#X obj 226 187 *~;
#X obj 227 208 +~;
#X obj 161 355 *~;
#X obj 247 329 r \$0InPhaseComp;
#X obj 401 195 r~ \$0PhaseOffsetSmooth;
#X obj 277 169 r~ \$0PhaseAmtSmooth;
#X obj 224 87 cos~ 1;
#X obj 229 299 Snapshot~;
#X obj 32 198 r~ \$0PhaseScaleHiRamp;
#X obj 160 377 outlet~, f 8;
#X obj 229 360 outlet;
#X obj 104 51 +~;
#X obj 214 33 *~;
#X obj 214 9 r~ \$0PhaseDispRamp;
#X obj 361 9 inlet~;
#X obj 73 17 r~ \$0MasterPhasor;
#X obj 503 3 hradio 15 1 0 3 empty empty empty 0 -8 0 10 -262144 -1
-1 0;
#X obj 503 -23 r \$0PhaseMode;
#X obj 504 27 sel 0 1 2;
#X obj 524 59 bng 15 250 50 0 empty empty empty 17 7 0 10 -262144 -1
-1;
#X obj 504 58 bng 15 250 50 0 empty empty empty 17 7 0 10 -262144 -1
-1;
#X obj 544 59 bng 15 250 50 0 empty empty empty 17 7 0 10 -262144 -1
-1;
#X obj 224 140 *~;
#X msg 566 105 0;
#X msg 565 132 1;
#X msg 527 105 0;
#X msg 528 130 1;
#X msg 489 103 0;
#X msg 489 127 1;
#X floatatom 244 111 5 0 0 0 - - -, f 5;
#X floatatom 160 125 5 0 0 0 - - -, f 5;
#X floatatom 83 148 5 0 0 0 - - -, f 5;
#X obj 412 270 DVM~;
#X obj 102 89 *~ 2;
#X obj 104 118 -~ 1;
#X obj 40 153 *~ -1;
#X obj 130 148 *~;
#X obj 230 239 wrap~;
#X floatatom 304 362 5 0 0 0 - - -, f 5;
#X obj 54 297 +~;
#X obj 29 264 r \$0Bias;
#X connect 0 0 42 1;
#X connect 1 0 10 0;
#X connect 2 0 5 0;
#X connect 3 0 4 0;
#X connect 4 0 40 0;
#X connect 5 0 12 0;
#X connect 6 0 5 1;
#X connect 7 0 4 1;
#X connect 8 0 3 1;
#X connect 9 0 25 0;
#X connect 10 0 13 0;
#X connect 10 0 41 0;
#X connect 11 0 0 0;
#X connect 14 0 9 0;
#X connect 14 0 36 0;
#X connect 15 0 14 1;
#X connect 16 0 15 0;
#X connect 17 0 15 1;
#X connect 18 0 14 0;
#X connect 19 0 21 0;
#X connect 20 0 19 0;
#X connect 21 0 23 0;
#X connect 21 1 22 0;
#X connect 21 2 24 0;
#X connect 22 0 29 0;
#X connect 22 0 30 0;
#X connect 22 0 26 0;
#X connect 23 0 31 0;
#X connect 23 0 28 0;
#X connect 23 0 26 0;
#X connect 24 0 27 0;
#X connect 24 0 28 0;
#X connect 24 0 30 0;
#X connect 25 0 3 0;
#X connect 26 0 34 0;
#X connect 27 0 34 0;
#X connect 28 0 33 0;
#X connect 29 0 33 0;
#X connect 30 0 32 0;
#X connect 31 0 32 0;
#X connect 32 0 25 1;
#X connect 33 0 39 1;
#X connect 34 0 38 1;
#X connect 36 0 37 0;
#X connect 37 0 38 0;
#X connect 37 0 39 0;
#X connect 38 0 3 0;
#X connect 39 0 3 0;
#X connect 40 0 10 0;
#X connect 40 0 0 1;
#X connect 42 0 2 0;
#X connect 43 0 42 0;
#X restore 415 563 pd PhaserUnit1;
#N canvas 20 184 739 671 PhaserUnit1 0;
#X obj 141 271 *~;
#X obj 237 277 r MetroGlobal;
#X obj 142 310 vd~ \$0FOO;
#X obj 226 187 *~;
#X obj 227 208 +~;
#X obj 161 355 *~;
#X obj 247 329 r \$0InPhaseComp;
#X obj 401 195 r~ \$0PhaseOffsetSmooth;
#X obj 277 169 r~ \$0PhaseAmtSmooth;
#X obj 224 87 cos~ 1;
#X obj 229 299 Snapshot~;
#X obj 32 198 r~ \$0PhaseScaleHiRamp;
#X obj 160 377 outlet~, f 8;
#X obj 229 360 outlet;
#X obj 104 51 +~;
#X obj 214 33 *~;
#X obj 214 9 r~ \$0PhaseDispRamp;
#X obj 361 9 inlet~;
#X obj 73 17 r~ \$0MasterPhasor;
#X obj 503 3 hradio 15 1 0 3 empty empty empty 0 -8 0 10 -262144 -1
-1 0;
#X obj 503 -23 r \$0PhaseMode;
#X obj 504 27 sel 0 1 2;
#X obj 524 59 bng 15 250 50 0 empty empty empty 17 7 0 10 -262144 -1
-1;
#X obj 504 58 bng 15 250 50 0 empty empty empty 17 7 0 10 -262144 -1
-1;
#X obj 544 59 bng 15 250 50 0 empty empty empty 17 7 0 10 -262144 -1
-1;
#X obj 224 140 *~;
#X msg 566 105 0;
#X msg 565 132 1;
#X msg 527 105 0;
#X msg 528 130 1;
#X msg 489 103 0;
#X msg 489 127 1;
#X floatatom 244 111 5 0 0 0 - - -, f 5;
#X floatatom 160 125 5 0 0 0 - - -, f 5;
#X floatatom 83 148 5 0 0 0 - - -, f 5;
#X obj 412 270 DVM~;
#X obj 102 89 *~ 2;
#X obj 104 118 -~ 1;
#X obj 40 153 *~ -1;
#X obj 130 148 *~;
#X obj 230 239 wrap~;
#X floatatom 304 362 5 0 0 0 - - -, f 5;
#X obj 54 297 +~;
#X obj 29 264 r \$0Bias;
#X connect 0 0 42 1;
#X connect 1 0 10 0;
#X connect 2 0 5 0;
#X connect 3 0 4 0;
#X connect 4 0 40 0;
#X connect 5 0 12 0;
#X connect 6 0 5 1;
#X connect 7 0 4 1;
#X connect 8 0 3 1;
#X connect 9 0 25 0;
#X connect 10 0 13 0;
#X connect 10 0 41 0;
#X connect 11 0 0 0;
#X connect 14 0 9 0;
#X connect 14 0 36 0;
#X connect 15 0 14 1;
#X connect 16 0 15 0;
#X connect 17 0 15 1;
#X connect 18 0 14 0;
#X connect 19 0 21 0;
#X connect 20 0 19 0;
#X connect 21 0 23 0;
#X connect 21 1 22 0;
#X connect 21 2 24 0;
#X connect 22 0 29 0;
#X connect 22 0 30 0;
#X connect 22 0 26 0;
#X connect 23 0 31 0;
#X connect 23 0 28 0;
#X connect 23 0 26 0;
#X connect 24 0 27 0;
#X connect 24 0 28 0;
#X connect 24 0 30 0;
#X connect 25 0 3 0;
#X connect 26 0 34 0;
#X connect 27 0 34 0;
#X connect 28 0 33 0;
#X connect 29 0 33 0;
#X connect 30 0 32 0;
#X connect 31 0 32 0;
#X connect 32 0 25 1;
#X connect 33 0 39 1;
#X connect 34 0 38 1;
#X connect 36 0 37 0;
#X connect 37 0 38 0;
#X connect 37 0 39 0;
#X connect 38 0 3 0;
#X connect 39 0 3 0;
#X connect 40 0 10 0;
#X connect 40 0 0 1;
#X connect 42 0 2 0;
#X connect 43 0 42 0;
#X restore 519 564 pd PhaserUnit1;
#N canvas 20 184 739 671 PhaserUnit1 0;
#X obj 141 271 *~;
#X obj 237 277 r MetroGlobal;
#X obj 142 310 vd~ \$0FOO;
#X obj 226 187 *~;
#X obj 227 208 +~;
#X obj 161 355 *~;
#X obj 247 329 r \$0InPhaseComp;
#X obj 401 195 r~ \$0PhaseOffsetSmooth;
#X obj 277 169 r~ \$0PhaseAmtSmooth;
#X obj 224 87 cos~ 1;
#X obj 229 299 Snapshot~;
#X obj 32 198 r~ \$0PhaseScaleHiRamp;
#X obj 160 377 outlet~, f 8;
#X obj 229 360 outlet;
#X obj 104 51 +~;
#X obj 214 33 *~;
#X obj 214 9 r~ \$0PhaseDispRamp;
#X obj 361 9 inlet~;
#X obj 73 17 r~ \$0MasterPhasor;
#X obj 503 3 hradio 15 1 0 3 empty empty empty 0 -8 0 10 -262144 -1
-1 0;
#X obj 503 -23 r \$0PhaseMode;
#X obj 504 27 sel 0 1 2;
#X obj 524 59 bng 15 250 50 0 empty empty empty 17 7 0 10 -262144 -1
-1;
#X obj 504 58 bng 15 250 50 0 empty empty empty 17 7 0 10 -262144 -1
-1;
#X obj 544 59 bng 15 250 50 0 empty empty empty 17 7 0 10 -262144 -1
-1;
#X obj 224 140 *~;
#X msg 566 105 0;
#X msg 565 132 1;
#X msg 527 105 0;
#X msg 528 130 1;
#X msg 489 103 0;
#X msg 489 127 1;
#X floatatom 244 111 5 0 0 0 - - -, f 5;
#X floatatom 160 125 5 0 0 0 - - -, f 5;
#X floatatom 83 148 5 0 0 0 - - -, f 5;
#X obj 412 270 DVM~;
#X obj 102 89 *~ 2;
#X obj 104 118 -~ 1;
#X obj 40 153 *~ -1;
#X obj 130 148 *~;
#X obj 230 239 wrap~;
#X floatatom 304 362 5 0 0 0 - - -, f 5;
#X obj 54 297 +~;
#X obj 29 264 r \$0Bias;
#X connect 0 0 42 1;
#X connect 1 0 10 0;
#X connect 2 0 5 0;
#X connect 3 0 4 0;
#X connect 4 0 40 0;
#X connect 5 0 12 0;
#X connect 6 0 5 1;
#X connect 7 0 4 1;
#X connect 8 0 3 1;
#X connect 9 0 25 0;
#X connect 10 0 13 0;
#X connect 10 0 41 0;
#X connect 11 0 0 0;
#X connect 14 0 9 0;
#X connect 14 0 36 0;
#X connect 15 0 14 1;
#X connect 16 0 15 0;
#X connect 17 0 15 1;
#X connect 18 0 14 0;
#X connect 19 0 21 0;
#X connect 20 0 19 0;
#X connect 21 0 23 0;
#X connect 21 1 22 0;
#X connect 21 2 24 0;
#X connect 22 0 29 0;
#X connect 22 0 30 0;
#X connect 22 0 26 0;
#X connect 23 0 31 0;
#X connect 23 0 28 0;
#X connect 23 0 26 0;
#X connect 24 0 27 0;
#X connect 24 0 28 0;
#X connect 24 0 30 0;
#X connect 25 0 3 0;
#X connect 26 0 34 0;
#X connect 27 0 34 0;
#X connect 28 0 33 0;
#X connect 29 0 33 0;
#X connect 30 0 32 0;
#X connect 31 0 32 0;
#X connect 32 0 25 1;
#X connect 33 0 39 1;
#X connect 34 0 38 1;
#X connect 36 0 37 0;
#X connect 37 0 38 0;
#X connect 37 0 39 0;
#X connect 38 0 3 0;
#X connect 39 0 3 0;
#X connect 40 0 10 0;
#X connect 40 0 0 1;
#X connect 42 0 2 0;
#X connect 43 0 42 0;
#X restore 634 566 pd PhaserUnit1;
#N canvas 20 184 739 671 PhaserUnit1 0;
#X obj 141 271 *~;
#X obj 237 277 r MetroGlobal;
#X obj 142 310 vd~ \$0FOO;
#X obj 226 187 *~;
#X obj 227 208 +~;
#X obj 161 355 *~;
#X obj 247 329 r \$0InPhaseComp;
#X obj 401 195 r~ \$0PhaseOffsetSmooth;
#X obj 277 169 r~ \$0PhaseAmtSmooth;
#X obj 224 87 cos~ 1;
#X obj 229 299 Snapshot~;
#X obj 32 198 r~ \$0PhaseScaleHiRamp;
#X obj 160 377 outlet~, f 8;
#X obj 229 360 outlet;
#X obj 104 51 +~;
#X obj 214 33 *~;
#X obj 214 9 r~ \$0PhaseDispRamp;
#X obj 361 9 inlet~;
#X obj 73 17 r~ \$0MasterPhasor;
#X obj 503 3 hradio 15 1 0 3 empty empty empty 0 -8 0 10 -262144 -1
-1 0;
#X obj 503 -23 r \$0PhaseMode;
#X obj 504 27 sel 0 1 2;
#X obj 524 59 bng 15 250 50 0 empty empty empty 17 7 0 10 -262144 -1
-1;
#X obj 504 58 bng 15 250 50 0 empty empty empty 17 7 0 10 -262144 -1
-1;
#X obj 544 59 bng 15 250 50 0 empty empty empty 17 7 0 10 -262144 -1
-1;
#X obj 224 140 *~;
#X msg 566 105 0;
#X msg 565 132 1;
#X msg 527 105 0;
#X msg 528 130 1;
#X msg 489 103 0;
#X msg 489 127 1;
#X floatatom 244 111 5 0 0 0 - - -, f 5;
#X floatatom 160 125 5 0 0 0 - - -, f 5;
#X floatatom 83 148 5 0 0 0 - - -, f 5;
#X obj 412 270 DVM~;
#X obj 102 89 *~ 2;
#X obj 104 118 -~ 1;
#X obj 40 153 *~ -1;
#X obj 130 148 *~;
#X obj 230 239 wrap~;
#X floatatom 304 362 5 0 0 0 - - -, f 5;
#X obj 54 297 +~;
#X obj 29 264 r \$0Bias;
#X connect 0 0 42 1;
#X connect 1 0 10 0;
#X connect 2 0 5 0;
#X connect 3 0 4 0;
#X connect 4 0 40 0;
#X connect 5 0 12 0;
#X connect 6 0 5 1;
#X connect 7 0 4 1;
#X connect 8 0 3 1;
#X connect 9 0 25 0;
#X connect 10 0 13 0;
#X connect 10 0 41 0;
#X connect 11 0 0 0;
#X connect 14 0 9 0;
#X connect 14 0 36 0;
#X connect 15 0 14 1;
#X connect 16 0 15 0;
#X connect 17 0 15 1;
#X connect 18 0 14 0;
#X connect 19 0 21 0;
#X connect 20 0 19 0;
#X connect 21 0 23 0;
#X connect 21 1 22 0;
#X connect 21 2 24 0;
#X connect 22 0 29 0;
#X connect 22 0 30 0;
#X connect 22 0 26 0;
#X connect 23 0 31 0;
#X connect 23 0 28 0;
#X connect 23 0 26 0;
#X connect 24 0 27 0;
#X connect 24 0 28 0;
#X connect 24 0 30 0;
#X connect 25 0 3 0;
#X connect 26 0 34 0;
#X connect 27 0 34 0;
#X connect 28 0 33 0;
#X connect 29 0 33 0;
#X connect 30 0 32 0;
#X connect 31 0 32 0;
#X connect 32 0 25 1;
#X connect 33 0 39 1;
#X connect 34 0 38 1;
#X connect 36 0 37 0;
#X connect 37 0 38 0;
#X connect 37 0 39 0;
#X connect 38 0 3 0;
#X connect 39 0 3 0;
#X connect 40 0 10 0;
#X connect 40 0 0 1;
#X connect 42 0 2 0;
#X connect 43 0 42 0;
#X restore 741 566 pd PhaserUnit1;
#N canvas 20 184 739 671 PhaserUnit1 0;
#X obj 141 271 *~;
#X obj 237 277 r MetroGlobal;
#X obj 142 310 vd~ \$0FOO;
#X obj 226 187 *~;
#X obj 227 208 +~;
#X obj 161 355 *~;
#X obj 247 329 r \$0InPhaseComp;
#X obj 401 195 r~ \$0PhaseOffsetSmooth;
#X obj 277 169 r~ \$0PhaseAmtSmooth;
#X obj 224 87 cos~ 1;
#X obj 229 299 Snapshot~;
#X obj 32 198 r~ \$0PhaseScaleHiRamp;
#X obj 160 377 outlet~, f 8;
#X obj 229 360 outlet;
#X obj 104 51 +~;
#X obj 214 33 *~;
#X obj 214 9 r~ \$0PhaseDispRamp;
#X obj 361 9 inlet~;
#X obj 73 17 r~ \$0MasterPhasor;
#X obj 503 3 hradio 15 1 0 3 empty empty empty 0 -8 0 10 -262144 -1
-1 0;
#X obj 503 -23 r \$0PhaseMode;
#X obj 504 27 sel 0 1 2;
#X obj 524 59 bng 15 250 50 0 empty empty empty 17 7 0 10 -262144 -1
-1;
#X obj 504 58 bng 15 250 50 0 empty empty empty 17 7 0 10 -262144 -1
-1;
#X obj 544 59 bng 15 250 50 0 empty empty empty 17 7 0 10 -262144 -1
-1;
#X obj 224 140 *~;
#X msg 566 105 0;
#X msg 565 132 1;
#X msg 527 105 0;
#X msg 528 130 1;
#X msg 489 103 0;
#X msg 489 127 1;
#X floatatom 244 111 5 0 0 0 - - -, f 5;
#X floatatom 160 125 5 0 0 0 - - -, f 5;
#X floatatom 83 148 5 0 0 0 - - -, f 5;
#X obj 412 270 DVM~;
#X obj 102 89 *~ 2;
#X obj 104 118 -~ 1;
#X obj 40 153 *~ -1;
#X obj 130 148 *~;
#X obj 230 239 wrap~;
#X floatatom 304 362 5 0 0 0 - - -, f 5;
#X obj 54 297 +~;
#X obj 29 264 r \$0Bias;
#X connect 0 0 42 1;
#X connect 1 0 10 0;
#X connect 2 0 5 0;
#X connect 3 0 4 0;
#X connect 4 0 40 0;
#X connect 5 0 12 0;
#X connect 6 0 5 1;
#X connect 7 0 4 1;
#X connect 8 0 3 1;
#X connect 9 0 25 0;
#X connect 10 0 13 0;
#X connect 10 0 41 0;
#X connect 11 0 0 0;
#X connect 14 0 9 0;
#X connect 14 0 36 0;
#X connect 15 0 14 1;
#X connect 16 0 15 0;
#X connect 17 0 15 1;
#X connect 18 0 14 0;
#X connect 19 0 21 0;
#X connect 20 0 19 0;
#X connect 21 0 23 0;
#X connect 21 1 22 0;
#X connect 21 2 24 0;
#X connect 22 0 29 0;
#X connect 22 0 30 0;
#X connect 22 0 26 0;
#X connect 23 0 31 0;
#X connect 23 0 28 0;
#X connect 23 0 26 0;
#X connect 24 0 27 0;
#X connect 24 0 28 0;
#X connect 24 0 30 0;
#X connect 25 0 3 0;
#X connect 26 0 34 0;
#X connect 27 0 34 0;
#X connect 28 0 33 0;
#X connect 29 0 33 0;
#X connect 30 0 32 0;
#X connect 31 0 32 0;
#X connect 32 0 25 1;
#X connect 33 0 39 1;
#X connect 34 0 38 1;
#X connect 36 0 37 0;
#X connect 37 0 38 0;
#X connect 37 0 39 0;
#X connect 38 0 3 0;
#X connect 39 0 3 0;
#X connect 40 0 10 0;
#X connect 40 0 0 1;
#X connect 42 0 2 0;
#X connect 43 0 42 0;
#X restore 855 566 pd PhaserUnit1;
#N canvas 20 184 739 671 PhaserUnit1 0;
#X obj 141 271 *~;
#X obj 237 277 r MetroGlobal;
#X obj 142 310 vd~ \$0FOO;
#X obj 226 187 *~;
#X obj 227 208 +~;
#X obj 161 355 *~;
#X obj 247 329 r \$0InPhaseComp;
#X obj 401 195 r~ \$0PhaseOffsetSmooth;
#X obj 277 169 r~ \$0PhaseAmtSmooth;
#X obj 224 87 cos~ 1;
#X obj 229 299 Snapshot~;
#X obj 32 198 r~ \$0PhaseScaleHiRamp;
#X obj 160 377 outlet~, f 8;
#X obj 229 360 outlet;
#X obj 104 51 +~;
#X obj 214 33 *~;
#X obj 214 9 r~ \$0PhaseDispRamp;
#X obj 361 9 inlet~;
#X obj 73 17 r~ \$0MasterPhasor;
#X obj 503 3 hradio 15 1 0 3 empty empty empty 0 -8 0 10 -262144 -1
-1 0;
#X obj 503 -23 r \$0PhaseMode;
#X obj 504 27 sel 0 1 2;
#X obj 524 59 bng 15 250 50 0 empty empty empty 17 7 0 10 -262144 -1
-1;
#X obj 504 58 bng 15 250 50 0 empty empty empty 17 7 0 10 -262144 -1
-1;
#X obj 544 59 bng 15 250 50 0 empty empty empty 17 7 0 10 -262144 -1
-1;
#X obj 224 140 *~;
#X msg 566 105 0;
#X msg 565 132 1;
#X msg 527 105 0;
#X msg 528 130 1;
#X msg 489 103 0;
#X msg 489 127 1;
#X floatatom 244 111 5 0 0 0 - - -, f 5;
#X floatatom 160 125 5 0 0 0 - - -, f 5;
#X floatatom 83 148 5 0 0 0 - - -, f 5;
#X obj 412 270 DVM~;
#X obj 102 89 *~ 2;
#X obj 104 118 -~ 1;
#X obj 40 153 *~ -1;
#X obj 130 148 *~;
#X obj 230 239 wrap~;
#X floatatom 304 362 5 0 0 0 - - -, f 5;
#X obj 54 297 +~;
#X obj 29 264 r \$0Bias;
#X connect 0 0 42 1;
#X connect 1 0 10 0;
#X connect 2 0 5 0;
#X connect 3 0 4 0;
#X connect 4 0 40 0;
#X connect 5 0 12 0;
#X connect 6 0 5 1;
#X connect 7 0 4 1;
#X connect 8 0 3 1;
#X connect 9 0 25 0;
#X connect 10 0 13 0;
#X connect 10 0 41 0;
#X connect 11 0 0 0;
#X connect 14 0 9 0;
#X connect 14 0 36 0;
#X connect 15 0 14 1;
#X connect 16 0 15 0;
#X connect 17 0 15 1;
#X connect 18 0 14 0;
#X connect 19 0 21 0;
#X connect 20 0 19 0;
#X connect 21 0 23 0;
#X connect 21 1 22 0;
#X connect 21 2 24 0;
#X connect 22 0 29 0;
#X connect 22 0 30 0;
#X connect 22 0 26 0;
#X connect 23 0 31 0;
#X connect 23 0 28 0;
#X connect 23 0 26 0;
#X connect 24 0 27 0;
#X connect 24 0 28 0;
#X connect 24 0 30 0;
#X connect 25 0 3 0;
#X connect 26 0 34 0;
#X connect 27 0 34 0;
#X connect 28 0 33 0;
#X connect 29 0 33 0;
#X connect 30 0 32 0;
#X connect 31 0 32 0;
#X connect 32 0 25 1;
#X connect 33 0 39 1;
#X connect 34 0 38 1;
#X connect 36 0 37 0;
#X connect 37 0 38 0;
#X connect 37 0 39 0;
#X connect 38 0 3 0;
#X connect 39 0 3 0;
#X connect 40 0 10 0;
#X connect 40 0 0 1;
#X connect 42 0 2 0;
#X connect 43 0 42 0;
#X restore 976 569 pd PhaserUnit1;
#N canvas 20 184 739 671 PhaserUnit1 0;
#X obj 141 271 *~;
#X obj 237 277 r MetroGlobal;
#X obj 142 310 vd~ \$0FOO;
#X obj 226 187 *~;
#X obj 227 208 +~;
#X obj 161 355 *~;
#X obj 247 329 r \$0InPhaseComp;
#X obj 401 195 r~ \$0PhaseOffsetSmooth;
#X obj 277 169 r~ \$0PhaseAmtSmooth;
#X obj 224 87 cos~ 1;
#X obj 229 299 Snapshot~;
#X obj 32 198 r~ \$0PhaseScaleHiRamp;
#X obj 160 377 outlet~, f 8;
#X obj 229 360 outlet;
#X obj 104 51 +~;
#X obj 214 33 *~;
#X obj 214 9 r~ \$0PhaseDispRamp;
#X obj 361 9 inlet~;
#X obj 73 17 r~ \$0MasterPhasor;
#X obj 503 3 hradio 15 1 0 3 empty empty empty 0 -8 0 10 -262144 -1
-1 0;
#X obj 503 -23 r \$0PhaseMode;
#X obj 504 27 sel 0 1 2;
#X obj 524 59 bng 15 250 50 0 empty empty empty 17 7 0 10 -262144 -1
-1;
#X obj 504 58 bng 15 250 50 0 empty empty empty 17 7 0 10 -262144 -1
-1;
#X obj 544 59 bng 15 250 50 0 empty empty empty 17 7 0 10 -262144 -1
-1;
#X obj 224 140 *~;
#X msg 566 105 0;
#X msg 565 132 1;
#X msg 527 105 0;
#X msg 528 130 1;
#X msg 489 103 0;
#X msg 489 127 1;
#X floatatom 244 111 5 0 0 0 - - -, f 5;
#X floatatom 160 125 5 0 0 0 - - -, f 5;
#X floatatom 83 148 5 0 0 0 - - -, f 5;
#X obj 412 270 DVM~;
#X obj 102 89 *~ 2;
#X obj 104 118 -~ 1;
#X obj 40 153 *~ -1;
#X obj 130 148 *~;
#X obj 230 239 wrap~;
#X floatatom 304 362 5 0 0 0 - - -, f 5;
#X obj 54 297 +~;
#X obj 29 264 r \$0Bias;
#X connect 0 0 42 1;
#X connect 1 0 10 0;
#X connect 2 0 5 0;
#X connect 3 0 4 0;
#X connect 4 0 40 0;
#X connect 5 0 12 0;
#X connect 6 0 5 1;
#X connect 7 0 4 1;
#X connect 8 0 3 1;
#X connect 9 0 25 0;
#X connect 10 0 13 0;
#X connect 10 0 41 0;
#X connect 11 0 0 0;
#X connect 14 0 9 0;
#X connect 14 0 36 0;
#X connect 15 0 14 1;
#X connect 16 0 15 0;
#X connect 17 0 15 1;
#X connect 18 0 14 0;
#X connect 19 0 21 0;
#X connect 20 0 19 0;
#X connect 21 0 23 0;
#X connect 21 1 22 0;
#X connect 21 2 24 0;
#X connect 22 0 29 0;
#X connect 22 0 30 0;
#X connect 22 0 26 0;
#X connect 23 0 31 0;
#X connect 23 0 28 0;
#X connect 23 0 26 0;
#X connect 24 0 27 0;
#X connect 24 0 28 0;
#X connect 24 0 30 0;
#X connect 25 0 3 0;
#X connect 26 0 34 0;
#X connect 27 0 34 0;
#X connect 28 0 33 0;
#X connect 29 0 33 0;
#X connect 30 0 32 0;
#X connect 31 0 32 0;
#X connect 32 0 25 1;
#X connect 33 0 39 1;
#X connect 34 0 38 1;
#X connect 36 0 37 0;
#X connect 37 0 38 0;
#X connect 37 0 39 0;
#X connect 38 0 3 0;
#X connect 39 0 3 0;
#X connect 40 0 10 0;
#X connect 40 0 0 1;
#X connect 42 0 2 0;
#X connect 43 0 42 0;
#X restore 1091 571 pd PhaserUnit1;
#N canvas 20 184 739 671 PhaserUnit1 0;
#X obj 141 271 *~;
#X obj 237 277 r MetroGlobal;
#X obj 142 310 vd~ \$0FOO;
#X obj 226 187 *~;
#X obj 227 208 +~;
#X obj 161 355 *~;
#X obj 247 329 r \$0InPhaseComp;
#X obj 401 195 r~ \$0PhaseOffsetSmooth;
#X obj 277 169 r~ \$0PhaseAmtSmooth;
#X obj 224 87 cos~ 1;
#X obj 229 299 Snapshot~;
#X obj 32 198 r~ \$0PhaseScaleHiRamp;
#X obj 160 377 outlet~, f 8;
#X obj 229 360 outlet;
#X obj 104 51 +~;
#X obj 214 33 *~;
#X obj 214 9 r~ \$0PhaseDispRamp;
#X obj 361 9 inlet~;
#X obj 73 17 r~ \$0MasterPhasor;
#X obj 503 3 hradio 15 1 0 3 empty empty empty 0 -8 0 10 -262144 -1
-1 0;
#X obj 503 -23 r \$0PhaseMode;
#X obj 504 27 sel 0 1 2;
#X obj 524 59 bng 15 250 50 0 empty empty empty 17 7 0 10 -262144 -1
-1;
#X obj 504 58 bng 15 250 50 0 empty empty empty 17 7 0 10 -262144 -1
-1;
#X obj 544 59 bng 15 250 50 0 empty empty empty 17 7 0 10 -262144 -1
-1;
#X obj 224 140 *~;
#X msg 566 105 0;
#X msg 565 132 1;
#X msg 527 105 0;
#X msg 528 130 1;
#X msg 489 103 0;
#X msg 489 127 1;
#X floatatom 244 111 5 0 0 0 - - -, f 5;
#X floatatom 160 125 5 0 0 0 - - -, f 5;
#X floatatom 83 148 5 0 0 0 - - -, f 5;
#X obj 412 270 DVM~;
#X obj 102 89 *~ 2;
#X obj 104 118 -~ 1;
#X obj 40 153 *~ -1;
#X obj 130 148 *~;
#X obj 230 239 wrap~;
#X floatatom 304 362 5 0 0 0 - - -, f 5;
#X obj 54 297 +~;
#X obj 29 264 r \$0Bias;
#X connect 0 0 42 1;
#X connect 1 0 10 0;
#X connect 2 0 5 0;
#X connect 3 0 4 0;
#X connect 4 0 40 0;
#X connect 5 0 12 0;
#X connect 6 0 5 1;
#X connect 7 0 4 1;
#X connect 8 0 3 1;
#X connect 9 0 25 0;
#X connect 10 0 13 0;
#X connect 10 0 41 0;
#X connect 11 0 0 0;
#X connect 14 0 9 0;
#X connect 14 0 36 0;
#X connect 15 0 14 1;
#X connect 16 0 15 0;
#X connect 17 0 15 1;
#X connect 18 0 14 0;
#X connect 19 0 21 0;
#X connect 20 0 19 0;
#X connect 21 0 23 0;
#X connect 21 1 22 0;
#X connect 21 2 24 0;
#X connect 22 0 29 0;
#X connect 22 0 30 0;
#X connect 22 0 26 0;
#X connect 23 0 31 0;
#X connect 23 0 28 0;
#X connect 23 0 26 0;
#X connect 24 0 27 0;
#X connect 24 0 28 0;
#X connect 24 0 30 0;
#X connect 25 0 3 0;
#X connect 26 0 34 0;
#X connect 27 0 34 0;
#X connect 28 0 33 0;
#X connect 29 0 33 0;
#X connect 30 0 32 0;
#X connect 31 0 32 0;
#X connect 32 0 25 1;
#X connect 33 0 39 1;
#X connect 34 0 38 1;
#X connect 36 0 37 0;
#X connect 37 0 38 0;
#X connect 37 0 39 0;
#X connect 38 0 3 0;
#X connect 39 0 3 0;
#X connect 40 0 10 0;
#X connect 40 0 0 1;
#X connect 42 0 2 0;
#X connect 43 0 42 0;
#X restore 1198 571 pd PhaserUnit1;
#N canvas 20 184 739 671 PhaserUnit1 0;
#X obj 141 271 *~;
#X obj 237 277 r MetroGlobal;
#X obj 142 310 vd~ \$0FOO;
#X obj 226 187 *~;
#X obj 227 208 +~;
#X obj 161 355 *~;
#X obj 247 329 r \$0InPhaseComp;
#X obj 401 195 r~ \$0PhaseOffsetSmooth;
#X obj 277 169 r~ \$0PhaseAmtSmooth;
#X obj 224 87 cos~ 1;
#X obj 229 299 Snapshot~;
#X obj 32 198 r~ \$0PhaseScaleHiRamp;
#X obj 160 377 outlet~, f 8;
#X obj 229 360 outlet;
#X obj 104 51 +~;
#X obj 214 33 *~;
#X obj 214 9 r~ \$0PhaseDispRamp;
#X obj 361 9 inlet~;
#X obj 73 17 r~ \$0MasterPhasor;
#X obj 503 3 hradio 15 1 0 3 empty empty empty 0 -8 0 10 -262144 -1
-1 0;
#X obj 503 -23 r \$0PhaseMode;
#X obj 504 27 sel 0 1 2;
#X obj 524 59 bng 15 250 50 0 empty empty empty 17 7 0 10 -262144 -1
-1;
#X obj 504 58 bng 15 250 50 0 empty empty empty 17 7 0 10 -262144 -1
-1;
#X obj 544 59 bng 15 250 50 0 empty empty empty 17 7 0 10 -262144 -1
-1;
#X obj 224 140 *~;
#X msg 566 105 0;
#X msg 565 132 1;
#X msg 527 105 0;
#X msg 528 130 1;
#X msg 489 103 0;
#X msg 489 127 1;
#X floatatom 244 111 5 0 0 0 - - -, f 5;
#X floatatom 160 125 5 0 0 0 - - -, f 5;
#X floatatom 83 148 5 0 0 0 - - -, f 5;
#X obj 412 270 DVM~;
#X obj 102 89 *~ 2;
#X obj 104 118 -~ 1;
#X obj 40 153 *~ -1;
#X obj 130 148 *~;
#X obj 230 239 wrap~;
#X floatatom 304 362 5 0 0 0 - - -, f 5;
#X obj 54 297 +~;
#X obj 29 264 r \$0Bias;
#X connect 0 0 42 1;
#X connect 1 0 10 0;
#X connect 2 0 5 0;
#X connect 3 0 4 0;
#X connect 4 0 40 0;
#X connect 5 0 12 0;
#X connect 6 0 5 1;
#X connect 7 0 4 1;
#X connect 8 0 3 1;
#X connect 9 0 25 0;
#X connect 10 0 13 0;
#X connect 10 0 41 0;
#X connect 11 0 0 0;
#X connect 14 0 9 0;
#X connect 14 0 36 0;
#X connect 15 0 14 1;
#X connect 16 0 15 0;
#X connect 17 0 15 1;
#X connect 18 0 14 0;
#X connect 19 0 21 0;
#X connect 20 0 19 0;
#X connect 21 0 23 0;
#X connect 21 1 22 0;
#X connect 21 2 24 0;
#X connect 22 0 29 0;
#X connect 22 0 30 0;
#X connect 22 0 26 0;
#X connect 23 0 31 0;
#X connect 23 0 28 0;
#X connect 23 0 26 0;
#X connect 24 0 27 0;
#X connect 24 0 28 0;
#X connect 24 0 30 0;
#X connect 25 0 3 0;
#X connect 26 0 34 0;
#X connect 27 0 34 0;
#X connect 28 0 33 0;
#X connect 29 0 33 0;
#X connect 30 0 32 0;
#X connect 31 0 32 0;
#X connect 32 0 25 1;
#X connect 33 0 39 1;
#X connect 34 0 38 1;
#X connect 36 0 37 0;
#X connect 37 0 38 0;
#X connect 37 0 39 0;
#X connect 38 0 3 0;
#X connect 39 0 3 0;
#X connect 40 0 10 0;
#X connect 40 0 0 1;
#X connect 42 0 2 0;
#X connect 43 0 42 0;
#X restore 1312 573 pd PhaserUnit1;
#X obj 615 163 bng 15 250 50 0 empty empty empty 17 7 0 10 -257985
-1 -1;
#X obj 641 170 nbx 5 14 -1e+37 1e+37 0 0 empty empty empty 0 -8 0 10
-257985 -1 -1 0 256;
#X obj 207 69 hradio 8 1 0 4 \$0PhaseMode \$0PhaseModeIn empty 0 -8
0 10 -262144 -1 -1 3;
#X msg 113 21 This doesn't work right! Should have Sin \, Saw Up/Down
\, Tri \, Square/PWM;
#X obj 183 341 bng 15 250 50 0 empty empty empty 17 7 0 10 -262144
-1 -1;
#X connect 11 0 131 0;
#X connect 12 0 40 0;
#X connect 13 0 12 0;
#X connect 14 0 29 0;
#X connect 15 0 14 0;
#X connect 16 0 28 0;
#X connect 17 0 166 0;
#X connect 17 0 105 0;
#X connect 17 0 106 0;
#X connect 18 0 20 0;
#X connect 19 0 27 0;
#X connect 19 0 1 0;
#X connect 22 0 15 0;
#X connect 23 0 22 0;
#X connect 23 1 22 1;
#X connect 25 0 26 0;
#X connect 30 0 96 0;
#X connect 31 0 32 0;
#X connect 31 0 30 0;
#X connect 33 0 34 0;
#X connect 33 0 128 0;
#X connect 33 0 97 0;
#X connect 35 0 85 0;
#X connect 36 0 95 0;
#X connect 38 0 35 0;
#X connect 39 0 13 0;
#X connect 39 0 103 0;
#X connect 39 0 104 0;
#X connect 46 0 86 0;
#X connect 47 0 46 0;
#X connect 49 0 87 0;
#X connect 50 0 49 0;
#X connect 52 0 88 0;
#X connect 53 0 52 0;
#X connect 55 0 89 0;
#X connect 56 0 55 0;
#X connect 58 0 90 0;
#X connect 59 0 58 0;
#X connect 61 0 91 0;
#X connect 62 0 61 0;
#X connect 64 0 178 0;
#X connect 65 0 64 0;
#X connect 66 0 65 0;
#X connect 68 0 92 0;
#X connect 69 0 68 0;
#X connect 71 0 93 0;
#X connect 72 0 71 0;
#X connect 74 0 94 0;
#X connect 75 0 74 0;
#X connect 85 0 171 0;
#X connect 86 0 172 0;
#X connect 87 0 173 0;
#X connect 88 0 174 0;
#X connect 89 0 175 0;
#X connect 90 0 176 0;
#X connect 91 0 177 0;
#X connect 92 0 179 0;
#X connect 93 0 180 0;
#X connect 94 0 181 0;
#X connect 98 0 100 0;
#X connect 99 0 98 0;
#X connect 100 0 165 0;
#X connect 108 0 22 0;
#X connect 110 0 23 0;
#X connect 110 0 109 0;
#X connect 124 0 19 0;
#X connect 125 0 126 0;
#X connect 125 0 124 0;
#X connect 128 0 36 0;
#X connect 131 0 146 0;
#X connect 131 0 138 0;
#X connect 132 0 131 1;
#X connect 132 0 147 0;
#X connect 134 0 133 0;
#X connect 136 0 164 0;
#X connect 137 0 145 0;
#X connect 139 0 148 0;
#X connect 139 1 149 0;
#X connect 140 0 144 0;
#X connect 140 0 150 0;
#X connect 142 0 141 0;
#X connect 142 0 143 0;
#X connect 145 0 132 1;
#X connect 146 0 161 0;
#X connect 148 0 140 0;
#X connect 150 0 142 0;
#X connect 150 1 142 1;
#X connect 151 0 134 0;
#X connect 152 0 134 0;
#X connect 153 0 134 0;
#X connect 154 0 134 0;
#X connect 155 0 134 0;
#X connect 156 0 134 0;
#X connect 157 0 134 0;
#X connect 158 0 134 0;
#X connect 159 0 134 0;
#X connect 160 0 134 0;
#X connect 161 0 162 0;
#X connect 161 0 10 0;
#X connect 163 0 134 0;
#X connect 164 0 132 0;
#X connect 165 0 4 0;
#X connect 165 1 7 0;
#X connect 166 0 16 0;
#X connect 168 0 28 0;
#X connect 170 0 168 0;
#X connect 170 0 182 0;
#X connect 170 0 183 0;
#X connect 171 0 5 0;
#X connect 171 1 9 0;
#X connect 172 0 6 0;
#X connect 172 1 8 0;
#X connect 173 0 48 0;
#X connect 173 1 76 0;
#X connect 174 0 51 0;
#X connect 174 1 77 0;
#X connect 175 0 54 0;
#X connect 175 1 78 0;
#X connect 176 0 57 0;
#X connect 176 0 135 0;
#X connect 176 1 79 0;
#X connect 177 0 60 0;
#X connect 177 1 80 0;
#X connect 178 0 63 0;
#X connect 178 1 81 0;
#X connect 179 0 67 0;
#X connect 179 1 82 0;
#X connect 180 0 70 0;
#X connect 180 1 83 0;
#X connect 181 0 73 0;
#X connect 181 1 84 0;
#X connect 186 0 37 0;
#X coords 0 -1 1 1 150 220 1 100 100;
