#N canvas 2119 212 974 533 10;
#X obj 241 7 osc~ 1;
#X obj 405 9 osc~ 1;
#X obj 588 10 osc~ 1;
#X msg 291 -75 0;
#X msg 447 -58 0.3333;
#X msg 679 -70 0.66667;
#X obj 504 -103 bng 15 250 50 0 empty empty empty 17 7 0 10 -262144
-1 -1;
#X obj 109 124 hsl 128 15 0.01 10 1 0 empty empty Phase_Rate 7 7 0
10 -4034 -1 -1 5767 1;
#X obj 114 146 hsl 60 15 0 0.5 0 0 empty empty Phase_Amt 7 7 0 10 -257985
-1 -1 5900 1;
#X obj 182 146 hsl 60 15 1 0 0 0 empty empty PhaseLRoffset -2 7 0 10
-257985 -1 -1 2950 1;
#X obj 504 -126 loadbang;
#X floatatom 480 9 5 0 0 0 - - -;
#X obj 242 29 *~ 0.5;
#X obj 243 50 +~ 0.5;
#X obj 403 35 *~ 0.5;
#X obj 405 60 +~ 0.5;
#X obj 587 36 *~ 0.5;
#X obj 589 56 +~ 0.5;
#X obj 148 369 outlet~;
#X obj 212 363 outlet~;
#X obj 59 -77 inlet~;
#X obj 111 -75 inlet~;
#X obj 164 -76 inlet~;
#X obj 276 132 vsl 15 90 0 2 0 0 empty empty empty 0 -9 0 10 -204800
-1 -1 4450 1;
#X obj 135 329 *~;
#X obj 216 327 *~;
#X msg 728 136 0.5;
#X floatatom 366 292 5 0 0 0 - - -;
#X msg 642 127 1;
#X msg 376 -67 1;
#X obj 104 183 BillPan2~;
#X obj 103 206 BillPan2~;
#X obj 103 225 BillPan2~;
#X obj 116 164 hsl 128 15 0 1 0 0 \$0PhaseDistance empty Phase_Distance
5 8 0 10 -159808 -262144 -257985 8000 1;
#X obj 469 -17 *;
#X obj 700 -8 *;
#X obj 493 -51 t b f;
#X obj 711 -37 t b f;
#X obj 271 -99 bng 15 250 50 0 empty empty empty 17 7 0 10 -262144
-1 -1;
#X floatatom 761 -37 5 0 0 0 - - -;
#X obj 757 -64 r \$0PhaseDistance;
#X obj 533 -75 r \$0PhaseDistance;
#X obj 262 -125 r \$0PhaseDistance;
#X connect 0 0 12 0;
#X connect 1 0 14 0;
#X connect 2 0 16 0;
#X connect 3 0 0 1;
#X connect 4 0 34 0;
#X connect 5 0 35 0;
#X connect 6 0 4 0;
#X connect 6 0 3 0;
#X connect 6 0 5 0;
#X connect 6 0 26 0;
#X connect 6 0 28 0;
#X connect 6 0 29 0;
#X connect 7 0 0 0;
#X connect 7 0 1 0;
#X connect 7 0 2 0;
#X connect 7 0 11 0;
#X connect 8 0 12 1;
#X connect 8 0 14 1;
#X connect 8 0 16 1;
#X connect 9 0 13 1;
#X connect 9 0 15 1;
#X connect 9 0 17 1;
#X connect 10 0 6 0;
#X connect 12 0 13 0;
#X connect 13 0 30 1;
#X connect 14 0 15 0;
#X connect 15 0 31 1;
#X connect 16 0 17 0;
#X connect 17 0 32 1;
#X connect 20 0 30 0;
#X connect 21 0 31 0;
#X connect 22 0 32 0;
#X connect 23 0 24 1;
#X connect 23 0 25 1;
#X connect 23 0 27 0;
#X connect 24 0 18 0;
#X connect 25 0 19 0;
#X connect 26 0 8 0;
#X connect 26 0 9 0;
#X connect 28 0 23 0;
#X connect 29 0 7 0;
#X connect 30 0 24 0;
#X connect 30 1 25 0;
#X connect 31 0 24 0;
#X connect 31 1 25 0;
#X connect 32 0 24 0;
#X connect 32 1 25 0;
#X connect 34 0 1 1;
#X connect 35 0 2 1;
#X connect 36 0 34 0;
#X connect 36 1 34 1;
#X connect 37 0 35 0;
#X connect 37 1 35 1;
#X connect 38 0 3 0;
#X connect 40 0 39 0;
#X connect 40 0 37 0;
#X connect 41 0 36 0;
#X connect 42 0 38 0;
#X coords 0 -1 1 1 200 150 1 100 100;
