#N canvas 1912 7 1280 984 10;
#X obj 284 423 osc~ 1;
#X obj 573 422 osc~ 1;
#X obj 892 419 osc~ 1;
#X msg 347 374 0;
#X msg 675 348 0.3333;
#X msg 959 367 0.66667;
#X obj 233 121 bng 15 250 50 0 \$0LoadBang empty reset -30 7 0 10 -258113
-1 -1;
#X obj 780 286 hsl 128 15 0.01 20 1 0 empty empty Phase_Speed_Scaled
7 7 0 10 -4034 -1 -1 6797 1;
#X obj 87 290 hsl 70 15 0.005 0.5 1 0 empty empty Phase_Amt 2 7 0 10
-203904 -1 -1 5022 1;
#X obj 181 139 hsl 60 15 0 1 0 0 \$0PhaseOffset \$0PhaseOffsetIn PhaseLRoffset
-2 7 0 10 -257985 -1 -1 2850 1;
#X obj 396 48 loadbang;
#X msg 1048 146 0.5;
#X obj 117 174 hsl 120 15 0 1 0 0 \$0PhaseDisp empty Phase_Disp 0 8
0 10 -159808 -1 -1 11900 0;
#X obj 647 378 *;
#X obj 938 388 *;
#X obj 902 339 r \$0PhaseDisp;
#X obj 1104 156 s \$0PhaseRateIn;
#X obj 1056 214 s \$0PhaseOffsetIn;
#X obj 1063 190 s \$0PhaseAmtIn;
#X floatatom 228 427 5 0 0 0 - - -;
#X obj 237 482 *~;
#X obj 347 140 hsl 128 15 0 127 0 0 \$0PhaseFinal empty Phase_Final
50 8 0 10 -203904 -1 -1 1800 1;
#X obj 472 487 *~;
#X obj 789 484 *~;
#X floatatom 369 163 5 0 0 0 - - -;
#X obj 112 191 hsl 128 15 0 1 0 0 empty \$0p1 Phase1 15 8 0 10 -260097
-1 -1 9097 1;
#X obj 310 528 r MetroGlobal;
#X obj 297 552 snapshot~;
#X obj 585 526 r MetroGlobal;
#X obj 575 546 snapshot~;
#X obj 900 525 r MetroGlobal;
#X obj 894 547 snapshot~;
#X obj 236 697 outlet~;
#X obj 472 685 outlet~;
#X obj 786 663 outlet~;
#X obj 297 575 s \$0p1;
#X obj 894 571 s \$0p3;
#X obj 575 571 s \$0p2;
#X obj 111 206 hsl 128 15 0 1 0 0 empty \$0p2 Phase2 15 8 0 10 -260097
-1 -1 3270 1;
#X obj 111 222 hsl 128 15 0 1 0 0 empty \$0p3 Phase3 15 8 0 10 -260097
-1 -1 6037 1;
#X obj 298 346 r \$0PhaseDisp;
#X obj 582 348 r \$0PhaseDisp;
#X obj 1015 344 r \$0LoadBang;
#X obj 676 326 r \$0LoadBang;
#X obj 396 342 r \$0LoadBang;
#X obj 1047 111 r \$0LoadBang;
#X floatatom 526 366 5 0 0 0 - - -;
#X obj 432 722 Snapshot;
#X obj 416 374 bng 15 250 50 0 empty empty empty 17 7 0 10 -262144
-1 -1;
#X obj 628 321 bng 15 250 50 0 empty empty empty 17 7 0 10 -262144
-1 -1;
#N canvas 2512 205 450 300 FOO 0;
#X obj 454 171 inlet~;
#X obj 572 170 inlet~;
#X obj 682 169 inlet~;
#X obj 453 284 delwrite~ \$0d1;
#X obj 683 256 mux~;
#X obj 571 286 delwrite~ \$0d2;
#X obj 683 283 delwrite~ \$0d3;
#X obj 739 154 tgl 15 0 \$0Mono empty Mono -25 7 0 10 -4032 -1 -1 0
1;
#X obj 792 179 tgl 15 0 empty \$0Mono empty 17 7 0 10 -4032 -33289
-1 0 1;
#X obj 453 258 mux~;
#X obj 573 260 mux~;
#X connect 0 0 9 0;
#X connect 0 0 9 1;
#X connect 1 0 10 0;
#X connect 2 0 4 0;
#X connect 4 0 6 0;
#X connect 9 0 3 0;
#X connect 10 0 5 0;
#X restore 493 54 pd FOO;
#X obj 498 182 inlet~;
#X obj 500 208 delwrite~ \$0FOO 5000;
#X obj 235 504 vd~ \$0FOO;
#X obj 471 508 vd~ \$0FOO;
#X obj 786 504 vd~ \$0FOO;
#X obj 672 30 r \$0PhaseFinal;
#X obj 673 103 s~ \$0PhaseFinal1;
#X obj 673 77 line~;
#X obj 86 435 r~ \$0PhaseFinal1;
#X obj 472 461 r~ \$0PhaseFinal1;
#X obj 764 459 r~ \$0PhaseFinal1;
#X msg 672 53 \$1 50;
#X obj 858 14 r \$0PhaseAmt;
#X obj 790 78 line~;
#X msg 787 56 \$1 50;
#X floatatom 904 37 5 0 0 0 - - -;
#X obj 892 447 *~;
#X obj 572 445 *~;
#X obj 297 444 *~;
#X obj 298 465 +~;
#X obj 574 470 +~;
#X obj 893 472 +~;
#X obj 547 104 line~;
#X msg 546 80 \$1 50;
#X obj 546 57 r \$0PhaseOffset;
#X floatatom 83 314 5 0 0 0 - - -;
#X msg -3 92 1 0.4;
#X obj -34 183 unpack f f;
#X msg 119 16;
#X msg -14 64 2.03 0.25;
#X msg -47 15 10 0.11;
#X msg -32 38 5 0.17;
#X msg 7 122 0.5 0.6;
#X obj 108 156 hsl 128 15 0.4 1 0 0 \$0PhaseSpeed empty PhaseSpeed
7 8 0 10 -4034 -1 -1 6400 1;
#X floatatom 684 229 5 0 0 0 - - -;
#X floatatom 796 241 5 0 0 0 - - -;
#X obj 684 247 s \$0PhaseAmt;
#X obj 82 262 r \$0PhaseAmt;
#X floatatom 242 172 5 0 0 0 - - -;
#X obj 169 103 hsl 70 15 0.01 5 1 0 \$0PhaseScale \$0PhaseScaleIn PhaseScale
7 7 0 10 -203904 -1 -1 5800 1;
#X obj 972 27 r \$0PhaseScale;
#X obj 953 103 *;
#X obj 968 62 t b f;
#X floatatom 165 120 5 0 0 0 - - -;
#X floatatom 1017 51 5 0 0 0 - - -;
#X obj 632 169 r \$0PhaseSpeed;
#X msg 975 9 This is Phase Depth;
#X msg 140 60 0.6;
#X obj 105 121 hsl 40 15 0 1 0 0 empty empty RateComp -2 -5 0 10 -232576
-1 -1 1400 1;
#X obj 684 199 expr (1.1-$f1)*$f2 \; pow($f1 \, 10)*20;
#X obj 768 160 t b f;
#X msg 372 109 18;
#X floatatom 137 138 5 0 0 0 - - -;
#X floatatom 950 127 5 0 0 0 - - -;
#N canvas 618 323 601 477 InPhaseComp 0;
#X floatatom 325 199 5 0 0 0 - - -;
#X obj 307 175 < 0.02;
#X obj 289 240 *;
#X floatatom 231 238 5 0 0 0 - - -;
#X obj 252 140 * 30;
#X obj 247 207 -;
#X floatatom 288 314 5 0 0 0 - - -;
#X msg 289 265 1 \$1;
#X obj 271 289 -;
#X obj 275 104 inlet;
#X msg 279 81 Phase Delta;
#X msg 485 113 aa;
#X msg 397 115 As Phase Delta approaches zero reduce final output by
factor;
#X obj 261 347 outlet;
#X obj 103 113 tgl 15 0 empty empty COMP 17 7 0 10 -4034 -1 -1 0 1
;
#X obj 107 132 hsl 40 15 0 1 0 0 empty empty empty -2 -8 0 10 -262144
-1 -1 1170 1;
#X floatatom 100 171 5 0 0 0 - - -;
#X obj 240 179 t b f;
#X obj 66 65 initbang;
#X obj 156 133 bng 15 250 50 0 empty empty empty 17 7 0 10 -262144
-1 -1;
#X msg 59 110 0.3;
#X connect 1 0 0 0;
#X connect 1 0 2 1;
#X connect 1 0 14 0;
#X connect 2 0 7 0;
#X connect 4 0 17 0;
#X connect 5 0 3 0;
#X connect 5 0 2 0;
#X connect 7 0 8 0;
#X connect 8 0 6 0;
#X connect 8 0 13 0;
#X connect 9 0 4 0;
#X connect 9 0 1 0;
#X connect 15 0 16 0;
#X connect 15 0 5 0;
#X connect 17 0 5 0;
#X connect 17 1 5 1;
#X connect 18 0 20 0;
#X connect 19 0 20 0;
#X connect 20 0 15 0;
#X coords 0 -1 1 1 50 55 1 100 100;
#X restore 951 219 pd InPhaseComp;
#X floatatom 970 284 5 0 0 0 - - -;
#X obj 472 650 *~;
#X obj 487 623 r \$0InPhaseComp;
#X obj 237 659 *~;
#X obj 252 632 r \$0InPhaseComp;
#X obj 785 632 *~;
#X obj 800 605 r \$0InPhaseComp;
#X obj 926 310 s \$0InPhaseComp;
#X floatatom 835 630 5 0 0 0 - - -;
#X msg 1102 133 aet 1;
#X obj 810 264 s \$0PhaseRateComp;
#X obj 228 393 r \$0PhaseRateComp;
#X obj 520 390 r \$0PhaseRateComp;
#X obj 793 386 r \$0PhaseRateComp;
#X obj 547 130 s~ \$0PhaseOffsetSmooth;
#X obj 626 447 r~ \$0PhaseOffsetSmooth;
#X obj 945 446 r~ \$0PhaseOffsetSmooth;
#X obj 346 443 r~ \$0PhaseOffsetSmooth;
#X floatatom 509 427 5 0 0 0 - - -;
#X floatatom 811 416 5 0 0 0 - - -;
#X obj 791 102 s~ \$0PhaseAmtSmooth;
#X obj 655 414 r~ \$0PhaseAmtSmooth;
#X obj 1032 400 r~ \$0PhaseAmtSmooth;
#X obj 377 405 r~ \$0PhaseAmtSmooth;
#X connect 0 0 69 0;
#X connect 1 0 68 0;
#X connect 2 0 67 0;
#X connect 3 0 0 1;
#X connect 4 0 13 1;
#X connect 5 0 14 1;
#X connect 8 0 76 0;
#X connect 10 0 6 0;
#X connect 10 0 102 0;
#X connect 11 0 17 0;
#X connect 11 0 18 0;
#X connect 13 0 1 1;
#X connect 14 0 2 1;
#X connect 15 0 14 0;
#X connect 20 0 53 0;
#X connect 21 0 24 0;
#X connect 22 0 54 0;
#X connect 23 0 55 0;
#X connect 26 0 27 0;
#X connect 27 0 35 0;
#X connect 28 0 29 0;
#X connect 29 0 37 0;
#X connect 30 0 31 0;
#X connect 31 0 36 0;
#X connect 40 0 3 0;
#X connect 41 0 13 0;
#X connect 41 0 46 0;
#X connect 42 0 5 0;
#X connect 43 0 4 0;
#X connect 43 0 49 0;
#X connect 44 0 3 0;
#X connect 44 0 48 0;
#X connect 45 0 11 0;
#X connect 45 0 115 0;
#X connect 51 0 52 0;
#X connect 53 0 109 0;
#X connect 54 0 107 0;
#X connect 55 0 111 0;
#X connect 56 0 62 0;
#X connect 58 0 57 0;
#X connect 59 0 20 1;
#X connect 60 0 22 1;
#X connect 61 0 23 1;
#X connect 62 0 58 0;
#X connect 63 0 66 0;
#X connect 63 0 92 0;
#X connect 64 0 126 0;
#X connect 65 0 64 0;
#X connect 67 0 72 0;
#X connect 68 0 71 0;
#X connect 69 0 70 0;
#X connect 70 0 20 0;
#X connect 70 0 27 0;
#X connect 71 0 22 0;
#X connect 71 0 29 0;
#X connect 72 0 23 0;
#X connect 72 0 31 0;
#X connect 73 0 120 0;
#X connect 74 0 73 0;
#X connect 75 0 74 0;
#X connect 77 0 78 0;
#X connect 80 0 78 0;
#X connect 81 0 78 0;
#X connect 82 0 78 0;
#X connect 83 0 78 0;
#X connect 84 0 89 0;
#X connect 85 0 87 0;
#X connect 86 0 116 0;
#X connect 86 0 7 0;
#X connect 88 0 8 0;
#X connect 90 0 94 0;
#X connect 91 0 93 0;
#X connect 91 0 95 0;
#X connect 92 0 65 0;
#X connect 92 0 104 0;
#X connect 93 0 92 0;
#X connect 93 1 92 1;
#X connect 96 0 100 0;
#X connect 98 0 99 0;
#X connect 99 0 101 0;
#X connect 99 0 103 0;
#X connect 100 0 85 0;
#X connect 100 1 86 0;
#X connect 101 0 100 0;
#X connect 101 1 100 1;
#X connect 102 0 21 0;
#X connect 104 0 105 0;
#X connect 105 0 106 0;
#X connect 105 0 113 0;
#X connect 107 0 33 0;
#X connect 108 0 107 1;
#X connect 109 0 32 0;
#X connect 110 0 109 1;
#X connect 111 0 34 0;
#X connect 112 0 111 1;
#X connect 112 0 114 0;
#X connect 115 0 16 0;
#X connect 117 0 0 0;
#X connect 117 0 19 0;
#X connect 118 0 1 0;
#X connect 118 0 124 0;
#X connect 119 0 2 0;
#X connect 119 0 125 0;
#X connect 121 0 71 1;
#X connect 122 0 72 1;
#X connect 123 0 70 1;
#X connect 127 0 68 1;
#X connect 128 0 67 1;
#X connect 129 0 69 1;
#X coords 0 -1 1 1 150 140 1 100 100;
