#N canvas 1 168 1185 597 10;
#X obj 154 127 bng 15 250 50 0 \$0LoadBang empty reset -15 20 0 10
-258113 -1 -1;
#X obj 780 286 hsl 128 15 0.01 20 1 0 empty empty Phase_Speed_Scaled
7 7 0 10 -4034 -1 -1 0 1;
#X obj 87 290 hsl 70 15 0.005 0.5 1 0 empty empty Phase_Amt 2 7 0 10
-203904 -1 -1 6900 1;
#X obj 181 139 hsl 60 15 0 1 0 0 \$0PhaseOffset \$0PhaseOffsetIn PhaseLRoffset
-2 7 0 10 -257985 -1 -1 2950 0;
#X obj 318 25 loadbang;
#X msg 1048 146 0.5;
#X obj 117 174 hsl 120 15 0 1 0 0 \$0PhaseDisp \$0PhaseDispIn Phase_Disp
0 8 0 10 -159808 -1 -1 0 0;
#X obj 1104 156 s \$0PhaseRateIn;
#X obj 1056 214 s \$0PhaseOffsetIn;
#X obj 1063 190 s \$0PhaseAmtIn;
#X obj 237 482 *~;
#X obj 175 120 hsl 65 15 1 127 1 0 \$0PhaseFinal empty PhaseScaleHi
0 8 0 10 -203904 -1 -1 3819 0;
#X obj 472 487 *~;
#X obj 785 519 *~;
#X floatatom 369 163 5 0 0 0 - - -, f 5;
#X obj 111 192 hsl 128 15 0 1 0 0 empty \$0p1 Phase1 15 8 0 10 -260097
-1 -1 6350 1;
#X obj 310 528 r MetroGlobal;
#X obj 585 526 r MetroGlobal;
#X obj 906 513 r MetroGlobal;
#X obj 236 697 outlet~;
#X obj 472 685 outlet~;
#X obj 786 663 outlet~;
#X obj 297 575 s \$0p1;
#X obj 894 571 s \$0p3;
#X obj 575 571 s \$0p2;
#X obj 111 206 hsl 128 15 0 1 0 0 empty \$0p2 Phase2 15 8 0 10 -260097
-1 -1 6350 1;
#X obj 111 222 hsl 128 15 0 1 0 0 empty \$0p3 Phase3 15 8 0 10 -260097
-1 -1 6350 1;
#X obj 1047 111 r \$0LoadBang;
#X obj 432 722 DVM~;
#N canvas 2512 205 450 300 FOO 0;
#X obj 454 171 inlet~;
#X obj 572 170 inlet~;
#X obj 682 169 inlet~;
#X obj 453 284 delwrite~ \$0d1;
#X obj 683 256 mux~;
#X obj 571 286 delwrite~ \$0d2;
#X obj 683 283 delwrite~ \$0d3;
#X obj 739 154 tgl 15 0 \$0Mono empty Mono -25 7 0 10 -4032 -1 -1 0
1;
#X obj 792 179 tgl 15 0 empty \$0Mono empty 17 7 0 10 -4032 -33289
-1 0 1;
#X obj 453 258 mux~;
#X obj 573 260 mux~;
#X connect 0 0 9 0;
#X connect 0 0 9 1;
#X connect 1 0 10 0;
#X connect 2 0 4 0;
#X connect 4 0 6 0;
#X connect 9 0 3 0;
#X connect 10 0 5 0;
#X restore 493 54 pd FOO;
#X obj 498 182 inlet~;
#X obj 500 208 delwrite~ \$0FOO 5000;
#X obj 235 504 vd~ \$0FOO;
#X obj 471 508 vd~ \$0FOO;
#X obj 785 549 vd~ \$0FOO;
#X obj 169 394 r \$0PhaseFinal;
#X obj 170 441 line~;
#X msg 168 417 \$1 50;
#X obj 858 14 r \$0PhaseAmt;
#X obj 790 78 line~;
#X msg 787 56 \$1 50;
#X floatatom 904 37 5 0 0 0 - - -, f 5;
#X obj 892 447 *~;
#X obj 572 445 *~;
#X obj 297 444 *~;
#X obj 298 468 +~;
#X obj 575 471 +~;
#X obj 893 472 +~;
#X obj 547 104 line~;
#X msg 546 80 \$1 50;
#X obj 546 57 r \$0PhaseOffset;
#X floatatom 83 314 5 0 0 0 - - -, f 5;
#X obj 108 156 hsl 128 15 0.4 1 0 0 \$0PhaseSpeed \$0PhaseSpeedIn PhaseSpeed
7 8 0 10 -4034 -1 -1 0 0;
#X floatatom 684 229 5 0 0 0 - - -, f 5;
#X floatatom 796 241 5 0 0 0 - - -, f 5;
#X obj 684 247 s \$0PhaseAmt;
#X obj 82 262 r \$0PhaseAmt;
#X floatatom 242 172 5 0 0 0 - - -, f 5;
#X obj 171 101 hsl 70 15 0.01 5 1 0 \$0PhaseScale \$0PhaseScaleIn PhaseScaleLo
0 7 0 10 -203904 -1 -1 0 0;
#X obj 972 27 r \$0PhaseScale;
#X obj 953 103 *;
#X obj 968 62 t b f;
#X floatatom 1017 51 5 0 0 0 - - -, f 5;
#X obj 632 169 r \$0PhaseSpeed;
#X msg 975 9 This is Phase Depth;
#X msg 140 60 0.6;
#X obj 107 116 hsl 40 15 0 1 0 0 \$0RateComp empty RateComp -2 -5 0
10 -232576 -1 -1 2340 0;
#X obj 684 199 expr (1.1-$f1)*$f2 \; pow($f1 \, 10)*20;
#X obj 768 160 t b f;
#X msg 372 109 18;
#X floatatom 103 134 5 0 0 0 - - -, f 5;
#X floatatom 950 127 5 0 0 0 - - -, f 5;
#N canvas 318 247 601 477 InPhaseComp 0;
#X floatatom 325 199 5 0 0 0 - - -, f 5;
#X obj 307 175 < 0.02;
#X obj 289 240 *;
#X floatatom 231 238 5 0 0 0 - - -, f 5;
#X obj 252 140 * 30;
#X obj 247 207 -;
#X floatatom 288 314 5 0 0 0 - - -, f 5;
#X msg 289 265 1 \$1;
#X obj 271 289 -;
#X obj 275 104 inlet;
#X msg 279 81 Phase Delta;
#X msg 82 30 As Phase Delta approaches zero reduce final output by
factor;
#X obj 261 347 outlet;
#X obj 103 113 tgl 15 0 empty empty COMP 17 7 0 10 -4034 -1 -1 1 1
;
#X obj 107 132 hsl 40 15 0 1 0 0 empty empty empty -2 -8 0 10 -262144
-1 -1 1170 1;
#X floatatom 100 171 5 0 0 0 - - -, f 5;
#X obj 240 179 t b f;
#X obj 156 133 bng 15 250 50 0 empty empty empty 17 7 0 10 -262144
-1 -1;
#X msg 59 110 0.3;
#X obj 66 65 loadbang;
#X connect 1 0 0 0;
#X connect 1 0 2 1;
#X connect 1 0 13 0;
#X connect 2 0 7 0;
#X connect 4 0 16 0;
#X connect 5 0 3 0;
#X connect 5 0 2 0;
#X connect 7 0 8 0;
#X connect 8 0 6 0;
#X connect 8 0 12 0;
#X connect 9 0 4 0;
#X connect 9 0 1 0;
#X connect 14 0 15 0;
#X connect 14 0 5 0;
#X connect 16 0 5 0;
#X connect 16 1 5 1;
#X connect 17 0 18 0;
#X connect 18 0 14 0;
#X connect 19 0 18 0;
#X coords 0 -1 1 1 50 55 1 100 100;
#X restore 951 219 pd InPhaseComp;
#X floatatom 970 284 5 0 0 0 - - -, f 5;
#X obj 472 650 *~;
#X obj 487 623 r \$0InPhaseComp;
#X obj 237 659 *~;
#X obj 252 632 r \$0InPhaseComp;
#X obj 785 632 *~;
#X obj 800 605 r \$0InPhaseComp;
#X obj 926 310 s \$0InPhaseComp;
#X floatatom 835 630 5 0 0 0 - - -, f 5;
#X msg 1102 133 aet 1;
#X obj 810 264 s \$0PhaseRateComp;
#X obj 547 130 s~ \$0PhaseOffsetSmooth;
#X obj 626 447 r~ \$0PhaseOffsetSmooth;
#X obj 930 457 r~ \$0PhaseOffsetSmooth;
#X obj 346 443 r~ \$0PhaseOffsetSmooth;
#X obj 791 102 s~ \$0PhaseAmtSmooth;
#X obj 655 414 r~ \$0PhaseAmtSmooth;
#X obj 969 426 r~ \$0PhaseAmtSmooth;
#X obj 377 405 r~ \$0PhaseAmtSmooth;
#X obj 347 310 phasor~;
#X obj 334 282 r \$0PhaseRateComp;
#X floatatom 408 307 5 0 0 0 - - -, f 5;
#X msg 495 311 0.3333;
#X obj 401 205 r \$0PhaseDisp;
#X obj 564 258 r \$0LoadBang;
#X floatatom 445 229 5 0 0 0 - - -, f 5;
#X obj 564 280 bng 15 250 50 0 empty empty empty 17 7 0 10 -262144
-1 -1;
#X msg 566 311 0.66667;
#X obj 436 372 +~;
#X obj 505 372 +~;
#X obj 573 422 cos~ 1;
#X obj 892 419 cos~ 1;
#X obj 283 423 cos~ 1;
#X obj 484 261 line~;
#X obj 557 342 *~;
#X obj 472 339 *~;
#X msg 396 241 \$1 300;
#X obj 575 546 Snapshot~;
#X obj 300 556 Snapshot~;
#X obj 893 544 snapshot~;
#X obj 982 539 bng 15 250 50 0 empty empty empty 17 7 0 10 -262144
-1 -1;
#N canvas 1 143 705 460 MIDI 0;
#X obj 79 9 ctlin;
#X obj 108 372 / 127;
#X floatatom 158 387 5 0 0 0 - - -, f 5;
#X obj 109 427 s \$0PhaseSpeedIn;
#X obj 113 33 * 100;
#X obj 95 56 +;
#X obj 120 238 bng 15 250 50 0 empty empty empty 17 7 0 10 -262144
-1 -1;
#X floatatom 114 77 5 0 0 0 - - -, f 5;
#X msg 228 28 KorgNano = 1;
#X msg 228 76 MPD18 = 33;
#X msg 227 52 KorgMicro37 = 17;
#X obj 106 284 spigot;
#X floatatom 105 307 5 0 0 0 - - -, f 5;
#X obj 145 261 tgl 15 0 empty empty empty 17 7 0 10 -262144 -1 -1 0
1;
#X obj 17 51 f;
#X floatatom 17 76 5 0 0 0 - - -, f 5;
#X obj 17 98 s \$0CtlVal;
#X obj 289 237 bng 15 250 50 0 empty empty empty 17 7 0 10 -262144
-1 -1;
#X obj 275 285 spigot;
#X floatatom 274 308 5 0 0 0 - - -, f 5;
#X obj 314 260 tgl 15 0 empty empty empty 17 7 0 10 -262144 -1 -1 0
1;
#X obj 95 99 s \$0CtlNum;
#X obj 478 237 bng 15 250 50 0 empty empty empty 17 7 0 10 -262144
-1 -1;
#X obj 464 283 spigot;
#X floatatom 463 306 5 0 0 0 - - -, f 5;
#X obj 438 172 r \$0CtlNum;
#X obj 288 161 r \$0CtlNum;
#X obj 88 172 r \$0CtlNum;
#X obj 233 262 r \$0CtlVal;
#X obj 43 261 r \$0CtlVal;
#X obj 421 261 r \$0CtlVal;
#X obj 503 260 tgl 15 0 empty empty empty 17 7 0 10 -262144 -1 -1 0
1;
#X floatatom 159 240 5 0 0 0 - - -, f 5;
#X obj 141 215 == 100;
#X obj 311 214 == 101;
#X obj 264 364 / 127;
#X floatatom 274 393 5 0 0 0 - - -, f 5;
#X obj 450 350 / 127;
#X floatatom 460 379 5 0 0 0 - - -, f 5;
#X obj 458 469 s \$0PhaseScaleIn;
#X obj 502 216 == 102;
#X obj 515 378 * 5;
#X obj 626 235 bng 15 250 50 0 empty empty empty 17 7 0 10 -262144
-1 -1;
#X obj 612 281 spigot;
#X floatatom 611 304 5 0 0 0 - - -, f 5;
#X obj 647 173 r \$0CtlNum;
#X obj 569 259 r \$0CtlVal;
#X obj 651 258 tgl 15 0 empty empty empty 17 7 0 10 -262144 -1 -1 0
1;
#X obj 598 348 / 127;
#X floatatom 608 377 5 0 0 0 - - -, f 5;
#X obj 661 367 * 5;
#X obj 650 214 == 103;
#X obj 602 414 s \$0PhaseOffsetIn;
#X obj 265 418 s \$0PhaseDispIn;
#X floatatom 534 422 5 0 0 0 - - -, f 5;
#X obj 495 438 + 0.3;
#X obj 106 399 + 0.05;
#X msg 480 19 33;
#X msg 523 19 1;
#X msg 568 20 17;
#X msg 377 169 1;
#X msg 560 167 2;
#X msg 736 175 3;
#X obj 515 53 * 100;
#X obj 542 187 +;
#X obj 350 190 +, f 4;
#X obj 708 197 +, f 4;
#X obj 514 77 t f b;
#X floatatom 730 225 5 0 0 0 - - -, f 5;
#X floatatom 560 217 5 0 0 0 - - -, f 5;
#X floatatom 377 216 5 0 0 0 - - -, f 5;
#X obj 186 192 +, f 4;
#X floatatom 213 218 5 0 0 0 - - -, f 5;
#X msg 213 171 0;
#X connect 0 0 14 0;
#X connect 0 1 5 0;
#X connect 0 2 4 0;
#X connect 1 0 2 0;
#X connect 1 0 56 0;
#X connect 4 0 5 1;
#X connect 5 0 7 0;
#X connect 5 0 21 0;
#X connect 11 0 12 0;
#X connect 12 0 1 0;
#X connect 13 0 11 1;
#X connect 14 0 15 0;
#X connect 15 0 16 0;
#X connect 18 0 19 0;
#X connect 19 0 35 0;
#X connect 20 0 18 1;
#X connect 23 0 24 0;
#X connect 24 0 37 0;
#X connect 25 0 40 0;
#X connect 26 0 34 0;
#X connect 27 0 33 0;
#X connect 28 0 18 0;
#X connect 29 0 11 0;
#X connect 30 0 23 0;
#X connect 31 0 23 1;
#X connect 33 0 6 0;
#X connect 33 0 13 0;
#X connect 33 0 32 0;
#X connect 34 0 17 0;
#X connect 34 0 20 0;
#X connect 35 0 36 0;
#X connect 35 0 53 0;
#X connect 37 0 38 0;
#X connect 37 0 41 0;
#X connect 40 0 22 0;
#X connect 40 0 31 0;
#X connect 41 0 54 0;
#X connect 41 0 55 0;
#X connect 43 0 44 0;
#X connect 44 0 48 0;
#X connect 45 0 51 0;
#X connect 46 0 43 0;
#X connect 47 0 43 1;
#X connect 48 0 49 0;
#X connect 48 0 50 0;
#X connect 50 0 52 0;
#X connect 51 0 42 0;
#X connect 51 0 47 0;
#X connect 55 0 39 0;
#X connect 56 0 3 0;
#X connect 57 0 63 0;
#X connect 58 0 63 0;
#X connect 59 0 63 0;
#X connect 60 0 65 1;
#X connect 61 0 64 1;
#X connect 62 0 66 1;
#X connect 63 0 67 0;
#X connect 64 0 40 1;
#X connect 64 0 69 0;
#X connect 65 0 34 1;
#X connect 65 0 70 0;
#X connect 66 0 51 1;
#X connect 66 0 68 0;
#X connect 67 0 65 0;
#X connect 67 0 64 0;
#X connect 67 0 66 0;
#X connect 67 0 71 0;
#X connect 67 1 61 0;
#X connect 67 1 62 0;
#X connect 67 1 60 0;
#X connect 67 1 73 0;
#X connect 71 0 72 0;
#X connect 71 0 33 1;
#X connect 73 0 71 1;
#X restore 214 276 pd MIDI stuff;
#X obj 770 138 r \$0RateComp;
#X floatatom 834 160 5 0 0 0 - - -, f 5;
#X floatatom 237 416 5 0 0 0 - - -, f 5;
#X obj 745 473 r~ \$0PhaseFinal;
#X obj 456 462 r~ \$0PhaseFinal;
#X connect 2 0 51 0;
#X connect 4 0 0 0;
#X connect 4 0 69 0;
#X connect 4 0 65 0;
#X connect 5 0 8 0;
#X connect 5 0 9 0;
#X connect 10 0 32 0;
#X connect 11 0 14 0;
#X connect 12 0 33 0;
#X connect 13 0 34 0;
#X connect 16 0 111 0;
#X connect 17 0 110 0;
#X connect 18 0 112 0;
#X connect 18 0 113 0;
#X connect 27 0 5 0;
#X connect 27 0 82 0;
#X connect 30 0 31 0;
#X connect 32 0 76 0;
#X connect 33 0 74 0;
#X connect 34 0 78 0;
#X connect 35 0 37 0;
#X connect 35 0 117 0;
#X connect 36 0 10 0;
#X connect 37 0 36 0;
#X connect 38 0 41 0;
#X connect 38 0 60 0;
#X connect 39 0 88 0;
#X connect 40 0 39 0;
#X connect 42 0 47 0;
#X connect 43 0 46 0;
#X connect 44 0 45 0;
#X connect 45 0 111 0;
#X connect 45 0 10 1;
#X connect 46 0 12 0;
#X connect 46 0 110 0;
#X connect 47 0 13 0;
#X connect 47 0 112 0;
#X connect 48 0 84 0;
#X connect 49 0 48 0;
#X connect 50 0 49 0;
#X connect 52 0 57 0;
#X connect 53 0 55 0;
#X connect 54 0 83 0;
#X connect 54 0 1 0;
#X connect 56 0 2 0;
#X connect 59 0 61 0;
#X connect 59 0 62 0;
#X connect 60 0 40 0;
#X connect 60 0 71 0;
#X connect 61 0 60 0;
#X connect 61 1 60 1;
#X connect 63 0 67 0;
#X connect 65 0 66 0;
#X connect 66 0 70 0;
#X connect 67 0 53 0;
#X connect 67 1 54 0;
#X connect 68 0 67 0;
#X connect 68 1 67 1;
#X connect 69 0 11 0;
#X connect 71 0 72 0;
#X connect 72 0 73 0;
#X connect 72 0 80 0;
#X connect 74 0 20 0;
#X connect 75 0 74 1;
#X connect 76 0 19 0;
#X connect 77 0 76 1;
#X connect 78 0 21 0;
#X connect 79 0 78 1;
#X connect 79 0 81 0;
#X connect 82 0 7 0;
#X connect 85 0 46 1;
#X connect 86 0 47 1;
#X connect 87 0 45 1;
#X connect 89 0 43 1;
#X connect 90 0 42 1;
#X connect 91 0 44 1;
#X connect 92 0 101 0;
#X connect 92 0 102 0;
#X connect 92 0 105 0;
#X connect 93 0 94 0;
#X connect 93 0 92 0;
#X connect 95 0 108 1;
#X connect 96 0 98 0;
#X connect 96 0 109 0;
#X connect 97 0 99 0;
#X connect 99 0 95 0;
#X connect 99 0 100 0;
#X connect 100 0 107 1;
#X connect 101 0 103 0;
#X connect 102 0 104 0;
#X connect 103 0 43 0;
#X connect 104 0 42 0;
#X connect 105 0 44 0;
#X connect 106 0 107 0;
#X connect 106 0 108 0;
#X connect 107 0 102 1;
#X connect 108 0 101 1;
#X connect 109 0 106 0;
#X connect 110 0 24 0;
#X connect 111 0 22 0;
#X connect 112 0 23 0;
#X connect 115 0 68 0;
#X connect 115 0 116 0;
#X connect 118 0 13 1;
#X connect 119 0 12 1;
#X coords 0 -1 1 1 150 140 1 100 100;
