#N canvas 12 87 1185 701 10;
#X obj 120 122 hsl 128 15 0.01 10 1 0 \$0PhaseRate empty Phase_Rate
7 7 0 10 -4034 -1 -1 0 1;
#X obj 116 143 hsl 60 15 0 0.5 0 0 \$0PhaseAmt \$0PhaseAmtIn Phase_Amt
7 7 0 10 -257985 -1 -1 5900 1;
#X obj 185 144 hsl 60 15 0 1 0 0 \$0PhaseOff \$0PhaseOffIn PhaseLRoffset
-2 7 0 10 -257985 -1 -1 2950 1;
#X obj 447 381 inlet~;
#X obj 547 377 inlet~;
#X obj 652 376 inlet~;
#X obj 239 188 vsl 15 90 0 1 0 0 \$0FinalGain \$0FinalGainIn empty
0 -9 0 10 -204800 -1 -1 0 1;
#X floatatom 1387 469 5 0 0 0 - - -, f 5;
#X obj 116 164 hsl 128 15 0.06 6 1 0 \$0PhaseDistance \$0PhaseDistanceIn
Phase_Distance 5 8 0 10 -159808 -262144 -257985 7100 1;
#X obj 212 103 tgl 15 0 \$0Linear empty Linear -30 7 0 10 -257985 -258113
-1 0 1;
#X obj 314 219 phasor~ 1;
#X obj 1385 352 Snapshot;
#X obj 78 485 bng 15 250 50 0 empty empty empty 17 7 0 10 -258113 -1
-1;
#X obj -21 487 bng 15 250 50 0 empty empty empty 17 7 0 10 -258113
-1 -1;
#X obj 314 241 s~ \$0MasterPhasor;
#X obj 314 196 r \$0PhaseRate;
#X obj 80 466 r \$0Reset;
#X obj -21 467 r \$0Reset;
#X obj -118 490 bng 15 250 50 0 empty empty empty 17 7 0 10 -258113
-1 -1;
#X obj -117 470 r \$0Reset;
#X obj 757 377 inlet~;
#X obj 861 375 inlet~;
#X obj 969 369 inlet~;
#X obj -129 388 inlet~;
#X obj -29 384 inlet~;
#X obj 66 383 inlet~;
#X obj 168 380 inlet~;
#X obj 261 376 inlet~;
#X obj 353 383 inlet~;
#N canvas 1 123 788 493 Reset 0;
#X msg 86 239 0;
#X obj 68 62 loadbang;
#X obj 74 173 bng 15 250 50 0 empty empty empty 17 7 0 10 -262144 -1
-1;
#X obj 74 151 r \$0PhaseDistance;
#X obj 191 225 s \$0Reset;
#X obj 87 264 s \$0PhaseDistanceIn;
#X msg 272 230 1;
#X obj 272 251 s \$0FinalGain;
#X msg 428 217 0.5;
#X obj 102 119 bng 15 250 50 0 empty empty empty 17 7 0 10 -258113
-1 -1;
#X obj 423 267 s \$0PhaseAmtIn;
#X obj 445 243 s \$0PhaseOffIn;
#X obj 196 91 inlet;
#X connect 0 0 5 0;
#X connect 1 0 9 0;
#X connect 3 0 2 0;
#X connect 6 0 7 0;
#X connect 8 0 10 0;
#X connect 8 0 11 0;
#X connect 9 0 8 0;
#X connect 9 0 6 0;
#X connect 9 0 0 0;
#X connect 9 0 4 0;
#X connect 12 0 9 0;
#X coords 0 -1 1 1 20 40 1 100 100;
#X restore 154 45 pd Reset Logic;
#X obj 1269 862 bng 15 250 50 0 empty empty empty 17 7 0 10 -262144
-1 -1;
#X obj 1153 799 bng 15 250 50 0 empty empty empty 17 7 0 10 -262144
-1 -1;
#X obj 1731 -44 bng 15 250 50 0 empty empty empty 17 7 0 10 -262144
-1 -1;
#X obj 1910 -260 bng 15 250 50 0 empty empty empty 17 7 0 10 -262144
-1 -1;
#X obj 1387 447 r \$0FinalGain;
#X obj 362 487 bng 15 250 50 0 empty empty empty 17 7 0 10 -258113
-1 -1;
#X obj 271 486 bng 15 250 50 0 empty empty empty 17 7 0 10 -258113
-1 -1;
#X msg 271 520 0.333333;
#X obj 364 468 r \$0Reset;
#X obj 272 466 r \$0Reset;
#X obj 177 486 bng 15 250 50 0 empty empty empty 17 7 0 10 -258113
-1 -1;
#X obj 177 466 r \$0Reset;
#X msg 665 517 0.66667;
#X obj 665 483 bng 15 250 50 0 empty empty empty 17 7 0 10 -258113
-1 -1;
#X obj 558 482 bng 15 250 50 0 empty empty empty 17 7 0 10 -258113
-1 -1;
#X obj 666 463 r \$0Reset;
#X obj 558 462 r \$0Reset;
#X obj 460 488 bng 15 250 50 0 empty empty empty 17 7 0 10 -258113
-1 -1;
#X obj 460 468 r \$0Reset;
#X obj 983 475 bng 15 250 50 0 empty empty empty 17 7 0 10 -258113
-1 -1;
#X obj 884 479 bng 15 250 50 0 empty empty empty 17 7 0 10 -258113
-1 -1;
#X obj 985 456 r \$0Reset;
#X obj 884 459 r \$0Reset;
#X obj 774 484 bng 15 250 50 0 empty empty empty 17 7 0 10 -258113
-1 -1;
#X obj 774 461 r \$0Reset;
#X obj -381 1041 bng 15 250 50 0 empty empty empty 17 7 0 10 -262144
-1 -1;
#X obj -210 861 bng 15 250 50 0 empty empty empty 17 7 0 10 -262144
-1 -1;
#X msg -108 506 0;
#X msg -21 522 0.0833333;
#X msg 79 520 0.166667;
#X msg 176 520 0.25;
#X msg 366 523 0.416667;
#X msg 459 522 0.5;
#X msg 556 517 0.583333;
#X msg 772 518 0.75;
#X msg 882 514 0.833333;
#X msg 983 510 0.916667;
#X obj -122 643 s \$0p1;
#X obj -30 645 s \$0p2;
#X obj 65 642 s \$0p3;
#X obj 169 643 s \$0p4;
#X obj 264 643 s \$0p5;
#X obj 355 643 s \$0p6;
#X obj 448 643 s \$0p7;
#X obj 548 644 s \$0p8;
#X obj 651 641 s \$0p9;
#X obj 757 645 s \$0p10;
#X obj 863 641 s \$0p11;
#X obj 970 644 s \$0p12;
#X obj 493 241 outlet~;
#X obj 586 236 outlet~;
#X obj 234 102 bng 15 250 50 0 empty empty empty 17 7 0 10 -258113
-1 -1;
#X obj 120 193 hsl 110 8 0 1 0 0 empty \$0p2 empty -2 -8 0 10 -261234
-1 -1 171 1;
#X obj 120 185 hsl 110 8 0 1 0 0 empty \$0p1 empty -2 -8 0 10 -261234
-1 -1 71 1;
#X obj 120 209 hsl 110 8 0 1 0 0 empty \$0p4 empty -2 -8 0 10 -261234
-1 -1 2861 1;
#X obj 120 201 hsl 110 8 0 1 0 0 empty \$0p3 empty -2 -8 0 10 -261234
-1 -1 1156 1;
#X obj 120 225 hsl 110 8 0 1 0 0 empty \$0p6 empty -2 -8 0 10 -261234
-1 -1 7215 1;
#X obj 120 217 hsl 110 8 0 1 0 0 empty \$0p5 empty -2 -8 0 10 -261234
-1 -1 5000 1;
#X obj 120 241 hsl 110 8 0 1 0 0 empty \$0p8 empty -2 -8 0 10 -261234
-1 -1 10434 1;
#X obj 120 233 hsl 110 8 0 1 0 0 empty \$0p7 empty -2 -8 0 10 -261234
-1 -1 9133 1;
#X obj 120 257 hsl 110 8 0 1 0 0 empty \$0p10 empty -2 -8 0 10 -261234
-1 -1 10452 1;
#X obj 120 249 hsl 110 8 0 1 0 0 empty \$0p9 empty -2 -8 0 10 -261234
-1 -1 10900 1;
#X obj 120 273 hsl 110 8 0 1 0 0 empty \$0p12 empty -2 -8 0 10 -261234
-1 -1 7256 1;
#X obj 120 265 hsl 110 8 0 1 0 0 empty \$0p11 empty -2 -8 0 10 -261234
-1 -1 9166 1;
#N canvas 1 67 450 300 PanLogic 0;
#X obj 238 150 cos~;
#X obj 238 172 *~ 0.5;
#X obj 235 197 +~ 0.5;
#X obj 250 90 *;
#X obj 264 60 t b f;
#X floatatom 313 58 5 0 0 0 - - -, f 5;
#X obj 257 38 r \$0PhaseDistance;
#X obj 230 113 +~;
#X obj 276 130 r \$0PhaseAmt;
#X obj 290 168 r \$0PhaseOff;
#X obj 111 84 r~ \$0MasterPhasor;
#X obj 232 241 outlet~;
#X obj 144 37 inlet;
#X connect 0 0 1 0;
#X connect 1 0 2 0;
#X connect 2 0 11 0;
#X connect 3 0 7 1;
#X connect 4 0 3 0;
#X connect 4 1 3 1;
#X connect 6 0 5 0;
#X connect 6 0 4 0;
#X connect 7 0 0 0;
#X connect 8 0 1 1;
#X connect 9 0 2 1;
#X connect 10 0 7 0;
#X connect 12 0 3 0;
#X restore 79 554 pd PanLogic;
#N canvas 1 67 450 300 PanLogic 0;
#X obj 238 150 cos~;
#X obj 238 172 *~ 0.5;
#X obj 235 197 +~ 0.5;
#X obj 250 90 *;
#X obj 264 60 t b f;
#X floatatom 313 58 5 0 0 0 - - -, f 5;
#X obj 257 38 r \$0PhaseDistance;
#X obj 230 113 +~;
#X obj 276 130 r \$0PhaseAmt;
#X obj 290 168 r \$0PhaseOff;
#X obj 111 84 r~ \$0MasterPhasor;
#X obj 232 241 outlet~;
#X obj 144 37 inlet;
#X connect 0 0 1 0;
#X connect 1 0 2 0;
#X connect 2 0 11 0;
#X connect 3 0 7 1;
#X connect 4 0 3 0;
#X connect 4 1 3 1;
#X connect 6 0 5 0;
#X connect 6 0 4 0;
#X connect 7 0 0 0;
#X connect 8 0 1 1;
#X connect 9 0 2 1;
#X connect 10 0 7 0;
#X connect 12 0 3 0;
#X restore -22 558 pd PanLogic;
#N canvas 1 95 450 300 PanLogic 0;
#X obj 238 150 cos~;
#X obj 238 172 *~ 0.5;
#X obj 235 197 +~ 0.5;
#X obj 250 90 *;
#X obj 264 60 t b f;
#X floatatom 313 58 5 0 0 0 - - -, f 5;
#X obj 257 38 r \$0PhaseDistance;
#X obj 230 113 +~;
#X obj 276 130 r \$0PhaseAmt;
#X obj 290 168 r \$0PhaseOff;
#X obj 111 84 r~ \$0MasterPhasor;
#X obj 232 241 outlet~;
#X obj 144 37 inlet;
#X connect 0 0 1 0;
#X connect 1 0 2 0;
#X connect 2 0 11 0;
#X connect 3 0 7 1;
#X connect 4 0 3 0;
#X connect 4 1 3 1;
#X connect 6 0 5 0;
#X connect 6 0 4 0;
#X connect 7 0 0 0;
#X connect 8 0 1 1;
#X connect 9 0 2 1;
#X connect 10 0 7 0;
#X connect 12 0 3 0;
#X restore -120 559 pd PanLogic;
#N canvas 1 81 450 300 PanLogic 0;
#X obj 238 150 cos~;
#X obj 238 172 *~ 0.5;
#X obj 235 197 +~ 0.5;
#X obj 250 90 *;
#X obj 264 60 t b f;
#X floatatom 313 58 5 0 0 0 - - -, f 5;
#X obj 257 38 r \$0PhaseDistance;
#X obj 230 113 +~;
#X obj 276 130 r \$0PhaseAmt;
#X obj 290 168 r \$0PhaseOff;
#X obj 111 84 r~ \$0MasterPhasor;
#X obj 232 241 outlet~;
#X obj 144 37 inlet;
#X connect 0 0 1 0;
#X connect 1 0 2 0;
#X connect 2 0 11 0;
#X connect 3 0 7 1;
#X connect 4 0 3 0;
#X connect 4 1 3 1;
#X connect 6 0 5 0;
#X connect 6 0 4 0;
#X connect 7 0 0 0;
#X connect 8 0 1 1;
#X connect 9 0 2 1;
#X connect 10 0 7 0;
#X connect 12 0 3 0;
#X restore 363 556 pd PanLogic;
#N canvas 1 81 450 300 PanLogic 0;
#X obj 238 150 cos~;
#X obj 238 172 *~ 0.5;
#X obj 235 197 +~ 0.5;
#X obj 250 90 *;
#X obj 264 60 t b f;
#X floatatom 313 58 5 0 0 0 - - -, f 5;
#X obj 257 38 r \$0PhaseDistance;
#X obj 230 113 +~;
#X obj 276 130 r \$0PhaseAmt;
#X obj 290 168 r \$0PhaseOff;
#X obj 111 84 r~ \$0MasterPhasor;
#X obj 232 241 outlet~;
#X obj 144 37 inlet;
#X connect 0 0 1 0;
#X connect 1 0 2 0;
#X connect 2 0 11 0;
#X connect 3 0 7 1;
#X connect 4 0 3 0;
#X connect 4 1 3 1;
#X connect 6 0 5 0;
#X connect 6 0 4 0;
#X connect 7 0 0 0;
#X connect 8 0 1 1;
#X connect 9 0 2 1;
#X connect 10 0 7 0;
#X connect 12 0 3 0;
#X restore 271 554 pd PanLogic;
#N canvas 1 67 450 300 PanLogic 0;
#X obj 238 150 cos~;
#X obj 238 172 *~ 0.5;
#X obj 235 197 +~ 0.5;
#X obj 250 90 *;
#X obj 264 60 t b f;
#X floatatom 313 58 5 0 0 0 - - -, f 5;
#X obj 257 38 r \$0PhaseDistance;
#X obj 230 113 +~;
#X obj 276 130 r \$0PhaseAmt;
#X obj 290 168 r \$0PhaseOff;
#X obj 111 84 r~ \$0MasterPhasor;
#X obj 232 241 outlet~;
#X obj 144 37 inlet;
#X connect 0 0 1 0;
#X connect 1 0 2 0;
#X connect 2 0 11 0;
#X connect 3 0 7 1;
#X connect 4 0 3 0;
#X connect 4 1 3 1;
#X connect 6 0 5 0;
#X connect 6 0 4 0;
#X connect 7 0 0 0;
#X connect 8 0 1 1;
#X connect 9 0 2 1;
#X connect 10 0 7 0;
#X connect 12 0 3 0;
#X restore 175 554 pd PanLogic;
#N canvas 1 67 450 300 PanLogic 0;
#X obj 238 150 cos~;
#X obj 238 172 *~ 0.5;
#X obj 235 197 +~ 0.5;
#X obj 250 90 *;
#X obj 264 60 t b f;
#X floatatom 313 58 5 0 0 0 - - -, f 5;
#X obj 257 38 r \$0PhaseDistance;
#X obj 230 113 +~;
#X obj 276 130 r \$0PhaseAmt;
#X obj 290 168 r \$0PhaseOff;
#X obj 111 84 r~ \$0MasterPhasor;
#X obj 232 241 outlet~;
#X obj 144 37 inlet;
#X connect 0 0 1 0;
#X connect 1 0 2 0;
#X connect 2 0 11 0;
#X connect 3 0 7 1;
#X connect 4 0 3 0;
#X connect 4 1 3 1;
#X connect 6 0 5 0;
#X connect 6 0 4 0;
#X connect 7 0 0 0;
#X connect 8 0 1 1;
#X connect 9 0 2 1;
#X connect 10 0 7 0;
#X connect 12 0 3 0;
#X restore 665 555 pd PanLogic;
#N canvas 1 67 450 300 PanLogic 0;
#X obj 238 150 cos~;
#X obj 238 172 *~ 0.5;
#X obj 235 197 +~ 0.5;
#X obj 250 90 *;
#X obj 264 60 t b f;
#X floatatom 313 58 5 0 0 0 - - -, f 5;
#X obj 257 38 r \$0PhaseDistance;
#X obj 230 113 +~;
#X obj 276 130 r \$0PhaseAmt;
#X obj 290 168 r \$0PhaseOff;
#X obj 111 84 r~ \$0MasterPhasor;
#X obj 232 241 outlet~;
#X obj 144 37 inlet;
#X connect 0 0 1 0;
#X connect 1 0 2 0;
#X connect 2 0 11 0;
#X connect 3 0 7 1;
#X connect 4 0 3 0;
#X connect 4 1 3 1;
#X connect 6 0 5 0;
#X connect 6 0 4 0;
#X connect 7 0 0 0;
#X connect 8 0 1 1;
#X connect 9 0 2 1;
#X connect 10 0 7 0;
#X connect 12 0 3 0;
#X restore 556 553 pd PanLogic;
#N canvas 1 81 450 300 PanLogic 0;
#X obj 238 150 cos~;
#X obj 238 172 *~ 0.5;
#X obj 235 197 +~ 0.5;
#X obj 250 90 *;
#X obj 264 60 t b f;
#X floatatom 313 58 5 0 0 0 - - -, f 5;
#X obj 257 38 r \$0PhaseDistance;
#X obj 230 113 +~;
#X obj 276 130 r \$0PhaseAmt;
#X obj 290 168 r \$0PhaseOff;
#X obj 111 84 r~ \$0MasterPhasor;
#X obj 232 241 outlet~;
#X obj 144 37 inlet;
#X connect 0 0 1 0;
#X connect 1 0 2 0;
#X connect 2 0 11 0;
#X connect 3 0 7 1;
#X connect 4 0 3 0;
#X connect 4 1 3 1;
#X connect 6 0 5 0;
#X connect 6 0 4 0;
#X connect 7 0 0 0;
#X connect 8 0 1 1;
#X connect 9 0 2 1;
#X connect 10 0 7 0;
#X connect 12 0 3 0;
#X restore 458 556 pd PanLogic;
#N canvas 1 67 450 300 PanLogic 0;
#X obj 238 150 cos~;
#X obj 238 172 *~ 0.5;
#X obj 235 197 +~ 0.5;
#X obj 250 90 *;
#X obj 264 60 t b f;
#X floatatom 313 58 5 0 0 0 - - -, f 5;
#X obj 257 38 r \$0PhaseDistance;
#X obj 230 113 +~;
#X obj 276 130 r \$0PhaseAmt;
#X obj 290 168 r \$0PhaseOff;
#X obj 111 84 r~ \$0MasterPhasor;
#X obj 232 241 outlet~;
#X obj 144 37 inlet;
#X connect 0 0 1 0;
#X connect 1 0 2 0;
#X connect 2 0 11 0;
#X connect 3 0 7 1;
#X connect 4 0 3 0;
#X connect 4 1 3 1;
#X connect 6 0 5 0;
#X connect 6 0 4 0;
#X connect 7 0 0 0;
#X connect 8 0 1 1;
#X connect 9 0 2 1;
#X connect 10 0 7 0;
#X connect 12 0 3 0;
#X restore 983 545 pd PanLogic;
#N canvas 1 67 450 300 PanLogic 0;
#X obj 238 150 cos~;
#X obj 238 172 *~ 0.5;
#X obj 235 197 +~ 0.5;
#X obj 250 90 *;
#X obj 264 60 t b f;
#X floatatom 313 58 5 0 0 0 - - -, f 5;
#X obj 257 38 r \$0PhaseDistance;
#X obj 230 113 +~;
#X obj 276 130 r \$0PhaseAmt;
#X obj 290 168 r \$0PhaseOff;
#X obj 111 84 r~ \$0MasterPhasor;
#X obj 232 241 outlet~;
#X obj 144 37 inlet;
#X connect 0 0 1 0;
#X connect 1 0 2 0;
#X connect 2 0 11 0;
#X connect 3 0 7 1;
#X connect 4 0 3 0;
#X connect 4 1 3 1;
#X connect 6 0 5 0;
#X connect 6 0 4 0;
#X connect 7 0 0 0;
#X connect 8 0 1 1;
#X connect 9 0 2 1;
#X connect 10 0 7 0;
#X connect 12 0 3 0;
#X restore 879 551 pd PanLogic;
#N canvas 1 67 450 300 PanLogic 0;
#X obj 238 150 cos~;
#X obj 238 172 *~ 0.5;
#X obj 235 197 +~ 0.5;
#X obj 250 90 *;
#X obj 264 60 t b f;
#X floatatom 313 58 5 0 0 0 - - -, f 5;
#X obj 257 38 r \$0PhaseDistance;
#X obj 230 113 +~;
#X obj 276 130 r \$0PhaseAmt;
#X obj 290 168 r \$0PhaseOff;
#X obj 111 84 r~ \$0MasterPhasor;
#X obj 232 241 outlet~;
#X obj 144 37 inlet;
#X connect 0 0 1 0;
#X connect 1 0 2 0;
#X connect 2 0 11 0;
#X connect 3 0 7 1;
#X connect 4 0 3 0;
#X connect 4 1 3 1;
#X connect 6 0 5 0;
#X connect 6 0 4 0;
#X connect 7 0 0 0;
#X connect 8 0 1 1;
#X connect 9 0 2 1;
#X connect 10 0 7 0;
#X connect 12 0 3 0;
#X restore 772 552 pd PanLogic;
#X obj 457 169 catch~ \$0Left;
#X obj 564 169 catch~ \$0Right;
#X obj 493 204 *~;
#X obj 587 208 *~;
#X obj 671 179 r \$0FinalGain;
#N canvas 1 165 886 573 PanDo 0;
#X obj 348 43 inlet~;
#X obj 221 112 bng 15 250 50 0 empty empty empty 17 7 0 10 -262144
-1 -1;
#X obj 201 457 *~;
#X obj 473 455 *~;
#X msg 346 17 audio in;
#X obj 415 42 inlet~;
#X msg 191 -28 This version is intended to be driven by an audio-rate
modulator so the HSL is for display only.;
#X obj 245 461 Snapshot~;
#X obj 292 435 r MetroGlobal;
#X msg 417 19 pan 0=L 1=R;
#X obj 244 493 outlet;
#X obj 469 490 throw~ \$0Right;
#X obj 132 494 throw~ \$0Left;
#X obj 472 179 *~ -1;
#X obj 473 218 +~ 1;
#X connect 0 0 3 0;
#X connect 0 0 2 0;
#X connect 2 0 12 0;
#X connect 3 0 11 0;
#X connect 5 0 2 1;
#X connect 5 0 7 0;
#X connect 5 0 13 0;
#X connect 7 0 10 0;
#X connect 8 0 7 0;
#X connect 13 0 14 0;
#X connect 14 0 3 1;
#X restore -133 601 pd PanDo;
#N canvas 1 151 886 573 PanDoOrig 0;
#X obj 348 43 inlet~;
#X obj 221 112 bng 15 250 50 0 empty empty empty 17 7 0 10 -262144
-1 -1;
#X obj 201 457 *~;
#X obj 509 483 *~;
#X msg 346 17 audio in;
#X obj 415 42 inlet~;
#X msg 191 -28 This version is intended to be driven by an audio-rate
modulator so the HSL is for display only.;
#X obj 268 478 Snapshot~;
#X obj 447 250 spigot~;
#X obj 514 192 spigot~;
#X obj 322 222 spigot~;
#X obj 583 246 spigot~;
#X obj 348 440 r MetroGlobal;
#X obj 654 186 r \$0Linear;
#X obj 655 210 == 0;
#X obj 236 435 +~;
#X obj 534 454 +~;
#X obj 379 207 tgl 15 0 empty \$0Linear empty 17 7 0 10 -262144 -1
-1 0 1.07066;
#X obj 655 233 tgl 15 0 \$0LinearNot empty empty 17 7 0 10 -262144
-1 -1 0 1;
#X obj 258 536 hsl 110 8 0 1 0 0 empty empty empty -2 -8 0 10 -261234
-1 -1 0 1;
#X msg 417 19 pan 0=L 1=R;
#X obj 447 125 expr~ pow($v1 \, 0.5) \; pow(1-$v1 \, 0.5) \; 1-$v1
\;;
#X obj 635 87 Snapshot~;
#X obj 635 60 r MetroGlobal;
#X obj 636 111 s \$0LinearLev;
#X obj 278 508 outlet;
#X obj 560 172 tgl 15 0 empty \$0LinearNot empty 17 7 0 10 -262144
-1 -1 0 1.07066;
#X obj 494 232 tgl 15 0 empty \$0LinearNot empty 17 7 0 10 -262144
-1 -1 0 1.07066;
#X obj 613 336 tgl 15 0 \$0Linear empty empty 17 7 0 10 -4160 -1 -1
0 1.07066;
#X obj 625 226 tgl 15 0 empty \$0Linear empty 17 7 0 10 -262144 -1
-1 0 1.07066;
#X obj 513 516 throw~ \$0Right;
#X obj 128 502 throw~ \$0Left;
#X connect 0 0 3 0;
#X connect 0 0 2 0;
#X connect 2 0 31 0;
#X connect 3 0 30 0;
#X connect 5 0 10 0;
#X connect 5 0 21 0;
#X connect 5 0 22 0;
#X connect 7 0 19 0;
#X connect 7 0 25 0;
#X connect 8 0 15 1;
#X connect 9 0 16 1;
#X connect 10 0 15 0;
#X connect 11 0 16 0;
#X connect 12 0 7 0;
#X connect 13 0 14 0;
#X connect 14 0 18 0;
#X connect 15 0 2 1;
#X connect 15 0 7 0;
#X connect 16 0 3 1;
#X connect 17 0 10 1;
#X connect 21 0 8 0;
#X connect 21 1 9 0;
#X connect 21 2 11 0;
#X connect 22 0 24 0;
#X connect 23 0 22 0;
#X connect 26 0 9 1;
#X connect 27 0 8 1;
#X connect 29 0 11 1;
#X restore 633 118 pd PanDoOrig;
#N canvas 1 179 886 573 PanDo 0;
#X obj 348 43 inlet~;
#X obj 221 112 bng 15 250 50 0 empty empty empty 17 7 0 10 -262144
-1 -1;
#X obj 201 457 *~;
#X obj 473 455 *~;
#X msg 346 17 audio in;
#X obj 415 42 inlet~;
#X msg 191 -28 This version is intended to be driven by an audio-rate
modulator so the HSL is for display only.;
#X obj 245 461 Snapshot~;
#X obj 292 435 r MetroGlobal;
#X msg 417 19 pan 0=L 1=R;
#X obj 244 493 outlet;
#X obj 469 490 throw~ \$0Right;
#X obj 132 494 throw~ \$0Left;
#X obj 472 179 *~ -1;
#X obj 480 219 +~ 1;
#X connect 0 0 3 0;
#X connect 0 0 2 0;
#X connect 2 0 12 0;
#X connect 3 0 11 0;
#X connect 5 0 2 1;
#X connect 5 0 7 0;
#X connect 5 0 13 0;
#X connect 7 0 10 0;
#X connect 8 0 7 0;
#X connect 13 0 14 0;
#X connect 14 0 3 1;
#X restore -30 601 pd PanDo;
#N canvas 1 193 886 573 PanDo 0;
#X obj 348 43 inlet~;
#X obj 221 112 bng 15 250 50 0 empty empty empty 17 7 0 10 -262144
-1 -1;
#X obj 201 457 *~;
#X obj 473 455 *~;
#X msg 346 17 audio in;
#X obj 415 42 inlet~;
#X msg 191 -28 This version is intended to be driven by an audio-rate
modulator so the HSL is for display only.;
#X obj 245 461 Snapshot~;
#X obj 292 435 r MetroGlobal;
#X msg 417 19 pan 0=L 1=R;
#X obj 244 493 outlet;
#X obj 469 490 throw~ \$0Right;
#X obj 132 494 throw~ \$0Left;
#X obj 472 179 *~ -1;
#X obj 489 212 +~ 1;
#X connect 0 0 3 0;
#X connect 0 0 2 0;
#X connect 2 0 12 0;
#X connect 3 0 11 0;
#X connect 5 0 2 1;
#X connect 5 0 7 0;
#X connect 5 0 13 0;
#X connect 7 0 10 0;
#X connect 8 0 7 0;
#X connect 13 0 14 0;
#X connect 14 0 3 1;
#X restore 68 601 pd PanDo;
#N canvas 1 179 886 573 PanDo 0;
#X obj 348 43 inlet~;
#X obj 221 112 bng 15 250 50 0 empty empty empty 17 7 0 10 -262144
-1 -1;
#X obj 201 457 *~;
#X obj 473 455 *~;
#X msg 346 17 audio in;
#X obj 415 42 inlet~;
#X msg 191 -28 This version is intended to be driven by an audio-rate
modulator so the HSL is for display only.;
#X obj 245 461 Snapshot~;
#X obj 292 435 r MetroGlobal;
#X msg 417 19 pan 0=L 1=R;
#X obj 244 493 outlet;
#X obj 469 490 throw~ \$0Right;
#X obj 132 494 throw~ \$0Left;
#X obj 472 179 *~ -1;
#X obj 493 219 +~ 1;
#X connect 0 0 3 0;
#X connect 0 0 2 0;
#X connect 2 0 12 0;
#X connect 3 0 11 0;
#X connect 5 0 2 1;
#X connect 5 0 7 0;
#X connect 5 0 13 0;
#X connect 7 0 10 0;
#X connect 8 0 7 0;
#X connect 13 0 14 0;
#X connect 14 0 3 1;
#X restore 171 602 pd PanDo;
#N canvas 1 193 886 573 PanDo 0;
#X obj 348 43 inlet~;
#X obj 221 112 bng 15 250 50 0 empty empty empty 17 7 0 10 -262144
-1 -1;
#X obj 201 457 *~;
#X obj 473 455 *~;
#X msg 346 17 audio in;
#X obj 415 42 inlet~;
#X msg 191 -28 This version is intended to be driven by an audio-rate
modulator so the HSL is for display only.;
#X obj 245 461 Snapshot~;
#X obj 292 435 r MetroGlobal;
#X msg 417 19 pan 0=L 1=R;
#X obj 244 493 outlet;
#X obj 469 490 throw~ \$0Right;
#X obj 132 494 throw~ \$0Left;
#X obj 472 179 *~ -1;
#X obj 486 214 +~ 1;
#X connect 0 0 3 0;
#X connect 0 0 2 0;
#X connect 2 0 12 0;
#X connect 3 0 11 0;
#X connect 5 0 2 1;
#X connect 5 0 7 0;
#X connect 5 0 13 0;
#X connect 7 0 10 0;
#X connect 8 0 7 0;
#X connect 13 0 14 0;
#X connect 14 0 3 1;
#X restore 258 603 pd PanDo;
#N canvas 1 207 886 573 PanDo 0;
#X obj 348 43 inlet~;
#X obj 221 112 bng 15 250 50 0 empty empty empty 17 7 0 10 -262144
-1 -1;
#X obj 201 457 *~;
#X obj 473 455 *~;
#X msg 346 17 audio in;
#X obj 415 42 inlet~;
#X msg 191 -28 This version is intended to be driven by an audio-rate
modulator so the HSL is for display only.;
#X obj 245 461 Snapshot~;
#X obj 292 435 r MetroGlobal;
#X msg 417 19 pan 0=L 1=R;
#X obj 244 493 outlet;
#X obj 469 490 throw~ \$0Right;
#X obj 132 494 throw~ \$0Left;
#X obj 472 179 *~ -1;
#X obj 502 220 +~ 1, f 5;
#X connect 0 0 3 0;
#X connect 0 0 2 0;
#X connect 2 0 12 0;
#X connect 3 0 11 0;
#X connect 5 0 2 1;
#X connect 5 0 7 0;
#X connect 5 0 13 0;
#X connect 7 0 10 0;
#X connect 8 0 7 0;
#X connect 13 0 14 0;
#X connect 14 0 3 1;
#X restore 361 603 pd PanDo;
#N canvas 1 179 886 573 PanDo 0;
#X obj 348 43 inlet~;
#X obj 221 112 bng 15 250 50 0 empty empty empty 17 7 0 10 -262144
-1 -1;
#X obj 201 457 *~;
#X obj 473 455 *~;
#X msg 346 17 audio in;
#X obj 415 42 inlet~;
#X msg 191 -28 This version is intended to be driven by an audio-rate
modulator so the HSL is for display only.;
#X obj 245 461 Snapshot~;
#X obj 292 435 r MetroGlobal;
#X msg 417 19 pan 0=L 1=R;
#X obj 244 493 outlet;
#X obj 469 490 throw~ \$0Right;
#X obj 132 494 throw~ \$0Left;
#X obj 472 179 *~ -1;
#X obj 502 220 +~ 1, f 5;
#X connect 0 0 3 0;
#X connect 0 0 2 0;
#X connect 2 0 12 0;
#X connect 3 0 11 0;
#X connect 5 0 2 1;
#X connect 5 0 7 0;
#X connect 5 0 13 0;
#X connect 7 0 10 0;
#X connect 8 0 7 0;
#X connect 13 0 14 0;
#X connect 14 0 3 1;
#X restore 459 603 pd PanDo;
#N canvas 1 193 886 573 PanDo 0;
#X obj 348 43 inlet~;
#X obj 221 112 bng 15 250 50 0 empty empty empty 17 7 0 10 -262144
-1 -1;
#X obj 201 457 *~;
#X obj 473 455 *~;
#X msg 346 17 audio in;
#X obj 415 42 inlet~;
#X msg 191 -28 This version is intended to be driven by an audio-rate
modulator so the HSL is for display only.;
#X obj 245 461 Snapshot~;
#X obj 292 435 r MetroGlobal;
#X msg 417 19 pan 0=L 1=R;
#X obj 244 493 outlet;
#X obj 469 490 throw~ \$0Right;
#X obj 132 494 throw~ \$0Left;
#X obj 472 179 *~ -1;
#X obj 502 220 +~ 1, f 5;
#X connect 0 0 3 0;
#X connect 0 0 2 0;
#X connect 2 0 12 0;
#X connect 3 0 11 0;
#X connect 5 0 2 1;
#X connect 5 0 7 0;
#X connect 5 0 13 0;
#X connect 7 0 10 0;
#X connect 8 0 7 0;
#X connect 13 0 14 0;
#X connect 14 0 3 1;
#X restore 562 604 pd PanDo;
#N canvas 1 179 886 573 PanDo 0;
#X obj 348 43 inlet~;
#X obj 221 112 bng 15 250 50 0 empty empty empty 17 7 0 10 -262144
-1 -1;
#X obj 201 457 *~;
#X obj 473 455 *~;
#X msg 346 17 audio in;
#X obj 415 42 inlet~;
#X msg 191 -28 This version is intended to be driven by an audio-rate
modulator so the HSL is for display only.;
#X obj 245 461 Snapshot~;
#X obj 292 435 r MetroGlobal;
#X msg 417 19 pan 0=L 1=R;
#X obj 244 493 outlet;
#X obj 469 490 throw~ \$0Right;
#X obj 132 494 throw~ \$0Left;
#X obj 472 179 *~ -1;
#X obj 502 220 +~ 1, f 5;
#X connect 0 0 3 0;
#X connect 0 0 2 0;
#X connect 2 0 12 0;
#X connect 3 0 11 0;
#X connect 5 0 2 1;
#X connect 5 0 7 0;
#X connect 5 0 13 0;
#X connect 7 0 10 0;
#X connect 8 0 7 0;
#X connect 13 0 14 0;
#X connect 14 0 3 1;
#X restore 658 603 pd PanDo;
#N canvas 1 179 886 573 PanDo 0;
#X obj 348 43 inlet~;
#X obj 221 112 bng 15 250 50 0 empty empty empty 17 7 0 10 -262144
-1 -1;
#X obj 201 457 *~;
#X obj 473 455 *~;
#X msg 346 17 audio in;
#X obj 415 42 inlet~;
#X msg 191 -28 This version is intended to be driven by an audio-rate
modulator so the HSL is for display only.;
#X obj 245 461 Snapshot~;
#X obj 292 435 r MetroGlobal;
#X msg 417 19 pan 0=L 1=R;
#X obj 244 493 outlet;
#X obj 469 490 throw~ \$0Right;
#X obj 132 494 throw~ \$0Left;
#X obj 472 179 *~ -1;
#X obj 502 220 +~ 1, f 5;
#X connect 0 0 3 0;
#X connect 0 0 2 0;
#X connect 2 0 12 0;
#X connect 3 0 11 0;
#X connect 5 0 2 1;
#X connect 5 0 7 0;
#X connect 5 0 13 0;
#X connect 7 0 10 0;
#X connect 8 0 7 0;
#X connect 13 0 14 0;
#X connect 14 0 3 1;
#X restore 761 603 pd PanDo;
#N canvas 1 179 886 573 PanDo 0;
#X obj 348 43 inlet~;
#X obj 221 112 bng 15 250 50 0 empty empty empty 17 7 0 10 -262144
-1 -1;
#X obj 201 457 *~;
#X obj 473 455 *~;
#X msg 346 17 audio in;
#X obj 415 42 inlet~;
#X msg 191 -28 This version is intended to be driven by an audio-rate
modulator so the HSL is for display only.;
#X obj 245 461 Snapshot~;
#X obj 292 435 r MetroGlobal;
#X msg 417 19 pan 0=L 1=R;
#X obj 244 493 outlet;
#X obj 469 490 throw~ \$0Right;
#X obj 132 494 throw~ \$0Left;
#X obj 472 179 *~ -1;
#X obj 502 220 +~ 1, f 5;
#X connect 0 0 3 0;
#X connect 0 0 2 0;
#X connect 2 0 12 0;
#X connect 3 0 11 0;
#X connect 5 0 2 1;
#X connect 5 0 7 0;
#X connect 5 0 13 0;
#X connect 7 0 10 0;
#X connect 8 0 7 0;
#X connect 13 0 14 0;
#X connect 14 0 3 1;
#X restore 859 603 pd PanDo;
#N canvas 1 179 886 573 PanDo 0;
#X obj 348 43 inlet~;
#X obj 221 112 bng 15 250 50 0 empty empty empty 17 7 0 10 -262144
-1 -1;
#X obj 201 457 *~;
#X obj 473 455 *~;
#X msg 346 17 audio in;
#X obj 415 42 inlet~;
#X msg 191 -28 This version is intended to be driven by an audio-rate
modulator so the HSL is for display only.;
#X obj 245 461 Snapshot~;
#X obj 292 435 r MetroGlobal;
#X msg 417 19 pan 0=L 1=R;
#X obj 244 493 outlet;
#X obj 469 490 throw~ \$0Right;
#X obj 132 494 throw~ \$0Left;
#X obj 472 179 *~ -1;
#X obj 502 220 +~ 1, f 5;
#X connect 0 0 3 0;
#X connect 0 0 2 0;
#X connect 2 0 12 0;
#X connect 3 0 11 0;
#X connect 5 0 2 1;
#X connect 5 0 7 0;
#X connect 5 0 13 0;
#X connect 7 0 10 0;
#X connect 8 0 7 0;
#X connect 13 0 14 0;
#X connect 14 0 3 1;
#X restore 962 604 pd PanDo;
#X obj 470 679 bng 15 250 50 0 empty empty empty 17 7 0 10 -262144
-1 -1;
#X connect 3 0 118 0;
#X connect 4 0 119 0;
#X connect 5 0 120 0;
#X connect 10 0 14 0;
#X connect 12 0 59 0;
#X connect 13 0 58 0;
#X connect 15 0 10 0;
#X connect 16 0 12 0;
#X connect 17 0 13 0;
#X connect 18 0 57 0;
#X connect 19 0 18 0;
#X connect 20 0 121 0;
#X connect 21 0 122 0;
#X connect 22 0 123 0;
#X connect 23 0 111 0;
#X connect 24 0 113 0;
#X connect 25 0 114 0;
#X connect 26 0 115 0;
#X connect 27 0 116 0;
#X connect 28 0 117 0;
#X connect 34 0 7 0;
#X connect 35 0 61 0;
#X connect 36 0 37 0;
#X connect 37 0 98 0;
#X connect 38 0 35 0;
#X connect 39 0 36 0;
#X connect 40 0 60 0;
#X connect 41 0 40 0;
#X connect 42 0 100 0;
#X connect 43 0 42 0;
#X connect 44 0 63 0;
#X connect 45 0 43 0;
#X connect 46 0 44 0;
#X connect 47 0 62 0;
#X connect 48 0 47 0;
#X connect 49 0 66 0;
#X connect 50 0 65 0;
#X connect 51 0 49 0;
#X connect 52 0 50 0;
#X connect 53 0 64 0;
#X connect 54 0 53 0;
#X connect 57 0 96 0;
#X connect 58 0 95 0;
#X connect 59 0 94 0;
#X connect 60 0 99 0;
#X connect 61 0 97 0;
#X connect 62 0 102 0;
#X connect 63 0 101 0;
#X connect 64 0 105 0;
#X connect 65 0 104 0;
#X connect 66 0 103 0;
#X connect 81 0 29 0;
#X connect 94 0 114 1;
#X connect 95 0 113 1;
#X connect 96 0 111 1;
#X connect 97 0 117 1;
#X connect 98 0 116 1;
#X connect 99 0 115 1;
#X connect 100 0 120 1;
#X connect 101 0 119 1;
#X connect 102 0 118 1;
#X connect 103 0 123 1;
#X connect 104 0 122 1;
#X connect 105 0 121 1;
#X connect 106 0 108 0;
#X connect 107 0 109 0;
#X connect 108 0 79 0;
#X connect 109 0 80 0;
#X connect 110 0 109 1;
#X connect 110 0 108 1;
#X connect 111 0 67 0;
#X connect 113 0 68 0;
#X connect 114 0 69 0;
#X connect 115 0 70 0;
#X connect 116 0 71 0;
#X connect 117 0 72 0;
#X connect 118 0 73 0;
#X connect 119 0 74 0;
#X connect 120 0 75 0;
#X connect 121 0 76 0;
#X connect 122 0 77 0;
#X connect 123 0 78 0;
#X coords 0 -1 1 1 160 200 1 100 100;
