#N canvas 65 119 1072 576 10;
#X obj 92 13 inlet~;
#X obj 106 136 hsl 80 12 50 8000 0 1 \$0YellowFreq \$0YellowFreqIn
Freq 5 7 0 10 -257985 -1 -1 0 1;
#X obj 151 13 inlet;
#X obj 193 12 inlet;
#X floatatom 248 183 5 0 0 2 RampSpd #0Rate -, f 5;
#X obj 256 10 inlet;
#X obj 73 -11 comment 0 10 helvetica ? 0 0 0 0 audio source;
#X obj 149 -3 comment 0 10 helvetica ? 0 0 0 0 (x \, y \, z);
#X obj 190 -6 comment 0 10 helvetica ? 0 0 0 0 ramp speed;
#X obj 249 -4 comment 0 10 helvetica ? 0 0 0 0 mod-in (LFO);
#X msg 278 55 0;
#X obj 280 33 init;
#X obj 106 251 hsl 60 15 0 1 0 0 \$0DryWet \$0DryWetIn Dry_Wet 0 7
0 10 -262144 -1 -1 1200 1;
#X obj 106 160 hsl 80 12 0.0001 0.1 1 0 \$0YellowReso \$0YellowResoIn
Reso 25 4 0 10 -257985 -1 -1 0 1;
#X obj 106 123 hsl 95 12 0.01 1 1 0 \$0White \$0WhiteIn White 5 4 0
10 -1 -262144 -262144 0 1;
#X obj 331 2 comment 0 10 helvetica ? 0 0 0 0 NoiseAmt;
#X msg 103 -62 inlets 1: Sound in 2: Filter Frequencies (3-tuple list)
3: Formant Rate Change 4: Filter bend amount / LFO 5: Noise level;
#X obj 176 250 hsl 40 15 0 5 0 0 \$0WetComp \$0WetCompIn WetComp 0
6 0 10 -262144 -1 -1 1014 1;
#X floatatom 173 274 5 0 0 0 - - -, f 5;
#X obj 93 40 s~ \$0audio;
#X obj 152 60 s \$0Freqs;
#X obj 192 38 s \$0Rate;
#X obj 256 81 s \$0ModIn;
#X obj 335 16 inlet~;
#X obj 336 42 s~ \$0NoiseAmt;
#N canvas 211 180 938 503 filter 0;
#X obj 213 136 line 3000;
#X obj 213 112 pack f f;
#X floatatom 213 92 5 0 0 0 - - -, f 5;
#X floatatom 213 163 5 0 0 0 - - -, f 5;
#X obj 212 188 t b f;
#X floatatom 212 244 5 0 0 0 - - -, f 5;
#X obj 126 168 r \$0ModIn;
#X obj 262 92 r \$0Rate;
#X obj 213 70 inlet;
#X obj 126 189 pow 1.05946;
#X msg 204 44 Frequency;
#X msg 328 94 Rate of Change;
#X obj 212 222 *;
#X obj 212 263 outlet;
#X connect 0 0 3 0;
#X connect 1 0 0 0;
#X connect 2 0 1 0;
#X connect 3 0 4 0;
#X connect 4 0 12 0;
#X connect 4 1 12 1;
#X connect 5 0 13 0;
#X connect 6 0 9 0;
#X connect 7 0 1 1;
#X connect 8 0 2 0;
#X connect 9 0 12 0;
#X connect 12 0 5 0;
#X restore 595 184 pd filter bend logic;
#X obj 595 211 s \$0YellowFreqIn;
#N canvas 209 194 938 503 filter 1;
#X obj 213 136 line 3000;
#X obj 213 112 pack f f;
#X floatatom 213 92 5 0 0 0 - - -, f 5;
#X floatatom 213 163 5 0 0 0 - - -, f 5;
#X obj 212 188 t b f;
#X floatatom 212 244 5 0 0 0 - - -, f 5;
#X obj 126 168 r \$0ModIn;
#X obj 262 92 r \$0Rate;
#X obj 213 70 inlet;
#X obj 126 189 pow 1.05946;
#X msg 204 44 Frequency;
#X msg 328 94 Rate of Change;
#X obj 212 222 *;
#X obj 212 263 outlet;
#X obj 564 224 pow;
#X obj 627 198 /;
#X msg 609 169 1;
#X msg 657 169 12;
#X msg 565 203 2;
#X floatatom 564 246 10 0 0 0 - - -, f 10;
#X obj 590 99 bng 15 250 50 0 empty empty empty 17 7 0 10 -262144 -1
-1;
#X obj 590 119 t b b b;
#X connect 0 0 3 0;
#X connect 1 0 0 0;
#X connect 2 0 1 0;
#X connect 3 0 4 0;
#X connect 4 0 12 0;
#X connect 4 1 12 1;
#X connect 5 0 13 0;
#X connect 6 0 9 0;
#X connect 7 0 1 1;
#X connect 8 0 2 0;
#X connect 9 0 12 0;
#X connect 12 0 5 0;
#X connect 14 0 19 0;
#X connect 15 0 14 1;
#X connect 16 0 15 0;
#X connect 17 0 15 1;
#X connect 18 0 14 0;
#X connect 20 0 21 0;
#X connect 21 0 18 0;
#X connect 21 1 16 0;
#X connect 21 2 17 0;
#X restore 513 335 pd filter bend logic;
#N canvas 211 180 938 503 filter 0;
#X obj 213 136 line 3000;
#X obj 213 112 pack f f;
#X floatatom 213 92 5 0 0 0 - - -, f 5;
#X floatatom 213 163 5 0 0 0 - - -, f 5;
#X obj 212 188 t b f;
#X floatatom 212 244 5 0 0 0 - - -, f 5;
#X obj 126 168 r \$0ModIn;
#X obj 262 92 r \$0Rate;
#X obj 213 70 inlet;
#X obj 126 189 pow 1.05946;
#X msg 204 44 Frequency;
#X msg 328 94 Rate of Change;
#X obj 212 222 *;
#X obj 212 263 outlet;
#X connect 0 0 3 0;
#X connect 1 0 0 0;
#X connect 2 0 1 0;
#X connect 3 0 4 0;
#X connect 4 0 12 0;
#X connect 4 1 12 1;
#X connect 5 0 13 0;
#X connect 6 0 9 0;
#X connect 7 0 1 1;
#X connect 8 0 2 0;
#X connect 9 0 12 0;
#X connect 12 0 5 0;
#X restore 664 335 pd filter bend logic;
#X obj 513 357 s \$0GreenFreqIn;
#X obj 664 357 s \$0PinkFreqIn;
#X obj -24 -13 bng 15 250 50 0 empty empty empty 17 7 0 10 -262144
-1 -1;
#X obj 31 -88 bng 15 250 50 0 empty empty empty 17 7 0 10 -262144 -1
-1;
#X obj 106 148 hsl 80 12 50 4000 0 1 \$0YellowGain \$0YellowGainIn
Gain 15 7 0 10 -262130 -1 -1 0 1;
#X obj 188 138 vsl 15 31 1 16 0 0 \$0YellowQ \$0YellowQIn Q 4 20 0
10 -257985 -1 -1 0 1;
#X obj 106 172 hsl 80 12 50 8000 0 1 \$0GreenFreq \$0GreenFreqIn Freq
5 7 0 10 -4034 -1 -1 0 1;
#X obj 106 196 hsl 80 12 0.0001 0.1 1 0 \$0GreenReso \$0GreenResoIn
Reso 25 4 0 10 -4034 -1 -1 0 1;
#X obj 106 184 hsl 80 12 50 4000 0 1 \$0GreenGain \$0GreenGainIn Gain
15 7 0 10 -204786 -1 -1 0 1;
#X obj 188 174 vsl 15 31 1 16 0 0 \$0GreenQ \$0GreenQIn Q 4 20 0 10
-4034 -1 -1 0 1;
#X obj 106 208 hsl 80 12 50 4000 0 1 \$0PinkFreq \$0PinkFreqIn Freq
5 7 0 10 -261234 -1 -1 0 1;
#X obj 106 232 hsl 80 12 0.0001 0.1 1 0 \$0PinkReso \$0PinkResoIn Reso
25 4 0 10 -261234 -1 -1 0 1;
#X obj 106 220 hsl 80 12 50 4000 0 1 \$0PinkGain \$0PinkGainIn Gain
15 7 0 10 -261682 -1 -1 0 1;
#X obj 188 210 vsl 15 31 1 16 0 0 \$0PinkQ \$0PinkQIn Q 4 20 0 10 -261234
-1 -1 0 1;
#N canvas 1 67 450 300 Q-Comp 0;
#X obj 17 8 nbx 2 14 1 16 0 1 \$0Q empty Q 0 -8 0 10 -262144 -1 -1
1 256;
#X obj 17 184 hsl 60 15 0 1 0 0 empty empty Q_compensation -2 -8 0
10 -262144 -1 -1 0 1;
#X floatatom 14 209 5 0 0 0 - - -, f 5;
#X obj 13 33 log;
#X floatatom 30 52 5 0 0 0 - - -, f 5;
#X floatatom 31 100 5 0 0 0 - - -, f 5;
#X obj 13 125 + 0.08;
#X floatatom 31 147 5 0 0 0 - - -, f 5;
#X obj 13 76 / 2.9;
#X obj 73 140 comment 0 10 helvetica ? 0 0 0 0 This is to compensate
the apparent decrease in overall amplitude with a high Q vs. low Q.
;
#X connect 0 0 3 0;
#X connect 1 0 2 0;
#X connect 3 0 4 0;
#X connect 3 0 8 0;
#X connect 6 0 7 0;
#X connect 6 0 1 0;
#X connect 8 0 5 0;
#X connect 8 0 6 0;
#X restore 175 318 pd Q-Comp;
#N canvas 1 67 450 300 guts 0;
#X obj -366 413 outlet~;
#X obj -424 19 noise~;
#X obj -424 61 *~;
#X obj -366 377 *~;
#X obj -459 257 r~ \$0audio;
#X obj -443 -4 r~ \$0audio;
#X obj -406 40 r~ \$0NoiseAmt;
#X obj -310 62 r \$0YellowFreq;
#X obj -272 125 r \$0GreenFreq;
#X obj -276 192 r \$0PinkFreq;
#N canvas 1 67 489 438 1filter 0;
#X obj 118 128 inlet~;
#X obj 187 129 inlet;
#X obj 244 130 inlet;
#X obj 170 298 vcf~;
#X obj 215 332 vcf~;
#X obj 215 396 outlet~;
#X obj 449 44 bng 15 250 50 0 empty empty empty 17 7 0 10 -262144 -1
-1;
#X obj 456 415 bng 15 250 50 0 empty empty empty 17 7 0 10 -262144
-1 -1;
#X obj 6 410 bng 15 250 50 0 empty empty empty 17 7 0 10 -262144 -1
-1;
#X obj -5 46 bng 15 250 50 0 empty empty empty 17 7 0 10 -262144 -1
-1;
#X obj 273 173 osc~;
#X obj 273 208 *~;
#X obj 300 135 inlet;
#X obj 170 258 +~;
#X msg 121 98 audio~;
#X msg 185 89 cutoff freq, f 7;
#X msg 250 99 Q;
#X obj 215 362 *~;
#X obj 352 133 inlet;
#X msg 305 104 Reso;
#X msg 349 106 Gain;
#X connect 0 0 13 0;
#X connect 1 0 3 1;
#X connect 1 0 4 1;
#X connect 1 0 10 0;
#X connect 2 0 3 2;
#X connect 2 0 4 2;
#X connect 3 0 4 0;
#X connect 4 0 17 0;
#X connect 10 0 11 0;
#X connect 11 0 13 1;
#X connect 12 0 11 1;
#X connect 13 0 3 0;
#X connect 17 0 5 0;
#X connect 18 0 17 1;
#X restore -369 245 pd 1filter;
#N canvas 1 81 489 438 1filter 0;
#X obj 118 128 inlet~;
#X obj 187 129 inlet;
#X obj 244 130 inlet;
#X obj 170 298 vcf~;
#X obj 215 332 vcf~;
#X obj 215 396 outlet~;
#X obj 449 44 bng 15 250 50 0 empty empty empty 17 7 0 10 -262144 -1
-1;
#X obj 456 415 bng 15 250 50 0 empty empty empty 17 7 0 10 -262144
-1 -1;
#X obj 6 410 bng 15 250 50 0 empty empty empty 17 7 0 10 -262144 -1
-1;
#X obj -5 46 bng 15 250 50 0 empty empty empty 17 7 0 10 -262144 -1
-1;
#X obj 273 173 osc~;
#X obj 273 208 *~;
#X obj 300 135 inlet;
#X obj 170 258 +~;
#X msg 121 98 audio~;
#X msg 185 89 cutoff freq, f 7;
#X msg 250 99 Q;
#X obj 215 362 *~;
#X obj 352 133 inlet;
#X msg 305 104 Reso;
#X msg 349 106 Gain;
#X connect 0 0 13 0;
#X connect 1 0 3 1;
#X connect 1 0 4 1;
#X connect 1 0 10 0;
#X connect 2 0 3 2;
#X connect 2 0 4 2;
#X connect 3 0 4 0;
#X connect 4 0 17 0;
#X connect 10 0 11 0;
#X connect 11 0 13 1;
#X connect 12 0 11 1;
#X connect 13 0 3 0;
#X connect 17 0 5 0;
#X connect 18 0 17 1;
#X restore -376 117 pd 1filter;
#N canvas 1 81 489 438 1filter 0;
#X obj 118 128 inlet~;
#X obj 187 129 inlet;
#X obj 244 130 inlet;
#X obj 170 298 vcf~;
#X obj 215 332 vcf~;
#X obj 215 396 outlet~;
#X obj 449 44 bng 15 250 50 0 empty empty empty 17 7 0 10 -262144 -1
-1;
#X obj 456 415 bng 15 250 50 0 empty empty empty 17 7 0 10 -262144
-1 -1;
#X obj 6 410 bng 15 250 50 0 empty empty empty 17 7 0 10 -262144 -1
-1;
#X obj -5 46 bng 15 250 50 0 empty empty empty 17 7 0 10 -262144 -1
-1;
#X obj 273 173 osc~;
#X obj 273 208 *~;
#X obj 300 135 inlet;
#X obj 170 258 +~;
#X msg 121 98 audio~;
#X msg 185 89 cutoff freq, f 7;
#X msg 250 99 Q;
#X obj 215 362 *~;
#X obj 352 133 inlet;
#X msg 305 104 Reso;
#X msg 349 106 Gain;
#X connect 0 0 13 0;
#X connect 1 0 3 1;
#X connect 1 0 4 1;
#X connect 1 0 10 0;
#X connect 2 0 3 2;
#X connect 2 0 4 2;
#X connect 3 0 4 0;
#X connect 4 0 17 0;
#X connect 10 0 11 0;
#X connect 11 0 13 1;
#X connect 12 0 11 1;
#X connect 13 0 3 0;
#X connect 17 0 5 0;
#X connect 18 0 17 1;
#X restore -371 179 pd 1filter;
#X msg -328 -2 audio~;
#X msg -264 -11 cutoff freq, f 7;
#X msg -199 -1 Q;
#X msg -144 4 Reso;
#X msg -100 6 Gain;
#X obj -443 85 +~;
#X obj -303 81 r \$0YellowQ;
#X obj -197 64 r \$0YellowReso;
#X obj -198 83 r \$0YellowGain;
#X obj -171 125 r \$0YellowReso;
#X obj -173 142 r \$0YellowGain;
#X obj -268 143 r \$0GreenQ;
#X obj -179 190 r \$0PinkReso;
#X obj -181 206 r \$0PinkGain;
#X obj -276 212 r \$0PinkQ;
#X obj -354 306 *~;
#X obj -404 307 *~;
#X obj -229 260 r \$0DryWet;
#X floatatom -229 282 5 0 0 0 - - -, f 5;
#X msg -227 304 1 \$1;
#X obj -227 326 -;
#X msg -332 359 1;
#X obj -330 336 loadbang;
#X connect 1 0 2 0;
#X connect 2 0 18 1;
#X connect 3 0 0 0;
#X connect 4 0 29 0;
#X connect 5 0 18 0;
#X connect 6 0 2 1;
#X connect 7 0 11 1;
#X connect 8 0 12 1;
#X connect 9 0 10 1;
#X connect 10 0 28 0;
#X connect 18 0 11 0;
#X connect 18 0 12 0;
#X connect 18 0 10 0;
#X connect 19 0 11 2;
#X connect 20 0 11 3;
#X connect 21 0 11 4;
#X connect 22 0 12 3;
#X connect 23 0 12 4;
#X connect 24 0 12 2;
#X connect 25 0 10 3;
#X connect 26 0 10 4;
#X connect 27 0 10 2;
#X connect 28 0 3 0;
#X connect 29 0 3 0;
#X connect 30 0 31 0;
#X connect 30 0 29 1;
#X connect 31 0 32 0;
#X connect 32 0 33 0;
#X connect 33 0 28 1;
#X connect 34 0 3 1;
#X connect 35 0 34 0;
#X restore 108 315 pd guts;
#X obj 202 105 bng 15 250 50 0 \$0Reset empty reset -20 5 0 7 -258113
-1 -4160;
#N canvas 1 81 450 300 reset 0;
#X msg 105 142 0;
#X obj 105 165 s \$0WhiteIn;
#X obj 105 69 loadbang;
#X obj 174 72 r \$0Reset;
#X msg 271 143 1.3;
#X obj 271 165 s \$0WetComp;
#X obj 165 112 bng 15 250 50 0 empty empty empty 17 7 0 10 -262144
-1 -1;
#X connect 0 0 1 0;
#X connect 2 0 6 0;
#X connect 3 0 6 0;
#X connect 4 0 5 0;
#X connect 6 0 0 0;
#X connect 6 0 4 0;
#X restore 264 317 pd reset;
#X obj 109 360 outlet~;
#X msg 601 -17 Band1: Freq: 1500 Gain: 0.1 Reso: 0.5 Q: 5;
#X obj 601 8 route Band1: Band2: Band3:;
#X obj 608 37 bng 15 250 50 0 empty empty empty 17 7 0 10 -262144 -1
-1;
#X obj 660 39 bng 15 250 50 0 empty empty empty 17 7 0 10 -262144 -1
-1;
#X obj 719 41 bng 15 250 50 0 empty empty empty 17 7 0 10 -262144 -1
-1;
#X obj 802 15 bng 15 250 50 0 empty empty empty 17 7 0 10 -262144 -1
-1;
#X obj 601 101 route Freq: Gain: Reso: Q:;
#X floatatom 604 135 5 0 0 0 - - -, f 5;
#X floatatom 648 139 5 0 0 0 - - -, f 5;
#X floatatom 692 142 5 0 0 0 - - -, f 5;
#X floatatom 743 144 5 0 0 0 - - -, f 5;
#X connect 0 0 19 0;
#X connect 2 0 20 0;
#X connect 3 0 21 0;
#X connect 5 0 22 0;
#X connect 10 0 22 0;
#X connect 11 0 10 0;
#X connect 17 0 18 0;
#X connect 23 0 24 0;
#X connect 25 0 26 0;
#X connect 27 0 29 0;
#X connect 28 0 30 0;
#X connect 44 0 47 0;
#X connect 48 0 49 0;
#X connect 49 0 50 0;
#X connect 49 0 54 0;
#X connect 49 1 51 0;
#X connect 49 2 52 0;
#X connect 49 3 53 0;
#X connect 54 0 55 0;
#X connect 54 1 56 0;
#X connect 54 2 57 0;
#X connect 54 3 58 0;
#X coords 0 -1 1 1 140 170 1 100 100;
