#N canvas 1 207 833 513 10;
#X obj -21 197 +~;
#X obj 21 200 -~;
#X obj -21 284 +~;
#X obj 18 286 -~;
#X obj 105 119 hsl 128 15 0 1 0 0 empty empty empty -2 -8 0 10 -262144
-1 -1 4175 1;
#X obj 440 351 -;
#X floatatom 102 213 5 0 0 0 - - -, f 5;
#X floatatom 427 373 5 0 0 0 - - -, f 5;
#X obj 21 238 *~;
#X obj -19 233 *~;
#X text 52 202 L-R;
#X text -54 201 L+R;
#X obj -87 139 inlet~;
#X obj -28 141 inlet~;
#X obj 31 438 outlet~;
#X obj -38 438 outlet~;
#X msg 447 316 0.5 \$1;
#X text 42 262 R, f 2;
#X text -46 264 L;
#X text 149 71 Note the range is 0-0.5. This is to compensate for the
fact that normally the output of summing L+R \, L-R is 2L (etc).;
#X obj 237 103 tgl 15 0 empty empty Bypass -40 7 0 10 -262144 -1 -1
0 1;
#X obj -98 353 *~;
#X obj -137 353 *~;
#X floatatom 320 204 5 0 0 0 - - -, f 5;
#X obj 391 193 -;
#X msg 391 169 1 \$1;
#X obj -98 353 *~;
#X obj -137 353 *~;
#X obj 91 360 *~;
#X obj 52 360 *~;
#X floatatom 391 216 5 0 0 0 - - -, f 5;
#X obj 91 360 *~;
#X obj 52 360 *~;
#X obj 391 259 line~;
#X msg 391 237 \$1 100;
#X obj 320 243 line~;
#X msg 321 223 \$1 100;
#X obj 103 190 line;
#X msg 103 164 \$1 100;
#X obj 12 77 loadbang;
#X msg 12 97 0.25;
#X obj 114 137 hsl 128 15 0 1 0 0 empty empty empty -2 -8 0 10 -262144
-1 -1 6800 1;
#X floatatom 162 213 5 0 0 0 - - -, f 5;
#X obj 163 190 line;
#X msg 163 164 \$1 100;
#X msg 47 140 0.5;
#X connect 0 0 9 0;
#X connect 1 0 8 0;
#X connect 2 0 29 0;
#X connect 3 0 28 0;
#X connect 4 0 38 0;
#X connect 5 0 7 0;
#X connect 6 0 9 1;
#X connect 8 0 2 1;
#X connect 8 0 3 1;
#X connect 9 0 2 0;
#X connect 9 0 3 0;
#X connect 12 0 0 0;
#X connect 12 0 1 0;
#X connect 12 0 22 0;
#X connect 13 0 0 1;
#X connect 13 0 1 1;
#X connect 13 0 21 0;
#X connect 16 0 5 0;
#X connect 20 0 23 0;
#X connect 20 0 25 0;
#X connect 21 0 14 0;
#X connect 22 0 15 0;
#X connect 23 0 36 0;
#X connect 24 0 30 0;
#X connect 25 0 24 0;
#X connect 28 0 14 0;
#X connect 29 0 15 0;
#X connect 30 0 34 0;
#X connect 33 0 28 1;
#X connect 33 0 29 1;
#X connect 34 0 33 0;
#X connect 35 0 21 1;
#X connect 35 0 22 1;
#X connect 36 0 35 0;
#X connect 37 0 6 0;
#X connect 38 0 37 0;
#X connect 39 0 40 0;
#X connect 39 0 45 0;
#X connect 40 0 4 0;
#X connect 41 0 44 0;
#X connect 42 0 8 1;
#X connect 43 0 42 0;
#X connect 44 0 43 0;
#X connect 45 0 41 0;
#X coords 0 -1 1 1 155 55 1 100 100;
