#N canvas 293 303 833 513 10;
#X obj 103 103 cnv 15 150 50 empty empty empty 20 12 0 14 -4160 -257985
0;
#X obj -21 197 +~;
#X obj 21 200 -~;
#X obj -21 284 +~;
#X obj 18 286 -~;
#X obj 108 117 hsl 128 15 0 1 0 0 empty empty L+R_Sum 25 7 0 10 -258113
-1 -262144 6350 1;
#X obj 439 351 -;
#X floatatom 102 213 5 0 0 0 - - -, f 5;
#X floatatom 427 373 5 0 0 0 - - -, f 5;
#X obj 21 238 *~;
#X obj -19 233 *~;
#X text 52 202 L-R;
#X text -54 201 L+R;
#X obj -83 142 inlet~;
#X obj -28 141 inlet~;
#X obj 31 438 outlet~;
#X obj -38 438 outlet~;
#X msg 439 324 0.5 \$1;
#X text 42 262 R, f 2;
#X text -46 264 L;
#X text 149 72 Note the range is 0-0.5. This is to compensate for the
fact that normally the output of summing L+R \, L-R is 2L (etc).;
#X obj 237 104 tgl 15 0 empty empty Bypass -40 7 0 12 -257985 -1 -257985
0 1;
#X obj -98 353 *~;
#X obj -137 353 *~;
#X floatatom 320 204 5 0 0 0 - - -, f 5;
#X obj 391 193 -;
#X msg 391 169 1 \$1;
#X obj -98 353 *~;
#X obj -137 353 *~;
#X obj 137 367 *~;
#X obj 95 363 *~;
#X floatatom 391 216 5 0 0 0 - - -, f 5;
#X obj 391 259 line~;
#X msg 392 234 \$1 100;
#X obj 320 243 line~;
#X msg 321 223 \$1 100;
#X obj 103 190 line;
#X msg 103 164 \$1 100;
#X obj 276 37 loadbang;
#X obj 107 134 hsl 128 15 0 1 0 0 empty empty L-R_Difference 40 7 0
10 -4034 -1 -1 6350 1;
#X floatatom 162 213 5 0 0 0 - - -, f 5;
#X obj 163 190 line;
#X msg 163 164 \$1 100;
#X msg 47 140 0.5;
#X floatatom 259 138 5 0 0 0 - - -, f 5;
#X floatatom 259 120 5 0 0 0 - - -, f 5;
#X obj 284 102 bng 15 250 50 0 empty empty empty 17 7 0 10 -258113
-262144 -1;
#X msg 12 97 0.5;
#X connect 1 0 10 0;
#X connect 2 0 9 0;
#X connect 3 0 30 0;
#X connect 4 0 29 0;
#X connect 5 0 37 0;
#X connect 5 0 45 0;
#X connect 6 0 8 0;
#X connect 7 0 10 1;
#X connect 9 0 3 1;
#X connect 9 0 4 1;
#X connect 10 0 3 0;
#X connect 10 0 4 0;
#X connect 13 0 1 0;
#X connect 13 0 2 0;
#X connect 13 0 23 0;
#X connect 14 0 1 1;
#X connect 14 0 2 1;
#X connect 14 0 22 0;
#X connect 17 0 6 0;
#X connect 21 0 24 0;
#X connect 21 0 26 0;
#X connect 22 0 15 0;
#X connect 23 0 16 0;
#X connect 24 0 35 0;
#X connect 25 0 31 0;
#X connect 26 0 25 0;
#X connect 29 0 15 0;
#X connect 30 0 16 0;
#X connect 31 0 33 0;
#X connect 32 0 29 1;
#X connect 32 0 30 1;
#X connect 33 0 32 0;
#X connect 34 0 22 1;
#X connect 34 0 23 1;
#X connect 35 0 34 0;
#X connect 36 0 7 0;
#X connect 37 0 36 0;
#X connect 38 0 46 0;
#X connect 39 0 42 0;
#X connect 39 0 44 0;
#X connect 40 0 9 1;
#X connect 41 0 40 0;
#X connect 42 0 41 0;
#X connect 43 0 39 0;
#X connect 46 0 47 0;
#X connect 46 0 43 0;
#X connect 47 0 5 0;
#X coords 0 -1 1 1 200 55 1 100 100;
