#N canvas 122 151 1185 621 10;
#X obj 103 101 cnv 15 167 45 empty empty empty 20 12 0 14 -4160 -257985
0;
#X obj -21 210 +~;
#X obj 21 213 -~;
#X obj -21 297 +~;
#X obj 18 299 -~;
#X floatatom 622 218 5 0 0 0 - - -, f 5;
#X obj 21 251 *~;
#X obj -19 246 *~;
#X text 52 215 L-R;
#X text -54 214 L+R;
#X obj -135 63 inlet~;
#X obj -75 63 inlet~;
#X obj 31 486 outlet~;
#X obj -38 486 outlet~;
#X text 42 275 R, f 2;
#X text -46 277 L;
#X obj 181 108 tgl 15 0 empty empty Bypass -40 7 0 12 -257985 -1 -257985
0 1;
#X obj -98 366 *~;
#X obj -137 366 *~;
#X floatatom 222 240 5 0 0 0 - - -, f 5;
#X obj 300 240 -;
#X msg 300 217 1 \$1;
#X obj -98 366 *~;
#X obj -137 366 *~;
#X obj 137 380 *~;
#X obj 95 376 *~;
#X floatatom 300 264 5 0 0 0 - - -, f 5;
#X obj 300 307 line~;
#X msg 301 282 \$1 100;
#X obj 222 279 line~;
#X msg 223 259 \$1 100;
#X obj 623 196 line;
#X msg 623 170 \$1 100;
#X obj 380 110 hsl 128 15 0 1 0 0 empty empty L-R_Difference 40 7 0
10 -4034 -1 -1 6939 1;
#X floatatom 377 180 5 0 0 0 - - -, f 5;
#X obj 378 157 line;
#X msg 378 131 \$1 100;
#X floatatom 453 131 5 0 0 0 - - -, f 5;
#X obj 233 112 bng 15 250 50 0 empty empty Reset -30 7 0 10 -258113
-262144 -257985;
#X obj 171 429 *~;
#X obj 132 429 *~;
#X text 140 43 comment;
#X obj 116 128 hsl 128 15 0 1 0 0 empty empty Mono<-_Stereo_->Exp.
5 7 0 10 -262144 -1 -1 7300 1;
#X msg 109 49 0.5;
#X obj 98 25 loadbang;
#X floatatom 426 92 5 0 0 0 - - -, f 5;
#X obj -276 184 lop~ 200;
#X obj -276 209 lop~ 200;
#X obj -206 184 lop~ 200;
#X obj -206 209 lop~ 200;
#X obj 252 113 vsl 15 30 0 0.5 0 0 empty empty BassComp -30 -9 0 10
-260097 -1 -262144 0 1;
#X obj -193 236 *~;
#X obj -253 235 *~;
#X obj -115 214 *;
#X obj -124 185 t b f;
#X obj 625 150 hsl 128 15 0 1 0 0 empty empty L+R_Sum 25 7 0 10 -258113
-1 -262144 5761 1;
#X floatatom 692 170 5 0 0 0 - - -, f 5;
#X obj 377 63 expr if ($f1<0.5 \, $f1 \, ($f1-0.5)*0.62+0.5);
#X floatatom 177 156 5 0 0 0 - - -, f 5;
#X obj 624 118 expr if ($f1<0.5 \, 0.66666-$f1*0.333333 \, 1-(($f1-0.5)*0.62+0.5))
, f 61;
#X obj 496 371 hsl 128 15 0 1 0 0 empty empty Gain_Comp 40 7 0 10 -228856
-1 -159808 12320 1;
#X obj 633 394 nbx 5 14 -1e+37 1e+37 0 0 empty empty empty 0 -8 0 10
-262144 -1 -1 0.970079 256;
#X obj 622 237 pack \$1 200;
#X obj 625 277 s~ \$0LRSum;
#X obj 625 257 line~;
#X floatatom 489 439 5 0 0 0 - - -, f 5;
#X obj 490 417 line;
#X msg 490 391 \$1 100;
#X obj 489 458 pack \$1 200;
#X obj 492 478 line~;
#X obj 492 502 s~ \$0GainComp;
#X floatatom 376 248 5 0 0 0 - - -, f 5;
#X obj 377 226 line;
#X msg 377 200 \$1 100;
#X obj 376 267 pack \$1 200;
#X obj 379 287 line~;
#X obj 193 374 r~ \$0GainComp;
#X obj 79 234 r~ \$0LRDiff;
#X obj 86 211 r~ \$0LRSum;
#X obj 380 307 s~ \$0LRDiff;
#X obj 123 177 s \$0EffectAmt;
#X obj 490 312 r \$0EffectAmt;
#X obj 378 39 r \$0EffectAmt;
#X obj 624 97 r \$0EffectAmt;
#X obj 488 332 expr if ($f1<0.5 \, 1-((0.5-$f1)*.4) \, (1-($f1*2-1)*0.2))
;
#X msg 235 68 0;
#X connect 1 0 7 0;
#X connect 2 0 6 0;
#X connect 3 0 25 0;
#X connect 4 0 24 0;
#X connect 5 0 62 0;
#X connect 6 0 3 1;
#X connect 6 0 4 1;
#X connect 7 0 3 0;
#X connect 7 0 4 0;
#X connect 10 0 1 0;
#X connect 10 0 2 0;
#X connect 10 0 18 0;
#X connect 10 0 46 0;
#X connect 11 0 1 1;
#X connect 11 0 2 1;
#X connect 11 0 17 0;
#X connect 11 0 48 0;
#X connect 16 0 19 0;
#X connect 16 0 21 0;
#X connect 17 0 12 0;
#X connect 18 0 13 0;
#X connect 19 0 30 0;
#X connect 20 0 26 0;
#X connect 21 0 20 0;
#X connect 24 0 39 0;
#X connect 25 0 40 0;
#X connect 26 0 28 0;
#X connect 27 0 24 1;
#X connect 27 0 25 1;
#X connect 28 0 27 0;
#X connect 29 0 17 1;
#X connect 29 0 18 1;
#X connect 30 0 29 0;
#X connect 31 0 5 0;
#X connect 32 0 31 0;
#X connect 33 0 36 0;
#X connect 33 0 37 0;
#X connect 34 0 73 0;
#X connect 35 0 34 0;
#X connect 36 0 35 0;
#X connect 38 0 43 0;
#X connect 38 0 42 0;
#X connect 39 0 12 0;
#X connect 40 0 13 0;
#X connect 42 0 53 0;
#X connect 42 0 58 0;
#X connect 42 0 80 0;
#X connect 43 0 42 0;
#X connect 44 0 43 0;
#X connect 44 0 85 0;
#X connect 46 0 47 0;
#X connect 47 0 52 0;
#X connect 48 0 49 0;
#X connect 49 0 51 0;
#X connect 50 0 54 0;
#X connect 51 0 39 0;
#X connect 52 0 40 0;
#X connect 53 0 51 1;
#X connect 53 0 52 1;
#X connect 54 0 53 0;
#X connect 54 1 53 1;
#X connect 55 0 56 0;
#X connect 55 0 32 0;
#X connect 57 0 45 0;
#X connect 57 0 33 0;
#X connect 59 0 55 0;
#X connect 60 0 61 0;
#X connect 60 0 67 0;
#X connect 62 0 64 0;
#X connect 64 0 63 0;
#X connect 65 0 68 0;
#X connect 66 0 65 0;
#X connect 67 0 66 0;
#X connect 68 0 69 0;
#X connect 69 0 70 0;
#X connect 71 0 74 0;
#X connect 72 0 71 0;
#X connect 73 0 72 0;
#X connect 74 0 75 0;
#X connect 75 0 79 0;
#X connect 76 0 39 1;
#X connect 76 0 40 1;
#X connect 77 0 6 1;
#X connect 78 0 7 1;
#X connect 81 0 84 0;
#X connect 82 0 57 0;
#X connect 83 0 59 0;
#X connect 84 0 60 0;
#X connect 85 0 16 0;
#X coords 0 -1 1 1 170 50 1 100 100;
