#N canvas 1 121 705 460 10;
#X obj 145 -59 metro;
#X obj 68 7 i;
#X obj 72 37 + 1;
#X floatatom 37 38 5 0 0 0 - - -, f 5;
#X msg 112 -2 0;
#X floatatom 56 85 5 0 0 0 - - -, f 5;
#X obj 166 -31 bng 15 250 50 0 empty empty empty 17 7 0 10 -262144
-1 -1;
#X obj 107 108 hradio 15 1 0 16 empty empty empty 0 -8 0 10 -262144
-1 -1 29;
#X obj 142 374 select 0 1 2 3 4 5 6 7 8 9 10 11 12 13 14 15;
#X obj 145 -95 tgl 15 0 empty empty empty 17 7 0 10 -262144 -1 -1 0
1;
#X obj 165 -180 hsl 128 15 0 1000 0 0 empty empty BPM -2 -8 0 10 -262144
-1 -1 0 1;
#X floatatom 238 -152 5 0 0 0 - - -, f 5;
#X floatatom 202 -99 5 0 0 0 - - -, f 5;
#X msg 151 -150 60000 \$1;
#X obj 182 -123 /;
#X obj 107 124 tgl 15 0 empty empty empty 17 7 0 10 -262144 -1 -1 1
1;
#X obj 122 124 tgl 15 0 empty empty empty 17 7 0 10 -262144 -1 -1 0
1;
#X obj 137 124 tgl 15 0 empty empty empty 17 7 0 10 -262144 -1 -1 1
1;
#X obj 152 124 tgl 15 0 empty empty empty 17 7 0 10 -262144 -1 -1 1
1;
#X obj 168 124 tgl 15 0 empty empty empty 17 7 0 10 -262144 -1 -1 0
1;
#X obj 183 124 tgl 15 0 empty empty empty 17 7 0 10 -262144 -1 -1 1
1;
#X obj 198 124 tgl 15 0 empty empty empty 17 7 0 10 -262144 -1 -1 0
1;
#X obj 213 124 tgl 15 0 empty empty empty 17 7 0 10 -262144 -1 -1 1
1;
#X obj 227 124 tgl 15 0 empty empty empty 17 7 0 10 -262144 -1 -1 1
1;
#X obj 242 124 tgl 15 0 empty empty empty 17 7 0 10 -262144 -1 -1 0
1;
#X obj 257 124 tgl 15 0 empty empty empty 17 7 0 10 -262144 -1 -1 1
1;
#X obj 272 124 tgl 15 0 empty empty empty 17 7 0 10 -262144 -1 -1 1
1;
#X obj 288 124 tgl 15 0 empty empty empty 17 7 0 10 -262144 -1 -1 1
1;
#X obj 303 124 tgl 15 0 empty empty empty 17 7 0 10 -262144 -1 -1 0
1;
#X obj 318 124 tgl 15 0 empty empty empty 17 7 0 10 -262144 -1 -1 0
1;
#X obj 333 124 tgl 15 0 empty empty empty 17 7 0 10 -262144 -1 -1 0
1;
#X obj 74 433 spigot;
#X obj 127 432 spigot;
#X obj 93 456 spigot;
#X obj 143 457 spigot;
#X obj 185 431 spigot;
#X obj 238 430 spigot;
#X obj 204 454 spigot;
#X obj 254 455 spigot;
#X obj 400 427 spigot;
#X obj 449 427 spigot;
#X obj 421 452 spigot;
#X obj 471 453 spigot;
#X obj 296 428 spigot;
#X obj 349 427 spigot;
#X obj 315 451 spigot;
#X obj 365 452 spigot;
#X obj 107 140 bng 15 250 50 0 empty empty empty 17 7 0 10 -262144
-1 -1;
#X obj 137 140 bng 15 250 50 0 empty empty empty 17 7 0 10 -262144
-1 -1;
#X obj 122 140 bng 15 250 50 0 empty empty empty 17 7 0 10 -262144
-1 -1;
#X obj 152 140 bng 15 250 50 0 empty empty empty 17 7 0 10 -262144
-1 -1;
#X obj 168 140 bng 15 250 50 0 empty empty empty 17 7 0 10 -262144
-1 -1;
#X obj 197 140 bng 15 250 50 0 empty empty empty 17 7 0 10 -262144
-1 -1;
#X obj 182 140 bng 15 250 50 0 empty empty empty 17 7 0 10 -262144
-1 -1;
#X obj 212 140 bng 15 250 50 0 empty empty empty 17 7 0 10 -262144
-1 -1;
#X obj 227 140 bng 15 250 50 0 empty empty empty 17 7 0 10 -262144
-1 -1;
#X obj 256 140 bng 15 250 50 0 empty empty empty 17 7 0 10 -262144
-1 -1;
#X obj 242 140 bng 15 250 50 0 empty empty empty 17 7 0 10 -262144
-1 -1;
#X obj 271 140 bng 15 250 50 0 empty empty empty 17 7 0 10 -262144
-1 -1;
#X obj 287 140 bng 15 250 50 0 empty empty empty 17 7 0 10 -262144
-1 -1;
#X obj 316 140 bng 15 250 50 0 empty empty empty 17 7 0 10 -262144
-1 -1;
#X obj 301 140 bng 15 250 50 0 empty empty empty 17 7 0 10 -262144
-1 -1;
#X obj 331 140 bng 15 250 50 0 empty empty empty 17 7 0 10 -262144
-1 -1;
#X obj 561 467 bng 15 250 50 0 empty empty empty 17 7 0 10 -262144
-1 -1;
#X obj 559 511 outlet;
#X obj 41 -77 inlet;
#X obj 633 511 outlet;
#X obj 543 79 sel 0;
#X obj 524 99 bng 15 250 50 0 empty empty empty 17 7 0 10 -262144 -1
-1;
#X msg 635 540 reset;
#X obj 90 -77 inlet;
#X msg 92 -101 reset;
#X obj 353 4 unpack f f f f f f f f f f f f f f f f;
#X obj 358 -47 inlet;
#X obj 57 58 % 1.6e+06;
#X connect 0 0 1 0;
#X connect 0 0 6 0;
#X connect 1 0 2 0;
#X connect 1 0 3 0;
#X connect 2 0 1 1;
#X connect 3 0 74 0;
#X connect 4 0 1 1;
#X connect 5 0 7 0;
#X connect 7 0 8 0;
#X connect 8 0 31 0;
#X connect 8 1 33 0;
#X connect 8 2 32 0;
#X connect 8 3 34 0;
#X connect 8 4 35 0;
#X connect 8 5 37 0;
#X connect 8 6 36 0;
#X connect 8 7 38 0;
#X connect 8 8 43 0;
#X connect 8 9 45 0;
#X connect 8 10 44 0;
#X connect 8 11 46 0;
#X connect 8 12 39 0;
#X connect 8 13 41 0;
#X connect 8 14 40 0;
#X connect 8 15 42 0;
#X connect 9 0 0 0;
#X connect 10 0 11 0;
#X connect 10 0 13 0;
#X connect 13 0 14 0;
#X connect 14 0 12 0;
#X connect 14 0 0 1;
#X connect 15 0 31 1;
#X connect 16 0 33 1;
#X connect 17 0 32 1;
#X connect 18 0 34 1;
#X connect 19 0 35 1;
#X connect 20 0 37 1;
#X connect 21 0 36 1;
#X connect 22 0 38 1;
#X connect 23 0 43 1;
#X connect 24 0 45 1;
#X connect 25 0 44 1;
#X connect 26 0 46 1;
#X connect 27 0 39 1;
#X connect 28 0 41 1;
#X connect 29 0 40 1;
#X connect 30 0 42 1;
#X connect 31 0 47 0;
#X connect 32 0 48 0;
#X connect 33 0 49 0;
#X connect 34 0 50 0;
#X connect 35 0 51 0;
#X connect 36 0 52 0;
#X connect 37 0 53 0;
#X connect 38 0 54 0;
#X connect 39 0 59 0;
#X connect 40 0 60 0;
#X connect 41 0 61 0;
#X connect 42 0 62 0;
#X connect 43 0 55 0;
#X connect 44 0 56 0;
#X connect 45 0 57 0;
#X connect 46 0 58 0;
#X connect 47 0 63 0;
#X connect 48 0 63 0;
#X connect 49 0 63 0;
#X connect 50 0 63 0;
#X connect 51 0 63 0;
#X connect 52 0 63 0;
#X connect 53 0 63 0;
#X connect 54 0 63 0;
#X connect 55 0 63 0;
#X connect 56 0 63 0;
#X connect 57 0 63 0;
#X connect 58 0 63 0;
#X connect 59 0 63 0;
#X connect 60 0 63 0;
#X connect 61 0 63 0;
#X connect 62 0 63 0;
#X connect 63 0 64 0;
#X connect 65 0 1 0;
#X connect 67 0 68 0;
#X connect 67 0 66 0;
#X connect 70 0 4 0;
#X connect 72 0 15 0;
#X connect 72 1 16 0;
#X connect 72 2 17 0;
#X connect 72 3 18 0;
#X connect 72 4 19 0;
#X connect 72 5 20 0;
#X connect 72 6 21 0;
#X connect 72 7 22 0;
#X connect 72 8 23 0;
#X connect 72 9 24 0;
#X connect 72 10 25 0;
#X connect 72 11 26 0;
#X connect 72 12 27 0;
#X connect 72 13 28 0;
#X connect 72 14 29 0;
#X connect 72 15 30 0;
#X connect 73 0 72 0;
#X connect 74 0 5 0;
#X connect 74 0 67 0;
#X coords 0 -1 1 1 250 60 1 100 100;
