#N canvas 1916 0 1280 984 10;
#X obj 590 507 sig~;
#X obj 698 499 sig~;
#X obj 532 130 hsl 128 15 0 2500 0 0 \$0-Delay_ms_L empty Delay_ms_L
-2 7 0 10 -232576 -1 -1 0 1;
#X obj 530 151 hsl 128 15 0 2500 0 0 \$0-Delay_ms_R empty Delay_ms_R
-2 7 0 10 -232576 -1 -1 0 1;
#X floatatom 601 168 5 0 0 0 - #0-Delay_ms_R -;
#X floatatom 560 168 5 0 0 0 - #0-Delay_ms_L -;
#X obj 532 227 hsl 110 15 0 1.3 0 0 \$0-echo_regen_feedback \$0-echo_regen_feedbackIN
echo_regen_feedback -2 7 0 10 -260097 -1 -1 0 1;
#X obj 527 188 bng 30 250 50 0 \$0PANIC empty Panic! 30 15 0 17 -258113
-1 -1;
#X obj 317 285 hsl 110 25 1 0 0 0 \$0-DirectDry empty RevbDlyDryWetMix
-2 7 0 10 -204786 -1 -1 0 1;
#X obj 531 299 hsl 110 15 0 2 0 0 \$0-Echo_Out_Master \$0-Echo_Out_Master_IN
DelayFinal 0 7 0 10 -261234 -1 -1 0 1;
#X obj 106 175 billverb~;
#X obj 108 108 hsl 110 15 0 1 0 0 \$0-dry_send_to_reverb \$0-dry_send_to_reverb-IN
dry_send_to_reverb 0 6 0 10 -204786 -1 -1 0 1;
#X obj 669 -56 r \$0FilterBend;
#X obj 667 -73 r \$0FormantRateChange;
#X obj 673 -33 r \$0-NoiseLFO;
#X obj 667 -90 r \$0FilterFreqs1;
#X obj 532 248 hsl 110 15 0 1 0 0 \$0Regen_Dry_Wet_Mix empty Regen_Dry_Wet_Mix
-2 6 0 10 -4032 -1 -1 0 1;
#X obj 649 201 vsl 10 60 0 0.5 0 0 \$0WetComp empty WetComp -25 -9
0 10 -4032 -1 -1 0 0;
#X obj 590 479 r \$0-Delay_ms_L;
#X obj 698 473 r \$0-Delay_ms_R;
#X obj 55 375 s~ \$0-ReverbOutL;
#X obj 226 424 s~ \$0-ReverbOutR;
#X obj 28 50 r~ \$0-ReverbINL;
#X obj 148 67 r~ \$0-ReverbINR;
#X obj -207 -67 inlet~;
#X obj -138 -66 inlet~;
#X obj 258 566 outlet~;
#X obj 184 565 outlet~;
#X obj -71 -65 inlet;
#X obj 29 -64 inlet;
#X obj 101 -68 inlet;
#X obj -70 -37 s \$0FilterFreqs1;
#X obj 29 1 s \$0FormantRateChange;
#X obj 74 -21 s \$0FilterBend;
#X obj 174 -37 s \$0-NoiseLFO;
#X obj 382 107 vowellfilter1;
#X floatatom -240 208 5 0 0 0 - - -;
#X obj -295 184 expr 1 - $f1;
#X obj -295 158 r \$0-DirectDry;
#X obj 662 18 initbang;
#X msg 567 73 1770;
#X msg 607 74 2125;
#X obj 33 202 initbang;
#X floatatom 637 503 5 0 0 0 - - -;
#X floatatom 739 499 5 0 0 0 - - -;
#X obj 698 528 vd~ \$0delayR;
#X obj 589 533 vd~ \$0delayL;
#X msg -205 -88 audio L;
#X msg -141 -89 audio R;
#X msg -70 -86 FormantFreqs;
#X msg 106 -89 filterbend;
#X msg 181 -84 NoiseLFO;
#X msg 31 -84 RateChange;
#X floatatom 116 -44 5 0 0 0 - - -;
#X obj 235 104 vowellfilter1;
#X obj 587 561 s~ \$0DelayOutL;
#X obj 698 551 s~ \$0DelayOutR;
#X obj -139 2 s~ \$0DirectDryR;
#X obj -208 24 s~ \$0DirectDryL;
#X obj 238 396 s~ \$0FormantOutL;
#X obj 387 347 s~ \$0FormantOutR;
#X obj 176 -62 inlet;
#X msg 649 62 0;
#X obj 531 279 hsl 110 15 0 1 0 0 \$0DelayDryFormantMix empty DelayDryFormantMix
-2 7 0 10 -261234 -1 -1 0 1;
#X msg 38 227 0.5;
#X obj -294 209 s \$0Wet;
#X obj 119 293 hsl 110 15 0 1 0 0 \$0-Reverb_Final empty Reverb_Final
-2 7 0 10 -261234 -1 -1 0 1;
#X obj 110 130 hsl 100 15 0 1 0 0 \$0ToReverbDryWetMix empty Delay2RvbDryWetMix
-2 6 0 10 -4034 -1 -1 0 1;
#X obj 531 109 hsl 110 15 0 1 0 0 \$0-dry_send_to_delay \$0-dry_send_to_delay-IN
dry_send_to_delay 0 6 0 10 -204786 -1 -1 0 1;
#X msg 737 79 0.25;
#N canvas 430 133 1062 694 Final 0;
#X obj 165 616 outlet~;
#X obj 226 615 outlet~;
#X obj -120 343 *~;
#X obj -78 340 *~;
#X obj -204 219 r \$0-DirectDry;
#X floatatom -207 269 5 0 0 0 - - -;
#X obj -89 288 r~ \$0DirectDryR;
#X obj -132 266 r~ \$0DirectDryL;
#X obj 56 223 *~;
#X obj 97 226 *~;
#X obj 67 40 r~ \$0-ReverbOutL;
#X obj 77 64 r~ \$0-ReverbOutR;
#X floatatom 142 116 5 0 0 0 - - -;
#X obj 117 96 r \$0Wet;
#X obj 193 107 r \$0-Reverb_Final;
#X floatatom 192 132 5 0 0 0 - - -;
#X obj 148 192 *;
#X floatatom 146 220 5 0 0 0 - - -;
#X obj 163 158 t b f;
#X obj 458 399 *~;
#X obj 495 409 *~;
#X floatatom 552 313 5 0 0 0 - - -;
#X obj 654 58 r~ \$0DelayOutL;
#X obj 727 80 r~ \$0DelayOutR;
#X obj 387 52 r~ \$0FormantOutL;
#X obj 442 82 r~ \$0FormantOutR;
#X obj 529 287 r \$0-Echo_Out_Master;
#X obj 456 157 *~;
#X obj 629 151 *~;
#X obj 497 160 *~;
#X obj 665 160 *~;
#X obj 650 123 r \$0DelayLvl;
#X obj 427 231 +~;
#X obj 497 118 r \$0FormantLvl;
#X obj 670 240 +~;
#X obj -165 395 VU2;
#X obj -21 94 VU2;
#X obj 342 124 VU2;
#X obj 755 138 VU2;
#X floatatom 463 287 5 0 0 0 - - -;
#X obj 448 266 r \$0Wet;
#X obj 487 360 *;
#X obj 501 316 t b f;
#X floatatom 643 555 5 0 0 0 - - -;
#X floatatom 420 557 5 0 0 0 - - -;
#X obj 547 556 s \$0FormantLvl;
#X obj 458 555 s \$0DelayLvl;
#X obj 478 492 r \$0DelayDryFormantMix;
#X floatatom 437 495 5 0 0 0 - - -;
#X obj 477 517 expr 1-pow($f1 \, 2)*2 \; 1-pow(1-$f1 \, 2);
#X connect 2 0 0 0;
#X connect 3 0 1 0;
#X connect 4 0 2 1;
#X connect 4 0 3 1;
#X connect 4 0 5 0;
#X connect 6 0 3 0;
#X connect 6 0 35 1;
#X connect 7 0 2 0;
#X connect 7 0 35 0;
#X connect 8 0 0 0;
#X connect 9 0 1 0;
#X connect 10 0 8 0;
#X connect 10 0 36 0;
#X connect 11 0 9 0;
#X connect 11 0 36 1;
#X connect 13 0 12 0;
#X connect 13 0 16 0;
#X connect 14 0 15 0;
#X connect 14 0 18 0;
#X connect 16 0 9 1;
#X connect 16 0 8 1;
#X connect 16 0 17 0;
#X connect 18 0 16 0;
#X connect 18 1 16 1;
#X connect 19 0 0 0;
#X connect 20 0 1 0;
#X connect 22 0 28 0;
#X connect 22 0 38 0;
#X connect 23 0 30 0;
#X connect 23 0 38 1;
#X connect 24 0 27 0;
#X connect 24 0 37 0;
#X connect 25 0 29 0;
#X connect 25 0 37 1;
#X connect 26 0 21 0;
#X connect 26 0 42 0;
#X connect 27 0 32 0;
#X connect 28 0 32 1;
#X connect 29 0 34 0;
#X connect 30 0 34 1;
#X connect 31 0 28 1;
#X connect 31 0 30 1;
#X connect 32 0 19 0;
#X connect 33 0 27 1;
#X connect 33 0 29 1;
#X connect 34 0 20 0;
#X connect 40 0 39 0;
#X connect 40 0 41 0;
#X connect 41 0 19 1;
#X connect 41 0 20 1;
#X connect 42 0 41 0;
#X connect 42 1 41 1;
#X connect 47 0 48 0;
#X connect 47 0 49 0;
#X connect 49 0 44 0;
#X connect 49 0 46 0;
#X connect 49 1 43 0;
#X connect 49 1 45 0;
#X restore 190 526 pd Final Mix;
#N canvas 682 52 777 549 sendToDelay 0;
#X obj 265 354 *~;
#X obj 330 355 *~;
#X obj 115 186 expr 1-$f1;
#X floatatom 131 211 5 0 0 0 - - -;
#X obj 411 312 r \$0-echo_regen_feedback;
#X obj 364 420 delwrite~ \$0delayL 5000;
#X obj 208 420 delwrite~ \$0delayR 5000;
#X floatatom 413 342 5 0 0 0 - - -;
#X obj 410 205 r~ \$0FormantOutL;
#X obj 444 226 r~ \$0FormantOutR;
#X floatatom 289 144 5 0 0 0 - - -;
#X obj 265 117 r \$0Regen_Dry_Wet_Mix;
#X obj 18 106 r~ \$0DelayOutL;
#X obj 64 131 r~ \$0DelayOutR;
#X obj 399 243 *~;
#X obj 436 254 *~;
#X obj 58 238 *~;
#X obj 87 240 *~;
#X obj 100 156 r \$0Regen_Dry_Wet_Mix;
#X obj 340 153 r \$0WetComp;
#X floatatom 358 171 5 0 0 0 - - -;
#X obj 305 227 *;
#X obj 332 194 t b f;
#X floatatom 304 252 5 0 0 0 - - -;
#X connect 0 0 6 0;
#X connect 1 0 5 0;
#X connect 2 0 3 0;
#X connect 2 0 16 1;
#X connect 2 0 17 1;
#X connect 4 0 1 1;
#X connect 4 0 0 1;
#X connect 4 0 7 0;
#X connect 8 0 14 0;
#X connect 9 0 15 0;
#X connect 11 0 10 0;
#X connect 11 0 21 0;
#X connect 12 0 16 0;
#X connect 13 0 17 0;
#X connect 14 0 0 0;
#X connect 15 0 1 0;
#X connect 16 0 0 0;
#X connect 17 0 1 0;
#X connect 18 0 2 0;
#X connect 19 0 20 0;
#X connect 19 0 22 0;
#X connect 21 0 14 1;
#X connect 21 0 15 1;
#X connect 21 0 23 0;
#X connect 22 0 21 0;
#X connect 22 1 21 1;
#X restore 258 489 pd sendToDelay;
#X obj 108 151 hsl 100 15 0 1 0 0 \$0Delay2Reverb empty Delay2Rvb 5
6 0 10 -159808 -262144 -262144 0 1;
#N canvas 2188 359 741 454 sendToReverb 0;
#X obj 240 136 *~;
#X obj 279 139 *~;
#X obj 467 281 *~;
#X obj 518 283 *~;
#X obj 509 182 r \$0-dry_send_to_reverb;
#X obj 267 394 s~ \$0-ReverbINL;
#X obj 378 398 s~ \$0-ReverbINR;
#X obj 512 249 r~ \$0DirectDryR;
#X obj 475 228 r~ \$0DirectDryL;
#X obj 187 70 r~ \$0FormantOutL;
#X obj 220 93 r~ \$0FormantOutR;
#X obj 527 78 r \$0ToReverbDryWetMix;
#X floatatom 549 103 5 0 0 0 - - -;
#X obj 513 126 expr 1-$f1;
#X obj 345 50 r~ \$0DelayOutL;
#X obj 397 76 r~ \$0DelayOutR;
#X floatatom 630 218 5 0 0 0 - - -;
#X obj 359 114 *~;
#X obj 406 119 *~;
#X floatatom 534 151 5 0 0 0 - - -;
#X obj 214 253 *~;
#X obj 262 253 *~;
#X obj 36 111 r \$0Delay2Reverb;
#X floatatom 115 135 5 0 0 0 - - -;
#X connect 0 0 20 0;
#X connect 1 0 21 0;
#X connect 2 0 5 0;
#X connect 3 0 6 0;
#X connect 4 0 3 1;
#X connect 4 0 2 1;
#X connect 4 0 16 0;
#X connect 7 0 3 0;
#X connect 8 0 2 0;
#X connect 9 0 0 0;
#X connect 10 0 1 0;
#X connect 11 0 12 0;
#X connect 11 0 13 0;
#X connect 11 0 1 1;
#X connect 11 0 0 1;
#X connect 13 0 19 0;
#X connect 13 0 18 1;
#X connect 13 0 17 1;
#X connect 14 0 17 0;
#X connect 15 0 18 0;
#X connect 17 0 20 0;
#X connect 18 0 21 0;
#X connect 20 0 5 0;
#X connect 21 0 6 0;
#X connect 22 0 23 0;
#X connect 22 0 20 1;
#X connect 22 0 21 1;
#X restore 138 491 pd sendToReverb;
#N canvas 835 677 450 316 PANIC 0;
#X obj 125 52 r \$0PANIC;
#X msg 111 125 0;
#X obj 67 166 s \$0-echo_regen_feedbackIN;
#X obj 110 146 s \$0-Echo_Out_Master_IN;
#X msg 266 163 \; pd dsp 0;
#X obj 267 141 delay 200;
#X connect 0 0 1 0;
#X connect 0 0 5 0;
#X connect 1 0 2 0;
#X connect 1 0 3 0;
#X connect 5 0 4 0;
#X restore 366 490 pd PANIC;
#X floatatom 37 126 5 0 0 0 - - -;
#X obj -83 94 initbang;
#X msg -85 115 0.4;
#X floatatom 27 176 5 0 0 0 - - -;
#X msg -77 151 0.5;
#X msg -57 282 0.6;
#X msg 792 170 0;
#X msg 802 82 0.6;
#X obj 289 -40 r~ \$0DirectDryR;
#X obj 267 -60 r~ \$0DirectDryL;
#X obj 322 -11 r \$0-dry_send_to_delay;
#X floatatom 350 13 5 0 0 0 - - -;
#X obj 268 46 *~;
#X obj 306 44 *~;
#X connect 0 0 46 0;
#X connect 1 0 45 0;
#X connect 10 0 20 0;
#X connect 10 1 21 0;
#X connect 11 0 75 0;
#X connect 12 0 35 3;
#X connect 12 0 54 3;
#X connect 13 0 35 2;
#X connect 13 0 54 2;
#X connect 14 0 35 4;
#X connect 14 0 54 4;
#X connect 15 0 35 1;
#X connect 15 0 54 1;
#X connect 18 0 0 0;
#X connect 18 0 43 0;
#X connect 19 0 1 0;
#X connect 19 0 44 0;
#X connect 22 0 10 0;
#X connect 23 0 10 1;
#X connect 24 0 58 0;
#X connect 25 0 57 0;
#X connect 28 0 31 0;
#X connect 29 0 32 0;
#X connect 30 0 33 0;
#X connect 30 0 53 0;
#X connect 35 0 60 0;
#X connect 37 0 36 0;
#X connect 37 0 65 0;
#X connect 38 0 37 0;
#X connect 39 0 41 0;
#X connect 39 0 40 0;
#X connect 39 0 62 0;
#X connect 39 0 69 0;
#X connect 39 0 81 0;
#X connect 39 0 82 0;
#X connect 40 0 2 0;
#X connect 41 0 3 0;
#X connect 42 0 64 0;
#X connect 45 0 56 0;
#X connect 46 0 55 0;
#X connect 54 0 59 0;
#X connect 61 0 34 0;
#X connect 62 0 16 0;
#X connect 64 0 8 0;
#X connect 69 0 17 0;
#X connect 70 0 27 0;
#X connect 70 1 26 0;
#X connect 72 0 78 0;
#X connect 76 0 77 0;
#X connect 76 0 79 0;
#X connect 76 0 80 0;
#X connect 77 0 11 0;
#X connect 79 0 72 0;
#X connect 80 0 66 0;
#X connect 81 0 63 0;
#X connect 81 0 9 0;
#X connect 81 0 6 0;
#X connect 82 0 68 0;
#X connect 83 0 88 0;
#X connect 84 0 87 0;
#X connect 85 0 86 0;
#X connect 85 0 88 1;
#X connect 85 0 87 1;
#X connect 87 0 54 0;
#X connect 88 0 35 0;
#X coords 0 -1 1 1 570 225 1 100 100;
