#N canvas 2316 64 616 687 10;
#X obj 363 29 inlet~;
#X obj 196 487 outlet~;
#X obj 275 491 outlet~;
#X obj 112 108 hsl 128 15 0 1 0 0 empty empty LR__PAN 10 8 0 10 -262144
-1 -1 0 1;
#X obj 110 35 initbang;
#X msg 110 58 0.5;
#X obj 245 107 bng 15 250 50 0 empty empty empty 17 7 0 10 -262144
-1 -1;
#X obj 207 340 *~;
#X obj 284 345 *~;
#X floatatom 47 140 5 0 0 0 - - -;
#X obj 427 31 inlet;
#X obj 79 255 expr 1-pow($f1 \, 2) \; 1-pow(1-$f1 \, 2);
#X floatatom 86 298 5 0 0 0 - - -;
#X floatatom 190 296 5 0 0 0 - - -;
#X obj 78 227 line;
#X msg 78 206 \$1 50;
#X obj 349 484 outlet~;
#X obj 428 488 outlet~;
#X obj 353 452 *~;
#X obj 430 457 *~;
#X obj 113 133 hsl 128 15 0 1 0 0 empty empty ROUTE 10 8 0 10 -228856
-1 -1 0 1;
#X obj 367 318 expr 1-pow($f1 \, 2) \; 1-pow(1-$f1 \, 2);
#X obj 372 297 line;
#X msg 372 276 \$1 50;
#X obj 200 447 *~;
#X obj 278 442 *~;
#X msg 87 329 L;
#X msg 163 332 R;
#X msg 382 358 1;
#X msg 490 365 2;
#X floatatom 488 404 5 0 0 0 - - -;
#X floatatom 375 382 5 0 0 0 - - -;
#X connect 0 0 8 0;
#X connect 0 0 7 0;
#X connect 3 0 9 0;
#X connect 3 0 15 0;
#X connect 4 0 5 0;
#X connect 5 0 3 0;
#X connect 6 0 5 0;
#X connect 7 0 18 0;
#X connect 7 0 24 0;
#X connect 8 0 19 0;
#X connect 8 0 25 0;
#X connect 10 0 3 0;
#X connect 11 0 12 0;
#X connect 11 0 7 1;
#X connect 11 1 13 0;
#X connect 11 1 8 1;
#X connect 14 0 11 0;
#X connect 15 0 14 0;
#X connect 18 0 16 0;
#X connect 19 0 17 0;
#X connect 20 0 23 0;
#X connect 21 0 31 0;
#X connect 21 0 25 1;
#X connect 21 0 24 1;
#X connect 21 1 19 1;
#X connect 21 1 18 1;
#X connect 21 1 30 0;
#X connect 22 0 21 0;
#X connect 23 0 22 0;
#X connect 24 0 1 0;
#X connect 25 0 2 0;
#X coords 0 -1 1 1 170 60 1 100 100;
