#N canvas 1982 82 1083 722 10;
#X obj 472 183 freeverb~;
#X obj 299 33 inlet~;
#X obj 390 34 inlet~;
#X obj 516 244 outlet~;
#X obj 575 243 outlet~;
#X msg 240 324 roomsize \$1;
#X msg 256 372 damping \$1;
#X msg 164 302 wet \$1;
#X msg 103 380 dry \$1;
#X obj 103 354 -;
#X msg 103 327 1;
#X obj 103 302 t b f;
#X obj 102 405 s \$0FreeVerbMsg;
#X obj 447 112 r \$0FreeVerbMsg;
#X obj 240 298 r \$0-RoomSize;
#X obj 255 348 r \$0-Damping;
#X obj 240 400 s \$0FreeVerbMsg;
#X obj 103 278 r \$0-WetDry;
#X msg 388 325 width \$1;
#X obj 388 354 s \$0FreeVerbMsg;
#X obj 388 298 r \$0-Width;
#X msg 503 312 freeze \$1;
#X obj 503 340 s \$0FreeVerbMsg;
#X obj 505 277 r \$0-Freeze;
#N canvas 2624 255 450 300 init 0;
#X obj 100 92 init 0;
#X obj 115 117 s \$0-RoomSizeIn;
#X obj 117 135 s \$0-DampingIn;
#X obj 118 157 \$0 \$0-WetDryIn;
#X obj 243 98 init 1;
#X obj 263 122 s \$0-WidthIn;
#X obj 262 149 s \$0-FreezeIn;
#X connect 0 0 1 0;
#X connect 0 0 2 0;
#X connect 0 0 3 0;
#X connect 4 0 5 0;
#X connect 4 0 6 0;
#X restore 113 60 pd init;
#X obj 503 456 s \$0FreeVerbMsg;
#X msg 503 430 bypass \$1;
#X obj 503 404 r \$0-Bypass;
#X obj 173 514 s \$0FreeVerbMsg;
#X msg 172 492 clear \$1;
#X msg 172 467 1;
#X obj 172 445 r \$0-Clear;
#X obj 373 485 s \$0FreeVerbMsg;
#X msg 373 437 1;
#X obj 373 415 r \$0-print;
#X msg 373 462 print \$1;
#X obj 101 102 cnv 15 120 110 empty empty billverb 5 6 0 14 -261234
-66577 0;
#X obj 107 127 hsl 40 15 0 1 0 0 \$0-RoomSize \$0-RoomSizeIn Roomsize
-2 -6 0 10 -204800 -1 -1 2730 1;
#X obj 107 155 hsl 40 15 0 1 0 0 \$0-Damping \$0-DampingIn Damping
-2 -6 0 10 -261682 -1 -1 0 1;
#X obj 108 185 hsl 40 15 0 1 0 0 \$0-WetDry \$0-WetDryIn Wet/Dry -2
-6 0 10 -232576 -1 -1 1170 1;
#X obj 184 142 tgl 15 0 \$0-Freeze \$0-FreezeIn Freeze -5 -4 0 8 -4032
-1 -1 0 1;
#X obj 157 123 vsl 15 40 0 2 0 0 \$0-Width \$0-WidthiN Width -5 47
0 10 -191407 -1 -1 0 1;
#X obj 194 111 tgl 15 0 \$0-Bypass \$0-BypassIn Bypass -5 -4 0 8 -262144
-1 -1 0 1;
#X obj 184 176 bng 15 250 50 0 \$0-Clear \$0-ClearIn Clear -5 -5 0
8 -258113 -1 -1;
#X obj 157 188 bng 15 250 50 0 \$0-print empty print -5 -5 0 8 -262144
-1 -1;
#X obj 300 56 s~ \$0-inletL;
#X obj 389 57 s~ \$0-inletR;
#X obj 471 134 r~ \$0-inletL;
#X obj 523 157 r~ \$0-inletR;
#X floatatom 587 299 5 0 0 0 - - -;
#X floatatom 460 314 5 0 0 0 - - -;
#X floatatom 334 317 5 0 0 0 - - -;
#X floatatom 446 436 5 0 0 0 - - -;
#X floatatom 597 428 5 0 0 0 - - -;
#X floatatom 255 463 5 0 0 0 - - -;
#X msg 245 109 0;
#X obj 207 158 vsl 10 40 0 1 0 0 \$0WetComp empty WetComp -30 47 0
10 -262144 -1 -1 1170 1;
#X obj 245 81 loadbang;
#X obj 635 41 r \$0WetComp;
#X floatatom 667 70 5 0 0 0 - - -;
#X obj 729 22 r \$0-WetDry;
#X floatatom 721 48 5 0 0 0 - - -;
#X obj 710 99 *;
#X floatatom 709 121 5 0 0 0 - - -;
#X obj 710 71 t b f;
#X obj 33 417 s \$0-Dry;
#X obj 608 125 r \$0-Dry;
#X floatatom 622 148 5 0 0 0 - - -;
#X obj 692 178 +;
#X floatatom 707 202 5 0 0 0 - - -;
#X obj 517 215 *~;
#X obj 563 216 *~;
#X obj 708 143 t b f;
#X msg 286 118 0.3;
#X msg 309 141 0.7;
#X obj 342 233 output~;
#X connect 0 0 70 0;
#X connect 0 1 71 0;
#X connect 1 0 45 0;
#X connect 2 0 46 0;
#X connect 5 0 16 0;
#X connect 6 0 16 0;
#X connect 7 0 12 0;
#X connect 8 0 12 0;
#X connect 9 0 8 0;
#X connect 9 0 65 0;
#X connect 10 0 9 0;
#X connect 11 0 10 0;
#X connect 11 1 9 1;
#X connect 13 0 0 0;
#X connect 14 0 5 0;
#X connect 14 0 51 0;
#X connect 15 0 6 0;
#X connect 17 0 11 0;
#X connect 17 0 7 0;
#X connect 18 0 19 0;
#X connect 20 0 18 0;
#X connect 20 0 50 0;
#X connect 21 0 22 0;
#X connect 23 0 21 0;
#X connect 23 0 49 0;
#X connect 26 0 25 0;
#X connect 27 0 26 0;
#X connect 27 0 53 0;
#X connect 29 0 28 0;
#X connect 30 0 29 0;
#X connect 31 0 30 0;
#X connect 31 0 54 0;
#X connect 33 0 35 0;
#X connect 34 0 33 0;
#X connect 34 0 52 0;
#X connect 35 0 32 0;
#X connect 47 0 0 0;
#X connect 48 0 0 1;
#X connect 55 0 40 0;
#X connect 57 0 55 0;
#X connect 57 0 73 0;
#X connect 57 0 74 0;
#X connect 58 0 59 0;
#X connect 59 0 62 0;
#X connect 60 0 61 0;
#X connect 61 0 64 0;
#X connect 62 0 63 0;
#X connect 63 0 72 0;
#X connect 64 0 62 0;
#X connect 64 1 62 1;
#X connect 66 0 67 0;
#X connect 67 0 68 0;
#X connect 68 0 69 0;
#X connect 68 0 71 1;
#X connect 68 0 70 1;
#X connect 70 0 3 0;
#X connect 71 0 4 0;
#X connect 72 0 68 0;
#X connect 72 1 68 1;
#X connect 73 0 56 0;
#X connect 73 0 39 0;
#X connect 74 0 37 0;
#X coords 0 -1 1 1 119 111 1 100 100;
