#N canvas 1908 6 1280 984 10;
#X obj 264 -13 sig~;
#X obj 381 -22 sig~;
#X obj 529 139 hsl 128 15 5 2500 1 0 \$0-Delay_ms_L empty Delay_ms_L
-2 7 0 10 -232576 -1 -1 792 1;
#X obj 529 160 hsl 128 15 5 2500 1 0 \$0-Delay_ms_R empty Delay_ms_R
-2 7 0 10 -232576 -1 -1 1295 1;
#X floatatom 600 177 5 0 0 0 - #0-Delay_ms_R -;
#X floatatom 559 177 5 0 0 0 - #0-Delay_ms_L -;
#X obj 531 236 hsl 110 15 0 1.3 0 0 \$0-echo_regen_feedback \$0-echo_regen_feedbackIN
echo_regen_feedback -2 7 0 10 -260097 -1 -1 9400 1;
#X obj 526 197 bng 30 250 50 0 \$0PANIC empty Panic! 30 15 0 17 -258113
-1 -1;
#X obj 316 294 hsl 110 25 1 0 0 0 \$0-DirectDry empty RevbDlyDryWetMix
-2 7 0 10 -204786 -1 -1 5450 1;
#X obj 530 308 hsl 110 15 0 2 0 0 \$0-Echo_Out_Master \$0-Echo_Out_Master_IN
DelayFinal 0 7 0 10 -261234 -1 -1 3400 1;
#X obj 105 184 billverb~;
#X obj 107 117 hsl 110 15 0 1 0 0 \$0-dry_send_to_reverb \$0-dry_send_to_reverb-IN
dry_send_to_reverb 0 6 0 10 -204786 -1 -1 4360 1;
#X obj 668 -47 r \$0FilterBend;
#X obj 664 5 r \$0FormantRateChange;
#X obj 672 -24 r \$0-NoiseLFO;
#X obj 666 -81 r \$0FilterFreqs1;
#X obj 531 257 hsl 110 15 0 1 0 0 \$0Regen_Dry_Wet_Mix empty Regen_Dry_Wet_Mix
-2 6 0 10 -4032 -1 -1 8100 1;
#X obj 648 210 vsl 10 60 0 0.5 0 0 \$0WetComp empty WetComp -25 -9
0 10 -4032 -1 -1 2950 0;
#X obj 264 -41 r \$0-Delay_ms_L;
#X obj 381 -48 r \$0-Delay_ms_R;
#X obj 54 384 s~ \$0-ReverbOutL;
#X obj 225 433 s~ \$0-ReverbOutR;
#X obj 27 59 r~ \$0-ReverbINL;
#X obj 212 81 r~ \$0-ReverbINR;
#X obj -208 -58 inlet~;
#X obj -139 -57 inlet~;
#X obj 257 575 outlet~;
#X obj 183 574 outlet~;
#X obj -72 -56 inlet;
#X obj 28 -55 inlet;
#X obj 100 -59 inlet;
#X obj -71 -28 s \$0FilterFreqs1;
#X obj 28 10 s \$0FormantRateChange;
#X obj 73 -12 s \$0FilterBend;
#X obj 175 -28 s \$0-NoiseLFO;
#X floatatom -241 217 5 0 0 0 - - -;
#X obj -296 193 expr 1 - $f1;
#X obj -296 167 r \$0-DirectDry;
#X obj 661 27 initbang;
#X msg 566 82 1770;
#X msg 606 83 2125;
#X obj 32 211 initbang;
#X floatatom 311 -17 5 0 0 0 - - -;
#X floatatom 422 -22 5 0 0 0 - - -;
#X obj 381 7 vd~ \$0delayR;
#X obj 263 13 vd~ \$0delayL;
#X msg -206 -79 audio L;
#X msg -142 -80 audio R;
#X msg -71 -77 FormantFreqs;
#X msg 105 -80 filterbend;
#X msg 180 -75 NoiseLFO;
#X msg 30 -75 RateChange;
#X floatatom 115 -35 5 0 0 0 - - -;
#X obj 234 113 vowellfilter1;
#X obj -140 11 s~ \$0DirectDryR;
#X obj -209 33 s~ \$0DirectDryL;
#X obj 237 405 s~ \$0FormantOutL;
#X obj 386 356 s~ \$0FormantOutR;
#X obj 175 -53 inlet;
#X msg 648 71 0;
#X obj 530 288 hsl 110 15 0 1 0 0 \$0DelayDryFormantMix empty DelayDryFormantMix
-2 7 0 10 -261234 -1 -1 0 1;
#X msg 37 236 0.5;
#X obj -295 218 s \$0Wet;
#X obj 118 302 hsl 110 15 0 1 0 0 \$0-Reverb_Final empty Reverb_Final
-2 7 0 10 -261234 -1 -1 6540 1;
#X obj 109 139 hsl 100 15 0 1 0 0 \$0ToReverbDryWetMix empty Delay2RvbDryWetMix
-2 6 0 10 -4034 -1 -1 0 1;
#X obj 530 118 hsl 110 15 0 1 0 0 \$0-dry_send_to_delay \$0-dry_send_to_delay-IN
dry_send_to_delay 0 6 0 10 -204786 -1 -1 6540 1;
#X msg 736 88 0.25;
#N canvas 2089 36 1062 694 Final 0;
#X obj 165 616 outlet~;
#X obj 226 615 outlet~;
#X obj -120 343 *~;
#X obj -78 340 *~;
#X obj -204 219 r \$0-DirectDry;
#X floatatom -207 269 5 0 0 0 - - -;
#X obj -89 288 r~ \$0DirectDryR;
#X obj -132 266 r~ \$0DirectDryL;
#X obj 56 223 *~;
#X obj 97 226 *~;
#X obj 67 40 r~ \$0-ReverbOutL;
#X obj 77 64 r~ \$0-ReverbOutR;
#X floatatom 142 116 5 0 0 0 - - -;
#X obj 117 96 r \$0Wet;
#X obj 193 107 r \$0-Reverb_Final;
#X floatatom 192 132 5 0 0 0 - - -;
#X obj 148 192 *;
#X floatatom 146 220 5 0 0 0 - - -;
#X obj 163 158 t b f;
#X obj 458 399 *~;
#X obj 495 409 *~;
#X floatatom 552 313 5 0 0 0 - - -;
#X obj 654 58 r~ \$0DelayOutL;
#X obj 727 80 r~ \$0DelayOutR;
#X obj 387 52 r~ \$0FormantOutL;
#X obj 440 83 r~ \$0FormantOutR;
#X obj 529 287 r \$0-Echo_Out_Master;
#X obj 456 157 *~;
#X obj 629 151 *~;
#X obj 497 160 *~;
#X obj 665 160 *~;
#X obj 650 123 r \$0DelayLvl;
#X obj 405 361 +~;
#X obj 497 118 r \$0FormantLvl;
#X obj 641 327 +~;
#X obj -165 395 VU2;
#X obj -75 37 VU2;
#X obj 340 105 VU2;
#X obj 755 138 VU2;
#X floatatom 463 287 5 0 0 0 - - -;
#X obj 448 266 r \$0Wet;
#X obj 487 360 *;
#X obj 501 316 t b f;
#X floatatom 643 555 5 0 0 0 - - -;
#X floatatom 420 557 5 0 0 0 - - -;
#X obj 547 556 s \$0FormantLvl;
#X obj 458 555 s \$0DelayLvl;
#X obj 478 492 r \$0DelayDryFormantMix;
#X floatatom 437 495 5 0 0 0 - - -;
#X obj 477 517 expr 1-pow($f1 \, 2)*2 \; 1-pow(1-$f1 \, 2);
#X obj 253 220 pvu~;
#X floatatom 251 244 5 0 0 0 - - -;
#X obj 161 346 bng 15 250 50 0 empty empty empty 17 7 0 10 -262144
-258113 -4032;
#X obj 302 343 bng 15 250 50 0 empty empty empty 17 7 0 10 -262144
-258113 -4032;
#X obj 302 320 sel 1;
#X obj 148 296 > 0;
#X obj 251 346 bng 15 250 50 0 empty empty empty 17 7 0 10 -262144
-258113 -4032;
#X obj 251 318 sel 1;
#X obj 214 344 bng 15 250 50 0 empty empty empty 17 7 0 10 -262144
-258113 -4032;
#X obj 196 321 sel 0 1;
#X obj 192 343 bng 15 250 50 0 empty empty empty 17 7 0 10 -262144
-4034 -4032;
#X obj 142 321 sel 0 1;
#X obj 138 345 bng 15 250 50 0 empty empty empty 17 7 0 10 -262144
-4034 -4032;
#X obj 192 407 s \$0OverloadReset;
#X obj 302 367 s \$0OVERLOAD10;
#X obj 251 384 s \$0OVERLOAD5;
#X obj 352 345 bng 15 250 50 0 empty empty empty 17 7 0 10 -262144
-258113 -4032;
#X obj 352 322 sel 1;
#X obj 342 407 s \$0OVERLOAD20;
#X obj 351 294 > 10;
#X obj 252 293 > 1.5;
#X obj 198 292 > 1;
#X obj 300 293 > 2;
#X connect 2 0 0 0;
#X connect 3 0 1 0;
#X connect 4 0 2 1;
#X connect 4 0 3 1;
#X connect 4 0 5 0;
#X connect 6 0 3 0;
#X connect 6 0 35 1;
#X connect 7 0 2 0;
#X connect 7 0 35 0;
#X connect 8 0 0 0;
#X connect 9 0 1 0;
#X connect 10 0 8 0;
#X connect 10 0 36 0;
#X connect 11 0 9 0;
#X connect 11 0 36 1;
#X connect 13 0 12 0;
#X connect 13 0 16 0;
#X connect 14 0 15 0;
#X connect 14 0 18 0;
#X connect 16 0 9 1;
#X connect 16 0 8 1;
#X connect 16 0 17 0;
#X connect 18 0 16 0;
#X connect 18 1 16 1;
#X connect 19 0 0 0;
#X connect 20 0 1 0;
#X connect 22 0 28 0;
#X connect 22 0 38 0;
#X connect 22 0 50 0;
#X connect 23 0 30 0;
#X connect 23 0 38 1;
#X connect 24 0 27 0;
#X connect 24 0 37 0;
#X connect 25 0 29 0;
#X connect 25 0 37 1;
#X connect 26 0 21 0;
#X connect 26 0 42 0;
#X connect 27 0 32 0;
#X connect 28 0 32 1;
#X connect 29 0 34 0;
#X connect 30 0 34 1;
#X connect 31 0 28 1;
#X connect 31 0 30 1;
#X connect 32 0 19 0;
#X connect 33 0 27 1;
#X connect 33 0 29 1;
#X connect 34 0 20 0;
#X connect 40 0 39 0;
#X connect 40 0 41 0;
#X connect 41 0 19 1;
#X connect 41 0 20 1;
#X connect 42 0 41 0;
#X connect 42 1 41 1;
#X connect 47 0 48 0;
#X connect 47 0 49 0;
#X connect 49 0 44 0;
#X connect 49 0 46 0;
#X connect 49 1 43 0;
#X connect 49 1 45 0;
#X connect 50 0 51 0;
#X connect 51 0 55 0;
#X connect 51 0 69 0;
#X connect 51 0 70 0;
#X connect 51 0 71 0;
#X connect 51 0 72 0;
#X connect 53 0 64 0;
#X connect 54 0 53 0;
#X connect 55 0 61 0;
#X connect 56 0 65 0;
#X connect 57 0 56 0;
#X connect 59 0 60 0;
#X connect 59 1 58 0;
#X connect 60 0 63 0;
#X connect 61 0 62 0;
#X connect 61 1 52 0;
#X connect 66 0 68 0;
#X connect 67 0 66 0;
#X connect 69 0 67 0;
#X connect 70 0 57 0;
#X connect 71 0 59 0;
#X connect 72 0 54 0;
#X restore 189 535 pd Final Mix;
#N canvas 1848 396 916 549 sendToDelay 0;
#X obj 265 354 *~;
#X obj 330 355 *~;
#X obj 115 186 expr 1-$f1;
#X floatatom 131 211 5 0 0 0 - - -;
#X obj 432 286 r \$0-echo_regen_feedback;
#X obj 135 484 delwrite~ \$0delayL 5000;
#X obj 67 504 delwrite~ \$0delayR 5000;
#X floatatom 431 312 5 0 0 0 - - -;
#X obj -5 336 r~ \$0DirectDryR;
#X obj -27 316 r~ \$0DirectDryL;
#X obj 410 205 r~ \$0FormantOutL;
#X obj 444 226 r~ \$0FormantOutR;
#X floatatom 289 144 5 0 0 0 - - -;
#X obj 265 117 r \$0Regen_Dry_Wet_Mix;
#X obj 18 106 r~ \$0DelayOutL;
#X obj 64 131 r~ \$0DelayOutR;
#X obj 399 243 *~;
#X obj 436 254 *~;
#X obj 58 238 *~;
#X obj 87 240 *~;
#X obj 28 365 r \$0-dry_send_to_delay;
#X floatatom 56 389 5 0 0 0 - - -;
#X obj -26 422 *~;
#X obj 12 420 *~;
#X obj 100 156 r \$0Regen_Dry_Wet_Mix;
#X obj 340 153 r \$0WetComp;
#X floatatom 358 171 5 0 0 0 - - -;
#X obj 305 227 *;
#X obj 332 194 t b f;
#X floatatom 303 259 5 0 0 0 - - -;
#X obj 451 29 r \$0OverloadReset;
#X msg 451 53 0;
#X obj 564 78 r \$0OVERLOAD10;
#X msg 564 106 0.3;
#X obj 613 99 r \$0OVERLOAD5;
#X msg 613 123 0.2;
#X obj 584 176 +;
#X obj 614 150 t b f;
#X obj 611 251 f;
#X obj 426 345 * 1;
#X msg 616 340 1 \$1;
#X obj 615 376 -;
#X floatatom 613 407 5 0 0 0 - - -;
#X obj 605 439 t b f;
#X msg 677 185 0.3;
#X obj 677 156 r \$0OVERLOAD20;
#X obj 661 122 bng 15 250 50 0 empty empty empty 17 7 0 10 -262144
-258113 -1;
#X obj 728 182 bng 15 250 50 0 empty empty empty 17 7 0 10 -262144
-258113 -1;
#X obj 541 93 bng 15 250 50 0 empty empty empty 17 7 0 10 -262144 -258113
-1;
#X obj 482 56 bng 15 250 50 0 empty empty empty 17 7 0 10 -262144 -4034
-1;
#X floatatom 624 281 5 0 0 0 - - -;
#X obj 611 224 +;
#X obj 623 196 t b f;
#X connect 0 0 6 0;
#X connect 1 0 5 0;
#X connect 2 0 3 0;
#X connect 2 0 18 1;
#X connect 2 0 19 1;
#X connect 4 0 7 0;
#X connect 7 0 39 0;
#X connect 8 0 23 0;
#X connect 9 0 22 0;
#X connect 10 0 16 0;
#X connect 11 0 17 0;
#X connect 13 0 12 0;
#X connect 13 0 27 0;
#X connect 14 0 18 0;
#X connect 15 0 19 0;
#X connect 16 0 0 0;
#X connect 17 0 1 0;
#X connect 18 0 0 0;
#X connect 19 0 1 0;
#X connect 20 0 21 0;
#X connect 20 0 23 1;
#X connect 20 0 22 1;
#X connect 22 0 6 0;
#X connect 23 0 5 0;
#X connect 24 0 2 0;
#X connect 25 0 26 0;
#X connect 25 0 28 0;
#X connect 27 0 16 1;
#X connect 27 0 17 1;
#X connect 27 0 29 0;
#X connect 28 0 27 0;
#X connect 28 1 27 1;
#X connect 30 0 31 0;
#X connect 30 0 49 0;
#X connect 31 0 36 0;
#X connect 31 0 36 1;
#X connect 31 0 38 0;
#X connect 32 0 33 0;
#X connect 32 0 48 0;
#X connect 33 0 36 0;
#X connect 34 0 35 0;
#X connect 34 0 46 0;
#X connect 35 0 37 0;
#X connect 36 0 51 0;
#X connect 37 0 36 0;
#X connect 37 1 36 1;
#X connect 38 0 40 0;
#X connect 38 0 50 0;
#X connect 39 0 1 1;
#X connect 39 0 0 1;
#X connect 40 0 41 0;
#X connect 41 0 42 0;
#X connect 42 0 43 0;
#X connect 43 0 39 0;
#X connect 43 1 39 1;
#X connect 44 0 52 0;
#X connect 45 0 44 0;
#X connect 45 0 47 0;
#X connect 51 0 38 0;
#X connect 52 0 51 0;
#X connect 52 1 51 1;
#X restore 257 498 pd sendToDelay;
#X obj 107 160 hsl 100 15 0 1 0 0 \$0Delay2Reverb empty Delay2Rvb 5
6 0 10 -159808 -262144 -262144 4950 1;
#N canvas 1981 315 741 454 sendToReverb 0;
#X obj 240 136 *~;
#X obj 279 139 *~;
#X obj 467 281 *~;
#X obj 518 283 *~;
#X obj 509 182 r \$0-dry_send_to_reverb;
#X obj 267 394 s~ \$0-ReverbINL;
#X obj 378 398 s~ \$0-ReverbINR;
#X obj 512 249 r~ \$0DirectDryR;
#X obj 475 228 r~ \$0DirectDryL;
#X obj 187 70 r~ \$0FormantOutL;
#X obj 220 93 r~ \$0FormantOutR;
#X obj 527 78 r \$0ToReverbDryWetMix;
#X floatatom 549 103 5 0 0 0 - - -;
#X obj 513 126 expr 1-$f1;
#X obj 345 50 r~ \$0DelayOutL;
#X obj 397 76 r~ \$0DelayOutR;
#X floatatom 630 218 5 0 0 0 - - -;
#X obj 359 114 *~;
#X obj 406 119 *~;
#X floatatom 534 151 5 0 0 0 - - -;
#X obj 214 253 *~;
#X obj 262 253 *~;
#X obj 36 111 r \$0Delay2Reverb;
#X floatatom 115 135 5 0 0 0 - - -;
#X connect 0 0 20 0;
#X connect 1 0 21 0;
#X connect 2 0 5 0;
#X connect 3 0 6 0;
#X connect 4 0 3 1;
#X connect 4 0 2 1;
#X connect 4 0 16 0;
#X connect 7 0 3 0;
#X connect 8 0 2 0;
#X connect 9 0 0 0;
#X connect 10 0 1 0;
#X connect 11 0 12 0;
#X connect 11 0 13 0;
#X connect 11 0 1 1;
#X connect 11 0 0 1;
#X connect 13 0 19 0;
#X connect 13 0 18 1;
#X connect 13 0 17 1;
#X connect 14 0 17 0;
#X connect 15 0 18 0;
#X connect 17 0 20 0;
#X connect 18 0 21 0;
#X connect 20 0 5 0;
#X connect 21 0 6 0;
#X connect 22 0 23 0;
#X connect 22 0 20 1;
#X connect 22 0 21 1;
#X restore 137 500 pd sendToReverb;
#N canvas 835 677 450 316 PANIC 0;
#X obj 125 52 r \$0PANIC;
#X msg 111 125 0;
#X obj 67 166 s \$0-echo_regen_feedbackIN;
#X obj 110 146 s \$0-Echo_Out_Master_IN;
#X msg 266 163 \; pd dsp 0;
#X obj 267 141 delay 200;
#X connect 0 0 1 0;
#X connect 0 0 5 0;
#X connect 1 0 2 0;
#X connect 1 0 3 0;
#X connect 5 0 4 0;
#X restore 365 499 pd PANIC;
#X floatatom 36 135 5 0 0 0 - - -;
#X obj -84 103 initbang;
#X msg -86 124 0.4;
#X floatatom 26 185 5 0 0 0 - - -;
#X msg -78 160 0.5;
#X msg -58 291 0.6;
#X msg 701 167 0;
#X msg 801 91 0.6;
#X obj 381 116 vowellfilter1;
#X obj 691 202 r \$0OVERLOAD10;
#X obj 619 215 bng 15 250 50 0 empty empty empty 17 7 0 10 -262144
-258113 -1;
#X obj 354 33 s~ \$0DelayOutR;
#X obj 267 49 s~ \$0DelayOutL;
#X connect 0 0 45 0;
#X connect 1 0 44 0;
#X connect 10 0 20 0;
#X connect 10 1 21 0;
#X connect 11 0 72 0;
#X connect 12 0 53 3;
#X connect 12 0 80 3;
#X connect 13 0 53 2;
#X connect 13 0 80 2;
#X connect 14 0 53 4;
#X connect 14 0 80 4;
#X connect 15 0 53 1;
#X connect 15 0 80 1;
#X connect 18 0 0 0;
#X connect 18 0 42 0;
#X connect 19 0 1 0;
#X connect 19 0 43 0;
#X connect 22 0 10 0;
#X connect 23 0 10 1;
#X connect 24 0 55 0;
#X connect 25 0 54 0;
#X connect 28 0 31 0;
#X connect 29 0 32 0;
#X connect 30 0 33 0;
#X connect 30 0 52 0;
#X connect 36 0 35 0;
#X connect 36 0 62 0;
#X connect 37 0 36 0;
#X connect 38 0 40 0;
#X connect 38 0 39 0;
#X connect 38 0 59 0;
#X connect 38 0 66 0;
#X connect 38 0 78 0;
#X connect 38 0 79 0;
#X connect 39 0 2 0;
#X connect 40 0 3 0;
#X connect 41 0 61 0;
#X connect 44 0 80 0;
#X connect 44 0 83 0;
#X connect 45 0 53 0;
#X connect 45 0 84 0;
#X connect 53 0 56 0;
#X connect 58 0 34 0;
#X connect 59 0 16 0;
#X connect 61 0 8 0;
#X connect 66 0 17 0;
#X connect 67 0 27 0;
#X connect 67 1 26 0;
#X connect 69 0 75 0;
#X connect 73 0 74 0;
#X connect 73 0 76 0;
#X connect 73 0 77 0;
#X connect 74 0 11 0;
#X connect 76 0 69 0;
#X connect 77 0 63 0;
#X connect 78 0 60 0;
#X connect 78 0 9 0;
#X connect 78 0 6 0;
#X connect 79 0 65 0;
#X connect 80 0 57 0;
#X connect 81 0 82 0;
#X coords 0 -1 1 1 570 225 1 100 100;
