#N canvas 310 102 1440 772 10;
#X obj 138 -74 metro;
#X obj 54 -28 i;
#X obj 99 -27 + 1;
#X floatatom 54 6 5 0 0 0 - - -;
#X floatatom 46 69 5 0 0 0 - - -;
#X obj 64 44 % 16;
#X obj 157 -45 bng 15 250 50 0 empty empty empty 17 7 0 10 -262144
-1 -1;
#X obj 109 113 hradio 18 1 0 16 empty empty empty 0 -8 0 10 -262144
-1 -1 4;
#X obj -251 271 select 0 1 2 3 4 5 6 7 8 9 10 11 12 13 14 15;
#X obj 129 -108 tgl 15 0 empty empty empty 17 7 0 10 -262144 -1 -1
0 1;
#X obj 165 -180 hsl 128 15 0 1000 0 0 empty empty BPM -2 -8 0 10 -262144
-1 -1 0 1;
#X floatatom 238 -152 5 0 0 0 - - -;
#X floatatom 202 -99 5 0 0 0 - - -;
#X msg 151 -150 60000 \$1;
#X obj 182 -123 /;
#X obj 111 131 tgl 15 0 empty empty empty 17 7 0 10 -262144 -1 -1 1
1;
#X obj 129 131 tgl 15 0 empty empty empty 17 7 0 10 -262144 -1 -1 0
1;
#X obj 147 132 tgl 15 0 empty empty empty 17 7 0 10 -262144 -1 -1 1
1;
#X obj 165 132 tgl 15 0 empty empty empty 17 7 0 10 -262144 -1 -1 0
1;
#X obj 183 132 tgl 15 0 empty empty empty 17 7 0 10 -262144 -1 -1 1
1;
#X obj 201 132 tgl 15 0 empty empty empty 17 7 0 10 -262144 -1 -1 0
1;
#X obj 219 132 tgl 15 0 empty empty empty 17 7 0 10 -262144 -1 -1 1
1;
#X obj 237 132 tgl 15 0 empty empty empty 17 7 0 10 -262144 -1 -1 0
1;
#X obj 255 132 tgl 15 0 empty empty empty 17 7 0 10 -262144 -1 -1 0
1;
#X obj 273 132 tgl 15 0 empty empty empty 17 7 0 10 -262144 -1 -1 1
1;
#X obj 291 132 tgl 15 0 empty empty empty 17 7 0 10 -262144 -1 -1 1
1;
#X obj 309 132 tgl 15 0 empty empty empty 17 7 0 10 -262144 -1 -1 0
1;
#X obj 326 132 tgl 15 0 empty empty empty 17 7 0 10 -262144 -1 -1 0
1;
#X obj 344 132 tgl 15 0 empty empty empty 17 7 0 10 -262144 -1 -1 1
1;
#X obj 362 132 tgl 15 0 empty empty empty 17 7 0 10 -262144 -1 -1 0
1;
#X obj 380 132 tgl 15 0 empty empty empty 17 7 0 10 -262144 -1 -1 1
1;
#X obj 74 437 spigot;
#X obj 127 432 spigot;
#X obj 93 456 spigot;
#X obj 143 457 spigot;
#X obj 185 431 spigot;
#X obj 238 430 spigot;
#X obj 204 454 spigot;
#X obj 254 455 spigot;
#X obj 400 427 spigot;
#X obj 449 427 spigot;
#X obj 421 452 spigot;
#X obj 471 453 spigot;
#X obj 296 428 spigot;
#X obj 349 427 spigot;
#X obj 315 451 spigot;
#X obj 365 452 spigot;
#X obj 111 146 bng 15 250 50 0 empty empty empty 17 7 0 10 -262144
-1 -1;
#X obj 147 147 bng 15 250 50 0 empty empty empty 17 7 0 10 -262144
-1 -1;
#X obj 129 147 bng 15 250 50 0 empty empty empty 17 7 0 10 -262144
-1 -1;
#X obj 165 148 bng 15 250 50 0 empty empty empty 17 7 0 10 -262144
-1 -1;
#X obj 183 148 bng 15 250 50 0 empty empty empty 17 7 0 10 -262144
-1 -1;
#X obj 219 148 bng 15 250 50 0 empty empty empty 17 7 0 10 -262144
-1 -1;
#X obj 201 148 bng 15 250 50 0 empty empty empty 17 7 0 10 -262144
-1 -1;
#X obj 237 148 bng 15 250 50 0 empty empty empty 17 7 0 10 -262144
-1 -1;
#X obj 255 148 bng 15 250 50 0 empty empty empty 17 7 0 10 -262144
-1 -1;
#X obj 291 148 bng 15 250 50 0 empty empty empty 17 7 0 10 -262144
-1 -1;
#X obj 273 148 bng 15 250 50 0 empty empty empty 17 7 0 10 -262144
-1 -1;
#X obj 309 148 bng 15 250 50 0 empty empty empty 17 7 0 10 -262144
-1 -1;
#X obj 327 148 bng 15 250 50 0 empty empty empty 17 7 0 10 -262144
-1 -1;
#X obj 362 148 bng 15 250 50 0 empty empty empty 17 7 0 10 -262144
-1 -1;
#X obj 344 148 bng 15 250 50 0 empty empty empty 17 7 0 10 -262144
-1 -1;
#X obj 380 148 bng 15 250 50 0 empty empty empty 17 7 0 10 -262144
-1 -1;
#X obj 561 467 bng 15 250 50 0 empty empty empty 17 7 0 10 -262144
-1 -1;
#X obj 559 511 outlet;
#X obj 41 -77 inlet;
#X obj 740 471 outlet;
#X obj 543 79 sel 0;
#X obj 524 99 bng 15 250 50 0 empty empty empty 17 7 0 10 -262144 -1
-1;
#X msg 742 500 reset;
#X obj 482 -18 unpack f f f f f f f f f f f f f f f f;
#X obj 485 -48 inlet;
#X obj 113 168 knob 15 15 0 127 0 0 empty empty empty 0 -8 0 8 -262144
-1 -1 11 1;
#X obj 131 168 knob 15 15 0 127 0 0 empty empty empty 0 -8 0 8 -262144
-1 -1 11 1;
#X obj 148 168 knob 15 15 0 127 0 0 empty empty empty 0 -8 0 8 -262144
-1 -1 11 1;
#X obj 166 168 knob 15 15 0 127 0 0 empty empty empty 0 -8 0 8 -262144
-1 -1 11 1;
#X obj 184 168 knob 15 15 0 127 0 0 empty empty empty 0 -8 0 8 -262144
-1 -1 816 1;
#X obj 203 168 knob 15 15 0 127 0 0 empty empty empty 0 -8 0 8 -262144
-1 -1 11 1;
#X obj 219 168 knob 15 15 0 127 0 0 empty empty empty 0 -8 0 8 -262144
-1 -1 11 1;
#X obj 238 168 knob 15 15 0 127 0 0 empty empty empty 0 -8 0 8 -262144
-1 -1 11 1;
#X obj 256 168 knob 15 15 0 127 0 0 empty empty empty 0 -8 0 8 -262144
-1 -1 11 1;
#X obj 274 168 knob 15 15 0 127 0 0 empty empty empty 0 -8 0 8 -262144
-1 -1 11 1;
#X obj 292 168 knob 15 15 0 127 0 0 empty empty empty 0 -8 0 8 -262144
-1 -1 11 1;
#X obj 309 168 knob 15 15 0 127 0 0 empty empty empty 0 -8 0 8 -262144
-1 -1 11 1;
#X obj 327 168 knob 15 15 0 127 0 0 empty empty empty 0 -8 0 8 -262144
-1 -1 11 1;
#X obj 346 168 knob 15 15 0 127 0 0 empty empty empty 0 -8 0 8 -262144
-1 -1 11 1;
#X obj 362 168 knob 15 15 0 127 0 0 empty empty empty 0 -8 0 8 -262144
-1 -1 11 1;
#X obj 381 168 knob 15 15 0 127 0 0 empty empty empty 0 -8 0 8 -262144
-1 -1 11 1;
#X obj -618 402 f;
#X obj -563 401 f;
#X obj -512 402 f;
#X obj -463 400 f;
#X obj -409 401 f;
#X obj -351 403 f;
#X obj -303 402 f;
#X obj -253 403 f;
#X obj -590 401 f;
#X obj -537 402 f;
#X obj -487 401 f;
#X obj -440 399 f;
#X obj -381 403 f;
#X obj -328 403 f;
#X obj -277 402 f;
#X obj -223 403 f;
#X obj -338 524 f;
#X obj 623 512 outlet;
#X obj 288 -52 inlet;
#X obj -239 125 f;
#X obj -445 152 f;
#X obj -229 101 spigot;
#X obj -349 91 spigot;
#X obj -363 4 tgl 15 0 empty empty empty 17 7 0 10 -262144 -1 -1 0
1;
#X obj -290 41 == 0;
#X obj 21 496 hradio 18 1 0 16 empty empty empty 0 -8 0 10 -262144
-1 -1 0;
#X floatatom -240 540 5 0 0 0 - - -;
#X connect 0 0 1 0;
#X connect 0 0 6 0;
#X connect 1 0 2 0;
#X connect 1 0 3 0;
#X connect 2 0 1 1;
#X connect 3 0 5 0;
#X connect 4 0 7 0;
#X connect 5 0 4 0;
#X connect 5 0 67 0;
#X connect 7 0 8 0;
#X connect 8 0 31 0;
#X connect 8 0 88 0;
#X connect 8 1 33 0;
#X connect 8 1 96 0;
#X connect 8 2 32 0;
#X connect 8 2 89 0;
#X connect 8 3 34 0;
#X connect 8 3 97 0;
#X connect 8 4 35 0;
#X connect 8 4 90 0;
#X connect 8 5 37 0;
#X connect 8 5 98 0;
#X connect 8 6 36 0;
#X connect 8 6 91 0;
#X connect 8 7 38 0;
#X connect 8 7 99 0;
#X connect 8 8 43 0;
#X connect 8 8 92 0;
#X connect 8 9 45 0;
#X connect 8 9 100 0;
#X connect 8 10 44 0;
#X connect 8 10 93 0;
#X connect 8 11 46 0;
#X connect 8 11 101 0;
#X connect 8 12 39 0;
#X connect 8 12 94 0;
#X connect 8 13 41 0;
#X connect 8 13 102 0;
#X connect 8 14 40 0;
#X connect 8 14 95 0;
#X connect 8 15 42 0;
#X connect 8 15 103 0;
#X connect 9 0 0 0;
#X connect 10 0 11 0;
#X connect 10 0 13 0;
#X connect 13 0 14 0;
#X connect 14 0 12 0;
#X connect 14 0 0 1;
#X connect 15 0 31 1;
#X connect 16 0 33 1;
#X connect 17 0 32 1;
#X connect 18 0 34 1;
#X connect 19 0 35 1;
#X connect 20 0 37 1;
#X connect 21 0 36 1;
#X connect 22 0 38 1;
#X connect 23 0 43 1;
#X connect 24 0 45 1;
#X connect 25 0 44 1;
#X connect 26 0 46 1;
#X connect 27 0 39 1;
#X connect 28 0 41 1;
#X connect 29 0 40 1;
#X connect 30 0 42 1;
#X connect 31 0 47 0;
#X connect 32 0 48 0;
#X connect 33 0 49 0;
#X connect 34 0 50 0;
#X connect 35 0 51 0;
#X connect 36 0 52 0;
#X connect 37 0 53 0;
#X connect 38 0 54 0;
#X connect 39 0 59 0;
#X connect 40 0 60 0;
#X connect 41 0 61 0;
#X connect 42 0 62 0;
#X connect 43 0 55 0;
#X connect 44 0 56 0;
#X connect 45 0 57 0;
#X connect 46 0 58 0;
#X connect 47 0 63 0;
#X connect 48 0 63 0;
#X connect 49 0 63 0;
#X connect 50 0 63 0;
#X connect 51 0 63 0;
#X connect 52 0 63 0;
#X connect 53 0 63 0;
#X connect 54 0 63 0;
#X connect 55 0 63 0;
#X connect 56 0 63 0;
#X connect 57 0 63 0;
#X connect 58 0 63 0;
#X connect 59 0 63 0;
#X connect 60 0 63 0;
#X connect 61 0 63 0;
#X connect 62 0 63 0;
#X connect 63 0 64 0;
#X connect 65 0 1 0;
#X connect 67 0 68 0;
#X connect 67 0 66 0;
#X connect 70 0 15 0;
#X connect 70 1 16 0;
#X connect 70 2 17 0;
#X connect 70 3 18 0;
#X connect 70 4 19 0;
#X connect 70 5 20 0;
#X connect 70 6 21 0;
#X connect 70 7 22 0;
#X connect 70 8 23 0;
#X connect 70 9 24 0;
#X connect 70 10 25 0;
#X connect 70 11 26 0;
#X connect 70 12 27 0;
#X connect 70 13 28 0;
#X connect 70 14 29 0;
#X connect 70 15 30 0;
#X connect 71 0 70 0;
#X connect 72 0 104 0;
#X connect 73 0 104 0;
#X connect 74 0 104 0;
#X connect 75 0 104 0;
#X connect 76 0 104 0;
#X connect 77 0 104 0;
#X connect 78 0 104 0;
#X connect 79 0 104 0;
#X connect 80 0 104 0;
#X connect 81 0 104 0;
#X connect 82 0 104 0;
#X connect 83 0 104 0;
#X connect 84 0 104 0;
#X connect 85 0 104 0;
#X connect 86 0 104 0;
#X connect 87 0 104 0;
#X connect 88 0 72 0;
#X connect 89 0 74 0;
#X connect 90 0 76 0;
#X connect 91 0 78 0;
#X connect 92 0 80 0;
#X connect 93 0 82 0;
#X connect 94 0 84 0;
#X connect 95 0 86 0;
#X connect 96 0 73 0;
#X connect 97 0 75 0;
#X connect 98 0 77 0;
#X connect 99 0 79 0;
#X connect 100 0 81 0;
#X connect 101 0 83 0;
#X connect 102 0 85 0;
#X connect 103 0 87 0;
#X connect 104 0 105 0;
#X connect 104 0 114 0;
#X connect 106 0 109 0;
#X connect 106 0 110 0;
#X connect 107 0 88 1;
#X connect 107 0 96 1;
#X connect 107 0 89 1;
#X connect 107 0 97 1;
#X connect 107 0 90 1;
#X connect 107 0 98 1;
#X connect 107 0 91 1;
#X connect 107 0 99 1;
#X connect 107 0 92 1;
#X connect 107 0 100 1;
#X connect 107 0 93 1;
#X connect 107 0 101 1;
#X connect 107 0 94 1;
#X connect 107 0 102 1;
#X connect 107 0 95 1;
#X connect 107 0 103 1;
#X connect 108 0 88 0;
#X connect 108 0 96 0;
#X connect 108 0 97 0;
#X connect 108 0 89 0;
#X connect 108 0 90 0;
#X connect 108 0 98 0;
#X connect 108 0 91 0;
#X connect 108 0 99 0;
#X connect 108 0 100 0;
#X connect 108 0 101 0;
#X connect 108 0 102 0;
#X connect 108 0 103 0;
#X connect 108 0 92 0;
#X connect 108 0 95 0;
#X connect 108 0 94 0;
#X connect 108 0 93 0;
#X connect 109 0 107 0;
#X connect 110 0 108 0;
#X connect 111 0 110 1;
#X connect 111 0 112 0;
#X connect 112 0 109 1;
#X coords 0 -1 1 1 300 90 1 100 100;
