#N canvas 2316 64 616 687 10;
#X obj 363 29 inlet~;
#X obj 124 376 outlet~;
#X obj 282 376 outlet~;
#X obj 112 108 hsl 128 15 0 1 0 0 empty empty empty -2 -8 0 10 -262144
-1 -1 5298 1;
#X obj 110 35 initbang;
#X msg 110 58 0.5;
#X obj 245 107 bng 15 250 50 0 empty empty empty 17 7 0 10 -262144
-1 -1;
#X obj 128 344 *~;
#X obj 284 345 *~;
#X floatatom 47 140 5 0 0 0 - - -;
#X obj 427 31 inlet;
#X obj 110 221 expr 1-pow($f1 \, 2) \; 1-pow(1-$f1 \, 2);
#X floatatom 84 272 5 0 0 0 - - -;
#X floatatom 221 269 5 0 0 0 - - -;
#X obj 110 189 line;
#X msg 106 151 \$1 50;
#X connect 0 0 8 0;
#X connect 0 0 7 0;
#X connect 3 0 9 0;
#X connect 3 0 15 0;
#X connect 4 0 5 0;
#X connect 5 0 3 0;
#X connect 6 0 5 0;
#X connect 7 0 1 0;
#X connect 8 0 2 0;
#X connect 10 0 3 0;
#X connect 11 0 12 0;
#X connect 11 0 7 1;
#X connect 11 1 13 0;
#X connect 11 1 8 1;
#X connect 14 0 11 0;
#X connect 15 0 14 0;
#X coords 0 -1 1 1 170 30 1 100 100;
