#N canvas 555 149 612 508 10;
#X obj 104 120 nbx 5 20 -1e+37 1e+37 0 0 \$0BPM \$0BPMIn BPM 10 30
0 12 -257985 -1 -1 149.856 256;
#X obj 179 121 nbx 5 20 -1e+37 1e+37 0 0 \$0MetroMs \$0MetroMsIn ms
10 30 0 12 -204800 -1 -1 400.385 256;
#X floatatom 220 295 5 0 0 0 - - -, f 5;
#X msg 220 319 set \$1;
#X obj 219 343 s \$0BPMIn;
#X floatatom 100 296 5 0 0 0 - - -, f 5;
#X msg 100 316 set \$1;
#X obj 100 339 s \$0MetroMsIn;
#X obj 98 72 inlet;
#X obj 182 74 inlet;
#X obj 185 228 /;
#X msg 179 202 60000 \$1;
#X obj 93 228 /;
#X msg 87 202 60000 \$1;
#X obj 196 415 outlet;
#X obj 74 403 outlet;
#X connect 0 0 13 0;
#X connect 1 0 11 0;
#X connect 2 0 3 0;
#X connect 2 0 14 0;
#X connect 3 0 4 0;
#X connect 5 0 6 0;
#X connect 5 0 15 0;
#X connect 6 0 7 0;
#X connect 8 0 0 0;
#X connect 9 0 1 0;
#X connect 10 0 2 0;
#X connect 11 0 10 0;
#X connect 12 0 5 0;
#X connect 13 0 12 0;
#X coords 0 -1 1 1 150 60 1 100 100;
