#N canvas 145 138 833 513 10;
#X obj 103 104 cnv 15 200 50 empty empty empty 20 12 0 14 -228856 -257985
0;
#X obj 110 121 hsl 128 15 0 1 0 0 empty empty Spread 25 7 0 10 -255773
-1 -1 8100 1;
#X floatatom 108 216 5 0 0 0 - - -, f 5;
#X obj -40 256 *~;
#X obj -84 255 *~;
#X obj -133 18 inlet~;
#X obj -78 17 inlet~;
#X obj -7 438 outlet~;
#X obj -76 438 outlet~;
#X text 149 72 Note the range is 0-0.5. This is to compensate for the
fact that normally the output of summing L+R \, L-R is 2L (etc).;
#X obj 237 104 tgl 15 0 empty empty Bypass -40 7 0 12 -262130 -1 -159808
0 1;
#X obj -98 348 *~;
#X obj -137 348 *~;
#X floatatom 200 204 5 0 0 0 - - -, f 5;
#X obj 391 216 -;
#X msg 391 192 1 \$1;
#X obj -98 348 *~;
#X obj -137 348 *~;
#X obj 40 368 *~;
#X obj -2 364 *~;
#X floatatom 391 239 5 0 0 0 - - -, f 5;
#X obj 391 282 line~;
#X msg 392 257 \$1 100;
#X obj 200 243 line~;
#X msg 201 223 \$1 100;
#X obj 107 193 line;
#X msg 107 167 \$1 100;
#X obj 276 37 loadbang;
#X floatatom 259 120 5 0 0 0 - - -, f 5;
#X obj 284 102 bng 15 250 50 0 empty empty Reset -30 7 0 10 -258113
-262144 -1;
#X msg 49 99 0.5;
#X obj 74 241 *~ -1;
#X obj 57 335 *~ -1;
#X obj -5 334 *~ -1;
#X obj 12 240 *~ -1;
#X obj 57 290 +~;
#X obj -5 290 +~;
#X connect 1 0 26 0;
#X connect 1 0 28 0;
#X connect 2 0 4 1;
#X connect 2 0 3 1;
#X connect 3 0 36 0;
#X connect 4 0 35 0;
#X connect 5 0 12 0;
#X connect 5 0 34 0;
#X connect 5 0 4 0;
#X connect 6 0 11 0;
#X connect 6 0 31 0;
#X connect 6 0 3 0;
#X connect 10 0 13 0;
#X connect 10 0 15 0;
#X connect 11 0 7 0;
#X connect 12 0 8 0;
#X connect 13 0 24 0;
#X connect 14 0 20 0;
#X connect 15 0 14 0;
#X connect 18 0 7 0;
#X connect 19 0 8 0;
#X connect 20 0 22 0;
#X connect 21 0 18 1;
#X connect 21 0 19 1;
#X connect 22 0 21 0;
#X connect 23 0 11 1;
#X connect 23 0 12 1;
#X connect 24 0 23 0;
#X connect 25 0 2 0;
#X connect 26 0 25 0;
#X connect 27 0 29 0;
#X connect 29 0 30 0;
#X connect 30 0 1 0;
#X connect 31 0 35 1;
#X connect 32 0 18 0;
#X connect 33 0 19 0;
#X connect 34 0 36 1;
#X connect 35 0 32 0;
#X connect 36 0 33 0;
#X coords 0 -1 1 1 200 55 1 100 100;
