#N canvas 1969 88 1016 681 10;
#X obj 147 118 knob 32 32 0 1 0 0 \$125 \$0125in 125 0 -8 0 8 -262144
-1 -1 1550 1;
#X obj 189 118 knob 32 32 0 1 0 0 \$350 \$0350in 350 0 -8 0 8 -262144
-1 -1 1550 1;
#X obj 229 117 knob 32 32 0 1 0 0 \$1000 \$01000in 1000 0 -8 0 8 -262144
-1 -1 1550 1;
#X obj 271 117 knob 32 32 0 1 0 0 \$2800 \$02800in 2800 0 -8 0 8 -262144
-1 -1 1550 1;
#X obj 146 168 knob 32 32 0 1 0 0 \$175 \$0175in 175 0 -8 0 8 -262144
-1 -1 1550 1;
#X obj 189 168 knob 32 32 0 1 0 0 \$500 \$0500in 500 0 -8 0 8 -262144
-1 -1 1550 1;
#X obj 228 167 knob 32 32 0 1 0 0 \$1400 \$01400in 1400 0 -8 0 8 -262144
-1 -1 1550 1;
#X obj 269 167 knob 32 32 0 1 0 0 \$4000 \$04000in 4000 0 -8 0 8 -262144
-1 -1 1550 1;
#X obj 148 220 knob 32 32 0 1 0 0 \$250 \$0250in 250 0 -8 0 8 -262144
-1 -1 1550 1;
#X obj 190 220 knob 32 32 0 1 0 0 \$700 \$0700in 700 0 -8 0 8 -262144
-1 -1 1550 1;
#X obj 228 219 knob 32 32 0 1 0 0 \$2000 \$02000in 2000 0 -8 0 8 -262144
-1 -1 0 1;
#X obj 270 219 knob 32 32 0 1 0 0 \$5000 \$05000in 5600 0 -8 0 8 -262144
-1 -1 0 1;
#X obj 106 144 knob 32 32 0 1 0 0 \$0lowpass \$0lowpassin LowPass 0
-8 0 8 -262144 -1 -1 1550 1;
#X obj 308 145 knob 32 32 0 1 0 0 \$0hipass \$0hipassin HighPass 0
-8 0 8 -262144 -1 -1 1550 1;
#X obj -65 279 inlet~;
#X obj 208 377 bp~ 125;
#X obj 208 400 bp~ 125;
#X obj 265 378 bp~ 175;
#X obj 265 401 bp~ 175;
#X obj 321 377 bp~ 250;
#X obj 321 400 bp~ 250;
#X obj 378 378 bp~ 350;
#X obj 378 402 bp~ 350;
#X obj 442 379 bp~ 500;
#X obj 441 401 bp~ 500;
#X obj 499 380 bp~ 700;
#X obj 499 403 bp~ 700;
#X obj 555 380 bp~ 1000;
#X obj 555 402 bp~ 1000;
#X obj 612 377 bp~ 1400;
#X obj 612 404 bp~ 1400;
#X obj 674 381 bp~ 2000;
#X obj 674 404 bp~ 2000;
#X obj 732 382 bp~ 2800;
#X obj 731 405 bp~ 2800;
#X obj 786 382 bp~ 4000;
#X obj 787 404 bp~ 4000;
#X obj 844 382 bp~ 5600;
#X obj 844 405 bp~ 5600;
#X obj 207 428 *~;
#X obj 265 425 *~;
#X obj 320 426 *~;
#X obj 380 425 *~;
#X obj 442 423 *~;
#X obj 498 427 *~;
#X obj 556 426 *~;
#X obj 612 428 *~;
#X obj 675 429 *~;
#X obj 732 427 *~;
#X obj 789 427 *~;
#X obj 843 429 *~;
#X floatatom 766 216 5 0 0 0 - - -;
#X obj 463 -4 loadbang;
#X obj 920 362 hip~ 4000;
#X obj 920 392 *~;
#X obj 72 417 *~;
#X obj 72 386 lop~ 2000;
#X obj 327 207 tgl 15 0 empty empty Bypass -5 -5 0 10 -262144 -1 -1
0 1;
#X floatatom 471 75 5 0 0 0 - - -;
#X msg 474 101 1 \$1;
#X obj 475 130 -;
#X floatatom 479 157 5 0 0 0 - - -;
#X obj 184 557 spigot~;
#X obj 78 644 outlet~;
#X obj 48 552 spigot~;
#X obj 516 163 s \$0Dry;
#X obj 593 96 s \$0Wet;
#X obj 67 518 r \$0Dry;
#X obj 297 559 r \$0Wet;
#X obj 342 626 hsl 128 15 0 10 0 0 empty empty wet_comp -2 -8 0 10
-262144 -1 -1 1270 1;
#X obj 118 620 *~;
#X floatatom 283 650 5 0 0 0 - - -;
#X msg 455 579 1;
#X obj 521 4 bng 15 250 50 0 empty empty empty 17 7 0 10 -262144 -1
-1;
#X obj 316 105 hradio 8 1 0 6 empty empty Q -10 4 0 10 -262144 -1 -1
2;
#X msg 695 65 1;
#X msg 734 65 2;
#X msg 768 65 5;
#X msg 809 70 10;
#X msg 855 65 20;
#X obj 451 546 loadbang;
#X floatatom 588 53 5 0 0 0 - - -;
#X obj 736 -5 sel 0 1 2 3 4 5;
#X msg 499 25 2;
#X msg 710 89 0.2;
#X msg 744 88 0.43;
#X msg 923 58 40;
#X msg 949 88 2;
#X msg 881 95 1.7;
#X msg 821 96 1.4;
#X msg 777 88 1.2;
#X msg 116 23 0.5;
#X obj 328 237 bng 15 250 50 0 empty empty Reset -5 -3 0 10 -262144
-1 -1;
#X obj -8 187 inlet;
#X msg -7 164 Bender semitones;
#X obj 122 283 expr pow(1.059463094 \, $f1);
#X msg 506 592 125;
#X msg 538 591 175;
#X msg 573 591 250;
#X msg 609 591 350;
#X msg 644 591 500;
#X msg 676 591 700;
#X msg 711 590 1000;
#X msg 750 593 1400;
#X msg 785 595 2000;
#X msg 824 596 2800;
#X msg 862 598 4000;
#X msg 900 598 5000;
#X obj 492 621 *;
#X obj 534 624 *;
#X obj 574 622 *;
#X obj 606 619 *;
#X obj 640 620 *;
#X obj 676 622 *;
#X obj 718 625 *;
#X obj 758 623 *;
#X obj 790 620 *;
#X obj 824 621 *;
#X obj 865 627 *;
#X obj 899 626 *;
#X obj 306 299 s \$0Bender;
#X obj 692 498 r \$0Bender;
#X obj 721 523 t b f;
#X obj 109 263 hsl 230 10 -24 24 0 0 empty empty empty -2 -8 0 10 -262144
-1 -1 11450 1;
#X msg 68 203 0;
#X floatatom 489 647 5 0 0 0 - - -;
#X floatatom 538 651 5 0 0 0 - - -;
#X floatatom 587 655 5 0 0 0 - - -;
#X floatatom 624 651 5 0 0 0 - - -;
#X floatatom 671 653 5 0 0 0 - - -;
#X floatatom 699 652 5 0 0 0 - - -;
#X floatatom 745 656 5 0 0 0 - - -;
#X floatatom 783 655 5 0 0 0 - - -;
#X floatatom 821 653 5 0 0 0 - - -;
#X floatatom 863 654 5 0 0 0 - - -;
#X floatatom 901 654 5 0 0 0 - - -;
#X floatatom 931 640 5 0 0 0 - - -;
#X floatatom 110 239 5 0 0 0 - - -;
#X obj 25 123 loadbang;
#X connect 0 0 39 1;
#X connect 1 0 42 1;
#X connect 2 0 45 1;
#X connect 3 0 48 1;
#X connect 4 0 40 1;
#X connect 5 0 43 1;
#X connect 6 0 46 1;
#X connect 7 0 49 1;
#X connect 8 0 41 1;
#X connect 9 0 44 1;
#X connect 10 0 47 1;
#X connect 11 0 50 1;
#X connect 12 0 55 1;
#X connect 13 0 54 1;
#X connect 14 0 15 0;
#X connect 14 0 17 0;
#X connect 14 0 19 0;
#X connect 14 0 21 0;
#X connect 14 0 23 0;
#X connect 14 0 25 0;
#X connect 14 0 27 0;
#X connect 14 0 29 0;
#X connect 14 0 31 0;
#X connect 14 0 33 0;
#X connect 14 0 35 0;
#X connect 14 0 37 0;
#X connect 14 0 53 0;
#X connect 14 0 56 0;
#X connect 14 0 64 0;
#X connect 15 0 16 0;
#X connect 16 0 39 0;
#X connect 17 0 18 0;
#X connect 18 0 40 0;
#X connect 19 0 20 0;
#X connect 20 0 41 0;
#X connect 21 0 22 0;
#X connect 22 0 42 0;
#X connect 23 0 24 0;
#X connect 24 0 43 0;
#X connect 25 0 26 0;
#X connect 26 0 44 0;
#X connect 27 0 28 0;
#X connect 28 0 45 0;
#X connect 29 0 30 0;
#X connect 30 0 46 0;
#X connect 31 0 32 0;
#X connect 32 0 47 0;
#X connect 33 0 34 0;
#X connect 34 0 48 0;
#X connect 35 0 36 0;
#X connect 36 0 49 0;
#X connect 37 0 38 0;
#X connect 38 0 50 0;
#X connect 39 0 62 0;
#X connect 40 0 62 0;
#X connect 41 0 62 0;
#X connect 42 0 62 0;
#X connect 43 0 62 0;
#X connect 44 0 62 0;
#X connect 45 0 62 0;
#X connect 46 0 62 0;
#X connect 47 0 62 0;
#X connect 48 0 62 0;
#X connect 49 0 62 0;
#X connect 50 0 62 0;
#X connect 51 0 37 2;
#X connect 51 0 38 2;
#X connect 51 0 35 2;
#X connect 51 0 36 2;
#X connect 51 0 33 2;
#X connect 51 0 34 2;
#X connect 51 0 31 2;
#X connect 51 0 32 2;
#X connect 51 0 30 2;
#X connect 51 0 29 2;
#X connect 51 0 27 2;
#X connect 51 0 28 2;
#X connect 51 0 25 2;
#X connect 51 0 26 2;
#X connect 51 0 23 2;
#X connect 51 0 24 2;
#X connect 51 0 21 2;
#X connect 51 0 22 2;
#X connect 51 0 19 2;
#X connect 51 0 20 2;
#X connect 51 0 17 2;
#X connect 51 0 18 2;
#X connect 51 0 15 2;
#X connect 51 0 16 2;
#X connect 52 0 83 0;
#X connect 52 0 91 0;
#X connect 53 0 54 0;
#X connect 54 0 62 0;
#X connect 55 0 62 0;
#X connect 56 0 55 0;
#X connect 57 0 58 0;
#X connect 58 0 59 0;
#X connect 58 0 66 0;
#X connect 59 0 60 0;
#X connect 60 0 61 0;
#X connect 60 0 65 0;
#X connect 62 0 70 0;
#X connect 64 0 63 0;
#X connect 67 0 64 1;
#X connect 68 0 62 1;
#X connect 69 0 70 1;
#X connect 69 0 71 0;
#X connect 70 0 63 0;
#X connect 72 0 69 0;
#X connect 73 0 83 0;
#X connect 74 0 81 0;
#X connect 74 0 82 0;
#X connect 75 0 51 0;
#X connect 76 0 51 0;
#X connect 77 0 51 0;
#X connect 78 0 51 0;
#X connect 79 0 51 0;
#X connect 80 0 72 0;
#X connect 82 0 75 0;
#X connect 82 0 84 0;
#X connect 82 1 76 0;
#X connect 82 1 85 0;
#X connect 82 2 77 0;
#X connect 82 2 90 0;
#X connect 82 3 78 0;
#X connect 82 3 89 0;
#X connect 82 4 79 0;
#X connect 82 4 88 0;
#X connect 82 5 86 0;
#X connect 82 5 87 0;
#X connect 83 0 74 0;
#X connect 84 0 69 0;
#X connect 85 0 69 0;
#X connect 86 0 51 0;
#X connect 87 0 69 0;
#X connect 88 0 69 0;
#X connect 89 0 69 0;
#X connect 90 0 69 0;
#X connect 91 0 0 0;
#X connect 91 0 12 0;
#X connect 91 0 4 0;
#X connect 91 0 8 0;
#X connect 91 0 1 0;
#X connect 91 0 5 0;
#X connect 91 0 9 0;
#X connect 91 0 2 0;
#X connect 91 0 6 0;
#X connect 91 0 10 0;
#X connect 91 0 3 0;
#X connect 91 0 7 0;
#X connect 91 0 11 0;
#X connect 91 0 13 0;
#X connect 92 0 91 0;
#X connect 92 0 124 0;
#X connect 93 0 123 0;
#X connect 95 0 120 0;
#X connect 96 0 108 0;
#X connect 97 0 109 0;
#X connect 98 0 110 0;
#X connect 99 0 111 0;
#X connect 100 0 112 0;
#X connect 101 0 113 0;
#X connect 102 0 114 0;
#X connect 103 0 115 0;
#X connect 104 0 116 0;
#X connect 105 0 117 0;
#X connect 106 0 118 0;
#X connect 107 0 119 0;
#X connect 108 0 15 1;
#X connect 108 0 16 1;
#X connect 108 0 125 0;
#X connect 109 0 17 1;
#X connect 109 0 18 1;
#X connect 109 0 126 0;
#X connect 110 0 19 1;
#X connect 110 0 20 1;
#X connect 110 0 127 0;
#X connect 111 0 21 1;
#X connect 111 0 22 1;
#X connect 111 0 128 0;
#X connect 112 0 23 1;
#X connect 112 0 24 1;
#X connect 112 0 129 0;
#X connect 113 0 25 1;
#X connect 113 0 26 1;
#X connect 113 0 130 0;
#X connect 114 0 27 1;
#X connect 114 0 28 1;
#X connect 114 0 131 0;
#X connect 115 0 29 1;
#X connect 115 0 30 1;
#X connect 115 0 132 0;
#X connect 116 0 31 1;
#X connect 116 0 32 1;
#X connect 116 0 133 0;
#X connect 117 0 33 1;
#X connect 117 0 34 1;
#X connect 117 0 134 0;
#X connect 118 0 35 1;
#X connect 118 0 36 1;
#X connect 118 0 135 0;
#X connect 119 0 37 1;
#X connect 119 0 38 1;
#X connect 119 0 136 0;
#X connect 121 0 122 0;
#X connect 122 0 96 0;
#X connect 122 0 97 0;
#X connect 122 0 98 0;
#X connect 122 0 99 0;
#X connect 122 0 100 0;
#X connect 122 0 101 0;
#X connect 122 0 102 0;
#X connect 122 0 103 0;
#X connect 122 0 104 0;
#X connect 122 0 105 0;
#X connect 122 0 106 0;
#X connect 122 0 107 0;
#X connect 122 1 119 1;
#X connect 122 1 118 1;
#X connect 122 1 117 1;
#X connect 122 1 116 1;
#X connect 122 1 115 1;
#X connect 122 1 114 1;
#X connect 122 1 113 1;
#X connect 122 1 112 1;
#X connect 122 1 111 1;
#X connect 122 1 110 1;
#X connect 122 1 109 1;
#X connect 122 1 108 1;
#X connect 123 0 95 0;
#X connect 123 0 137 0;
#X connect 124 0 123 0;
#X connect 138 0 124 0;
#X coords 0 -1 1 1 270 180 1 100 100;
