#N canvas 440 183 1290 721 10;
#X obj 113 211 hsl 60 15 40 4000 1 0 \$0Formant1 \$0Formant1In Formant1
-2 -8 0 10 -257985 -1 -1 3500 1;
#X obj 200 211 hsl 60 15 40 4000 1 0 \$0Formant2 \$0Formant2In Formant2
-2 -8 0 10 -4034 -1 -1 2300 1;
#X obj 286 211 hsl 60 15 40 4000 1 0 \$0Formant3 \$0Formant3In Formant3
-2 -8 0 10 -261234 -1 -1 4100 1;
#X floatatom 402 433 5 0 0 0 - - -;
#X floatatom 499 409 5 0 0 0 - - -;
#X floatatom 587 420 5 0 0 0 - - -;
#X obj 503 440 t b f;
#X obj 579 444 t b f;
#X obj 119 242 hsl 128 15 1 8000 1 0 \$0FormantRateChange empty Formant_Change_Rate
-2 -8 0 10 -262144 -1 -1 0 1;
#X obj 109 105 kbd;
#X obj 130 320 demux 0 1 2;
#X floatatom 198 355 5 0 0 0 - - -;
#X floatatom 125 356 5 0 0 0 - - -;
#X floatatom 161 356 5 0 0 0 - - -;
#X floatatom 431 209 5 0 0 0 - - -;
#X obj 83 269 mtof;
#X floatatom 93 292 5 0 0 0 - - -;
#X obj 376 211 hradio 15 1 0 3 empty empty FilterSel 0 -8 0 10 -262144
-1 -1 0;
#X text 245 342 FORMANT CONTROL;
#X floatatom 263 241 5 0 0 0 - - -;
#X floatatom 570 322 5 0 0 0 - - -;
#X floatatom 583 155 5 0 0 0 - - -;
#X obj 570 248 / 127;
#X obj 570 275 * 3800;
#X obj 570 298 + 200;
#X floatatom 734 334 5 0 0 0 - - -;
#X floatatom 844 129 5 0 0 0 - - -;
#X obj 734 254 / 127;
#X obj 734 281 * 3800;
#X obj 734 307 + 200;
#X floatatom 910 344 5 0 0 0 - - -;
#X floatatom 1003 148 5 0 0 0 - - -;
#X obj 910 261 / 127;
#X obj 910 287 * 3800;
#X obj 910 316 + 200;
#X obj 541 477 pack f f f;
#X floatatom 531 175 5 0 0 0 - - -;
#X obj 570 346 s \$0Formant1In;
#X obj 734 359 s \$0Formant2In;
#X obj 910 368 s \$0Formant3In;
#X obj 47 382 s \$0Formant1In;
#X obj 154 387 s \$0Formant2In;
#X obj 266 385 s \$0Formant3In;
#X obj 400 408 r \$0Formant1;
#X obj 498 386 r \$0Formant2;
#X obj 585 395 r \$0Formant3;
#X obj 541 526 outlet;
#X obj 556 41 inlet;
#X obj 570 133 ctlin;
#X obj 734 126 ctlin;
#X obj 910 129 ctlin;
#X floatatom 679 143 5 0 0 0 - - -;
#X obj 812 52 r \$0MidiBase;
#X obj 844 105 + 1;
#X obj 1002 124 + 2;
#X obj 570 224 spigot;
#X obj 734 226 spigot;
#X obj 910 231 spigot;
#X obj 943 204 expr $f1 == $f2;
#X floatatom 944 167 5 0 0 0 - - -;
#X obj 1003 170 t b f;
#X obj 767 201 expr $f1 == $f2;
#X floatatom 767 160 5 0 0 0 - - -;
#X obj 827 164 t b f;
#X obj 619 207 expr $f1 == $f2;
#X obj 678 180 t b f;
#X obj 673 529 outlet;
#X obj 684 464 r \$0FormantRateChange;
#X obj 179 210 bng 15 250 50 0 empty empty empty 17 7 0 10 -257985
-1 -1;
#X obj 264 211 bng 15 250 50 0 empty empty empty 17 7 0 10 -4034 -1
-1;
#X obj 350 211 bng 15 250 50 0 empty empty empty 17 7 0 10 -261234
-1 -1;
#X obj 413 302 sel 0 1 2;
#X obj 377 229 bng 15 250 50 0 empty empty empty 17 7 0 10 -257985
-1 -1;
#X obj 392 229 bng 15 250 50 0 empty empty empty 17 7 0 10 -4034 -1
-1;
#X obj 407 229 bng 15 250 50 0 empty empty empty 17 7 0 10 -261234
-1 -1;
#N canvas 2112 470 798 603 control 0;
#X obj 105 33 inlet;
#X obj 182 40 comment 0 10 helvetica ? 0 0 0 0 control message logic
;
#X obj 342 111 print LOOPER: UNKNOWN COMMAND;
#X obj 350 82 bng 15 250 50 0 empty empty empty 17 7 0 10 -262144 -1
-1;
#X floatatom 125 253 5 0 0 0 - - -;
#X obj 132 194 bng 15 250 50 0 empty empty empty 17 7 0 10 -262144
-1 -1;
#X obj 182 251 initbang;
#X obj 105 59 route MIDICTL:;
#X obj 123 172 route Base:;
#X msg 182 278 16;
#X obj 199 210 print MIDICTL: Unknown;
#X obj 160 326 s \$0MidiBase;
#X obj 55 81 bng 15 250 50 0 empty empty empty 17 7 0 10 -262144 -1
-1;
#X obj 139 101 bng 15 250 50 0 empty empty empty 17 7 0 10 -262144
-1 -1;
#X connect 0 0 7 0;
#X connect 0 0 12 0;
#X connect 3 0 2 0;
#X connect 4 0 11 0;
#X connect 6 0 9 0;
#X connect 7 0 8 0;
#X connect 7 0 13 0;
#X connect 7 1 3 0;
#X connect 8 0 4 0;
#X connect 8 0 5 0;
#X connect 8 1 10 0;
#X connect 9 0 11 0;
#X restore 564 71 pd control WORK IN PROGRESS;
#X obj 1070 32 inlet;
#X obj 1071 59 unpack f f f;
#X obj 1038 90 s \$0Formant1In;
#X obj 1082 116 s \$0Formant2In;
#X obj 1109 140 s \$0Formant3In;
#X connect 3 0 35 0;
#X connect 4 0 6 0;
#X connect 5 0 7 0;
#X connect 6 0 35 0;
#X connect 6 1 35 1;
#X connect 7 0 35 0;
#X connect 7 1 35 2;
#X connect 8 0 19 0;
#X connect 9 0 15 0;
#X connect 10 0 12 0;
#X connect 10 1 13 0;
#X connect 10 2 11 0;
#X connect 11 0 42 0;
#X connect 12 0 40 0;
#X connect 13 0 41 0;
#X connect 15 0 16 0;
#X connect 16 0 10 0;
#X connect 17 0 10 1;
#X connect 17 0 14 0;
#X connect 17 0 71 0;
#X connect 20 0 37 0;
#X connect 21 0 64 0;
#X connect 22 0 23 0;
#X connect 23 0 24 0;
#X connect 24 0 20 0;
#X connect 25 0 38 0;
#X connect 26 0 63 0;
#X connect 27 0 28 0;
#X connect 28 0 29 0;
#X connect 29 0 25 0;
#X connect 30 0 39 0;
#X connect 31 0 60 0;
#X connect 32 0 33 0;
#X connect 33 0 34 0;
#X connect 34 0 30 0;
#X connect 35 0 46 0;
#X connect 43 0 3 0;
#X connect 44 0 4 0;
#X connect 45 0 5 0;
#X connect 47 0 75 0;
#X connect 48 0 36 0;
#X connect 48 0 55 0;
#X connect 48 1 21 0;
#X connect 49 0 56 0;
#X connect 49 1 62 0;
#X connect 50 0 57 0;
#X connect 50 1 59 0;
#X connect 51 0 65 0;
#X connect 52 0 51 0;
#X connect 52 0 53 0;
#X connect 52 0 54 0;
#X connect 53 0 26 0;
#X connect 54 0 31 0;
#X connect 55 0 22 0;
#X connect 56 0 27 0;
#X connect 57 0 32 0;
#X connect 58 0 57 1;
#X connect 59 0 58 0;
#X connect 60 0 58 0;
#X connect 60 1 58 1;
#X connect 61 0 56 1;
#X connect 62 0 61 0;
#X connect 63 0 61 0;
#X connect 63 1 61 1;
#X connect 64 0 55 1;
#X connect 65 0 64 0;
#X connect 65 1 64 1;
#X connect 67 0 66 0;
#X connect 71 0 68 0;
#X connect 71 0 72 0;
#X connect 71 1 69 0;
#X connect 71 1 73 0;
#X connect 71 2 70 0;
#X connect 71 2 74 0;
#X connect 76 0 77 0;
#X connect 77 0 78 0;
#X connect 77 1 79 0;
#X connect 77 2 80 0;
#X coords 0 -1 1 1 370 170 1 100 100;
