#N canvas 2185 258 954 643 10;
#X obj 107 166 bng 30 250 50 0 empty empty C 5 15 0 20 -262144 -260097
-1;
#X msg 108 202 24;
#X obj 145 165 bng 30 250 50 0 empty empty D 5 15 0 20 -262144 -260097
-1;
#X obj 184 164 bng 30 250 50 0 empty empty E 5 15 0 20 -262144 -260097
-1;
#X obj 221 165 bng 30 250 50 0 empty empty F 5 15 0 20 -262144 -260097
-1;
#X obj 259 164 bng 30 250 50 0 empty empty G 5 15 0 20 -262144 -260097
-1;
#X obj 299 164 bng 30 250 50 0 empty empty A 5 15 0 20 -262144 -260097
-1;
#X obj 338 164 bng 30 250 50 0 empty empty B 5 15 0 20 -262144 -260097
-1;
#X obj 376 164 bng 30 250 50 0 empty empty C 5 15 0 20 -262144 -260097
-1;
#X obj 126 129 bng 30 250 50 0 empty empty Db 5 15 0 20 -1 -260097
-4032;
#X obj 164 128 bng 30 250 50 0 empty empty Eb 5 15 0 20 -1 -260097
-4032;
#X obj 237 130 bng 30 250 50 0 empty empty Gb 5 15 0 20 -1 -260097
-4032;
#X obj 278 129 bng 30 250 50 0 empty empty Ab 5 15 0 20 -1 -260097
-4032;
#X obj 317 128 bng 30 250 50 0 empty empty Bb 5 15 0 20 -1 -260097
-4032;
#X obj 422 128 vsl 15 60 0 8 0 0 empty empty empty 0 -9 0 10 -262144
-1 -1 0 1;
#X floatatom 431 230 5 0 0 0 - - -;
#X obj 426 208 int;
#X obj 458 229 * 12;
#X floatatom 457 254 5 0 0 0 - - -;
#X msg 130 224 25;
#X msg 146 202 26;
#X msg 168 223 27;
#X msg 187 201 28;
#X msg 225 200 29;
#X msg 248 223 30;
#X msg 262 202 31;
#X msg 284 224 32;
#X msg 300 203 33;
#X msg 322 224 34;
#X msg 341 201 35;
#X msg 379 201 36;
#X obj 233 292 +;
#X obj 346 258 t b f;
#X floatatom 370 132 5 0 0 0 - - -;
#X obj 218 423 outlet;
#X obj 280 421 outlet;
#X obj 269 384 mtof;
#X obj 194 103 hsl 128 15 -1 1 0 0 empty empty FineTune 6 7 0 10 -262144
-1 -1 4600 1;
#X obj 467 -21 initbang;
#X msg 465 10 0;
#X floatatom 149 73 5 0 0 0 - - -;
#X obj 341 104 bng 15 250 50 0 empty empty empty 17 7 0 10 -262144
-1 -1;
#X obj 234 355 +;
#X connect 0 0 1 0;
#X connect 1 0 31 0;
#X connect 2 0 20 0;
#X connect 3 0 22 0;
#X connect 4 0 23 0;
#X connect 5 0 25 0;
#X connect 6 0 27 0;
#X connect 7 0 29 0;
#X connect 8 0 30 0;
#X connect 9 0 19 0;
#X connect 10 0 21 0;
#X connect 11 0 24 0;
#X connect 12 0 26 0;
#X connect 13 0 28 0;
#X connect 14 0 16 0;
#X connect 16 0 15 0;
#X connect 16 0 17 0;
#X connect 17 0 18 0;
#X connect 18 0 32 0;
#X connect 19 0 31 0;
#X connect 20 0 31 0;
#X connect 21 0 31 0;
#X connect 22 0 31 0;
#X connect 23 0 31 0;
#X connect 24 0 31 0;
#X connect 25 0 31 0;
#X connect 26 0 31 0;
#X connect 27 0 31 0;
#X connect 28 0 31 0;
#X connect 29 0 31 0;
#X connect 30 0 31 0;
#X connect 31 0 33 0;
#X connect 31 0 42 0;
#X connect 32 0 31 0;
#X connect 32 1 31 1;
#X connect 36 0 35 0;
#X connect 37 0 40 0;
#X connect 37 0 42 1;
#X connect 38 0 39 0;
#X connect 39 0 37 0;
#X connect 41 0 39 0;
#X connect 42 0 34 0;
#X connect 42 0 36 0;
#X coords 0 -1 1 1 350 100 1 100 100;
