#N canvas 2084 167 887 712 10;
#X obj 106 173 bng 15 250 50 0 empty empty empty 17 7 0 10 -262144
-1 -1;
#X obj 123 173 bng 15 250 50 0 empty empty empty 17 7 0 10 -262144
-1 -1;
#X obj 140 173 bng 15 250 50 0 empty empty empty 17 7 0 10 -262144
-1 -1;
#X obj 347 173 bng 15 250 50 0 empty empty empty 17 7 0 10 -262144
-1 -1;
#X obj 116 156 bng 15 250 50 0 empty empty empty 17 7 0 10 -33289 -262144
-1;
#X obj 135 156 bng 15 250 50 0 empty empty empty 17 7 0 10 -33289 -262144
-1;
#X obj 158 173 bng 15 250 50 0 empty empty empty 17 7 0 10 -262144
-1 -1;
#X obj 175 173 bng 15 250 50 0 empty empty empty 17 7 0 10 -262144
-1 -1;
#X obj 192 173 bng 15 250 50 0 empty empty empty 17 7 0 10 -262144
-1 -1;
#X obj 209 173 bng 15 250 50 0 empty empty empty 17 7 0 10 -262144
-1 -1;
#X obj 168 156 bng 15 250 50 0 empty empty empty 17 7 0 10 -33289 -262144
-1;
#X obj 186 156 bng 15 250 50 0 empty empty empty 17 7 0 10 -33289 -262144
-1;
#X obj 204 156 bng 15 250 50 0 empty empty empty 17 7 0 10 -33289 -262144
-1;
#X obj 227 173 bng 15 250 50 0 empty empty empty 17 7 0 10 -262144
-1 -1;
#X obj 244 173 bng 15 250 50 0 empty empty empty 17 7 0 10 -262144
-1 -1;
#X obj 261 173 bng 15 250 50 0 empty empty empty 17 7 0 10 -262144
-1 -1;
#X obj 237 156 bng 15 250 50 0 empty empty empty 17 7 0 10 -33289 -262144
-1;
#X obj 256 156 bng 15 250 50 0 empty empty empty 17 7 0 10 -33289 -262144
-1;
#X obj 279 173 bng 15 250 50 0 empty empty empty 17 7 0 10 -262144
-1 -1;
#X obj 296 173 bng 15 250 50 0 empty empty empty 17 7 0 10 -262144
-1 -1;
#X obj 313 173 bng 15 250 50 0 empty empty empty 17 7 0 10 -262144
-1 -1;
#X obj 330 173 bng 15 250 50 0 empty empty empty 17 7 0 10 -262144
-1 -1;
#X obj 289 156 bng 15 250 50 0 empty empty empty 17 7 0 10 -33289 -262144
-1;
#X obj 307 156 bng 15 250 50 0 empty empty empty 17 7 0 10 -33289 -262144
-1;
#X obj 325 156 bng 15 250 50 0 empty empty empty 17 7 0 10 -33289 -262144
-1;
#X obj 111 117 hsl 128 15 -24 24 0 0 empty empty Coarse 7 7 0 10 -232576
-1 -1 6350 1;
#X msg 90 226 -12;
#X msg 91 204 -11;
#X msg 112 226 -10;
#X msg 119 203 -9;
#X msg 135 226 -8;
#X msg 156 226 -7;
#X msg 167 201 -6;
#X msg 175 226 -5;
#X msg 184 201 -4;
#X msg 196 226 -3;
#X msg 204 202 -2;
#X msg 214 227 -1;
#X msg 232 227 0;
#X msg 242 201 1;
#X msg 251 227 2;
#X msg 259 202 3;
#X msg 267 228 4;
#X msg 285 228 5;
#X msg 299 203 6;
#X msg 303 228 7;
#X msg 317 204 8;
#X msg 319 227 9;
#X msg 336 204 10;
#X msg 336 227 11;
#X msg 356 227 12;
#X floatatom 252 107 5 0 0 0 - - -;
#X obj 110 134 hsl 128 15 -1 1 0 0 empty empty Fine 7 7 0 10 -262144
-1 -1 6450 1;
#X msg 360 301 0;
#X obj 358 275 initbang;
#X floatatom 249 130 5 0 0 0 - - -;
#X obj 298 447 +;
#X obj 322 416 t b f;
#X obj 289 128 bng 15 250 50 0 empty empty empty 17 7 0 10 -262144
-1 -1;
#X obj 289 108 bng 15 250 50 0 empty empty empty 17 7 0 10 -262144
-1 -1;
#X floatatom 92 479 5 0 0 0 - - -;
#X floatatom 165 512 5 0 0 0 - - -;
#X obj 134 481 expr pow(1.059463094 \, $f1);
#X obj 133 619 outlet;
#X obj 353 606 outlet;
#X msg 359 641 semitones;
#X msg 134 648 freq multiplier;
#X obj 120 14 inlet;
#X obj 314 121 hsl 40 15 0 1000 0 0 \$0rate empty Rate -2 -8 0 10 -204786
-1 -1 0 1;
#X obj 353 578 line;
#X obj 353 553 pack f f;
#X obj 399 520 r \$0rate;
#X floatatom 416 543 5 0 0 0 - - -;
#X floatatom 404 595 5 0 0 0 - - -;
#X obj 160 590 line;
#X obj 160 565 pack f f;
#X obj 206 532 r \$0rate;
#X floatatom 223 555 5 0 0 0 - - -;
#X floatatom 211 607 5 0 0 0 - - -;
#X connect 0 0 26 0;
#X connect 1 0 28 0;
#X connect 2 0 30 0;
#X connect 3 0 50 0;
#X connect 4 0 27 0;
#X connect 5 0 29 0;
#X connect 6 0 31 0;
#X connect 7 0 33 0;
#X connect 8 0 35 0;
#X connect 9 0 37 0;
#X connect 10 0 32 0;
#X connect 11 0 34 0;
#X connect 12 0 36 0;
#X connect 13 0 38 0;
#X connect 14 0 40 0;
#X connect 15 0 42 0;
#X connect 16 0 39 0;
#X connect 17 0 41 0;
#X connect 18 0 43 0;
#X connect 19 0 45 0;
#X connect 20 0 47 0;
#X connect 21 0 49 0;
#X connect 22 0 44 0;
#X connect 23 0 46 0;
#X connect 24 0 48 0;
#X connect 25 0 51 0;
#X connect 25 0 56 0;
#X connect 26 0 25 0;
#X connect 27 0 25 0;
#X connect 28 0 25 0;
#X connect 29 0 25 0;
#X connect 30 0 25 0;
#X connect 31 0 25 0;
#X connect 32 0 25 0;
#X connect 33 0 25 0;
#X connect 34 0 25 0;
#X connect 35 0 25 0;
#X connect 36 0 25 0;
#X connect 37 0 25 0;
#X connect 38 0 25 0;
#X connect 39 0 25 0;
#X connect 40 0 25 0;
#X connect 41 0 25 0;
#X connect 42 0 25 0;
#X connect 43 0 25 0;
#X connect 44 0 25 0;
#X connect 45 0 25 0;
#X connect 46 0 25 0;
#X connect 47 0 25 0;
#X connect 48 0 25 0;
#X connect 49 0 25 0;
#X connect 50 0 25 0;
#X connect 52 0 57 0;
#X connect 53 0 52 0;
#X connect 54 0 53 0;
#X connect 54 0 38 0;
#X connect 56 0 55 0;
#X connect 56 0 60 0;
#X connect 56 0 62 0;
#X connect 56 0 70 0;
#X connect 57 0 56 0;
#X connect 57 1 56 1;
#X connect 58 0 53 0;
#X connect 59 0 38 0;
#X connect 62 0 61 0;
#X connect 62 0 75 0;
#X connect 67 0 25 0;
#X connect 69 0 64 0;
#X connect 69 0 73 0;
#X connect 70 0 69 0;
#X connect 71 0 72 0;
#X connect 71 0 70 1;
#X connect 74 0 78 0;
#X connect 74 0 63 0;
#X connect 75 0 74 0;
#X connect 76 0 77 0;
#X connect 76 0 75 1;
#X coords 0 -1 1 1 265 95 1 100 100;
