#N canvas 108 65 1711 1044 10;
#X obj 1232 353 -;
#X msg 1232 329 1;
#X obj 1234 301 t b f;
#X floatatom 679 205 5 0 0 0 - - -;
#X obj 633 137 metro;
#X obj 601 358 pack f f;
#X floatatom 601 419 5 0 0 0 - - -;
#X obj 537 178 i;
#X obj 537 209 + 1;
#X obj 537 237 % 2;
#X floatatom 545 258 5 0 0 0 - - -;
#X obj 595 273 *;
#X floatatom 610 248 5 0 0 0 - - -;
#X floatatom 649 303 5 0 0 0 - - -;
#X floatatom 595 295 5 0 0 0 - - -;
#X obj 596 318 +;
#X obj 527 78 t b f;
#X obj 586 120 /;
#X floatatom 569 64 5 0 0 0 - - -;
#X msg 527 103 6000;
#X obj 601 393 line;
#X floatatom 1232 380 5 0 0 0 - - -;
#X obj 527 38 r PanRate\$0;
#X obj 1123 381 outlet;
#X obj 1182 382 outlet;
#X obj 610 222 r Range\$0;
#X obj 649 282 r Offset\$0;
#X obj 639 420 s Out\$0;
#X obj 1121 347 r InitOut\$0;
#X obj 1228 276 r InitOut\$0;
#X obj 631 109 r Start\$0;
#X obj 635 162 s Metro\$0;
#X obj 502 143 r Metro\$0;
#X obj 767 35 r Start\$0;
#X obj 767 65 sel 0 1;
#X obj 769 94 bng 15 250 50 0 empty empty empty 17 7 0 10 -258113 -1
-1;
#X obj 793 96 bng 15 250 50 0 empty empty empty 17 7 0 10 -4034 -1
-1;
#X obj 762 14 comment 0 10 helvetica ? 0 0 0 0 RETURN TO ZERO;
#X obj 772 135 spigot;
#X obj 773 169 bng 15 250 50 0 empty empty BangOnStopIfZero 17 7 0
10 -262144 -1 -1;
#X msg 959 286 stop;
#X msg 773 199 0.5;
#X obj 773 253 pack f f;
#X obj 835 350 unpack f f;
#X floatatom 838 385 5 0 0 0 - - -;
#X floatatom 896 390 5 0 0 0 - - -;
#X obj 839 108 r ZERO\$0;
#X obj 790 269 comment 0 10 helvetica ? 0 0 0 0 Return to Zero is really
0.5;
#X obj 975 225 spigot;
#X obj 1004 106 r ZERO\$0;
#X obj 1018 188 -;
#X msg 1008 155 1;
#X obj 1007 130 t b f;
#X obj 960 259 bng 15 250 50 0 empty empty BangOnStopIfNotZero 17 7
0 10 -262144 -1 -1;
#X floatatom 1078 128 5 0 0 0 - - -;
#X floatatom 1033 223 5 0 0 0 - - -;
#X obj 104 103 cnv 15 160 70 empty empty LFO 120 63 0 14 -232576 -66577
0;
#X obj 144 136 hsl 40 15 0 1 0 0 empty empty empty -2 -8 0 10 -262144
-1 -1 1950 1;
#X obj 145 115 hsl 40 15 1 300 0 0 empty empty Pan_Rate -2 -8 0 10
-204800 -1 -1 0 1;
#X obj 242 110 bng 15 250 50 0 empty empty empty 17 7 0 10 -1 -258113
-1;
#X obj 219 110 tgl 15 0 empty empty empty 17 7 0 10 -204800 -1 -1 0
1;
#X obj 111 119 vsl 15 40 0 1 0 0 empty empty Range 0 -9 0 7 -204800
-1 -1 1950 1;
#X obj 193 117 vsl 15 40 0 1 0 0 empty empty Offset 0 -9 0 7 -204800
-1 -1 0 1;
#X floatatom 146 157 5 0 0 0 - - -;
#X obj 283 132 s PanRate\$0;
#X obj 108 191 s Range\$0;
#X obj 193 193 s Offset\$0;
#X obj 184 63 r Out\$0;
#X obj 134 226 s InitOut\$0;
#X obj 262 61 r Metro\$0;
#X obj 109 161 comment 0 10 helvetica ? 0 0 0 0 LFO;
#X obj 361 126 s Start\$0;
#X obj 242 143 tgl 15 0 empty empty Zero? -5 -5 0 10 -262144 -1 -1
0 1;
#X obj 276 156 s ZERO\$0;
#X obj 216 141 bng 15 250 50 0 empty empty 0 17 7 0 10 -258113 -1 -1
;
#X msg 124 37 0.5;
#X msg 173 19 1;
#X msg 72 50 0.5;
#X obj 73 -23 loadbang;
#X connect 0 0 21 0;
#X connect 0 0 24 0;
#X connect 1 0 0 0;
#X connect 2 0 1 0;
#X connect 2 1 0 1;
#X connect 3 0 5 1;
#X connect 3 0 42 1;
#X connect 4 0 31 0;
#X connect 5 0 20 0;
#X connect 7 0 8 0;
#X connect 8 0 7 1;
#X connect 8 0 9 0;
#X connect 9 0 10 0;
#X connect 10 0 11 0;
#X connect 11 0 14 0;
#X connect 12 0 11 1;
#X connect 13 0 15 1;
#X connect 14 0 15 0;
#X connect 15 0 5 0;
#X connect 16 0 19 0;
#X connect 16 1 17 1;
#X connect 17 0 4 1;
#X connect 17 0 3 0;
#X connect 19 0 17 0;
#X connect 20 0 6 0;
#X connect 20 0 27 0;
#X connect 22 0 18 0;
#X connect 22 0 16 0;
#X connect 25 0 12 0;
#X connect 26 0 13 0;
#X connect 28 0 23 0;
#X connect 29 0 2 0;
#X connect 30 0 4 0;
#X connect 32 0 7 0;
#X connect 33 0 34 0;
#X connect 34 0 35 0;
#X connect 34 1 36 0;
#X connect 35 0 38 0;
#X connect 35 0 48 0;
#X connect 38 0 39 0;
#X connect 39 0 41 0;
#X connect 40 0 20 0;
#X connect 41 0 42 0;
#X connect 42 0 43 0;
#X connect 42 0 20 0;
#X connect 43 0 44 0;
#X connect 43 1 45 0;
#X connect 46 0 38 1;
#X connect 48 0 53 0;
#X connect 49 0 52 0;
#X connect 49 0 54 0;
#X connect 50 0 48 1;
#X connect 50 0 55 0;
#X connect 51 0 50 0;
#X connect 52 0 51 0;
#X connect 52 1 50 1;
#X connect 53 0 40 0;
#X connect 57 0 63 0;
#X connect 57 0 68 0;
#X connect 58 0 64 0;
#X connect 60 0 71 0;
#X connect 61 0 65 0;
#X connect 62 0 66 0;
#X connect 67 0 57 0;
#X connect 69 0 59 0;
#X connect 72 0 73 0;
#X connect 74 0 75 0;
#X connect 75 0 57 0;
#X connect 76 0 58 0;
#X connect 77 0 61 0;
#X connect 77 0 57 0;
#X connect 78 0 77 0;
#X connect 78 0 75 0;
#X connect 78 0 76 0;
#X coords 0 -1 1 1 165 75 2 100 100;
