#N canvas 2073 98 1065 774 10;
#X obj 561 671 *~;
#X obj 606 670 *~;
#X obj 294 100 bng 15 250 50 0 empty empty empty 17 7 0 10 -262144
-1 -1;
#X obj 723 72 openpanel;
#X obj 723 132 soundfiler;
#X obj 723 214 expr 44100 / $f1;
#X floatatom 752 242 5 0 0 0 - - -;
#X obj 724 278 phasor~;
#X obj 724 321 *~;
#X floatatom 760 161 10 0 0 0 - - -;
#X obj 911 350 snapshot~;
#X obj 911 319 metro 50;
#X floatatom 911 379 10 0 0 0 - - -;
#X obj 911 425 /;
#X floatatom 911 459 5 0 0 0 - - -;
#X obj 110 256 hsl 190 15 0 1 0 0 empty empty empty -2 -8 0 10 -262144
-1 -1 0 1;
#X obj 171 333 hsl 128 15 -10 10 0 0 empty empty Coarse -2 -8 0 10
-262144 -1 -1 0 1;
#X floatatom 862 231 5 0 0 0 - - -;
#X msg 696 246 0;
#X text 101 56 See PURE DATA:22 Advanced Audio with [tabread4~] by
Dr. Raphel Hernandex.;
#X msg 820 261 0;
#X msg 859 261 0.5;
#X obj 180 358 knob 32 32 0 1 0 0 empty empty empty 0 -8 0 8 -262144
-1 -1 0 1;
#X obj 107 374 hsl 40 15 0 1 0 0 empty empty L-R_balance -2 -8 0 10
-262144 -1 -1 0 1;
#X obj 724 402 *~;
#X obj 685 623 -;
#X msg 686 584 1;
#X obj 677 556 t b f;
#X obj 109 283 hsl 40 15 1 200 0 0 empty empty Pan_Rate -2 -8 0 10
-262144 -1 -1 0 1;
#X obj 148 333 bng 15 250 50 0 empty empty empty 17 7 0 10 -262144
-1 -1;
#X floatatom 608 183 5 0 0 0 - - -;
#X obj 548 170 metro;
#X obj 148 311 bng 15 250 50 0 empty empty empty 17 7 0 10 -262144
-1 -1;
#X obj 548 433 pack f f;
#X obj 547 456 line;
#X floatatom 547 480 5 0 0 0 - - -;
#X obj 548 151 tgl 15 0 empty empty empty 17 7 0 10 -262144 -1 -1 0
1;
#X obj 548 226 i;
#X obj 548 257 + 1;
#X obj 548 285 % 2;
#X floatatom 548 310 5 0 0 0 - - -;
#X obj 106 315 vsl 15 40 0 1 0 0 empty empty Range 0 -9 0 7 -262144
-1 -1 0 1;
#X obj 128 313 vsl 15 40 0 1 0 0 empty empty Offset 0 -9 0 7 -262144
-1 -1 0 1;
#X obj 601 353 *;
#X floatatom 615 326 5 0 0 0 - - -;
#X floatatom 651 386 5 0 0 0 - - -;
#X floatatom 601 375 5 0 0 0 - - -;
#X obj 601 402 +;
#X obj 609 103 t b f;
#X obj 609 153 /;
#X floatatom 652 94 5 0 0 0 - - -;
#X msg 609 126 6000;
#X obj 172 306 hsl 128 15 -1 1 0 0 empty empty fine -2 -8 0 10 -262144
-1 -1 0 1;
#X obj 172 278 hsl 128 15 -0.1 0.1 0 0 empty empty ultrafine -2 -8
0 10 -262144 -1 -1 0 1;
#X obj 911 292 loadbang;
#X obj 536 707 outlet~;
#X obj 608 707 outlet~;
#N canvas 0 0 450 300 (subpatch) 0;
#X array array2 2.62395e+006 float 2;
#X coords 0 1 2.62395e+006 -1 200 140 1 0 0;
#X restore 107 113 graph;
#X msg 723 98 read -resize \$1 array2;
#X obj 760 186 s sampleSize2;
#X obj 772 305 r sampleSize2;
#X obj 926 401 r sampleSize2;
#X obj 724 357 tabread4~ array2;
#X connect 0 0 55 0;
#X connect 1 0 56 0;
#X connect 2 0 3 0;
#X connect 3 0 58 0;
#X connect 4 0 5 0;
#X connect 4 0 9 0;
#X connect 5 0 7 0;
#X connect 5 0 6 0;
#X connect 7 0 8 0;
#X connect 8 0 10 0;
#X connect 8 0 62 0;
#X connect 9 0 59 0;
#X connect 10 0 12 0;
#X connect 11 0 10 0;
#X connect 12 0 13 0;
#X connect 13 0 14 0;
#X connect 14 0 15 0;
#X connect 16 0 17 0;
#X connect 17 0 7 0;
#X connect 18 0 7 0;
#X connect 20 0 7 1;
#X connect 21 0 7 1;
#X connect 22 0 24 1;
#X connect 23 0 1 1;
#X connect 23 0 27 0;
#X connect 24 0 0 0;
#X connect 24 0 1 0;
#X connect 25 0 0 1;
#X connect 26 0 25 0;
#X connect 27 0 26 0;
#X connect 27 1 25 1;
#X connect 28 0 48 0;
#X connect 28 0 50 0;
#X connect 29 0 37 0;
#X connect 30 0 33 1;
#X connect 31 0 29 0;
#X connect 32 0 36 0;
#X connect 33 0 34 0;
#X connect 34 0 35 0;
#X connect 35 0 23 0;
#X connect 36 0 31 0;
#X connect 37 0 38 0;
#X connect 38 0 37 1;
#X connect 38 0 39 0;
#X connect 39 0 40 0;
#X connect 40 0 43 0;
#X connect 41 0 44 0;
#X connect 42 0 45 0;
#X connect 43 0 46 0;
#X connect 44 0 43 1;
#X connect 45 0 47 1;
#X connect 46 0 47 0;
#X connect 47 0 33 0;
#X connect 48 0 51 0;
#X connect 48 1 49 1;
#X connect 49 0 31 1;
#X connect 49 0 30 0;
#X connect 51 0 49 0;
#X connect 52 0 16 0;
#X connect 53 0 52 0;
#X connect 54 0 11 0;
#X connect 58 0 4 0;
#X connect 60 0 8 1;
#X connect 61 0 13 1;
#X connect 62 0 24 0;
#X coords 0 -1 1 1 210 300 1 100 100;
