#N canvas 0 0 978 696 10;
#X obj 108 105 bng 15 250 50 0 empty empty empty 17 7 0 10 -159808
-1 -1;
#X obj 129 106 bng 15 250 50 0 empty empty empty 17 7 0 10 -260097
-1 -1;
#X obj 150 107 bng 15 250 50 0 empty empty empty 17 7 0 10 -257985
-1 -1;
#X obj 175 107 bng 15 250 50 0 empty empty empty 17 7 0 10 -258113
-1 -1;
#X obj 200 107 bng 15 250 50 0 empty empty empty 17 7 0 10 -4032 -1
-1;
#N canvas 2476 366 450 300 sendnotes 0;
#X obj 159 155 pack f f f;
#X obj 160 182 s notes;
#X obj 107 34 inlet;
#X obj 149 35 inlet;
#X obj 201 35 inlet;
#X obj 102 75 f;
#X obj 151 71 t b f;
#X obj 207 75 t b f;
#X connect 0 0 1 0;
#X connect 2 0 5 0;
#X connect 3 0 6 0;
#X connect 4 0 7 0;
#X connect 5 0 0 0;
#X connect 6 0 0 0;
#X connect 6 1 0 1;
#X connect 7 0 0 0;
#X connect 7 1 0 2;
#X restore 399 314 pd sendnotes;
#X msg 406 12 45;
#X msg 436 8 48;
#X msg 480 3 52;
#X msg 428 90 45;
#X msg 466 90 48;
#X msg 529 81 55;
#X msg 613 120 45;
#X msg 652 120 50;
#X msg 685 119 54;
#X msg 499 137 42;
#X msg 532 139 45;
#X msg 563 140 50;
#X msg 420 175 33;
#X msg 454 175 40;
#X msg 493 174 45;
#X obj 24 368 delay 1000;
#X obj 112 145 hsl 100 15 0 3000 0 0 empty empty Note_Duration 5 6
0 10 -262144 -1 -1 0 1;
#X floatatom 111 167 5 0 0 0 - - -;
#X obj 145 166 tgl 15 0 empty empty empty 17 7 0 10 -262144 -1 -1 0
1;
#X obj 48 430 spigot;
#X obj 48 471 outlet;
#X obj -66 131 s \$0-outlet;
#X obj -35 469 outlet;
#X obj 237 150 r \$0-outlet;
#X obj 163 166 bng 15 250 50 0 empty empty empty 17 7 0 10 -4034 -1
-1;
#X obj 183 167 bng 15 250 50 0 empty empty empty 17 7 0 10 -258113
-1 -1;
#X obj 111 190 hsl 100 15 0 5 0 0 empty empty Transpose 10 6 0 10 -1
-262144 -262144 3000 1;
#X obj 276 224 int;
#X floatatom 201 168 5 0 0 0 - - -;
#X obj 401 205 f;
#X obj 435 204 f;
#X obj 470 205 f;
#X obj 99 10 inlet;
#X obj 102 35 sel 0 1 2 3 4;
#X obj 276 247 * 12;
#X obj 395 269 +;
#X obj 436 273 +;
#X obj 468 275 +;
#X msg 643 248 52;
#X msg 593 242 50;
#X obj 138 126 bng 15 250 50 0 empty empty empty 17 7 0 10 -232576
-1 -1;
#X msg 426 32 45;
#X msg 456 28 48;
#X msg 500 23 52;
#X msg 541 250 42;
#X msg 547 277 45;
#X obj 161 126 bng 15 250 50 0 empty empty empty 17 7 0 10 -204786
-1 -1;
#X obj 266 302 bng 15 250 50 0 empty empty empty 17 7 0 10 -262144
-1 -1;
#X connect 0 0 6 0;
#X connect 0 0 7 0;
#X connect 0 0 8 0;
#X connect 0 0 27 0;
#X connect 1 0 9 0;
#X connect 1 0 10 0;
#X connect 1 0 11 0;
#X connect 1 0 27 0;
#X connect 2 0 12 0;
#X connect 2 0 13 0;
#X connect 2 0 14 0;
#X connect 2 0 27 0;
#X connect 3 0 15 0;
#X connect 3 0 16 0;
#X connect 3 0 17 0;
#X connect 3 0 27 0;
#X connect 4 0 18 0;
#X connect 4 0 19 0;
#X connect 4 0 20 0;
#X connect 4 0 27 0;
#X connect 6 0 35 0;
#X connect 7 0 36 0;
#X connect 8 0 37 0;
#X connect 9 0 35 0;
#X connect 10 0 36 0;
#X connect 11 0 37 0;
#X connect 12 0 35 0;
#X connect 13 0 36 0;
#X connect 14 0 37 0;
#X connect 15 0 35 0;
#X connect 16 0 36 0;
#X connect 17 0 37 0;
#X connect 18 0 35 0;
#X connect 19 0 36 0;
#X connect 20 0 37 0;
#X connect 21 0 25 0;
#X connect 22 0 21 1;
#X connect 22 0 23 0;
#X connect 24 0 25 1;
#X connect 25 0 26 0;
#X connect 25 0 31 0;
#X connect 29 0 30 0;
#X connect 30 0 21 0;
#X connect 30 0 28 0;
#X connect 32 0 33 0;
#X connect 33 0 40 0;
#X connect 35 0 41 0;
#X connect 36 0 42 0;
#X connect 37 0 43 0;
#X connect 38 0 39 0;
#X connect 39 0 0 0;
#X connect 39 1 1 0;
#X connect 39 2 2 0;
#X connect 39 3 3 0;
#X connect 39 4 4 0;
#X connect 40 0 34 0;
#X connect 40 0 41 1;
#X connect 40 0 42 1;
#X connect 40 0 43 1;
#X connect 40 0 53 0;
#X connect 41 0 5 0;
#X connect 42 0 5 1;
#X connect 43 0 5 2;
#X connect 44 0 37 0;
#X connect 45 0 36 0;
#X connect 46 0 44 0;
#X connect 46 0 45 0;
#X connect 46 0 50 0;
#X connect 46 0 27 0;
#X connect 50 0 35 0;
#X connect 51 0 35 0;
#X connect 52 0 44 0;
#X connect 52 0 51 0;
#X connect 52 0 45 0;
#X connect 52 0 27 0;
#X connect 53 0 35 0;
#X connect 53 0 36 0;
#X connect 53 0 37 0;
#X coords 0 -1 1 1 135 110 1 100 100;
