#N canvas 14 123 1185 619 10;
#X obj 417 234 phasor~;
#X obj 753 195 osc~;
#X obj 752 241 *~;
#X obj 417 324 *~;
#X obj 523 366 *~;
#X obj 503 579 outlet~;
#X floatatom 961 165 5 0 0 0 - #0-Sin -, f 5;
#X floatatom 470 325 5 0 0 0 - #0-Saw -, f 5;
#X floatatom 625 362 5 0 0 0 - #0-PWM -, f 5;
#X obj 479 -48 nbx 5 30 -50 50 0 0 empty \$0-FreqFine FreqFine 0 -8
0 25 -262144 -1 -1 -6.14035 256;
#X obj 630 -91 nbx 5 30 -50000 50000 0 0 empty \$0-Freq Freq 0 -8 0
25 -262144 -1 -1 0 256;
#X msg 315 103 0;
#X obj 500 599 comment 0 10 helvetica ? 0 0 0 0 Audio Out;
#X obj 779 241 comment 0 10 helvetica ? 0 0 0 0 Sin (Cos);
#X obj 441 324 comment 0 10 helvetica ? 0 0 0 0 Saw;
#X obj 552 365 comment 0 10 helvetica ? 0 0 0 0 PWM / Square;
#X obj 36 499 comment 0 10 helvetica ? 0 0 0 0 Multi-Osc by WilliamAHuston@gmail.com
March 2015 Continuously mix Sin (Cos) \, Saw \, and PWM waveforms.
Use first outlet for audio signal~. Use second outlet for control rate
(for use as an LFO) The Range \, Bias \, and Metro_ms apply to control
rate only.;
#X obj 559 546 comment 0 10 helvetica ? 0 0 0 0 the method for generating
PWM was suggested by Jeff Sandys and Jonghyun Kim.;
#X obj 316 126 s \$0-FreqFineIn;
#X obj 277 67 r \$0-FreqFineZeroBang;
#X obj 846 152 r \$0-Sin;
#X obj 518 203 r \$0-Saw;
#X obj 562 321 r \$0-PWM;
#X obj 753 266 s~ \$0SinAudioOut;
#X obj 349 524 s~ \$0SawAudioOut;
#X obj 522 394 s~ \$0PWMAudioOut;
#X obj 102 114 cnv 15 150 118 empty empty MultiOsc 85 115 1 15 -260097
-66577 0;
#X obj 183 170 hsl 60 15 0.01 0.99 0 0 \$0-DutyCtl \$0-Duty-Snap Duty_Cycle
2 7 0 10 -232576 -1 -1 2950 1;
#X obj 109 118 hsl 140 15 1 8372 1 0 \$0-Freq empty freq 5 7 0 10 -261682
-1 -1 0 1;
#X obj 106 169 vsl 25 60 0.005 0.5 1 0 \$0-Sin empty Sin 0 10 0 10
-204786 -1 -1 5000 1;
#X obj 157 169 vsl 25 60 0.005 0.5 1 0 \$0-PWM empty PWM 2 35 0 10
-232576 -1 -1 5100 1;
#X obj 132 169 vsl 25 60 0.005 0.5 1 0 \$0-Saw \$0-SawIn Saw 0 20 0
10 -204800 -1 -1 2112 1;
#X obj 107 151 hsl 128 15 0 3000 0 0 \$0-Rate empty Rate_of_Change
5 7 0 10 -261234 -1 -1 0 1;
#X obj 109 135 hsl 115 15 -50 50 0 0 \$0-FreqFine \$0-FreqFineIn Fine_Tune
5 7 0 10 -262130 -1 -1 5000 1;
#X obj 233 134 bng 15 250 50 0 \$0-FreqFineZeroBang empty Zero 0 7
0 10 -262144 -1 -1;
#X floatatom 216 119 5 0 0 0 - #0-Freq -, f 5;
#X obj 523 321 *~ 2;
#X obj 523 342 -~ 1;
#X obj 417 350 *~ -1;
#X obj 232 211 tgl 15 0 \$0-InvertSaw empty InvertSaw -28 -3 0 8 -262144
-1 -1 0 1;
#X obj 359 353 tgl 15 0 empty \$0-InvertSaw InvertSaw -10 -5 0 8 -262144
-1 -1 0 1;
#X obj 339 471 *~;
#X obj 387 452 *~;
#X obj 417 412 expr 1 - $f1;
#X floatatom 436 441 5 0 0 0 - - -, f 5;
#X obj 41 -60 inlet;
#X msg 340 289 0;
#X floatatom 351 393 5 0 0 0 - - -, f 5;
#X obj 508 421 r~ \$0SinAudioOut;
#X obj 541 439 r~ \$0SawAudioOut;
#X obj 574 455 r~ \$0PWMAudioOut;
#X obj 604 481 hsl 128 15 250 4000 0 0 empty empty empty -2 -8 0 10
-262144 -1 -1 0 1;
#X floatatom 610 506 5 0 0 0 - - -, f 5;
#X msg 696 460 250;
#X msg 730 52 8372 hz = Midi #120 \, the highest note my Korg MicroKey
37 will transmit;
#X msg 217 75 0.5;
#X obj 31 311 loadbang;
#X obj 683 315 DVM~;
#X obj 522 270 line 0 0;
#X obj 841 223 line 0 0;
#X obj 175 -56 inlet;
#X msg 182 -79 bend;
#X msg 136 -81 LFO;
#X msg 48 -82 Rate;
#X msg -28 -87 Freq;
#X obj 181 -21 f;
#X msg 235 -99 1;
#X floatatom 176 10 5 0 0 0 - - -, f 5;
#X obj 187 189 hsl 60 15 0.001 1 1 0 \$0Noise \$0NoiseIn Noise 7 7
0 10 -66577 -262144 -262144 4600 1;
#X obj 199 560 noise~;
#X obj 238 584 *~;
#X msg 235 -76 noise;
#X obj 517 536 hip~ 5;
#X obj 420 281 *~ 4;
#X obj 416 302 -~ 2;
#X msg 522 247 \$1 20;
#X msg 845 200 \$1 20;
#X msg 35 172 0;
#X obj 128 -58 inlet;
#X obj 86 -59 inlet~;
#X floatatom 331 204 5 0 0 0 - - -, f 5;
#X obj 523 296 expr~ $v1 > $v2;
#X obj 847 174 - 0.005;
#X obj 564 345 - 0.005;
#X obj 514 226 - 0.005;
#X obj 123 -28 s \$0LFO;
#X obj 624 80 r \$0LFO;
#X obj 597 102 +~;
#X msg 93 -82 PW;
#X obj 514 555 lop~ 10000;
#X obj 34 354 s \$0Init;
#X obj 35 334 bng 15 250 50 0 empty empty empty 17 7 0 10 -262144 -1
-1;
#X obj 222 -126 r \$0Init;
#X obj 311 262 r \$0Init;
#X obj 230 -146 r \$0Init;
#X obj 335 20 r \$0Init;
#X obj 707 436 r \$0Init;
#X obj 92 54 s~ \$0-DutyIn;
#X obj 608 175 r~ \$0-DutyIn;
#X obj 626 272 +~;
#X obj 647 202 r \$0-DutyCtl;
#X obj 650 246 line~;
#X msg 647 224 \$1 250;
#X msg 39 215 0.25;
#X obj 235 104 bng 15 250 50 0 \$0Init empty empty 17 7 0 10 -258113
-1 -1;
#X obj -5 127 r \$0Init;
#X obj 229 -56 inlet~;
#X obj 231 -35 s~ \$0NoiseLFO;
#X obj 241 528 r~ \$0NoiseLFO;
#X obj 314 595 DVM~;
#X obj 217 448 sig~;
#X obj 218 423 r \$0Noise;
#X obj 714 157 *~ 0.5;
#X obj 186 207 tgl 15 0 \$0Sub empty Sub 0 6 0 8 -4034 -1 -1 1 1;
#X msg 755 132 1;
#X msg 790 131 0.5;
#X obj 758 95 r \$0Sub;
#X obj 758 114 sel 0 1;
#X floatatom 717 112 5 0 0 0 - - -, f 5;
#X obj 790 152 bng 15 250 50 0 empty empty empty 17 7 0 10 -4034 -1
-1;
#X obj 767 154 bng 15 250 50 0 empty empty empty 17 7 0 10 -4034 -1
-1;
#X obj -17 -64 inlet~;
#X obj -9 -17 s~ \$0FreqWav;
#X obj 404 -89 r~ \$0FreqWav;
#X obj 458 1 +~;
#X obj 459 58 *~;
#X obj -22 44 snapshot~;
#X obj 14 15 r MetroGlobal;
#X connect 0 0 73 0;
#X connect 0 0 81 0;
#X connect 1 0 2 0;
#X connect 2 0 23 0;
#X connect 3 0 38 0;
#X connect 3 0 42 0;
#X connect 4 0 25 0;
#X connect 9 0 124 1;
#X connect 11 0 18 0;
#X connect 19 0 11 0;
#X connect 20 0 82 0;
#X connect 21 0 84 0;
#X connect 22 0 83 0;
#X connect 27 0 80 0;
#X connect 36 0 37 0;
#X connect 37 0 4 0;
#X connect 38 0 41 0;
#X connect 40 0 43 0;
#X connect 40 0 47 0;
#X connect 41 0 24 0;
#X connect 42 0 24 0;
#X connect 43 0 42 1;
#X connect 43 0 44 0;
#X connect 45 0 32 0;
#X connect 46 0 40 0;
#X connect 47 0 41 1;
#X connect 48 0 72 0;
#X connect 49 0 72 0;
#X connect 50 0 72 0;
#X connect 51 0 52 0;
#X connect 53 0 51 0;
#X connect 55 0 27 0;
#X connect 56 0 91 0;
#X connect 58 0 3 1;
#X connect 58 0 81 0;
#X connect 59 0 2 1;
#X connect 60 0 65 0;
#X connect 65 0 67 0;
#X connect 65 0 125 1;
#X connect 66 0 65 0;
#X connect 69 0 70 0;
#X connect 70 0 72 0;
#X connect 72 0 89 0;
#X connect 73 0 74 0;
#X connect 74 0 3 0;
#X connect 75 0 58 0;
#X connect 76 0 59 0;
#X connect 77 0 32 0;
#X connect 78 0 85 0;
#X connect 79 0 97 0;
#X connect 81 0 36 0;
#X connect 82 0 76 0;
#X connect 83 0 4 1;
#X connect 84 0 75 0;
#X connect 86 0 87 1;
#X connect 87 0 0 0;
#X connect 87 0 112 0;
#X connect 89 0 5 0;
#X connect 91 0 90 0;
#X connect 92 0 66 0;
#X connect 93 0 46 0;
#X connect 95 0 55 0;
#X connect 95 0 11 0;
#X connect 96 0 53 0;
#X connect 98 0 99 0;
#X connect 99 0 81 1;
#X connect 99 0 57 0;
#X connect 100 0 102 0;
#X connect 101 0 99 1;
#X connect 102 0 101 0;
#X connect 103 0 31 0;
#X connect 105 0 103 0;
#X connect 105 0 77 0;
#X connect 106 0 107 0;
#X connect 108 0 70 1;
#X connect 108 0 109 0;
#X connect 110 0 70 1;
#X connect 111 0 110 0;
#X connect 112 0 1 0;
#X connect 114 0 112 1;
#X connect 114 0 120 0;
#X connect 115 0 112 1;
#X connect 115 0 119 0;
#X connect 116 0 117 0;
#X connect 116 0 118 0;
#X connect 117 0 114 0;
#X connect 117 1 115 0;
#X connect 121 0 122 0;
#X connect 121 0 126 0;
#X connect 123 0 124 0;
#X connect 124 0 125 0;
#X connect 125 0 87 0;
#X connect 126 0 28 0;
#X connect 127 0 126 0;
#X coords 0 -1 1 1 155 135 2 100 100;
