#N canvas 547 9 788 567 10;
#X obj 299 538 dac~;
#X obj 95 116 looper1~;
#X obj 348 122 looper2~;
#X obj 411 434 billverb~;
#X obj 174 430 billverb~;
#X connect 1 0 4 0;
#X connect 1 1 4 1;
#X connect 2 0 3 0;
#X connect 2 1 3 1;
#X connect 3 0 0 0;
#X connect 3 1 0 1;
#X connect 4 0 0 0;
#X connect 4 1 0 1;
