#N canvas 2529 186 450 446 12;
#X obj 106 113 tgl 15 0 empty empty empty 17 7 0 10 -262144 -1 -1 0
1;
#X msg 96 146 1 \$1;
#X obj 97 170 -;
#X obj 33 237 spigot;
#X obj 139 241 spigot;
#X floatatom 178 192 5 0 0 0 - - -;
#X floatatom 73 202 5 0 0 0 - - -;
#X obj 6 56 inlet;
#X obj 49 57 inlet;
#X obj 106 61 inlet;
#X obj 86 321 outlet;
#X connect 0 0 1 0;
#X connect 0 0 5 0;
#X connect 1 0 2 0;
#X connect 2 0 6 0;
#X connect 3 0 10 0;
#X connect 4 0 10 0;
#X connect 5 0 4 1;
#X connect 6 0 3 1;
#X connect 7 0 3 0;
#X connect 8 0 4 0;
#X connect 9 0 0 0;
#X coords 0 -1 1 1 30 30 1 100 100;
