#N canvas 382 62 450 300 10;
#X obj 115 74 inlet~;
#X obj 188 72 inlet~;
#X obj 297 68 inlet;
#X obj 154 248 outlet~;
#X obj 114 222 *~;
#X obj 187 220 *~;
#X obj 297 88 tgl 15 0 empty empty empty 17 7 0 10 -262144 -1 -1 1
1;
#X obj 334 178 line;
#X floatatom 334 216 5 0 0 0 - - -;
#X msg 269 123 1 \$1;
#X obj 269 146 -;
#X obj 269 189 line;
#X floatatom 269 222 5 0 0 0 - - -;
#X msg 334 155 \$1 200;
#X msg 269 167 \$1 200;
#X connect 0 0 4 0;
#X connect 1 0 5 0;
#X connect 2 0 6 0;
#X connect 4 0 3 0;
#X connect 5 0 3 0;
#X connect 6 0 13 0;
#X connect 6 0 9 0;
#X connect 7 0 8 0;
#X connect 7 0 5 1;
#X connect 9 0 10 0;
#X connect 10 0 14 0;
#X connect 11 0 12 0;
#X connect 11 0 4 1;
#X connect 13 0 7 0;
#X connect 14 0 11 0;
