#N canvas 743 165 918 803 10;
#X obj -48 254 *~;
#X obj -20 175 osc~ 2;
#X obj 112 112 hsl 128 15 80 8000 1 0 empty empty ModFreq 30 -8 0 10
-262144 -1 -1 9400 1;
#X obj -19 212 *~;
#X obj 138 143 hsl 40 15 0 10 0 0 empty empty ModGain -2 -8 0 10 -262144
-1 -1 2500 1;
#X obj -89 55 inlet~;
#X obj -71 643 outlet~;
#X obj -32 392 *~;
#X obj -130 459 *~;
#X obj 109 171 hsl 128 15 0 1 0 0 empty empty Dry--Wet -2 -8 0 10 -262144
-1 -1 0 1;
#X floatatom 225 140 5 0 0 0 - - -;
#X floatatom 186 141 5 0 0 0 - - -;
#X obj -89 406 -;
#X obj -101 344 t b f;
#X msg -102 374 1;
#X floatatom -90 431 5 0 0 1 Dry - -;
#X floatatom -2 357 5 0 0 1 Wet - -;
#X obj -1 394 comment 264 10 helvetica ? 0 0 0 0 WET;
#X obj -168 456 comment 0 10 helvetica ? 0 0 0 0 DRY;
#X obj 391 165 hsl 128 15 80 8000 1 0 empty empty ModFreq 30 -8 0 10
-262144 -1 -1 9400 1;
#X floatatom 428 194 5 0 0 0 - - -;
#X obj 135 449 notch~;
#X connect 0 0 7 0;
#X connect 1 0 3 0;
#X connect 2 0 1 0;
#X connect 2 0 10 0;
#X connect 2 0 19 0;
#X connect 3 0 0 1;
#X connect 4 0 3 1;
#X connect 4 0 11 0;
#X connect 5 0 0 0;
#X connect 5 0 8 0;
#X connect 7 0 21 0;
#X connect 8 0 6 0;
#X connect 9 0 13 0;
#X connect 9 0 16 0;
#X connect 12 0 15 0;
#X connect 13 0 14 0;
#X connect 13 1 12 1;
#X connect 14 0 12 0;
#X connect 15 0 8 1;
#X connect 16 0 7 1;
#X connect 19 0 20 0;
#X connect 21 0 6 0;
#X coords 0 -1 1 1 210 300 1 100 100;
