#N canvas 1 95 1185 708 10;
#X obj 290 442 *~;
#X obj 162 378 inlet~;
#X obj 164 704 outlet~;
#X obj 290 499 *~;
#X obj 161 536 *~;
#X obj 90 470 -;
#X obj 78 420 t b f;
#X msg 78 444 1;
#X floatatom 89 498 5 0 0 1 Dry - -, f 5;
#X obj 360 499 comment 199 10 helvetica ? 0 0 0 0 WET;
#X obj 121 604 comment 0 10 helvetica ? 0 0 0 0 DRY L;
#X obj 214 378 inlet~;
#X obj 216 702 outlet~;
#X obj 214 539 *~;
#X obj 328 498 *~;
#X obj 268 610 comment 0 10 helvetica ? 0 0 0 0 DRY R;
#X obj 327 442 *~;
#X obj 291 548 *~;
#X obj 327 547 *~;
#X msg 264 44 0.165;
#X msg 157 42 0;
#X obj 376 517 r \$0-WetCompensation;
#X obj 78 393 r \$0-DryWet;
#X obj 366 474 r \$0-DryWet;
#X obj 157 69 s \$0-DryWetIn;
#X obj 264 70 s \$0-WetCompIn;
#X obj 103 103 cnv 15 189 196 empty empty Ring_Modulator 4 7 0 14 -204786
-66577 0;
#X obj 108 128 hsl 128 15 0.1 8000 1 0 \$0-ModFreq empty ModFreq 30
-8 0 10 -262144 -1 -1 0 1;
#X obj 110 182 hsl 40 10 0 10 0 0 \$0-SinGain empty SinGain -2 -6 0
10 -262144 -1 -1 0 1;
#X obj 108 251 hsl 128 15 0 1 0 0 \$0-DryWet \$0-DryWetIn Dry--Wet
-2 -6 0 10 -262144 -1 -1 0 1;
#X floatatom 223 103 5 0 0 0 - #0FinalFreq -, f 5;
#X floatatom 62 192 5 0 0 0 - #0-ModGain -, f 5;
#X floatatom 56 251 5 0 0 1 - #0-DryWet -, f 5;
#X obj 249 218 vsl 10 50 0.01 0.3 1 0 \$0-WetCompensation \$0-WetCompIn
WetComp -30 -9 0 10 -262144 -1 -1 0 1;
#X obj 107 224 hsl 128 15 0 3000 0 0 \$0-Rate \$0-RateIn Rate_of_Change
-2 -8 0 10 -262144 -1 -1 0 1;
#X floatatom 298 214 5 0 0 1 - #0-Rate -, f 5;
#X obj 108 155 hsl 115 15 -50 50 0 0 \$0-FreqFine \$0-FreqFineIn Fine_Tune
-2 -8 0 10 -262144 -1 -1 5700 1;
#X obj 228 156 bng 15 250 50 0 \$0-FreqFineZeroBang empty Zero 0 -5
0 10 -262144 -1 -1;
#X floatatom 298 154 5 0 0 0 - #0-FreqFine -, f 5;
#X floatatom 755 226 5 0 0 0 Rate #0-Rate -, f 5;
#X obj 593 257 pack f f;
#X obj 551 291 line 3000;
#X obj 599 147 nbx 5 30 -50 50 0 0 empty \$0-FreqFine FreqFine 0 -8
0 25 -262144 -1 -1 0 256;
#X obj 592 212 +;
#X obj 600 184 t b f;
#X obj 748 149 nbx 5 30 -50000 50000 0 0 empty \$0-ModFreq Freq 0 -8
0 25 -262144 -1 -1 0 256;
#X floatatom 627 311 5 0 0 0 - - #0FinalFreq, f 5;
#X floatatom 667 312 5 0 0 0 - - -, f 5;
#X obj 627 284 unpack;
#X msg 529 62 0;
#X obj 529 36 loadbang;
#X obj 530 85 s \$0-FreqFineIn;
#X obj 465 13 r \$0-FreqFineZeroBang;
#X obj 535 108 r \$0-ModFreq;
#X obj 648 204 loadbang;
#X msg 646 234 750;
#X obj 306 724 Snapshot;
#X obj 409 722 Snapshot;
#X obj 160 182 hsl 40 10 0 10 0 0 \$0-SawGain empty SawGain -2 -6 0
10 -262144 -1 -1 0 1;
#X floatatom 294 238 5 0 0 0 - #0-SawGain -, f 5;
#X floatatom 558 316 5 0 0 0 - - -, f 5;
#N canvas 0 50 450 300 (subpatch) 0;
#X array saw 100 float 5;
#A 0 0 0 0 0 0 0 0 0 0 0 0 0 0 0 0 0 0 0 0 0 0 0 0 0 0 0 0 0 0 0 0
0 0 0 0 0 0 0 0 0 0 0 0 0 0 0 0 0 0 0 0 0 0 0 0 0 0 0 0 0 0 0 0 0 0
0 0 0 0 0 0 0 0 0 0 0 0 0 0 0 0 0 0 0 0 0 0 0 0 0 0 0 0 0 0 0 0 0 0
0;
#X coords 0 300 1 299 200 140 0;
#X restore 917 426 graph;
#N canvas 0 50 450 300 (subpatch) 0;
#X array osc 100 float 1;
#A 0 1 1 1 1 1 1 1 1 1 1 1 1 1 1 1 1 1 1 1 1 1 1 1 1 1 1 1 1 1 1 1
1 1 1 1 1 1 1 1 1 1 1 1 1 1 1 1 1 1 1 1 1 1 1 1 1 1 1 1 1 1 1 1 1 1
1 1 1 1 1 1 1 1 1 1 1 1 1 1 1 1 1 1 1 1 1 1 1 1 1 1 1 1 1 1 1 1 1 1
1;
#X coords 0 300 1 299 200 140 0;
#X restore 917 633 graph;
#N canvas 1017 209 525 455 sin 0;
#X obj 146 148 *~;
#X floatatom 317 122 5 0 0 0 - - -, f 5;
#X obj 299 95 r \$0-SinGain;
#X obj 152 69 tabwrite~ osc;
#X obj 160 47 r MetroGlobal;
#X obj 145 187 outlet~;
#X obj 124 -15 phasor~;
#X obj 124 10 cos~;
#X obj 266 -19 phasor~;
#X obj 266 6 cos~;
#X msg 167 -37 0;
#X obj 216 145 *~;
#X obj 215 184 outlet~;
#X obj 285 32 r MetroGlobal;
#X obj 277 54 tabwrite~ osc1;
#X obj 285 -75 inlet;
#X obj 178 -89 inlet;
#X connect 0 0 5 0;
#X connect 2 0 0 1;
#X connect 2 0 1 0;
#X connect 2 0 11 1;
#X connect 4 0 3 0;
#X connect 6 0 7 0;
#X connect 7 0 0 0;
#X connect 7 0 3 0;
#X connect 8 0 9 0;
#X connect 9 0 11 0;
#X connect 9 0 14 0;
#X connect 10 0 6 1;
#X connect 11 0 12 0;
#X connect 13 0 14 0;
#X connect 15 0 8 1;
#X connect 15 0 10 0;
#X connect 16 0 6 0;
#X connect 16 0 8 0;
#X restore 323 362 pd sin;
#X obj 528 341 s \$0FreqOut;
#X obj 364 320 r \$0FreqOut;
#N canvas 91 101 818 575 saw 0;
#X obj 140 68 phasor~;
#X obj 106 433 *~;
#X obj 175 145 comment 30 10 helvetica ? 0 0 0 0 Saw;
#X obj 141 125 *~ 2;
#X obj 141 148 -~ 1;
#X floatatom 297 372 5 0 0 0 - - -, f 5;
#X obj 296 347 r \$0-SawGain;
#X obj 17 254 r MetroGlobal;
#X obj 121 15 inlet;
#X obj 107 462 outlet~;
#X floatatom 92 60 5 0 0 0 - - -, f 5;
#X obj 15 284 tabwrite~ saw;
#X obj 325 414 Snapshot;
#X obj 253 -2 inlet;
#X obj 257 22 hsl 128 15 0 1 0 0 empty empty empty -2 -8 0 10 -262144
-1 -1 7800 1;
#X msg 183 44 0;
#X obj 182 434 *~;
#X obj 182 462 outlet~;
#X obj 224 49 phasor~;
#X obj 267 150 comment 30 10 helvetica ? 0 0 0 0 Saw;
#X obj 233 130 *~ 2;
#X obj 233 153 -~ 1;
#X obj 355 289 r MetroGlobal;
#X obj 355 313 tabwrite~ saw1;
#X msg 297 1 phase;
#X obj 250 186 *~ -1;
#X obj 159 176 *~ -1;
#X obj 654 28 hradio 15 1 0 4 empty \$0SawInv SawInvMode 0 -8 0 10
-262144 -1 -1 0;
#X obj 132 231 spigot~;
#X obj 171 208 tgl 15 0 empty \$0A empty 17 7 0 10 -262144 -1 -1 0
1;
#X obj 158 263 spigot~;
#X obj 197 240 tgl 15 0 empty \$0AI empty 17 7 0 10 -262144 -1 -1 0
1;
#X obj 239 248 spigot~;
#X obj 276 217 tgl 15 0 empty \$0B empty 17 7 0 10 -262144 -1 -1 0
1;
#X obj 257 273 spigot~;
#X obj 296 250 tgl 15 0 empty \$0BI empty 17 7 0 10 -262144 -1 -1 0
1;
#X floatatom 654 53 5 0 0 0 - - -, f 5;
#X obj 655 77 / 2;
#X floatatom 656 129 5 0 0 0 - - -, f 5;
#X obj 655 101 int;
#X obj 722 63 % 2;
#X floatatom 723 97 5 0 0 0 - - -, f 5;
#N canvas 980 143 450 417 inv 0;
#X obj 157 13 inlet;
#X obj 121 143 outlet;
#X obj 171 142 outlet;
#X msg 171 67 1 \$1;
#X obj 171 93 -;
#X obj 158 39 hradio 15 1 0 2 empty empty empty 0 -8 0 10 -262144 -1
-1 0;
#X obj 121 118 hradio 15 1 0 2 empty empty empty 0 -8 0 10 -262144
-1 -1 0;
#X obj 171 118 hradio 15 1 0 2 empty empty empty 0 -8 0 10 -262144
-1 -1 0;
#X connect 0 0 5 0;
#X connect 3 0 4 0;
#X connect 4 0 7 0;
#X connect 5 0 6 0;
#X connect 5 0 3 0;
#X connect 6 0 1 0;
#X connect 7 0 2 0;
#X restore 656 169 pd inv;
#N canvas 980 143 450 417 inv 0;
#X obj 157 13 inlet;
#X obj 121 143 outlet;
#X obj 171 142 outlet;
#X msg 171 67 1 \$1;
#X obj 171 93 -;
#X obj 158 39 hradio 15 1 0 2 empty empty empty 0 -8 0 10 -262144 -1
-1 0;
#X obj 121 118 hradio 15 1 0 2 empty empty empty 0 -8 0 10 -262144
-1 -1 0;
#X obj 171 118 hradio 15 1 0 2 empty empty empty 0 -8 0 10 -262144
-1 -1 0;
#X connect 0 0 5 0;
#X connect 3 0 4 0;
#X connect 4 0 7 0;
#X connect 5 0 6 0;
#X connect 5 0 3 0;
#X connect 6 0 1 0;
#X connect 7 0 2 0;
#X restore 722 173 pd inv;
#X obj 656 218 s \$0A;
#X obj 689 249 s \$0AI;
#X obj 722 212 s \$0B;
#X obj 755 249 s \$0BI;
#X obj 418 44 lop~ 8000;
#X obj 415 64 lop~ 9000;
#X obj -8 95 lop~ 8000;
#X obj -11 115 lop~ 9000;
#X obj 416 86 lop~ 7000;
#X obj -10 196 lop~ 7000;
#X obj -12 176 lop~ 8000;
#X obj -9 156 lop~ 9000;
#X obj -10 137 lop~ 8000;
#X obj 416 145 lop~ 7000;
#X obj 414 125 lop~ 8000;
#X obj 417 102 lop~ 9000;
#X connect 0 0 50 0;
#X connect 1 0 9 0;
#X connect 3 0 4 0;
#X connect 4 0 26 0;
#X connect 4 0 28 0;
#X connect 6 0 5 0;
#X connect 6 0 1 1;
#X connect 6 0 16 1;
#X connect 7 0 11 0;
#X connect 8 0 0 0;
#X connect 8 0 10 0;
#X connect 8 0 18 0;
#X connect 13 0 14 0;
#X connect 14 0 15 0;
#X connect 14 0 18 1;
#X connect 15 0 0 1;
#X connect 16 0 17 0;
#X connect 18 0 48 0;
#X connect 20 0 21 0;
#X connect 21 0 25 0;
#X connect 21 0 32 0;
#X connect 22 0 23 0;
#X connect 25 0 34 0;
#X connect 26 0 30 0;
#X connect 27 0 36 0;
#X connect 27 0 40 0;
#X connect 28 0 1 0;
#X connect 28 0 11 0;
#X connect 29 0 28 1;
#X connect 30 0 1 0;
#X connect 30 0 11 0;
#X connect 31 0 30 1;
#X connect 32 0 16 0;
#X connect 32 0 23 0;
#X connect 33 0 32 1;
#X connect 34 0 16 0;
#X connect 34 0 23 0;
#X connect 35 0 34 1;
#X connect 36 0 37 0;
#X connect 37 0 39 0;
#X connect 38 0 42 0;
#X connect 39 0 38 0;
#X connect 40 0 41 0;
#X connect 41 0 43 0;
#X connect 42 0 44 0;
#X connect 42 1 45 0;
#X connect 43 0 46 0;
#X connect 43 1 47 0;
#X connect 48 0 49 0;
#X connect 49 0 52 0;
#X connect 50 0 51 0;
#X connect 51 0 56 0;
#X connect 52 0 59 0;
#X connect 53 0 3 0;
#X connect 54 0 53 0;
#X connect 55 0 54 0;
#X connect 56 0 55 0;
#X connect 57 0 20 0;
#X connect 58 0 57 0;
#X connect 59 0 58 0;
#X restore 406 364 pd saw;
#N canvas 0 50 450 300 (subpatch) 0;
#X array osc1 100 float 1;
#A 0 -0.753518 -0.753518 -0.753518 -0.753518 -0.753518 -0.753518 -0.753518
-0.753518 -0.753518 -0.753518 -0.753518 -0.753518 -0.753518 -0.753518
-0.753518 -0.753518 -0.753518 -0.753518 -0.753518 -0.753518 -0.753518
-0.753518 -0.753518 -0.753518 -0.753518 -0.753518 -0.753518 -0.753518
-0.753518 -0.753518 -0.753518 -0.753518 -0.753518 -0.753518 -0.753518
-0.753518 -0.753518 -0.753518 -0.753518 -0.753518 -0.753518 -0.753518
-0.753518 -0.753518 -0.753518 -0.753518 -0.753518 -0.753518 -0.753518
-0.753518 -0.753518 -0.753518 -0.753518 -0.753518 -0.753518 -0.753518
-0.753518 -0.753518 -0.753518 -0.753518 -0.753518 -0.753518 -0.753518
-0.753518 -0.753518 -0.753518 -0.753518 -0.753518 -0.753518 -0.753518
-0.753518 -0.753518 -0.753518 -0.753518 -0.753518 -0.753518 -0.753518
-0.753518 -0.753518 -0.753518 -0.753518 -0.753518 -0.753518 -0.753518
-0.753518 -0.753518 -0.753518 -0.753518 -0.753518 -0.753518 -0.753518
-0.753518 -0.753518 -0.753518 -0.753518 -0.753518 -0.753518 -0.753518
-0.753518 -0.753518;
#X coords 0 300 1 299 200 140 0;
#X restore 918 636 graph;
#X obj 107 278 hsl 128 15 0 1 0 0 empty empty Stereo_Phase -2 -8 0
10 -262144 -1 -1 7800 1;
#X floatatom 244 275 5 0 0 0 - - -, f 5;
#N canvas 0 50 450 300 (subpatch) 0;
#X array saw1 100 float 1;
#A 0 0 0 0 0 0 0 0 0 0 0 0 0 0 0 0 0 0 0 0 0 0 0 0 0 0 0 0 0 0 0 0
0 0 0 0 0 0 0 0 0 0 0 0 0 0 0 0 0 0 0 0 0 0 0 0 0 0 0 0 0 0 0 0 0 0
0 0 0 0 0 0 0 0 0 0 0 0 0 0 0 0 0 0 0 0 0 0 0 0 0 0 0 0 0 0 0 0 0 0
0;
#X coords 0 300 1 299 200 140 0;
#X restore 916 426 graph;
#X obj 224 187 hradio 15 1 0 4 \$0SawInv empty SawInvMode 0 -8 0 10
-262144 -1 -1 0;
#X msg 68 61 10;
#X obj 108 204 hsl 40 10 0 10 0 0 \$0-NoiseGain empty NoiseGain -2
-6 0 10 -262144 -1 -1 0 1;
#N canvas 2213 191 588 483 noise 0;
#X obj 160 150 *~;
#X floatatom 223 64 5 0 0 0 - - -, f 5;
#X obj 155 197 outlet~;
#X obj 206 16 r \$0-NoiseGain;
#X obj 114 113 noise~;
#X obj 318 21 inlet;
#X msg 354 -49 stereo phase;
#X obj 261 105 vd~ \$0NoiseDelay;
#X obj 229 154 *~;
#X obj 228 193 outlet~;
#X floatatom 366 54 5 0 0 0 - - -, f 5;
#X floatatom 382 83 5 0 0 0 - - -, f 5;
#X obj 278 81 sig~;
#X obj 115 235 delwrite~ \$0NoiseDelay 1000;
#X obj 304 57 * 50;
#X connect 0 0 2 0;
#X connect 3 0 0 1;
#X connect 3 0 1 0;
#X connect 3 0 8 1;
#X connect 4 0 0 0;
#X connect 4 0 13 0;
#X connect 5 0 10 0;
#X connect 5 0 14 0;
#X connect 7 0 8 0;
#X connect 8 0 9 0;
#X connect 12 0 7 0;
#X connect 14 0 11 0;
#X connect 14 0 12 0;
#X restore 482 368 pd noise;
#X floatatom 448 551 5 0 0 0 - - -, f 5;
#X obj 298 665 *~;
#X obj 337 664 *~;
#X obj 108 301 hsl 128 15 0 1 0 0 empty empty MasterGain 5 6 0 10 -260097
-1 -1 1700 1;
#X msg 14 305 0 \, 5;
#X obj 364 409 *~;
#X obj 396 412 *~;
#X obj 109 320 hsl 128 15 0.05 5 1 0 empty empty ModGain 5 6 0 10 -4032
-1 -1 4600 1;
#X obj 158 11 loadbang;
#X connect 0 0 3 0;
#X connect 1 0 0 0;
#X connect 1 0 4 0;
#X connect 3 0 17 0;
#X connect 4 0 76 0;
#X connect 5 0 8 0;
#X connect 6 0 7 0;
#X connect 6 1 5 1;
#X connect 7 0 5 0;
#X connect 8 0 4 1;
#X connect 8 0 13 1;
#X connect 11 0 13 0;
#X connect 11 0 16 0;
#X connect 13 0 77 0;
#X connect 14 0 18 0;
#X connect 16 0 14 0;
#X connect 17 0 76 0;
#X connect 18 0 77 0;
#X connect 19 0 25 0;
#X connect 20 0 24 0;
#X connect 20 0 71 0;
#X connect 21 0 18 1;
#X connect 21 0 17 1;
#X connect 21 0 75 0;
#X connect 22 0 6 0;
#X connect 23 0 14 1;
#X connect 23 0 3 1;
#X connect 39 0 40 1;
#X connect 40 0 41 0;
#X connect 40 0 48 0;
#X connect 41 0 60 0;
#X connect 41 0 64 0;
#X connect 42 0 44 0;
#X connect 43 0 40 0;
#X connect 44 0 43 0;
#X connect 44 1 43 1;
#X connect 48 0 46 0;
#X connect 48 1 47 0;
#X connect 49 0 51 0;
#X connect 50 0 49 0;
#X connect 52 0 49 0;
#X connect 53 0 43 0;
#X connect 54 0 55 0;
#X connect 55 0 40 1;
#X connect 63 0 80 0;
#X connect 63 1 81 0;
#X connect 65 0 66 0;
#X connect 65 0 63 0;
#X connect 66 0 80 0;
#X connect 66 1 81 0;
#X connect 68 0 69 0;
#X connect 68 0 63 1;
#X connect 68 0 66 1;
#X connect 68 0 74 0;
#X connect 72 0 28 0;
#X connect 74 0 80 0;
#X connect 74 1 81 0;
#X connect 76 0 2 0;
#X connect 77 0 12 0;
#X connect 78 0 77 1;
#X connect 78 0 76 1;
#X connect 79 0 78 0;
#X connect 80 0 0 1;
#X connect 81 0 16 1;
#X connect 82 0 80 1;
#X connect 82 0 81 1;
#X connect 83 0 20 0;
#X connect 83 0 19 0;
#X connect 83 0 72 0;
#X connect 83 0 79 0;
#X coords 0 -1 1 1 200 240 2 100 100;
