#N canvas 1 137 979 546 10;
#X obj 310 78 Snapshot~;
#X floatatom 109 109 5 0 0 1 Cur #0Cur -, f 5;
#X obj 342 44 r MetroGlobal;
#X obj 287 25 inlet~;
#X floatatom 109 130 5 0 0 1 Min #0Min -, f 5;
#X floatatom 109 152 5 0 0 1 Max #0Max -, f 5;
#X obj 230 188 max;
#X obj 311 105 s \$0Cur;
#X obj 230 160 r \$0Cur;
#X obj 279 237 f;
#X obj 271 210 t b f;
#X obj 195 238 s \$0Max;
#X obj 388 168 r \$0Cur;
#X obj 437 245 f;
#X obj 429 218 t b f;
#X obj 353 246 s \$0Min;
#X obj 388 196 min;
#X msg 531 106 0;
#X obj 531 136 s \$0Reset;
#X obj 470 186 r \$0Reset;
#X obj 163 125 bng 15 250 50 0 \$0CLRBang empty CLR 0 20 0 10 -262144
-1 -1;
#X obj 531 79 r \$0CLRBang;
#X obj 297 183 r \$0Reset;
#X msg 436 31 Assumes a global signal MetroGlobal;
#X connect 0 0 7 0;
#X connect 2 0 0 0;
#X connect 3 0 0 0;
#X connect 6 0 10 0;
#X connect 6 0 11 0;
#X connect 8 0 6 0;
#X connect 9 0 6 1;
#X connect 10 0 9 0;
#X connect 10 1 9 1;
#X connect 12 0 16 0;
#X connect 13 0 16 1;
#X connect 14 0 13 0;
#X connect 14 1 13 1;
#X connect 16 0 14 0;
#X connect 16 0 15 0;
#X connect 17 0 18 0;
#X connect 19 0 14 0;
#X connect 21 0 17 0;
#X connect 22 0 10 0;
#X coords 0 -1 1 1 85 80 1 100 100;
