#N canvas 2035 236 903 607 10;
#X obj 6 28 vsl 15 128 3 300 1 0 empty empty A 0 -9 0 10 -261234 -1
-1 1800 1;
#X obj 44 28 vsl 15 128 0 1 0 0 empty empty S 0 -9 0 10 -262130 -1
-1 0 1;
#X obj 25 28 vsl 15 128 5 1500 1 0 empty empty D 0 -9 0 10 -203904
-1 -1 12400 1;
#X obj 63 28 vsl 15 128 0 1000 0 0 empty empty R 0 -9 0 10 -204786
-1 -1 0 1;
#X obj -7 387 vline~;
#X msg 95 335 0 \$2;
#X obj -5 308 pack f f f f;
#X floatatom 7 166 5 0 0 0 - - -;
#X floatatom 24 181 5 0 0 0 - - -;
#X floatatom 63 181 5 0 0 0 - - -;
#X obj 116 280 pack f f;
#X obj 138 -50 inlet;
#X msg 138 -82 Note On;
#X msg 192 -83 Note Off;
#X obj 195 -56 inlet;
#X obj -72 -53 inlet;
#X obj -32 -51 inlet;
#X obj 5 -51 inlet;
#X obj 46 -50 inlet;
#X msg -66 -82 A;
#X msg -29 -81 D;
#X msg 8 -80 S;
#X msg 43 -78 R;
#X msg -3 331 1 \$2 \, \$4 \$3 \$2;
#X obj -54 511 outlet~;
#X obj 140 -17 bng 15 250 50 0 empty empty empty 17 7 0 10 -262144
-1 -1;
#X obj 211 -17 bng 15 250 50 0 empty empty empty 17 7 0 10 -262144
-1 -1;
#X floatatom 44 163 5 0 0 0 - - -;
#X obj -23 437 *~;
#X obj -10 460 -~ 24;
#X obj 64 478 snapshot~;
#X floatatom 84 165 5 0 0 0 - - -;
#X obj 79 434 r MetroGlobal;
#X obj 82 28 vsl 15 128 0 127 0 0 empty empty G 0 -9 0 15 -258049 -1
-1 1900 1;
#X obj 100 33 vsl 15 120 50 -50 0 0 empty empty Ofst 0 -9 0 10 -257985
-1 -1 1650 1;
#X obj 89 504 outlet;
#X obj 471 10 MetroGlobal;
#X obj 101 3 bng 15 250 50 0 empty empty Zero -25 2 0 10 -159808 -1
-1;
#X msg 139 36 0;
#X obj 298 29 initbang;
#X obj 307 5 loadbang;
#X connect 0 0 7 0;
#X connect 1 0 6 3;
#X connect 1 0 27 0;
#X connect 2 0 8 0;
#X connect 3 0 9 0;
#X connect 4 0 28 0;
#X connect 5 0 4 0;
#X connect 6 0 23 0;
#X connect 7 0 6 1;
#X connect 8 0 6 2;
#X connect 9 0 10 1;
#X connect 10 0 5 0;
#X connect 11 0 25 0;
#X connect 14 0 26 0;
#X connect 15 0 0 0;
#X connect 16 0 2 0;
#X connect 17 0 1 0;
#X connect 18 0 3 0;
#X connect 23 0 4 0;
#X connect 25 0 6 0;
#X connect 26 0 10 0;
#X connect 28 0 29 0;
#X connect 29 0 30 0;
#X connect 29 0 24 0;
#X connect 30 0 31 0;
#X connect 30 0 35 0;
#X connect 32 0 30 0;
#X connect 33 0 28 1;
#X connect 34 0 29 1;
#X connect 37 0 38 0;
#X connect 38 0 34 0;
#X connect 39 0 38 0;
#X connect 40 0 38 0;
#X coords 0 1 1 40 120 200 1 0 0;
