#N canvas 117 109 1072 708 10;
#N canvas 0 50 1920 1040 3filter 0;
#X obj 56 95 inlet~;
#X obj 162 96 inlet;
#X obj 219 94 inlet;
#X obj 272 94 inlet;
#X obj 345 96 inlet;
#X obj 154 230 vcf~;
#X obj 201 232 vcf~;
#X obj 264 232 vcf~;
#X obj 162 282 vcf~;
#X obj 209 284 vcf~;
#X obj 272 284 vcf~;
#X obj 225 335 *~ 2;
#X obj 226 371 outlet~;
#X connect 0 0 5 0;
#X connect 0 0 6 0;
#X connect 0 0 7 0;
#X connect 1 0 5 1;
#X connect 1 0 8 1;
#X connect 2 0 6 1;
#X connect 2 0 9 1;
#X connect 3 0 7 1;
#X connect 3 0 10 1;
#X connect 4 0 5 2;
#X connect 4 0 7 2;
#X connect 4 0 6 2;
#X connect 4 0 8 2;
#X connect 4 0 9 2;
#X connect 4 0 10 2;
#X connect 5 0 8 0;
#X connect 6 0 9 0;
#X connect 7 0 10 0;
#X connect 8 0 11 0;
#X connect 9 0 11 0;
#X connect 10 0 11 0;
#X connect 11 0 12 0;
#X restore -158 248 pd 3filter;
#X obj 107 230 nbx 2 14 1 16 0 1 \$0Q empty Q 0 -8 0 10 -262144 -1
-1 8 256;
#X obj -401 -277 inlet~;
#X obj -161 488 outlet~;
#X obj 119 141 hsl 80 15 50 4000 0 1 \$0YellowFreq \$0YellowFreqIn
empty -2 -8 0 10 -257985 -1 -1 0 1;
#X obj 116 200 hsl 80 15 50 4000 0 1 \$0PinkFreq \$0PinkFreqIn empty
-2 -8 0 10 -261234 -1 -1 0 1;
#X obj 119 170 hsl 80 15 50 4000 0 1 \$0GreenFreq \$0GreenFreqIn empty
-2 -8 0 10 -4034 -1 -1 0 1;
#X floatatom 232 32 5 0 0 0 - - -, f 5;
#X floatatom 206 197 5 0 0 0 - - -, f 5;
#X floatatom 205 165 5 0 0 0 - - -, f 5;
#X obj -342 -277 inlet;
#X obj -300 -278 inlet;
#X floatatom 192 230 5 0 0 2 RampSpd #0Rate -, f 5;
#X obj -237 -280 inlet;
#X obj -420 -301 comment 0 10 helvetica ? 0 0 0 0 audio source;
#X obj -344 -293 comment 0 10 helvetica ? 0 0 0 0 (x \, y \, z);
#X obj -303 -296 comment 0 10 helvetica ? 0 0 0 0 ramp speed;
#X obj -244 -294 comment 0 10 helvetica ? 0 0 0 0 mod-in (LFO);
#X msg -215 -235 0;
#X obj -213 -257 init;
#X obj -153 372 WetDry~;
#X obj -114 293 *~;
#X msg -32 204 2;
#X obj 110 248 hsl 60 15 0 1 0 0 empty empty Dry_Wet 0 7 0 10 -262144
-1 -1 3540 1;
#X obj -32 180 init;
#X obj 324 95 osc~;
#X obj 323 115 *~;
#X obj 121 131 hsl 60 8 0.0001 0.1 1 0 empty empty empty -2 -8 0 10
-257985 -1 -1 0 1;
#X floatatom 224 54 5 0 0 0 - - -, f 5;
#X obj 425 93 osc~;
#X obj 425 114 *~;
#X obj 121 161 hsl 60 8 0.0001 0.1 1 0 empty empty empty -2 -8 0 10
-4034 -1 -1 0 1;
#X floatatom 278 81 5 0 0 0 - - -, f 5;
#X obj 524 94 osc~;
#X obj 524 116 *~;
#X obj 117 191 hsl 60 8 0.0001 0.1 1 0 empty empty empty -2 -8 0 10
-261234 -1 -1 0 1;
#X floatatom 206 180 5 0 0 0 - - -, f 5;
#X obj -159 163 noise~;
#X obj 121 119 hsl 80 8 0.01 1 1 0 empty empty empty -2 -8 0 10 -1
-262144 -1 0 1;
#X obj -159 214 *~;
#X obj -162 -288 comment 0 10 helvetica ? 0 0 0 0 NoiseAmt;
#X msg 106 65 0;
#X obj -113 326 *~;
#X obj -38 249 hsl 60 15 0 1 0 0 empty empty Q_compensation -2 -8 0
10 -262144 -1 -1 4703 1;
#X floatatom -38 274 5 0 0 0 - - -, f 5;
#X obj 88 315 log;
#X floatatom 105 334 5 0 0 0 - - -, f 5;
#X floatatom 106 382 5 0 0 0 - - -, f 5;
#X obj 88 407 + 0.08;
#X floatatom 106 429 5 0 0 0 - - -, f 5;
#X obj 88 358 / 2.9;
#X obj 154 427 comment 0 10 helvetica ? 0 0 0 0 This is to compensate
the apparent decrease in overall amplitude with a high Q vs. low Q.
;
#X obj 59 -228 unpack f f f f f f;
#X floatatom 360 -166 5 0 0 0 - - -, f 5;
#X floatatom 397 -167 5 0 0 0 - - -, f 5;
#X floatatom 437 -168 5 0 0 0 - - -, f 5;
#X msg -390 -352 inlets 1: Sound in 2: Filter Frequencies (3-tuple
list) 3: Formant Rate Change 4: Filter bend amount / LFO 5: Noise level
;
#X obj -127 459 *~;
#X obj 185 250 hsl 40 15 0 5 0 0 empty empty WetComp 0 6 0 10 -262144
-1 -1 1014 1;
#X floatatom 219 278 5 0 0 0 - - -, f 5;
#X obj 9 358 * 4;
#X obj -12 394 + 1;
#X obj -400 -250 s~ \$0audio;
#X obj -189 339 r~ \$0audio;
#X obj -325 208 r~ \$0audio;
#X obj -341 -230 s \$0Freqs;
#X obj 58 -254 r \$0Freqs;
#X obj -301 -252 s \$0Rate;
#X obj 324 137 s~ \$0ResOsc1;
#X obj 424 138 s~ \$0ResOsc2;
#X obj 524 138 s~ \$0ResOsc3;
#X obj -331 127 r~ \$0ResOsc1;
#X obj -316 150 r~ \$0ResOsc2;
#X obj -298 169 r~ \$0ResOsc3;
#X obj -237 -209 s \$0ModIn;
#X obj 42 333 t b f;
#X msg 308 228 1.3;
#X msg 439 380 0.6;
#X msg 419 229 8;
#X obj 438 350 loadbang;
#X obj 353 196 loadbang;
#X obj -158 -274 inlet~;
#X obj -153 -246 s~ \$0NoiseAmt;
#X obj -141 184 r~ \$0NoiseAmt;
#N canvas 211 180 938 503 filter 0;
#X obj 213 136 line 3000;
#X obj 213 112 pack f f;
#X floatatom 213 92 5 0 0 0 - - -, f 5;
#X floatatom 213 163 5 0 0 0 - - -, f 5;
#X obj 212 188 t b f;
#X floatatom 212 244 5 0 0 0 - - -, f 5;
#X obj 126 168 r \$0ModIn;
#X obj 262 92 r \$0Rate;
#X obj 213 70 inlet;
#X obj 126 189 pow 1.05946;
#X msg 204 44 Frequency;
#X msg 328 94 Rate of Change;
#X obj 212 222 *;
#X obj 212 263 outlet;
#X connect 0 0 3 0;
#X connect 1 0 0 0;
#X connect 2 0 1 0;
#X connect 3 0 4 0;
#X connect 4 0 12 0;
#X connect 4 1 12 1;
#X connect 5 0 13 0;
#X connect 6 0 9 0;
#X connect 7 0 1 1;
#X connect 8 0 2 0;
#X connect 9 0 12 0;
#X connect 12 0 5 0;
#X restore -160 -170 pd filter bend logic;
#X obj -160 -148 s \$0YellowFreqIn;
#N canvas 211 180 938 503 filter 0;
#X obj 213 136 line 3000;
#X obj 213 112 pack f f;
#X floatatom 213 92 5 0 0 0 - - -, f 5;
#X floatatom 213 163 5 0 0 0 - - -, f 5;
#X obj 212 188 t b f;
#X floatatom 212 244 5 0 0 0 - - -, f 5;
#X obj 126 168 r \$0ModIn;
#X obj 262 92 r \$0Rate;
#X obj 213 70 inlet;
#X obj 126 189 pow 1.05946;
#X msg 204 44 Frequency;
#X msg 328 94 Rate of Change;
#X obj 212 222 *;
#X obj 212 263 outlet;
#X connect 0 0 3 0;
#X connect 1 0 0 0;
#X connect 2 0 1 0;
#X connect 3 0 4 0;
#X connect 4 0 12 0;
#X connect 4 1 12 1;
#X connect 5 0 13 0;
#X connect 6 0 9 0;
#X connect 7 0 1 1;
#X connect 8 0 2 0;
#X connect 9 0 12 0;
#X connect 12 0 5 0;
#X restore -12 -170 pd filter bend logic;
#N canvas 211 180 938 503 filter 0;
#X obj 213 136 line 3000;
#X obj 213 112 pack f f;
#X floatatom 213 92 5 0 0 0 - - -, f 5;
#X floatatom 213 163 5 0 0 0 - - -, f 5;
#X obj 212 188 t b f;
#X floatatom 212 244 5 0 0 0 - - -, f 5;
#X obj 126 168 r \$0ModIn;
#X obj 262 92 r \$0Rate;
#X obj 213 70 inlet;
#X obj 126 189 pow 1.05946;
#X msg 204 44 Frequency;
#X msg 328 94 Rate of Change;
#X obj 212 222 *;
#X obj 212 263 outlet;
#X connect 0 0 3 0;
#X connect 1 0 0 0;
#X connect 2 0 1 0;
#X connect 3 0 4 0;
#X connect 4 0 12 0;
#X connect 4 1 12 1;
#X connect 5 0 13 0;
#X connect 6 0 9 0;
#X connect 7 0 1 1;
#X connect 8 0 2 0;
#X connect 9 0 12 0;
#X connect 12 0 5 0;
#X restore 139 -170 pd filter bend logic;
#X obj -13 -148 s \$0GreenFreqIn;
#X obj 139 -148 s \$0PinkFreqIn;
#X obj -142 86 r \$0YellowFreq;
#X obj -125 108 r \$0GreenFreq;
#X obj -109 128 r \$0PinkFreq;
#X obj -91 216 r \$0Q;
#X obj 413 -22 r \$0YellowFreq;
#X obj 430 0 r \$0GreenFreq;
#X obj 446 20 r \$0PinkFreq;
#X connect 0 0 21 0;
#X connect 1 0 45 0;
#X connect 2 0 62 0;
#X connect 4 0 7 0;
#X connect 5 0 8 0;
#X connect 6 0 9 0;
#X connect 10 0 65 0;
#X connect 11 0 67 0;
#X connect 13 0 74 0;
#X connect 18 0 74 0;
#X connect 19 0 18 0;
#X connect 20 0 57 0;
#X connect 20 1 57 0;
#X connect 21 0 42 0;
#X connect 22 0 21 1;
#X connect 23 0 20 4;
#X connect 23 0 60 0;
#X connect 24 0 22 0;
#X connect 24 0 41 0;
#X connect 25 0 26 0;
#X connect 26 0 68 0;
#X connect 27 0 26 1;
#X connect 27 0 28 0;
#X connect 29 0 30 0;
#X connect 30 0 69 0;
#X connect 31 0 30 1;
#X connect 31 0 32 0;
#X connect 33 0 34 0;
#X connect 34 0 70 0;
#X connect 35 0 34 1;
#X connect 35 0 36 0;
#X connect 37 0 39 0;
#X connect 39 0 0 0;
#X connect 41 0 38 0;
#X connect 42 0 20 2;
#X connect 43 0 42 1;
#X connect 43 0 44 0;
#X connect 45 0 46 0;
#X connect 45 0 50 0;
#X connect 48 0 49 0;
#X connect 48 0 43 0;
#X connect 50 0 47 0;
#X connect 50 0 48 0;
#X connect 52 0 84 0;
#X connect 52 1 86 0;
#X connect 52 2 87 0;
#X connect 52 3 53 0;
#X connect 52 4 54 0;
#X connect 52 5 55 0;
#X connect 53 0 27 0;
#X connect 54 0 31 0;
#X connect 55 0 35 0;
#X connect 57 0 3 0;
#X connect 58 0 59 0;
#X connect 58 0 75 0;
#X connect 60 0 61 0;
#X connect 61 0 57 1;
#X connect 63 0 20 0;
#X connect 64 0 0 0;
#X connect 66 0 52 0;
#X connect 71 0 0 0;
#X connect 72 0 0 0;
#X connect 73 0 0 0;
#X connect 75 0 60 0;
#X connect 75 1 60 1;
#X connect 76 0 58 0;
#X connect 77 0 23 0;
#X connect 78 0 1 0;
#X connect 79 0 77 0;
#X connect 80 0 76 0;
#X connect 80 0 78 0;
#X connect 81 0 82 0;
#X connect 83 0 39 1;
#X connect 84 0 85 0;
#X connect 86 0 88 0;
#X connect 87 0 89 0;
#X connect 90 0 0 1;
#X connect 91 0 0 2;
#X connect 92 0 0 3;
#X connect 93 0 0 4;
#X connect 94 0 25 0;
#X connect 95 0 29 0;
#X connect 96 0 33 0;
#X coords 0 -1 1 1 140 170 1 100 100;
