#N canvas 136 8 1072 896 10;
#N canvas 0 0 1920 1040 3filter 0;
#X obj 56 95 inlet~;
#X obj 162 96 inlet;
#X obj 219 94 inlet;
#X obj 272 94 inlet;
#X obj 345 96 inlet;
#X obj 154 230 vcf~;
#X obj 201 232 vcf~;
#X obj 264 232 vcf~;
#X obj 162 282 vcf~;
#X obj 209 284 vcf~;
#X obj 272 284 vcf~;
#X obj 225 335 *~ 2;
#X obj 226 371 outlet~;
#X connect 0 0 5 0;
#X connect 0 0 6 0;
#X connect 0 0 7 0;
#X connect 1 0 5 1;
#X connect 1 0 8 1;
#X connect 2 0 6 1;
#X connect 2 0 9 1;
#X connect 3 0 7 1;
#X connect 3 0 10 1;
#X connect 4 0 5 2;
#X connect 4 0 7 2;
#X connect 4 0 6 2;
#X connect 4 0 8 2;
#X connect 4 0 9 2;
#X connect 4 0 10 2;
#X connect 5 0 8 0;
#X connect 6 0 9 0;
#X connect 7 0 10 0;
#X connect 8 0 11 0;
#X connect 9 0 11 0;
#X connect 10 0 11 0;
#X connect 11 0 12 0;
#X restore -158 248 pd 3filter;
#X obj 111 229 nbx 2 14 1 16 0 1 empty empty Q 0 -8 0 10 -262144 -1
-1 8 256;
#X obj -401 -277 inlet~;
#X obj -161 488 outlet~;
#X obj 118 131 hsl 80 15 50 4000 0 1 empty empty empty -2 -8 0 10 -257985
-1 -1 670 1;
#X obj 116 200 hsl 80 15 50 4000 0 1 empty empty empty -2 -8 0 10 -261234
-1 -1 800 1;
#X obj 116 164 hsl 80 15 50 4000 0 1 empty empty empty -2 -8 0 10 -4034
-1 -1 2382 1;
#X floatatom 205 130 5 0 0 0 - - -;
#X floatatom 206 197 5 0 0 0 - - -;
#X floatatom 205 165 5 0 0 0 - - -;
#X obj -230 -81 line 3000;
#X obj -35 -78 line 3000;
#X obj 174 -87 line 3000;
#X obj -228 -107 pack f f;
#X obj -35 -109 pack f f;
#X obj 175 -115 pack f f;
#X obj -342 -277 inlet;
#X obj -300 -278 inlet;
#X floatatom 192 230 5 0 0 2 RampSpd #0Rate -;
#X floatatom -228 -129 5 0 0 0 - - -;
#X floatatom -33 -132 5 0 0 0 - - -;
#X floatatom 175 -140 5 0 0 0 - - -;
#X floatatom 175 -61 5 0 0 0 - - -;
#X floatatom -34 -57 5 0 0 0 - - -;
#X floatatom -230 -54 5 0 0 0 - - -;
#X obj -230 -1 expr $f2 * pow (1.059462 \, $f1);
#X obj -33 -2 expr $f2 * pow (1.059462 \, $f1);
#X obj 175 -4 expr $f2 * pow (1.059462 \, $f1);
#X obj -237 -280 inlet;
#X obj -231 -31 t b f;
#X obj -33 -33 t b f;
#X obj 174 -32 t b f;
#X obj -420 -301 comment 0 10 helvetica ? 0 0 0 0 audio source;
#X obj -350 -301 comment 0 10 helvetica ? 0 0 0 0 (x \, y \, z);
#X obj -308 -299 comment 0 10 helvetica ? 0 0 0 0 ramp speed;
#X obj -244 -294 comment 0 10 helvetica ? 0 0 0 0 mod-in (LFO);
#X floatatom -62 76 5 0 0 0 - - -;
#X msg -215 -235 0;
#X obj -213 -257 init;
#X obj -153 372 WetDry~;
#X obj -114 293 *~;
#X msg -32 204 2;
#X obj 110 248 hsl 60 15 0 1 0 0 empty empty Dry_Wet 0 7 0 10 -262144
-1 -1 4000 1;
#X obj -31 117 init;
#X obj 523 -76 osc~;
#X obj 524 -45 *~;
#X obj 117 115 hsl 60 8 0.0001 0.1 1 0 empty empty empty -2 -8 0 10
-257985 -1 -1 0 1;
#X floatatom 224 54 5 0 0 0 - - -;
#X obj 567 -90 osc~;
#X obj 571 -67 *~;
#X obj 116 151 hsl 60 8 0.0001 0.1 1 0 empty empty empty -2 -8 0 10
-4034 -1 -1 0 1;
#X floatatom 348 57 5 0 0 0 - - -;
#X obj 608 -110 osc~;
#X obj 610 -81 *~;
#X obj 116 186 hsl 60 8 0.0001 0.1 1 0 empty empty empty -2 -8 0 10
-261234 -1 -1 0 1;
#X floatatom 206 180 5 0 0 0 - - -;
#X obj -172 121 noise~;
#X obj 117 102 hsl 80 8 0.01 1 1 0 empty empty empty -2 -8 0 10 -1
-262144 -1 2700 1;
#X obj -112 171 *~;
#X obj 438 349 initbang;
#X obj -158 -273 inlet;
#X obj -180 -288 comment 0 10 helvetica ? 0 0 0 0 NoiseAmt;
#X msg 106 65 0;
#X floatatom -76 112 5 0 0 0 - - -;
#X obj -113 326 *~;
#X obj -38 249 hsl 60 15 0 1 0 0 empty empty Q_compensation -2 -8 0
10 -262144 -1 -1 4703 1;
#X floatatom -38 274 5 0 0 0 - - -;
#X obj 88 315 log;
#X floatatom 105 334 5 0 0 0 - - -;
#X floatatom 106 382 5 0 0 0 - - -;
#X obj 88 407 + 0.08;
#X floatatom 106 429 5 0 0 0 - - -;
#X obj 88 358 / 2.9;
#X obj 145 374 comment 0 10 helvetica ? 0 0 0 0 This is to compensate
the apparent decrease in overall amplitude with a high Q vs. low Q.
;
#X obj 59 -228 unpack f f f f f f;
#X floatatom 360 -166 5 0 0 0 - - -;
#X floatatom 397 -167 5 0 0 0 - - -;
#X floatatom 437 -168 5 0 0 0 - - -;
#X msg -390 -352 inlets 1: Sound in 2: Filter Frequencies (3-tuple
list) 3: Formant Rate Change 4: Filter bend amount / LFO 5: Noise level
;
#X obj -127 459 *~;
#X obj 185 250 hsl 40 15 0 5 0 0 empty empty WetComp 0 6 0 10 -262144
-1 -1 1014 1;
#X floatatom 219 278 5 0 0 0 - - -;
#X obj 9 358 * 4;
#X obj -12 394 + 1;
#X obj 353 198 initbang;
#X obj -400 -250 s~ \$0audio;
#X obj -189 339 r~ \$0audio;
#X obj -323 201 r~ \$0audio;
#X obj -341 -230 s \$0Freqs;
#X obj 58 -254 r \$0Freqs;
#X obj -301 -252 s \$0Rate;
#X obj -153 -246 s \$0NoiseAmt;
#X obj 13 65 r \$0NoiseAmt;
#X obj 523 -10 s~ \$0ResOsc1;
#X obj 570 -36 s~ \$0ResOsc2;
#X obj 610 -56 s~ \$0ResOsc3;
#X obj -331 127 r~ \$0ResOsc1;
#X obj -316 150 r~ \$0ResOsc2;
#X obj -298 169 r~ \$0ResOsc3;
#X obj -237 -209 s \$0ModIn;
#X obj -303 -23 r \$0ModIn;
#X obj -188 -130 r \$0Rate;
#X obj -105 -41 r \$0ModIn;
#X obj 100 -39 r \$0ModIn;
#X obj 10 -134 r \$0Rate;
#X obj 213 -142 r \$0Rate;
#X obj 42 333 t b f;
#X msg 308 228 1.3;
#X msg 439 380 0.6;
#X msg 419 229 8;
#X obj -83 138 - 0.01;
#X connect 0 0 40 0;
#X connect 1 0 0 4;
#X connect 1 0 67 0;
#X connect 2 0 85 0;
#X connect 4 0 7 0;
#X connect 4 0 0 1;
#X connect 5 0 0 2;
#X connect 5 0 8 0;
#X connect 6 0 0 3;
#X connect 6 0 9 0;
#X connect 10 0 24 0;
#X connect 11 0 23 0;
#X connect 12 0 22 0;
#X connect 13 0 10 0;
#X connect 14 0 11 0;
#X connect 15 0 12 0;
#X connect 16 0 88 0;
#X connect 17 0 90 0;
#X connect 19 0 13 0;
#X connect 20 0 14 0;
#X connect 21 0 15 0;
#X connect 22 0 31 0;
#X connect 23 0 30 0;
#X connect 24 0 29 0;
#X connect 25 0 4 0;
#X connect 25 0 36 0;
#X connect 25 0 44 0;
#X connect 26 0 6 0;
#X connect 26 0 48 0;
#X connect 27 0 5 0;
#X connect 27 0 52 0;
#X connect 28 0 99 0;
#X connect 29 0 25 0;
#X connect 29 1 25 1;
#X connect 30 0 26 0;
#X connect 30 1 26 1;
#X connect 31 0 27 0;
#X connect 31 1 27 1;
#X connect 37 0 99 0;
#X connect 38 0 37 0;
#X connect 39 0 79 0;
#X connect 39 1 79 0;
#X connect 40 0 64 0;
#X connect 41 0 40 1;
#X connect 42 0 39 4;
#X connect 42 0 82 0;
#X connect 43 0 41 0;
#X connect 43 0 62 0;
#X connect 44 0 45 0;
#X connect 45 0 93 0;
#X connect 46 0 45 1;
#X connect 46 0 47 0;
#X connect 48 0 49 0;
#X connect 49 0 94 0;
#X connect 50 0 49 1;
#X connect 50 0 51 0;
#X connect 52 0 53 0;
#X connect 53 0 95 0;
#X connect 54 0 53 1;
#X connect 54 0 55 0;
#X connect 56 0 58 0;
#X connect 57 0 63 0;
#X connect 58 0 0 0;
#X connect 59 0 108 0;
#X connect 60 0 91 0;
#X connect 62 0 57 0;
#X connect 63 0 110 0;
#X connect 64 0 39 2;
#X connect 65 0 64 1;
#X connect 65 0 66 0;
#X connect 67 0 68 0;
#X connect 67 0 72 0;
#X connect 70 0 71 0;
#X connect 70 0 65 0;
#X connect 72 0 69 0;
#X connect 72 0 70 0;
#X connect 74 0 19 0;
#X connect 74 1 20 0;
#X connect 74 2 21 0;
#X connect 74 3 75 0;
#X connect 74 4 76 0;
#X connect 74 5 77 0;
#X connect 75 0 46 0;
#X connect 76 0 50 0;
#X connect 77 0 54 0;
#X connect 79 0 3 0;
#X connect 80 0 81 0;
#X connect 80 0 106 0;
#X connect 82 0 83 0;
#X connect 83 0 79 1;
#X connect 84 0 107 0;
#X connect 84 0 109 0;
#X connect 86 0 39 0;
#X connect 87 0 0 0;
#X connect 89 0 74 0;
#X connect 92 0 57 0;
#X connect 96 0 0 0;
#X connect 97 0 0 0;
#X connect 98 0 0 0;
#X connect 100 0 25 0;
#X connect 101 0 13 1;
#X connect 102 0 26 0;
#X connect 103 0 27 0;
#X connect 104 0 14 1;
#X connect 105 0 15 1;
#X connect 106 0 82 0;
#X connect 106 1 82 1;
#X connect 107 0 80 0;
#X connect 108 0 42 0;
#X connect 109 0 1 0;
#X connect 110 0 58 1;
#X coords 0 -1 1 1 140 170 1 100 100;
