#N canvas -4 -4 1920 1040 10;
#X obj 120 74 env~;
#X obj 161 75 pvu~;
#X floatatom 109 117 5 0 0 0 - - -;
#X floatatom 146 117 5 0 0 0 - - -;
#X obj 220 18 inlet~;
#X obj 44 300 max;
#X obj 93 349 f;
#X obj 85 322 t b f;
#X obj 251 357 f;
#X obj 243 330 t b f;
#X obj 202 308 min;
#X msg 528 68 0;
#X obj 181 118 bng 15 250 50 0 empty empty empty 17 7 0 10 -262144
-1 -1;
#X floatatom 111 141 5 0 0 0 - - -;
#X floatatom 110 166 5 0 0 0 - - -;
#X obj 514 252 max;
#X obj 563 301 f;
#X obj 555 274 t b f;
#X obj 721 309 f;
#X obj 713 282 t b f;
#X obj 672 260 min;
#X floatatom 147 140 5 0 0 0 - - -;
#X floatatom 150 164 5 0 0 0 - - -;
#X connect 0 0 2 0;
#X connect 1 0 3 0;
#X connect 2 0 5 0;
#X connect 2 0 10 0;
#X connect 3 0 15 0;
#X connect 3 0 20 0;
#X connect 4 0 1 0;
#X connect 4 0 0 0;
#X connect 5 0 7 0;
#X connect 5 0 13 0;
#X connect 6 0 5 1;
#X connect 7 0 6 0;
#X connect 7 1 6 1;
#X connect 8 0 10 1;
#X connect 9 0 8 0;
#X connect 9 1 8 1;
#X connect 10 0 9 0;
#X connect 10 0 14 0;
#X connect 11 0 9 0;
#X connect 11 0 7 0;
#X connect 11 0 17 0;
#X connect 11 0 19 0;
#X connect 12 0 11 0;
#X connect 15 0 17 0;
#X connect 15 0 21 0;
#X connect 16 0 15 1;
#X connect 17 0 16 0;
#X connect 17 1 16 1;
#X connect 18 0 20 1;
#X connect 19 0 18 0;
#X connect 19 1 18 1;
#X connect 20 0 19 0;
#X connect 20 0 22 0;
#X coords 0 -1 1 1 100 90 1 100 100;
