#N canvas 0 0 876 782 10;
#X obj 86 4 pvu~;
#X obj 109 108 vu 15 120 empty empty -1 -8 0 10 -66577 -1 1 0;
#X obj 137 5 pvu~;
#X obj 128 108 vu 15 120 empty empty -1 -8 0 10 -66577 -1 1 0;
#X obj 85 -27 inlet~;
#X obj 132 -28 inlet~;
#X connect 0 0 1 0;
#X connect 2 0 3 0;
#X connect 4 0 0 0;
#X connect 5 0 2 0;
#X coords 0 -1 1 1 70 135 1 100 100;
