#N canvas 2392 508 450 300 10;
#X obj -174 85 inlet~;
#X obj -124 81 inlet~;
#X obj -68 81 inlet~;
#X obj -21 80 inlet~;
#X obj 38 81 inlet;
#X obj -146 224 outlet~;
#X obj -92 224 outlet~;
#X obj 109 115 hsl 60 15 0 1 0 0 empty empty Dry__Wet -2 -8 0 10 -262144
-1 -1 0 1;
#X obj -88 169 *~;
#X obj -50 173 *~;
#X obj -179 165 *~;
#X obj -141 169 *~;
#X floatatom 106 139 5 0 0 1 Wet - -;
#X obj 86 230 -;
#X obj 81 182 t b f;
#X msg 54 207 1;
#X floatatom 88 259 5 0 0 0 - - -;
#X connect 0 0 10 0;
#X connect 1 0 11 0;
#X connect 2 0 8 0;
#X connect 3 0 9 0;
#X connect 4 0 7 0;
#X connect 7 0 12 0;
#X connect 8 0 5 0;
#X connect 9 0 6 0;
#X connect 10 0 5 0;
#X connect 11 0 6 0;
#X connect 12 0 14 0;
#X connect 12 0 9 1;
#X connect 12 0 8 1;
#X connect 13 0 16 0;
#X connect 14 0 15 0;
#X connect 14 1 13 1;
#X connect 15 0 13 0;
#X connect 16 0 11 1;
#X connect 16 0 10 1;
#X coords 0 -1 1 1 85 60 1 100 100;
