#N canvas 412 180 551 300 10;
#X msg 252 74 PANIC;
#X text 251 94 Make it QUIET;
#X obj 166 63 bng 15 250 50 0 empty empty empty 17 7 0 10 -4034 -1
-1;
#X obj 299 76 bng 15 250 50 0 \$0Panic empty empty 17 7 0 10 -258113
-1 -1;
#X msg 126 62 INIT;
#X msg 20 56 Bypass;
#X obj 71 58 tgl 15 0 empty empty B 5 7 0 10 -4160 -262144 -262144
0 1;
#X obj 30 207 inlet;
#X msg 19 183 OSC first;
#X obj 162 210 inlet~;
#X obj 108 209 inlet~;
#X msg 107 185 Audio Next;
#X msg 211 187 Signal Rate LFOs;
#X obj 237 210 inlet~;
#X msg 79 30 Standard Buttons Upper Right;
#X msg 351 204 other stuff?;
#X msg 160 154 Inlet Ordering;
#X text 120 78 Make a Sound or allow sound to pass;
#X text 6 78 (opt) a filter will have this \, osc \, no;
