#N canvas 111 39 1800 921 10;
#X obj 1203 1137 output~;
#X obj 1240 1090 hip~ 5;
#X obj 1133 1094 hip~ 5;
#X obj 466 657 StereoFormant~;
#X obj 567 465 FormantControl;
#X obj 1385 -41 MetroGlobal;
#X obj 114 307 AutoPhase3;
#X obj 319 -94 r notes;
#X obj 319 -70 unpack f f f;
#X floatatom 293 -47 5 0 0 0 - - -;
#X floatatom 341 -47 5 0 0 0 - - -;
#X floatatom 395 -47 5 0 0 0 - - -;
#X obj 74 -6 mtof;
#X obj 288 -11 mtof;
#X obj 488 -13 mtof;
#X obj 1504 -39 DVM~;
#X obj 971 553 KeyBender;
#N canvas 44 46 1582 687 phase 0;
#X obj 225 328 outlet~;
#X obj 302 327 outlet~;
#X obj 383 334 outlet~;
#X obj 294 159 osc~;
#X obj 345 158 osc~;
#X obj 386 159 osc~;
#X obj 345 181 +~ 1;
#X obj 394 181 +~ 1;
#X obj 107 113 hsl 40 15 0.01 50 1 0 empty empty speed -2 -8 0 10 -204786
-1 -1 1800 1;
#X obj 287 178 +~ 1;
#X obj 254 215 *~ 0.5;
#X obj 318 218 *~ 0.5;
#X obj 382 208 *~ 0.5;
#X obj 108 142 hsl 40 15 0 1 0 0 empty empty sep -2 -8 0 10 -13381
-262144 -45076 3900 1;
#X obj 287 63 * 0.3333;
#X obj 354 64 * 0.6666;
#X floatatom 253 98 5 0 0 0 - - -;
#X floatatom 366 99 5 0 0 0 - - -;
#X floatatom 302 100 5 0 0 0 - - -;
#X msg 252 65 0;
#X obj 107 170 hsl 40 15 0 0.5 0 0 empty empty amt -2 -8 0 10 -260097
-262144 -45076 2106 1;
#X obj 108 200 hsl 40 15 0 1 0 0 empty empty offset -2 -8 0 10 -4034
-4160 -45076 1209 1;
#X obj 247 264 +~;
#X obj 317 267 +~;
#X obj 390 260 +~;
#X obj 226 293 clip~ 0 1;
#X obj 304 299 clip~ 0 1;
#X obj 387 302 clip~ 0 1;
#X obj 228 130 sig~;
#X floatatom 16 228 5 0 0 0 - - -;
#X floatatom 17 253 5 0 0 0 - - -;
#X floatatom 15 276 5 0 0 0 - - -;
#X floatatom 13 298 5 0 0 0 - - -;
#X msg 26 11 0.51;
#X msg 27 66 0.27;
#X msg 27 97 0.31;
#X obj 14 -27 loadbang;
#X obj 83 -33 loadbang;
#X obj 155 112 bng 15 250 50 0 empty empty empty 17 7 0 10 -262144
-1 -1;
#X msg 24 39 1;
#X connect 3 0 9 0;
#X connect 4 0 6 0;
#X connect 5 0 7 0;
#X connect 6 0 11 0;
#X connect 7 0 12 0;
#X connect 8 0 28 0;
#X connect 8 0 29 0;
#X connect 9 0 10 0;
#X connect 10 0 22 0;
#X connect 11 0 23 0;
#X connect 12 0 24 0;
#X connect 13 0 14 0;
#X connect 13 0 15 0;
#X connect 13 0 19 0;
#X connect 13 0 30 0;
#X connect 14 0 18 0;
#X connect 14 0 4 1;
#X connect 15 0 17 0;
#X connect 15 0 5 1;
#X connect 19 0 16 0;
#X connect 19 0 3 1;
#X connect 20 0 10 1;
#X connect 20 0 11 1;
#X connect 20 0 12 1;
#X connect 20 0 31 0;
#X connect 21 0 22 1;
#X connect 21 0 23 1;
#X connect 21 0 24 1;
#X connect 21 0 32 0;
#X connect 22 0 25 0;
#X connect 23 0 26 0;
#X connect 24 0 27 0;
#X connect 25 0 0 0;
#X connect 26 0 1 0;
#X connect 27 0 2 0;
#X connect 28 0 3 0;
#X connect 28 0 4 0;
#X connect 28 0 5 0;
#X connect 33 0 8 0;
#X connect 34 0 20 0;
#X connect 35 0 21 0;
#X connect 36 0 38 0;
#X connect 37 0 38 0;
#X connect 38 0 33 0;
#X connect 38 0 39 0;
#X connect 38 0 34 0;
#X connect 38 0 35 0;
#X connect 39 0 13 0;
#X coords 0 -1 1 1 70 120 1 100 100;
#X restore 767 49 pd phase;
#X obj 147 478 ADSR2;
#X obj 751 204 s~ \$0Duty1;
#X obj 806 243 s~ \$0Duty3;
#X obj 777 223 s~ \$0Duty2;
#X obj 148 -6 r~ \$0Duty1;
#X obj 361 -7 r~ \$0Duty2;
#X obj 564 -34 r~ \$0Duty3;
#X obj 288 14 multi-osc~;
#N canvas 1131 501 450 300 InitADSR 0;
#X msg 94 198 0;
#X msg 142 198 300;
#X msg 188 195 0.7;
#X msg 237 190 700;
#X obj 102 47 loadbang;
#X obj 93 224 outlet;
#X obj 142 223 outlet;
#X obj 191 221 outlet;
#X obj 240 220 outlet;
#X obj 105 107 bng 15 250 50 0 empty empty empty 17 7 0 10 -262144
-1 -1;
#X connect 0 0 5 0;
#X connect 1 0 6 0;
#X connect 2 0 7 0;
#X connect 3 0 8 0;
#X connect 4 0 9 0;
#X connect 9 0 0 0;
#X connect 9 0 1 0;
#X connect 9 0 2 0;
#X connect 9 0 3 0;
#X coords 0 -1 1 1 30 30 1 100 100;
#X restore -14 444 pd InitADSR;
#X obj 490 11 multi-osc~;
#X obj 76 14 multi-osc~;
#N canvas 1341 211 545 787 LFO 0;
#X obj 38 153 osc~ 5;
#X obj 92 297 s~ \$0LFO;
#X obj 112 105 hsl 60 15 0.3 127 1 0 empty empty Rate 10 7 0 10 -262144
-1 -1 2246 1;
#X floatatom 146 121 5 0 0 0 - - -;
#X obj 90 215 *~;
#X obj 112 141 hsl 60 15 0 20 0 0 empty empty Amt 10 7 0 10 -262144
-1 -1 0 1;
#X floatatom 146 157 5 0 0 0 - - -;
#X obj 45 36 loadbang;
#X obj 163 272 Snapshot~;
#X obj 226 225 r MetroGlobal;
#X obj 164 299 s \$0LFO-CTL;
#X msg 102 69 3;
#X msg 57 108 0;
#X connect 0 0 4 0;
#X connect 2 0 0 0;
#X connect 2 0 3 0;
#X connect 4 0 1 0;
#X connect 4 0 8 0;
#X connect 5 0 4 1;
#X connect 5 0 6 0;
#X connect 7 0 11 0;
#X connect 7 0 12 0;
#X connect 8 0 10 0;
#X connect 9 0 8 0;
#X connect 11 0 2 0;
#X connect 12 0 5 0;
#X coords 0 -1 1 1 85 75 1 100 100;
#X restore 857 50 pd LFO;
#X obj 598 -13 r \$0LFO-CTL;
#N canvas 853 184 853 675 random-filter 0;
#X obj 209 174 bng 15 250 50 0 empty empty empty 17 7 0 10 -262144
-1 -1;
#X obj 107 105 tgl 15 0 empty empty Rand_Enable 17 7 0 10 -262144 -1
-1 0 1;
#X obj 335 271 random 25;
#X floatatom 337 310 5 0 0 0 - - -;
#X obj 336 291 - 12;
#X obj 309 155 metro 100;
#X obj 380 325 +;
#X obj 389 240 random 25;
#X floatatom 426 303 5 0 0 0 - - -;
#X obj 423 277 - 12;
#X obj 384 347 *;
#X obj 111 149 hsl 90 15 0 1 0 0 empty empty Random_Range 5 8 0 10
-262144 -1 -1 2670 1;
#X obj 111 128 hsl 60 15 2 700 0 0 empty empty Metro_Rate 5 8 0 10
-262144 -1 -1 3060 1;
#X floatatom 186 130 5 0 0 0 - - -;
#X obj 407 83 expr 60000/$f1;
#X floatatom 419 103 5 0 0 0 - - -;
#X obj 112 173 hsl 90 15 -24 24 0 0 empty empty Random_Offset 5 8 0
10 -262144 -1 -1 4450 1;
#X msg -36 162 0;
#X obj 149 43 loadbang;
#X obj 370 364 +;
#X obj 162 457 outlet;
#X obj 235 459 outlet;
#X floatatom 113 215 5 0 0 0 - - -;
#X floatatom 233 152 5 0 0 0 - - -;
#X msg -22 141 0.3;
#X msg -6 119 364;
#X obj 204 105 bng 15 250 50 0 empty empty empty 17 7 0 10 -262144
-1 -1;
#X obj 234 37 loadbang;
#X obj 306 129 tgl 15 0 empty empty empty 17 7 0 10 -262144 -1 -1 1
1;
#X obj 275 421 spigot;
#X connect 0 0 2 0;
#X connect 0 0 7 0;
#X connect 0 0 20 0;
#X connect 1 0 29 1;
#X connect 2 0 4 0;
#X connect 3 0 6 0;
#X connect 4 0 3 0;
#X connect 5 0 0 0;
#X connect 6 0 10 0;
#X connect 7 0 9 0;
#X connect 8 0 6 1;
#X connect 9 0 8 0;
#X connect 10 0 19 0;
#X connect 11 0 10 1;
#X connect 11 0 23 0;
#X connect 12 0 13 0;
#X connect 12 0 14 0;
#X connect 14 0 15 0;
#X connect 14 0 5 1;
#X connect 16 0 19 1;
#X connect 16 0 22 0;
#X connect 17 0 16 0;
#X connect 18 0 26 0;
#X connect 19 0 29 0;
#X connect 24 0 11 0;
#X connect 25 0 12 0;
#X connect 26 0 25 0;
#X connect 26 0 24 0;
#X connect 26 0 17 0;
#X connect 26 0 28 0;
#X connect 27 0 26 0;
#X connect 28 0 5 0;
#X connect 29 0 21 0;
#X coords 0 -1 1 1 130 100 1 100 100;
#X restore 933 247 pd random-filter;
#N canvas 1125 440 450 300 initformant 0;
#X obj 159 190 pack f f f;
#X obj 126 114 f;
#X msg 171 90 740;
#X msg 123 90 1108;
#X msg 216 89 329;
#X obj 133 50 inlet;
#X obj 280 31 loadbang;
#X obj 162 231 outlet;
#X obj 175 151 t b f;
#X obj 220 152 t b f;
#X obj 339 36 loadbang;
#X obj 214 54 bng 15 250 50 0 empty empty empty 17 7 0 10 -262144 -1
-1;
#X connect 0 0 7 0;
#X connect 1 0 0 0;
#X connect 2 0 8 0;
#X connect 3 0 1 0;
#X connect 4 0 9 0;
#X connect 5 0 3 0;
#X connect 5 0 2 0;
#X connect 5 0 4 0;
#X connect 6 0 11 0;
#X connect 8 0 0 0;
#X connect 8 1 0 1;
#X connect 9 0 0 0;
#X connect 9 1 0 2;
#X connect 10 0 11 0;
#X connect 11 0 3 0;
#X connect 11 0 2 0;
#X connect 11 0 4 0;
#X restore 926 428 pd initformant;
#X obj 926 403 bng 15 250 50 0 empty empty empty 17 7 0 10 -262144
-1 -1;
#N canvas 860 251 724 523 count 0;
#X obj 108 104 tgl 15 0 empty empty empty 17 7 0 10 -262144 -1 -1 1
1;
#X obj 237 153 f;
#X obj 370 177 + 1;
#X obj 161 200 mod 8;
#X floatatom 131 104 5 0 0 0 - - -;
#X obj 168 266 outlet;
#X obj 30 60 loadbang;
#X obj 235 39 inlet;
#X obj 164 237 spigot;
#X obj 256 209 mod 16;
#X obj 263 269 outlet;
#X connect 0 0 8 1;
#X connect 1 0 2 0;
#X connect 1 0 3 0;
#X connect 1 0 9 0;
#X connect 2 0 1 1;
#X connect 3 0 4 0;
#X connect 3 0 8 0;
#X connect 6 0 0 0;
#X connect 7 0 1 0;
#X connect 8 0 5 0;
#X connect 9 0 10 0;
#X coords 0 -1 1 1 75 25 1 100 100;
#X restore 704 281 pd count;
#X obj 1125 368 BillBangSeq;
#X obj 760 333 sel 0;
#X obj 1398 143 multi-osc~;
#X obj 1386 454 FixedFilter~;
#X obj 1336 651 ADSR2;
#X obj 1344 820 BillPan~;
#X obj 1251 476 delay 200;
#N canvas 805 417 450 300 InitADSR 0;
#X msg 94 198 0;
#X msg 237 190 700;
#X obj 102 47 loadbang;
#X obj 93 224 outlet;
#X obj 142 223 outlet;
#X obj 191 221 outlet;
#X obj 240 220 outlet;
#X obj 105 107 bng 15 250 50 0 empty empty empty 17 7 0 10 -262144
-1 -1;
#X msg 142 198 100;
#X msg 188 195 0;
#X connect 0 0 3 0;
#X connect 1 0 6 0;
#X connect 2 0 7 0;
#X connect 7 0 0 0;
#X connect 7 0 8 0;
#X connect 7 0 9 0;
#X connect 7 0 1 0;
#X connect 8 0 4 0;
#X connect 9 0 5 0;
#X coords 0 -1 1 1 30 30 1 100 100;
#X restore 1273 596 pd InitADSR;
#X obj 1400 110 hsl 128 15 0 1 0 0 empty empty empty -2 -8 0 10 -262144
-1 -1 6350 1;
#X obj 1127 347 spigot;
#X obj 1160 321 tgl 25 0 empty empty empty 17 7 0 20 -258113 -1 -1
1 1;
#X msg 1123 255 1 0 0 1 0 1 1 0 1 1 0 1 0 0 0 0;
#X msg 1125 231 0 0 0 0 0 0 0 0 0 0 0 0 0 0 0 0;
#X msg 1396 87 0.5;
#X obj 499 882 BillEchoVerb~;
#X obj 1105 202 loadbang;
#X obj 1396 60 loadbang;
#X msg 1127 281 1 0 1 0 1 0 1 0 1 1 0 1 0 0 0 0;
#X obj 457 331 MelodyBox;
#X connect 1 0 0 1;
#X connect 2 0 0 0;
#X connect 3 0 49 0;
#X connect 3 1 49 1;
#X connect 4 0 3 2;
#X connect 4 0 3 3;
#X connect 4 1 3 4;
#X connect 6 0 18 0;
#X connect 6 1 18 1;
#X connect 7 0 8 0;
#X connect 8 0 9 0;
#X connect 8 1 10 0;
#X connect 8 2 11 0;
#X connect 9 0 12 0;
#X connect 10 0 13 0;
#X connect 11 0 14 0;
#X connect 12 0 28 0;
#X connect 13 0 25 0;
#X connect 14 0 27 0;
#X connect 16 1 3 5;
#X connect 17 0 19 0;
#X connect 17 1 21 0;
#X connect 17 2 20 0;
#X connect 18 0 3 0;
#X connect 18 1 3 1;
#X connect 22 0 28 2;
#X connect 23 0 25 2;
#X connect 24 0 27 2;
#X connect 25 0 6 1;
#X connect 26 0 18 2;
#X connect 26 1 18 3;
#X connect 26 2 18 4;
#X connect 26 3 18 5;
#X connect 27 0 6 2;
#X connect 28 0 6 0;
#X connect 30 0 27 3;
#X connect 30 0 25 3;
#X connect 30 0 28 3;
#X connect 31 0 34 0;
#X connect 31 0 44 0;
#X connect 31 1 16 0;
#X connect 32 0 4 1;
#X connect 33 0 32 0;
#X connect 34 0 53 0;
#X connect 34 1 36 0;
#X connect 35 0 39 6;
#X connect 35 0 41 0;
#X connect 36 0 35 1;
#X connect 37 0 38 0;
#X connect 38 0 39 0;
#X connect 39 0 40 0;
#X connect 40 0 49 0;
#X connect 40 1 49 1;
#X connect 41 0 39 7;
#X connect 42 0 39 2;
#X connect 42 1 39 3;
#X connect 42 2 39 4;
#X connect 42 3 39 5;
#X connect 43 0 37 5;
#X connect 44 0 35 0;
#X connect 45 0 44 1;
#X connect 46 0 35 2;
#X connect 47 0 35 2;
#X connect 48 0 43 0;
#X connect 49 0 2 0;
#X connect 49 1 1 0;
#X connect 50 0 46 0;
#X connect 51 0 48 0;
#X connect 52 0 35 2;
#X connect 53 0 18 6;
#X connect 53 1 18 7;
