#N canvas 235 123 1174 619 10;
#X obj 536 46 MetroGlobal;
#X obj 523 477 output~;
#X obj -31 22 multi-osc~;
#X obj 225 61 AutoPhase12~;
#X obj 219 283 AutoPan12~;
#X obj -238 15 bng 15 250 50 0 empty empty empty 17 7 0 10 -262144
-1 -1;
#X obj 432 366 BHStereoEnhance~;
#X obj -16 566 s~ OscOut;
#X obj 225 33 r~ OscOut;
#X obj 219 496 s~ PanOutL;
#X obj 372 496 s~ PanOutR;
#X obj 412 140 r~ PanOutL;
#X obj 510 137 r~ PanOutR;
#X obj -1 329 *~;
#X obj 80 257 tgl 15 0 empty empty empty 17 7 0 10 -262144 -1 -1 1
1;
#X obj 80 302 line~;
#X obj 80 207 loadbang;
#X msg 80 232 1, f 1;
#X obj -136 261 adc~;
#X obj -110 386 *~;
#X obj -59 318 tgl 15 0 empty empty empty 17 7 0 10 -262144 -1 -1 0
1;
#X obj -59 363 line~;
#X msg -59 339 \$1 100;
#X obj -59 268 loadbang;
#X msg -59 292 0, f 1;
#X text 479 524 1: Turn on the DAC;
#X obj -2 205 lop~ 8000;
#X obj 0 227 lop~ 8000;
#X obj 0 227 lop~ 8000;
#X obj -1 205 lop~ 8000;
#X msg 80 278 \$1 50;
#X text 95 256 Turn on test osc;
#X text -47 318 ADC on;
#X obj 89 -101 kbd;
#X obj -98 -105 notein;
#X floatatom -86 -80 5 0 0 0 - - -, f 5;
#X floatatom -45 -83 5 0 0 0 - - -, f 5;
#X floatatom -129 -80 5 0 0 0 - - -, f 5;
#X obj -107 -16 pack f f f;
#X obj -129 28 route 17;
#X floatatom 441 14 5 0 0 0 - - -, f 5;
#X obj -115 60 bng 15 250 50 0 empty empty empty 17 7 0 10 -262144
-1 -1;
#X obj -93 66 bng 15 250 50 0 empty empty empty 17 7 0 10 -262144 -1
-1;
#X obj -122 123 unpack f f;
#X floatatom -84 152 5 0 0 0 - - -, f 5;
#X floatatom -122 153 5 0 0 0 - - -, f 5;
#X obj -68 221 mtof;
#X obj -139 177 poly 1 1;
#X obj -140 221 makenote;
#X obj -151 79 stripnote;
#X obj -221 143 print strip;
#X obj -230 56 print route;
#X obj 137 358 pvu~;
#X obj 142 396 vu 15 120 empty empty -1 -8 0 10 -66577 -1 1 0;
#X obj -49 -55 f;
#X obj -135 -50 t b f;
#X obj -166 5 print CTRL note vel:;
#X obj -161 -25 print -- --;
#X obj 422 55 touchin;
#X floatatom 422 77 5 0 0 0 - - -, f 5;
#X floatatom 476 80 5 0 0 0 - - -, f 5;
#X obj 435 233 billverb~;
#X obj 8 390 ADSR2;
#X obj 90 355 bng 15 250 50 0 empty empty empty 17 7 0 10 -262144 -1
-1;
#X obj -161 119 bng 15 250 50 0 empty empty empty 17 7 0 10 -262144
-1 -1;
#X obj 659 393 pvu~;
#X obj 664 431 vu 15 120 empty empty -1 -8 0 10 -66577 -1 1 0;
#X obj 354 27 bng 15 250 50 0 empty empty empty 17 7 0 10 -262144 -1
-1;
#X obj 641 139 BHEchoVerbx3~;
#X connect 2 0 26 0;
#X connect 3 0 4 0;
#X connect 3 1 4 1;
#X connect 3 2 4 2;
#X connect 3 3 4 3;
#X connect 3 4 4 4;
#X connect 3 5 4 5;
#X connect 3 6 4 6;
#X connect 3 7 4 7;
#X connect 3 8 4 8;
#X connect 3 9 4 9;
#X connect 3 10 4 10;
#X connect 3 11 4 11;
#X connect 4 0 9 0;
#X connect 4 0 52 0;
#X connect 4 1 10 0;
#X connect 6 0 1 0;
#X connect 6 1 1 1;
#X connect 6 1 65 0;
#X connect 8 0 3 0;
#X connect 11 0 61 0;
#X connect 12 0 61 1;
#X connect 13 0 62 0;
#X connect 14 0 30 0;
#X connect 15 0 13 1;
#X connect 16 0 17 0;
#X connect 17 0 14 0;
#X connect 18 0 19 0;
#X connect 18 1 19 0;
#X connect 19 0 7 0;
#X connect 20 0 22 0;
#X connect 21 0 19 1;
#X connect 22 0 21 0;
#X connect 23 0 24 0;
#X connect 24 0 20 0;
#X connect 26 0 27 0;
#X connect 27 0 28 0;
#X connect 28 0 29 0;
#X connect 29 0 13 0;
#X connect 30 0 15 0;
#X connect 33 1 2 0;
#X connect 33 1 40 0;
#X connect 33 1 67 0;
#X connect 34 0 37 0;
#X connect 34 1 35 0;
#X connect 34 2 36 0;
#X connect 35 0 38 2;
#X connect 36 0 54 1;
#X connect 37 0 55 0;
#X connect 38 0 39 0;
#X connect 38 0 56 0;
#X connect 39 0 41 0;
#X connect 39 0 49 0;
#X connect 39 0 51 0;
#X connect 39 1 42 0;
#X connect 43 0 45 0;
#X connect 43 1 44 0;
#X connect 44 0 47 1;
#X connect 45 0 47 0;
#X connect 45 0 46 0;
#X connect 46 0 2 0;
#X connect 47 0 48 0;
#X connect 47 1 48 1;
#X connect 47 2 48 2;
#X connect 49 0 43 0;
#X connect 49 0 50 0;
#X connect 49 0 64 0;
#X connect 52 0 53 0;
#X connect 54 0 38 0;
#X connect 55 0 54 0;
#X connect 55 0 57 0;
#X connect 55 1 38 1;
#X connect 58 0 59 0;
#X connect 58 1 60 0;
#X connect 61 0 6 0;
#X connect 61 1 6 1;
#X connect 62 0 7 0;
#X connect 63 0 62 6;
#X connect 64 0 63 0;
#X connect 65 0 66 0;
#X connect 67 0 63 0;
