#N canvas 0 0 1920 1040 10;
#X obj 935 943 output~;
#X msg 55 97 This patch is part of my BH PD Toolkit http://tinyurl.com/BHPDToolkit
WilliamAHuston@gmail.com;
#X obj 168 246 multi-osc~;
#X obj 205 1522 MetroGlobal;
#X obj 881 340 AutoPhase3;
#X obj 165 545 RingMod~;
#X obj 1152 551 print foo;
#X obj 1151 518 bng 15 250 50 0 empty empty empty 17 7 0 10 -262144
-1 -1;
#X obj 378 214 hsl 128 15 0.001 1 1 0 empty empty noise -2 -8 0 10
-262144 -1 -1 0 1;
#X obj 348 175 hsl 128 15 0 1 0 0 empty empty PW -2 -8 0 10 -262144
-1 -1 0 1;
#X obj 343 195 sig~;
#X obj 256 840 ADSR2;
#X obj 429 739 bng 15 250 50 0 empty empty Note_ON 17 7 0 10 -4034
-1 -1;
#X obj 523 864 bng 15 250 50 0 empty empty Note_OFF 17 7 0 10 -258113
-1 -1;
#X obj 541 839 delay 400;
#X obj 586 813 hsl 128 15 0 1000 0 0 empty empty empty -2 -8 0 10 -262144
-1 -1 0 1;
#X floatatom 637 836 5 0 0 0 - - -;
#X obj 1036 43 Kbd;
#X obj 734 112 bng 15 250 50 0 empty empty empty 17 7 0 10 -262144
-1 -1;
#X obj 805 -18 metro 250;
#X obj 804 -37 tgl 15 0 empty empty empty 17 7 0 10 -262144 -1 -1 0
1;
#X obj 864 -40 hsl 128 15 5 1000 1 0 empty empty empty -2 -8 0 10 -262144
-1 -1 0 1;
#X floatatom 887 -18 5 0 0 0 - - -;
#X obj 796 123 f;
#X obj 879 126 + 1;
#X floatatom 811 152 5 0 0 0 - - -;
#X obj 1060 160 hsl 128 15 0 127 0 0 empty empty New_Note_Value -2
-8 0 10 -262144 -1 -1 0 1;
#X obj 861 199 BillValSeq2;
#X floatatom 1090 314 5 0 0 0 - - -;
#X obj 821 343 bng 15 250 50 0 empty empty empty 17 7 0 10 -262144
-1 -1;
#X obj 1056 313 mtof;
#X obj 1147 306 bng 15 250 50 0 empty empty empty 17 7 0 10 -262144
-1 -1;
#X obj 120 -26 keybender;
#X floatatom 149 75 5 0 0 0 - - -;
#X floatatom 386 66 5 0 0 0 - - -;
#X obj 168 210 *;
#X obj 550 -54 notein;
#X floatatom 527 -2 5 0 0 0 - - -;
#X floatatom 569 -1 5 0 0 0 - - -;
#X floatatom 616 -13 5 0 0 0 - - -;
#X obj 507 25 == 57;
#X obj 618 20 == 17;
#X obj 618 75 &&;
#X floatatom 511 49 5 0 0 0 - - -;
#X floatatom 626 44 5 0 0 0 - - -;
#X obj 586 106 spigot;
#X obj 733 47 bng 15 250 50 0 empty empty empty 17 7 0 10 -262144 -1
-1;
#X obj 600 127 > 120;
#X obj 606 151 sel 1;
#X obj 611 175 bng 15 250 50 0 empty empty empty 17 7 0 10 -262144
-1 -1;
#X msg 611 201 0;
#X obj 505 -34 stripnote;
#X obj 731 84 delay 100;
#X obj 793 47 hsl 128 15 1 1000 1 0 empty empty empty -2 -8 0 10 -262144
-1 -1 0 1;
#X obj 904 675 BillEchoVerb~;
#X obj 1506 551 FormantControl;
#X obj 523 909 spigot;
#X obj 556 888 tgl 15 0 empty empty empty 17 7 0 10 -262144 -1 -1 0
1;
#X obj 861 496 AutoPan3~;
#X obj 1208 549 keybender;
#X floatatom 810 79 5 0 0 0 - - -;
#X obj 428 561 bng 15 250 50 0 empty empty Note_ON 17 7 0 10 -4034
-1 -1;
#X obj 461 459 delay 400;
#X obj 509 423 hsl 128 15 2.5 250 1 0 empty empty empty -2 -8 0 10
-262144 -1 -1 0 1;
#X floatatom 560 446 5 0 0 0 - - -;
#X obj 446 519 spigot;
#X obj 495 490 tgl 15 0 empty empty empty 17 7 0 10 -262144 -1 -1 0
1;
#X obj 1478 -8 Kbd;
#X obj 1451 122 hsl 128 15 0 127 0 0 empty empty New_Note_Value -2
-8 0 10 -262144 -1 -1 7900 1;
#X obj 1696 474 output~;
#X obj 1610 117 mtof;
#X obj 1655 449 hsl 128 15 0 1 0 0 empty empty empty -2 -8 0 10 -262144
-1 -1 0 1;
#X obj 1597 236 osc~;
#X obj 1478 316 *~;
#X obj 1408 189 hsl 128 15 0.001 1 1 0 empty empty empty -2 -8 0 10
-262144 -1 -1 5600 1;
#X obj 1465 234 -;
#X msg 1437 219 1 \$1;
#X floatatom 1502 221 5 0 0 0 - - -;
#X connect 2 0 5 0;
#X connect 4 0 58 0;
#X connect 4 1 58 1;
#X connect 4 2 58 2;
#X connect 5 0 11 0;
#X connect 7 0 6 0;
#X connect 8 0 2 5;
#X connect 9 0 10 0;
#X connect 10 0 2 2;
#X connect 11 0 4 0;
#X connect 12 0 11 6;
#X connect 12 0 14 0;
#X connect 13 0 56 0;
#X connect 14 0 13 0;
#X connect 15 0 14 1;
#X connect 15 0 16 0;
#X connect 17 0 26 0;
#X connect 18 0 23 0;
#X connect 19 0 46 0;
#X connect 20 0 19 0;
#X connect 21 0 19 1;
#X connect 21 0 22 0;
#X connect 23 0 24 0;
#X connect 23 0 25 0;
#X connect 24 0 23 1;
#X connect 25 0 27 0;
#X connect 26 0 27 1;
#X connect 27 0 29 0;
#X connect 27 1 28 0;
#X connect 27 2 31 0;
#X connect 28 0 30 0;
#X connect 29 0 12 0;
#X connect 29 0 62 0;
#X connect 30 0 35 0;
#X connect 32 0 33 0;
#X connect 32 0 35 1;
#X connect 32 1 34 0;
#X connect 35 0 2 0;
#X connect 36 0 51 0;
#X connect 36 1 51 1;
#X connect 36 2 39 0;
#X connect 37 0 40 0;
#X connect 38 0 45 0;
#X connect 39 0 41 0;
#X connect 40 0 43 0;
#X connect 41 0 44 0;
#X connect 42 0 45 1;
#X connect 43 0 42 0;
#X connect 44 0 42 1;
#X connect 45 0 46 0;
#X connect 45 0 47 0;
#X connect 46 0 52 0;
#X connect 47 0 48 0;
#X connect 48 0 49 0;
#X connect 49 0 50 0;
#X connect 50 0 23 1;
#X connect 51 0 37 0;
#X connect 51 1 38 0;
#X connect 52 0 18 0;
#X connect 53 0 52 1;
#X connect 53 0 60 0;
#X connect 54 0 0 0;
#X connect 54 1 0 1;
#X connect 55 0 54 2;
#X connect 56 0 11 7;
#X connect 57 0 56 1;
#X connect 58 0 54 0;
#X connect 58 1 54 1;
#X connect 59 1 54 4;
#X connect 61 0 12 0;
#X connect 62 0 65 0;
#X connect 63 0 62 1;
#X connect 63 0 64 0;
#X connect 65 0 61 0;
#X connect 66 0 65 1;
#X connect 67 0 68 0;
#X connect 67 0 70 0;
#X connect 70 0 72 0;
#X connect 72 0 73 0;
#X connect 73 0 4 0;
#X connect 74 0 76 0;
#X connect 74 0 73 1;
#X connect 74 0 77 0;
#X connect 76 0 75 0;
