#N canvas 160 155 1226 839 10;
#X obj 48 104 multi-osc~;
#X obj 405 87 output~;
#X obj 259 109 MetroGlobal;
#X obj 263 164 DVM~;
#X obj 124 66 hsl 128 15 0 1 0 0 empty empty Duty -2 -8 0 10 -262144
-1 -1 5100 1;
#X obj 122 82 sig~;
#X obj 68 566 AutoPan3~;
#X obj 45 409 AutoPhase3;
#X obj 463 59 catch~ \$0OutR;
#X obj 406 39 catch~ \$0OutL;
#X obj 77 743 throw~ \$0OutL;
#X obj 234 749 throw~ \$0OutR;
#X obj 485 101 comment 0 30 helvetica ? 0 0 0 0 1: Turn on DAC;
#X obj 1617 1130 KeyBender;
#X obj 1627 1140 KeyBender;
#X obj 252 308 comment 0 30 helvetica ? 0 0 0 0 2: Turn up Sin \, Saw
\, PWM \, or Noise source [multi-osc~];
#X obj 230 456 comment 0 30 helvetica ? 0 0 0 0 3: Adjust Controls
here [AutoPhase3]=mono input to delay line \, 3 taps with variable
delay \, phase;
#X obj 286 630 comment 0 30 helvetica ? 0 0 0 0 4: ...and here! [AutoPan~]
takes 3 inputs and pans via built in LFO;
#X obj 521 165 comment 0 40 helvetica ? 0 0 0 0 TinyURL.com/BHPDToolkit
/patches/AutoPhaseDemoSmall.pd;
#X connect 0 0 7 0;
#X connect 4 0 5 0;
#X connect 5 0 0 2;
#X connect 6 0 10 0;
#X connect 6 1 11 0;
#X connect 7 0 6 0;
#X connect 7 1 6 1;
#X connect 7 2 6 2;
#X connect 8 0 1 1;
#X connect 9 0 1 0;
