#N canvas 206 116 870 616 10;
#X obj 536 46 MetroGlobal;
#X obj 481 436 output~;
#X obj 225 61 AutoPhase12~;
#X obj 219 283 AutoPan12~;
#X obj -227 -236 bng 15 250 50 0 empty empty empty 17 7 0 10 -262144
-1 -1;
#X obj 432 371 BHStereoEnhance~;
#X obj -16 566 s~ OscOut;
#X obj 225 33 r~ OscOut;
#X obj 433 213 r~ PanOutL;
#X obj 546 212 r~ PanOutR;
#X obj -246 318 adc~;
#X obj -220 443 *~;
#X obj -169 375 tgl 15 0 empty empty empty 17 7 0 10 -262144 -1 -1
0 1;
#X obj -169 420 line~;
#X msg -169 396 \$1 100;
#X obj -169 325 loadbang;
#X msg -169 349 0, f 1;
#X text 479 524 1: Turn on the DAC;
#X text -157 375 ADC on;
#X obj 361 -202 kbd;
#X obj -93 -189 notein;
#X floatatom -80 -161 5 0 0 0 - - -, f 5;
#X floatatom -39 -162 5 0 0 0 - - -, f 5;
#X floatatom -124 -162 5 0 0 0 - - -, f 5;
#X obj -126 -51 pack f f f;
#X obj -126 35 route 17;
#X floatatom 714 -87 5 0 0 0 - - -, f 5;
#X obj -125 65 bng 15 250 50 0 empty empty empty 17 7 0 10 -262144
-1 -1;
#X obj -73 68 bng 15 250 50 0 empty empty empty 17 7 0 10 -262144 -1
-1;
#X obj 161 368 pvu~;
#X obj 162 396 vu 15 120 empty empty -1 -8 0 10 -66577 -1 1 0;
#X obj -57 -109 f;
#X obj -124 -137 t b f;
#X obj -110 -23 print CTRL note vel:;
#X obj 422 55 touchin;
#X floatatom 422 77 5 0 0 0 - - -, f 5;
#X floatatom 476 80 5 0 0 0 - - -, f 5;
#X obj 433 244 billverb~;
#X obj -240 -176 bng 15 250 50 0 empty empty empty 17 7 0 10 -262144
-1 -1;
#X obj -230 -93 bng 15 250 50 0 empty empty empty 17 7 0 10 -262144
-1 -1;
#X obj -422 -175 bng 15 250 50 0 empty empty empty 17 7 0 10 -262144
-1 -1;
#X msg -22 -110 channel;
#X msg -61 15 17;
#X msg -18 14 33;
#X obj -153 101 print route17 note/veloc;
#X obj 187 601 s~ PanOutL;
#X obj 322 608 s~ PanOutR;
#X obj 319 554 tb_compressor~;
#X obj 189 557 tb_compressor~;
#X obj 339 674 tb_compressorUI;
#X obj -181 144 4VoiceOSC~;
#X connect 2 0 3 0;
#X connect 2 1 3 1;
#X connect 2 2 3 2;
#X connect 2 3 3 3;
#X connect 2 4 3 4;
#X connect 2 5 3 5;
#X connect 2 6 3 6;
#X connect 2 7 3 7;
#X connect 2 8 3 8;
#X connect 2 9 3 9;
#X connect 2 10 3 10;
#X connect 2 11 3 11;
#X connect 3 0 29 0;
#X connect 3 0 48 0;
#X connect 3 1 47 0;
#X connect 5 0 1 0;
#X connect 5 1 1 1;
#X connect 7 0 2 0;
#X connect 8 0 37 0;
#X connect 9 0 37 1;
#X connect 10 0 11 0;
#X connect 10 1 11 0;
#X connect 11 0 6 0;
#X connect 12 0 14 0;
#X connect 13 0 11 1;
#X connect 14 0 13 0;
#X connect 15 0 16 0;
#X connect 16 0 12 0;
#X connect 19 1 26 0;
#X connect 20 0 23 0;
#X connect 20 1 21 0;
#X connect 20 2 22 0;
#X connect 21 0 24 2;
#X connect 22 0 31 1;
#X connect 23 0 32 0;
#X connect 24 0 25 0;
#X connect 25 0 27 0;
#X connect 25 0 44 0;
#X connect 25 0 50 0;
#X connect 25 1 28 0;
#X connect 29 0 30 0;
#X connect 31 0 24 0;
#X connect 32 0 31 0;
#X connect 32 1 24 1;
#X connect 34 0 35 0;
#X connect 34 1 36 0;
#X connect 37 0 5 0;
#X connect 37 1 5 1;
#X connect 42 0 25 1;
#X connect 43 0 25 1;
#X connect 47 0 46 0;
#X connect 48 0 45 0;
#X connect 48 1 49 0;
#X connect 49 0 48 1;
#X connect 49 0 47 1;
#X connect 50 0 6 0;
