#N canvas 9 112 1185 653 10;
#X obj 414 20 MetroGlobal;
#X obj 499 397 output~;
#X obj -31 23 multi-osc~;
#X obj 446 225 billverb~;
#X obj 225 61 AutoPhase12~;
#X obj 219 283 AutoPan12~;
#X obj -238 15 bng 15 250 50 0 empty empty empty 17 7 0 10 -262144
-1 -1;
#X obj 447 343 BHStereoEnhance~;
#X obj -1 482 s~ OscOut;
#X obj 225 33 r~ OscOut;
#X obj 219 496 s~ PanOutL;
#X obj 372 496 s~ PanOutR;
#X obj 446 198 r~ PanOutL;
#X obj 559 198 r~ PanOutR;
#X obj -1 389 *~;
#X obj 50 321 tgl 15 0 empty empty empty 17 7 0 10 -262144 -1 -1 1
1;
#X obj 50 366 line~;
#X obj 50 271 loadbang;
#X msg 50 296 1, f 1;
#X obj -136 261 adc~;
#X obj -110 386 *~;
#X obj -59 318 tgl 15 0 empty empty empty 17 7 0 10 -262144 -1 -1 0
1;
#X obj -59 363 line~;
#X msg -59 339 \$1 100;
#X obj -59 268 loadbang;
#X msg -59 292 0, f 1;
#X text 455 444 1: Turn on the DAC;
#X obj -2 205 lop~ 8000;
#X obj 0 227 lop~ 8000;
#X obj 0 227 lop~ 8000;
#X obj -1 205 lop~ 8000;
#X msg 50 342 \$1 50;
#X text 65 320 Turn on test osc;
#X text -47 318 ADC on;
#X connect 2 0 27 0;
#X connect 3 0 7 0;
#X connect 3 1 7 1;
#X connect 4 0 5 0;
#X connect 4 1 5 1;
#X connect 4 2 5 2;
#X connect 4 3 5 3;
#X connect 4 4 5 4;
#X connect 4 5 5 5;
#X connect 4 6 5 6;
#X connect 4 7 5 7;
#X connect 4 8 5 8;
#X connect 4 9 5 9;
#X connect 4 10 5 10;
#X connect 4 11 5 11;
#X connect 5 0 10 0;
#X connect 5 1 11 0;
#X connect 7 0 1 0;
#X connect 7 1 1 1;
#X connect 9 0 4 0;
#X connect 12 0 3 0;
#X connect 13 0 3 1;
#X connect 14 0 8 0;
#X connect 15 0 31 0;
#X connect 16 0 14 1;
#X connect 17 0 18 0;
#X connect 18 0 15 0;
#X connect 19 0 20 0;
#X connect 19 1 20 0;
#X connect 20 0 8 0;
#X connect 21 0 23 0;
#X connect 22 0 20 1;
#X connect 23 0 22 0;
#X connect 24 0 25 0;
#X connect 25 0 21 0;
#X connect 27 0 28 0;
#X connect 28 0 29 0;
#X connect 29 0 30 0;
#X connect 30 0 14 0;
#X connect 31 0 16 0;
