#N canvas -4 -4 1920 1040 10;
#X obj 253 164 multi-osc~;
#X obj 445 1328 output~;
#X obj -446 -19 MetroGlobal;
#X obj -147 796 DVM~;
#X obj 480 125 hsl 128 15 0 1 0 0 empty empty Duty -2 -8 0 10 -262144
-1 -1 9900 1;
#X obj 478 147 sig~;
#X obj 416 1176 billverb~;
#X obj 311 -37 kbd;
#X floatatom 654 74 5 0 0 0 - - -;
#X floatatom 309 68 5 0 0 0 - - -;
#X obj 376 471 vowellfilter1;
#X obj -321 -280 FormantControl;
#X obj 379 996 AutoPan3~;
#X obj 384 832 AutoPhase3;
#X obj -549 -42 metro 250;
#X obj -547 -67 tgl 15 0 empty empty empty 17 7 0 10 -262144 -1 -1
0 1;
#X obj -129 81 random 127;
#X floatatom -129 106 5 0 0 0 - - -;
#X obj -57 79 random 127;
#X floatatom -57 105 5 0 0 0 - - -;
#X obj 16 79 random 127;
#X floatatom 14 103 5 0 0 0 - - -;
#X obj -127 161 mtof;
#X obj -58 154 mtof;
#X obj 10 154 mtof;
#X obj -71 190 pack f f f;
#X obj -96 263 mux;
#X obj -45 243 tgl 15 0 empty empty Random_On 17 7 0 10 -262144 -1
-1 1 1;
#X obj -61 8 hsl 128 15 1.27 127 1 0 empty empty Random_Range 7 8 0
10 -260160 -1 -1 4100 1;
#X obj -129 131 +;
#X obj -61 130 +;
#X obj 13 128 +;
#X obj -61 -44 hsl 128 15 0 127 0 0 empty empty Random_Offset 7 8 0
10 -260160 -1 -1 3500 1;
#X floatatom 20 54 5 0 0 0 - - -;
#X obj -494 -66 hsl 128 15 1000 10 0 0 empty empty Metro_Rate 6 8 0
10 -260160 -1 -1 7800 1;
#X obj -708 281 BillBangSeq;
#X obj -813 536 ADSR2;
#X obj -850 471 BillPan~;
#X obj -61 -28 hsl 128 15 0 127 0 0 empty empty Random_Offset 7 8 0
10 -260160 -1 -1 1600 1;
#X obj -61 -12 hsl 128 15 0 127 0 0 empty empty Random_Offset 7 8 0
10 -260160 -1 -1 6000 1;
#X obj -686 347 delay 200;
#X obj -619 347 hsl 128 15 0.1 500 1 0 empty empty empty -2 -8 0 10
-262144 -1 -1 9100 1;
#X obj -40 564 VCF;
#X obj 463 411 r VCF;
#X obj 490 434 +;
#X obj 511 276 KeyBender;
#X obj -68 396 BillBangSeq;
#X obj -763 946 BillEchoVerb~;
#X obj -308 1180 output~;
#X obj -591 408 FormantControl;
#X obj -11 529 bng 15 250 50 0 empty empty empty 17 7 0 10 -262144
-1 -1;
#X obj 819 357 notein;
#X floatatom 830 429 5 0 0 0 - - -;
#X floatatom 788 390 5 0 0 0 - - -;
#X floatatom 875 392 5 0 0 0 - - -;
#X obj -492 582 KeyBender;
#X obj 154 497 delay 100;
#X obj 164 534 bng 15 250 50 0 empty empty empty 17 7 0 10 -262144
-1 -1;
#X obj 136 462 hsl 128 15 10 1000 1 0 empty empty empty -2 -8 0 10
-262144 -1 -1 5800 1;
#X floatatom 221 482 5 0 0 0 - - -;
#X obj 392 656 ADSR2;
#X obj -894 -67 multi-osc~;
#X obj -707 263 bng 15 250 50 0 empty empty empty 17 7 0 10 -262144
-1 -1;
#X obj 84 787 s VCF;
#N canvas 2117 28 665 629 LFO 0;
#X obj 11 12 bendin;
#X floatatom 11 39 5 0 0 0 - - -;
#X obj 7 113 / 8192;
#X floatatom 8 142 5 0 0 0 - - -;
#X obj 7 165 - 1;
#X floatatom 8 191 5 0 0 0 - - -;
#X obj 107 143 hsl 60 15 0 24 0 0 empty empty semitones 5 8 0 10 -203904
-1 -1 0 1;
#X floatatom 172 143 5 0 0 0 - - -;
#X obj 59 104 int;
#X obj 15 228 *;
#X obj 51 182 t b f;
#X floatatom 15 296 5 0 0 0 - - -;
#X obj 448 16 ctlin;
#X floatatom 422 102 5 0 0 0 - - -;
#X floatatom 466 59 5 0 0 0 - - -;
#X floatatom 607 57 5 0 0 0 - - -;
#X obj 57 36 nbx 5 20 -1e+037 1e+037 0 0 empty empty channel 0 -8 0
15 -261234 -1 -1 0 256;
#X obj 264 85 osc~ 5;
#X obj 106 163 hsl 60 15 0 30 0 0 empty empty empty -2 -8 0 10 -262144
-1 -1 0 1;
#X floatatom 172 181 5 0 0 0 - - -;
#X obj 274 197 DVM~;
#X obj 107 181 hsl 60 15 0 5 0 0 empty empty empty -2 -8 0 10 -262144
-1 -1 0 1;
#X obj 264 143 *~;
#X obj 15 324 outlet;
#X obj 184 351 outlet~;
#X msg 185 325 LFO out semitones;
#X msg 15 351 BendOnlySemitones;
#X obj 106 121 hsl 60 15 0 127 0 0 \$0MidiIn empty MIDI_In 5 8 0 10
-4032 -1 -1 0 1;
#X obj 166 17 inlet;
#X floatatom 468 111 5 0 0 0 - - -;
#X obj 466 85 expr ($f1 == 1) && ($f2 == 2);
#X obj 440 149 spigot;
#X obj 473 128 tgl 15 0 empty empty empty 17 7 0 10 -262144 -1 -1 0
1;
#X msg 503 60 controller #;
#X msg 645 54 MIDI channel;
#X obj 443 173 / 127;
#X floatatom 443 195 5 0 0 0 - - -;
#X obj 428 222 *;
#X floatatom 172 163 5 0 0 0 - - -;
#X obj 346 333 +;
#X obj 389 308 t f b;
#X obj 61 322 s \$0BendSemitones;
#X obj 389 288 r \$0BendSemitones;
#X obj 313 291 r \$0MidiIn;
#X obj 344 370 outlet;
#X connect 0 0 1 0;
#X connect 0 1 16 0;
#X connect 1 0 2 0;
#X connect 2 0 3 0;
#X connect 3 0 4 0;
#X connect 4 0 5 0;
#X connect 5 0 9 0;
#X connect 6 0 8 0;
#X connect 8 0 7 0;
#X connect 8 0 10 0;
#X connect 9 0 11 0;
#X connect 10 0 9 0;
#X connect 10 1 9 1;
#X connect 11 0 23 0;
#X connect 11 0 41 0;
#X connect 12 0 13 0;
#X connect 12 1 14 0;
#X connect 12 2 15 0;
#X connect 13 0 31 0;
#X connect 14 0 30 0;
#X connect 15 0 30 1;
#X connect 17 0 22 0;
#X connect 18 0 17 0;
#X connect 18 0 38 0;
#X connect 21 0 19 0;
#X connect 21 0 37 0;
#X connect 22 0 20 0;
#X connect 22 0 24 0;
#X connect 28 0 27 0;
#X connect 29 0 32 0;
#X connect 30 0 29 0;
#X connect 31 0 35 0;
#X connect 32 0 31 1;
#X connect 35 0 36 0;
#X connect 36 0 37 1;
#X connect 37 0 22 1;
#X connect 40 0 39 0;
#X connect 40 1 39 1;
#X connect 42 0 40 0;
#X connect 43 0 39 0;
#X coords 0 -1 1 1 110 100 1 100 100;
#X restore 847 99 pd LFO;
#X obj -549 -14 s \$0Beat;
#X obj -705 242 r \$0Beat;
#X obj -70 375 bng 15 250 50 0 empty empty empty 17 7 0 10 -262144
-1 -1;
#X obj -68 354 r \$0Beat;
#X obj -141 52 bng 15 250 50 0 empty empty empty 17 7 0 10 -262144
-1 -1;
#X obj -163 13 r \$0Beat;
#X obj -433 246 bng 15 250 50 0 empty empty empty 17 7 0 10 -262144
-1 -1;
#X obj -467 349 s \$0SeqReset;
#X obj 48 371 r \$0SeqReset;
#X obj -792 -162 hsl 128 15 0 1 0 0 empty empty Duty -2 -8 0 10 -262144
-1 -1 0 1;
#X obj -794 -140 sig~;
#X obj 578 691 output~;
#X obj -5 479 delay 200;
#X obj -19 459 hsl 128 15 5 500 1 0 empty empty empty -2 -8 0 10 -262144
-1 -1 7800 1;
#X obj 33 499 bng 15 250 50 0 empty empty empty 17 7 0 10 -262144 -1
-1;
#X floatatom 72 488 5 0 0 0 - - -;
#X obj -759 375 bng 15 250 50 0 empty empty empty 17 7 0 10 -262144
-1 -1;
#X obj -746 723 hsl 128 15 50 10000 1 0 empty empty empty -2 -8 0 10
-262144 -1 -1 10800 1;
#X obj -662 775 lop~;
#X obj -781 793 lop~;
#X obj -767 838 lop~;
#X obj -660 835 lop~;
#X floatatom -623 753 5 0 0 0 - - -;
#X floatatom -614 378 5 0 0 0 - - -;
#X connect 0 0 10 0;
#X connect 4 0 5 0;
#X connect 5 0 0 2;
#X connect 6 0 1 0;
#X connect 6 1 1 1;
#X connect 7 0 9 0;
#X connect 7 1 0 0;
#X connect 7 1 8 0;
#X connect 10 0 60 0;
#X connect 11 0 26 0;
#X connect 12 0 6 0;
#X connect 12 1 6 1;
#X connect 13 0 12 0;
#X connect 13 1 12 1;
#X connect 13 2 12 2;
#X connect 14 0 65 0;
#X connect 15 0 14 0;
#X connect 16 0 17 0;
#X connect 17 0 29 0;
#X connect 18 0 19 0;
#X connect 19 0 30 0;
#X connect 20 0 21 0;
#X connect 21 0 31 0;
#X connect 22 0 25 0;
#X connect 23 0 25 1;
#X connect 24 0 25 2;
#X connect 25 0 26 1;
#X connect 26 0 10 1;
#X connect 27 0 26 2;
#X connect 28 0 16 1;
#X connect 28 0 18 1;
#X connect 28 0 20 1;
#X connect 28 0 33 0;
#X connect 29 0 22 0;
#X connect 30 0 23 0;
#X connect 31 0 24 0;
#X connect 32 0 29 1;
#X connect 34 0 14 1;
#X connect 35 0 40 0;
#X connect 35 0 81 0;
#X connect 35 1 71 0;
#X connect 35 1 72 0;
#X connect 36 0 84 0;
#X connect 36 1 83 0;
#X connect 37 0 36 0;
#X connect 37 1 36 1;
#X connect 38 0 30 1;
#X connect 39 0 31 1;
#X connect 40 0 36 7;
#X connect 41 0 40 1;
#X connect 41 0 88 0;
#X connect 42 1 63 0;
#X connect 43 0 44 0;
#X connect 44 0 10 3;
#X connect 45 1 44 1;
#X connect 46 0 50 0;
#X connect 46 0 77 0;
#X connect 47 0 48 0;
#X connect 47 1 48 1;
#X connect 49 0 47 2;
#X connect 50 0 42 4;
#X connect 50 0 56 0;
#X connect 50 0 60 6;
#X connect 51 0 53 0;
#X connect 51 1 52 0;
#X connect 51 2 54 0;
#X connect 55 1 47 4;
#X connect 56 0 42 5;
#X connect 56 0 57 0;
#X connect 56 0 60 7;
#X connect 58 0 59 0;
#X connect 58 0 56 1;
#X connect 60 0 13 0;
#X connect 61 0 37 0;
#X connect 62 0 35 0;
#X connect 66 0 62 0;
#X connect 67 0 46 0;
#X connect 68 0 67 0;
#X connect 69 0 16 0;
#X connect 69 0 18 0;
#X connect 69 0 20 0;
#X connect 70 0 69 0;
#X connect 73 0 46 1;
#X connect 74 0 75 0;
#X connect 75 0 61 2;
#X connect 77 0 79 0;
#X connect 78 0 77 1;
#X connect 78 0 80 0;
#X connect 79 0 50 0;
#X connect 81 0 36 6;
#X connect 82 0 84 1;
#X connect 82 0 85 1;
#X connect 82 0 83 1;
#X connect 82 0 86 1;
#X connect 82 0 87 0;
#X connect 83 0 86 0;
#X connect 84 0 85 0;
#X connect 85 0 47 0;
#X connect 86 0 47 1;
