#N canvas 266 223 1174 616 10;
#X obj 536 46 MetroGlobal;
#X obj 481 436 output~;
#X obj 225 61 AutoPhase12~;
#X obj 219 283 AutoPan12~;
#X obj -227 -236 bng 15 250 50 0 empty empty empty 17 7 0 10 -262144
-1 -1;
#X obj 432 371 BHStereoEnhance~;
#X obj -16 566 s~ OscOut;
#X obj 225 33 r~ OscOut;
#X obj 219 496 s~ PanOutL;
#X obj 372 496 s~ PanOutR;
#X obj 433 213 r~ PanOutL;
#X obj 546 212 r~ PanOutR;
#X obj -246 318 adc~;
#X obj -220 443 *~;
#X obj -169 375 tgl 15 0 empty empty empty 17 7 0 10 -262144 -1 -1
0 1;
#X obj -169 420 line~;
#X msg -169 396 \$1 100;
#X obj -169 325 loadbang;
#X msg -169 349 0, f 1;
#X text 479 524 1: Turn on the DAC;
#X text -157 375 ADC on;
#X obj 361 -202 kbd;
#X obj -93 -189 notein;
#X floatatom -80 -161 5 0 0 0 - - -, f 5;
#X floatatom -39 -162 5 0 0 0 - - -, f 5;
#X floatatom -124 -162 5 0 0 0 - - -, f 5;
#X obj -126 -51 pack f f f;
#X obj -126 35 route 17;
#X floatatom 714 -87 5 0 0 0 - - -, f 5;
#X obj -125 65 bng 15 250 50 0 empty empty empty 17 7 0 10 -262144
-1 -1;
#X obj -73 68 bng 15 250 50 0 empty empty empty 17 7 0 10 -262144 -1
-1;
#X obj 161 368 pvu~;
#X obj 162 396 vu 15 120 empty empty -1 -8 0 10 -66577 -1 1 0;
#X obj -57 -109 f;
#X obj -124 -137 t b f;
#X obj -110 -23 print CTRL note vel:;
#X obj 422 55 touchin;
#X floatatom 422 77 5 0 0 0 - - -, f 5;
#X floatatom 476 80 5 0 0 0 - - -, f 5;
#X obj 433 244 billverb~;
#N canvas 58 135 827 553 4voice 1;
#X obj -64 72 unpack f f;
#X floatatom -26 101 5 0 0 0 - - -, f 5;
#X floatatom -64 102 5 0 0 0 - - -, f 5;
#X obj -84 172 makenote;
#X obj -54 32 inlet;
#X obj -105 259 route 1 2 3 4;
#X obj -64 280 bng 15 250 50 0 empty empty empty 17 7 0 10 -262144
-1 -1;
#X obj -87 281 bng 15 250 50 0 empty empty empty 17 7 0 10 -262144
-1 -1;
#X obj -113 280 bng 15 250 50 0 empty empty empty 17 7 0 10 -262144
-1 -1;
#X obj -37 281 bng 15 250 50 0 empty empty empty 17 7 0 10 -262144
-1 -1;
#X obj -190 392 bng 15 250 50 0 empty empty empty 17 7 0 10 -262144
-1 -1;
#X obj -198 607 bng 15 250 50 0 empty empty empty 17 7 0 10 -262144
-1 -1;
#X obj -323 393 bng 15 250 50 0 empty empty empty 17 7 0 10 -262144
-1 -1;
#X obj -111 679 bng 15 250 50 0 empty empty empty 17 7 0 10 -262144
-1 -1;
#X obj -72 501 outlet~;
#X obj -79 207 pack f f;
#N canvas 123 109 901 598 1voice 0;
#X obj 311 151 multi-osc~;
#X obj 231 110 mtof;
#X obj 345 405 ADSR;
#X obj 240 39 unpack f f;
#X obj 168 86 sel 0;
#X obj 253 337 bng 15 250 50 0 empty empty empty 17 7 0 10 -262144
-1 -1;
#X obj 213 294 bng 15 250 50 0 empty empty empty 17 7 0 10 -262144
-1 -1;
#X obj 240 12 inlet;
#X msg 235 64 MIDI note;
#X msg 321 66 Velocity;
#X obj 213 567 outlet~;
#X floatatom 389 104 5 0 0 0 - - -, f 5;
#X floatatom 189 41 5 0 0 0 - - -, f 5;
#X obj 156 116 bng 15 250 50 0 empty empty empty 17 7 0 10 -262144
-1 -1;
#X obj 203 131 bng 15 250 50 0 empty empty empty 17 7 0 10 -262144
-1 -1;
#X msg 290 12 note \, velocity;
#X obj 420 10 inlet;
#X msg 472 14 osc control;
#X obj 575 16 inlet;
#X msg 626 18 ADSR control;
#X obj 579 53 unpack f f f f f;
#X obj 548 122 s \$0A;
#X obj 597 120 s \$0D;
#X obj 643 120 s \$0S;
#X obj 698 121 s \$0R;
#X obj 756 125 s \$0G;
#X obj 337 347 r \$0A;
#X obj 383 345 r \$0D;
#X obj 427 345 r \$0S;
#X obj 483 346 r \$0R;
#X obj 541 350 r \$0G;
#X connect 0 0 2 0;
#X connect 1 0 0 0;
#X connect 1 0 5 0;
#X connect 2 0 10 0;
#X connect 3 0 4 0;
#X connect 3 0 12 0;
#X connect 3 1 2 7;
#X connect 3 1 11 0;
#X connect 4 0 6 0;
#X connect 4 0 13 0;
#X connect 4 1 1 0;
#X connect 4 1 14 0;
#X connect 5 0 2 5;
#X connect 6 0 2 6;
#X connect 7 0 3 0;
#X connect 18 0 20 0;
#X connect 20 0 21 0;
#X connect 20 1 22 0;
#X connect 20 2 23 0;
#X connect 20 3 24 0;
#X connect 20 4 25 0;
#X connect 26 0 2 1;
#X connect 27 0 2 2;
#X connect 28 0 2 3;
#X connect 29 0 2 4;
#X connect 30 0 2 7;
#X restore -69 353 pd 1voice;
#X msg 127 67 This shows promise but needs work!!!!!;
#X obj -80 123 poly 1 1;
#X obj 102 121 MultiOscControlOSC;
#X obj -230 294 delay 200;
#X obj -225 353 print ---;
#X obj -214 319 bng 15 250 50 0 empty empty empty 17 7 0 10 -262144
-1 -1;
#X obj -253 250 print makenote;
#X obj -214 177 shell;
#X obj 262 383 unpack f f f f f;
#X floatatom 262 424 5 0 0 0 - - -, f 5;
#X floatatom 288 447 5 0 0 0 - - -, f 5;
#X floatatom 372 425 5 0 0 0 - - -, f 5;
#X floatatom 345 452 5 0 0 0 - - -, f 5;
#X floatatom 315 425 5 0 0 0 - - -, f 5;
#X obj 258 121 ADSR-ControlOSC;
#X connect 0 0 2 0;
#X connect 0 1 1 0;
#X connect 1 0 18 1;
#X connect 2 0 18 0;
#X connect 3 0 15 0;
#X connect 3 1 15 1;
#X connect 4 0 0 0;
#X connect 5 0 8 0;
#X connect 5 0 16 0;
#X connect 5 1 7 0;
#X connect 5 2 6 0;
#X connect 5 3 9 0;
#X connect 15 0 5 0;
#X connect 15 0 20 0;
#X connect 15 0 23 0;
#X connect 16 0 14 0;
#X connect 18 0 3 0;
#X connect 18 1 3 1;
#X connect 18 2 3 2;
#X connect 20 0 22 0;
#X connect 22 0 21 0;
#X connect 25 0 26 0;
#X connect 25 1 27 0;
#X connect 25 2 30 0;
#X connect 25 3 29 0;
#X connect 25 4 28 0;
#X coords 0 -1 1 1 280 200 1 100 100;
#X restore -76 132 pd 4voice;
#X obj -240 -176 bng 15 250 50 0 empty empty empty 17 7 0 10 -262144
-1 -1;
#X obj -230 -93 bng 15 250 50 0 empty empty empty 17 7 0 10 -262144
-1 -1;
#X obj -422 -175 bng 15 250 50 0 empty empty empty 17 7 0 10 -262144
-1 -1;
#X msg -22 -110 channel;
#X msg -61 15 17;
#X msg -18 14 33;
#X obj -153 101 print route17 note/veloc;
#X connect 2 0 3 0;
#X connect 2 1 3 1;
#X connect 2 2 3 2;
#X connect 2 3 3 3;
#X connect 2 4 3 4;
#X connect 2 5 3 5;
#X connect 2 6 3 6;
#X connect 2 7 3 7;
#X connect 2 8 3 8;
#X connect 2 9 3 9;
#X connect 2 10 3 10;
#X connect 2 11 3 11;
#X connect 3 0 8 0;
#X connect 3 0 31 0;
#X connect 3 1 9 0;
#X connect 5 0 1 0;
#X connect 5 1 1 1;
#X connect 7 0 2 0;
#X connect 10 0 39 0;
#X connect 11 0 39 1;
#X connect 12 0 13 0;
#X connect 12 1 13 0;
#X connect 13 0 6 0;
#X connect 14 0 16 0;
#X connect 15 0 13 1;
#X connect 16 0 15 0;
#X connect 17 0 18 0;
#X connect 18 0 14 0;
#X connect 21 1 28 0;
#X connect 22 0 25 0;
#X connect 22 1 23 0;
#X connect 22 2 24 0;
#X connect 23 0 26 2;
#X connect 24 0 33 1;
#X connect 25 0 34 0;
#X connect 26 0 27 0;
#X connect 27 0 29 0;
#X connect 27 0 40 0;
#X connect 27 0 47 0;
#X connect 27 1 30 0;
#X connect 31 0 32 0;
#X connect 33 0 26 0;
#X connect 34 0 33 0;
#X connect 34 1 26 1;
#X connect 36 0 37 0;
#X connect 36 1 38 0;
#X connect 39 0 5 0;
#X connect 39 1 5 1;
#X connect 40 0 6 0;
#X connect 45 0 27 1;
#X connect 46 0 27 1;
