#N canvas 1 81 1185 701 10;
#X obj 536 46 MetroGlobal;
#X obj 523 477 output~;
#X obj -30 24 multi-osc~;
#X obj 226 60 AutoPhase12~;
#X obj 223 295 AutoPan12~;
#X obj -238 15 bng 15 250 50 0 empty empty empty 17 7 0 10 -262144
-1 -1;
#X obj 432 366 BHStereoEnhance~;
#X obj -16 566 s~ OscOut;
#X obj 225 33 r~ OscOut;
#X obj 187 601 s~ PanOutL;
#X obj 322 608 s~ PanOutR;
#X obj 412 140 r~ PanOutL;
#X obj 510 137 r~ PanOutR;
#X obj -1 329 *~;
#X obj 80 257 tgl 15 0 empty empty empty 17 7 0 10 -262144 -1 -1 1
1;
#X obj 80 302 line~;
#X obj 80 207 loadbang;
#X msg 80 232 1, f 1;
#X obj -129 349 adc~;
#X obj -110 386 *~;
#X obj -59 318 tgl 15 0 empty empty empty 17 7 0 10 -262144 -1 -1 0
1;
#X obj -59 363 line~;
#X msg -59 339 \$1 100;
#X obj -59 268 loadbang;
#X msg -59 292 0, f 1;
#X text 479 524 1: Turn on the DAC;
#X obj -1 207 lop~ 8000;
#X obj 0 227 lop~ 8000;
#X obj 0 227 lop~ 8000;
#X obj 0 207 lop~ 8000;
#X msg 80 278 \$1 50;
#X text 95 256 Turn on test osc;
#X text -47 318 ADC on;
#X obj 89 -101 kbd;
#X obj -137 -149 notein;
#X floatatom -125 -124 5 0 0 0 - - -, f 5;
#X floatatom -84 -127 5 0 0 0 - - -, f 5;
#X floatatom -168 -124 5 0 0 0 - - -, f 5;
#X obj -87 -59 pack f f f;
#X obj -129 28 route 17;
#X floatatom 435 7 5 0 0 0 - - -, f 5;
#X obj -115 60 bng 15 250 50 0 empty empty empty 17 7 0 10 -262144
-1 -1;
#X obj -93 66 bng 15 250 50 0 empty empty empty 17 7 0 10 -262144 -1
-1;
#X obj -122 123 unpack f f;
#X floatatom -84 152 5 0 0 0 - - -, f 5;
#X floatatom -122 153 5 0 0 0 - - -, f 5;
#X obj -65 173 mtof;
#X obj -139 177 poly 1 1;
#X obj -140 221 makenote;
#X obj -151 79 stripnote;
#X obj -221 143 print strip;
#X obj -230 56 print route;
#X obj 138 606 pvu~;
#X obj 139 633 vu 15 120 empty empty -1 -8 0 10 -66577 -1 1 0;
#X obj -88 -99 f;
#X obj -174 -94 t b f;
#X obj -94 -22 print CTRL note vel:;
#X obj -197 -67 print -- --;
#X obj 422 55 touchin;
#X floatatom 422 77 5 0 0 0 - - -, f 5;
#X floatatom 476 80 5 0 0 0 - - -, f 5;
#X obj 435 233 billverb~;
#X obj -13 381 ADSR2;
#X obj 90 355 bng 15 250 50 0 empty empty empty 17 7 0 10 -262144 -1
-1;
#X obj -161 119 bng 15 250 50 0 empty empty empty 17 7 0 10 -262144
-1 -1;
#X obj 659 393 pvu~;
#X obj 664 431 vu 15 120 empty empty -1 -8 0 10 -66577 -1 1 0;
#X obj 354 27 bng 15 250 50 0 empty empty empty 17 7 0 10 -262144 -1
-1;
#X obj 742 50 phasor~ 0.4;
#X obj 745 32 hsl 128 15 0.01 10 1 0 empty empty NoiseLFO -2 -8 0 10
-262144 -1 -1 0 1;
#X obj 743 73 *~;
#X obj 778 73 hsl 80 15 0 1 0 0 empty empty empty -2 -8 0 10 -262144
-1 -1 0 1;
#X obj 639 103 BillBangSeq;
#X obj 651 168 metro 150;
#X obj 711 200 + 1;
#X obj 655 197 f;
#X obj 616 190 bng 15 250 50 0 empty empty empty 17 7 0 10 -262144
-1 -1;
#X obj 636 133 tgl 15 0 empty empty empty 17 7 0 10 -262144 -1 -1 0
1;
#X floatatom 649 247 5 0 0 0 - - -, f 5;
#X obj 656 222 % 16;
#X obj 692 247 BillBangSeq;
#X obj 841 473 noise~;
#X obj 856 515 ADSR2;
#X obj 489 580 BillPan~;
#X obj 919 472 bng 15 250 50 0 empty empty empty 17 7 0 10 -262144
-1 -1;
#N canvas 1 207 905 430 Midi 0;
#X obj 216 67 bendin;
#X floatatom 217 90 5 0 0 0 - - -, f 5;
#X obj 217 111 / 16383;
#X floatatom 217 133 5 0 0 0 - - -, f 5;
#X floatatom 217 196 5 0 0 0 - - -, f 5;
#X obj 219 219 s \$0Bend;
#X obj 428 52 ctlin;
#X obj 462 76 * 100;
#X obj 444 99 +;
#X floatatom 463 120 5 0 0 0 - - -, f 5;
#X msg 528 69 KorgNano = 1;
#X msg 528 117 MPD18 = 33;
#X msg 527 93 KorgMicro37 = 17;
#X obj 366 94 f;
#X floatatom 366 119 5 0 0 0 - - -, f 5;
#X obj 366 141 s \$0CtlVal;
#X obj 444 142 s \$0CtlNum;
#X floatatom 360 363 5 0 0 0 - - -, f 5;
#N canvas 1 123 612 405 CTL 0;
#X obj 94 228 / 127;
#X obj 94 182 spigot;
#X floatatom 94 205 5 0 0 0 - - -, f 5;
#X obj 148 141 tgl 15 0 empty empty empty 17 7 0 10 -262144 -1 -1 0
1;
#X obj 72 57 r \$0CtlNum;
#X obj 16 155 r \$0CtlVal;
#X floatatom 105 122 5 0 0 0 - - -, f 5;
#X obj 119 81 == 100;
#X obj 170 61 +, f 4;
#X floatatom 146 121 5 0 0 0 - - -, f 5;
#X obj 155 1 inlet;
#X obj 94 252 outlet;
#X floatatom 106 142 5 0 0 0 - - -, f 5;
#X obj 203 2 inlet, f 6;
#X msg 198 -27 r $MidiCtlCh;
#X msg 76 -18 r $MidiCtlNumber;
#X obj 211 23 * 100;
#X obj 648 -106 bng 15 250 50 0 empty empty empty 17 7 0 10 -262144
-1 -1;
#X obj 534 8 bng 15 250 50 0 empty empty empty 17 7 0 10 -262144 -1
-1;
#X obj -117 -186 bng 15 250 50 0 empty empty empty 17 7 0 10 -262144
-1 -1;
#X obj 17 -80 bng 15 250 50 0 empty empty empty 17 7 0 10 -262144 -1
-1;
#X obj 648 -106 bng 15 250 50 0 empty empty empty 17 7 0 10 -262144
-1 -1;
#X obj 534 8 bng 15 250 50 0 empty empty empty 17 7 0 10 -262144 -1
-1;
#X obj 211 40 t b f;
#X connect 0 0 11 0;
#X connect 0 0 12 0;
#X connect 1 0 2 0;
#X connect 2 0 0 0;
#X connect 3 0 1 1;
#X connect 4 0 7 0;
#X connect 5 0 1 0;
#X connect 7 0 3 0;
#X connect 7 0 6 0;
#X connect 8 0 9 0;
#X connect 8 0 7 1;
#X connect 10 0 8 0;
#X connect 13 0 16 0;
#X connect 16 0 23 0;
#X connect 23 0 8 0;
#X connect 23 1 8 1;
#X coords 0 -1 1 1 85 60 1 100 100;
#X restore 360 246 pd CTL;
#X floatatom 402 100 5 0 0 0 - - -, f 5;
#X msg 360 220 1;
#X msg 428 214 17;
#X obj 360 384 s \$0KbdLFOAmt;
#X floatatom 556 15 5 0 0 0 - - -, f 5;
#X obj 360 338 + 0;
#X obj 361 313 * 1;
#X obj 322 169 loadbang;
#X obj 335 191 bng 15 250 50 0 empty empty empty 17 7 0 10 -262144
-1 -1;
#X obj 217 152 * 14;
#X obj 217 174 - 7;
#X connect 0 0 1 0;
#X connect 1 0 2 0;
#X connect 2 0 3 0;
#X connect 3 0 28 0;
#X connect 4 0 5 0;
#X connect 6 0 13 0;
#X connect 6 1 8 0;
#X connect 6 1 19 0;
#X connect 6 1 23 0;
#X connect 6 2 7 0;
#X connect 7 0 8 1;
#X connect 8 0 9 0;
#X connect 8 0 16 0;
#X connect 13 0 14 0;
#X connect 14 0 15 0;
#X connect 17 0 22 0;
#X connect 18 0 25 0;
#X connect 20 0 18 0;
#X connect 21 0 18 1;
#X connect 24 0 17 0;
#X connect 25 0 24 0;
#X connect 26 0 27 0;
#X connect 27 0 20 0;
#X connect 27 0 21 0;
#X connect 28 0 29 0;
#X connect 29 0 4 0;
#X restore 105 176 pd Midi stuff;
#X obj 498 -114 KeyBender;
#X obj 477 -182 r \$0Bend;
#X floatatom 504 -15 5 0 0 0 - - -, f 5;
#X floatatom 698 -21 5 0 0 0 - - -, f 5;
#X obj 504 3 s \$0BendFactor;
#X obj -62 230 *;
#X obj -57 203 t b f;
#X obj -19 180 r \$0BendFactor;
#X obj 561 -247 LFO1;
#X floatatom 730 -162 5 0 0 0 - - -, f 5;
#X obj 493 -135 +;
#X obj 525 -156 t b f;
#X floatatom 486 -158 5 0 0 0 - - -, f 5;
#X floatatom 749 -281 5 0 0 0 - - -, f 5;
#X obj 748 -304 r \$0KbdLFOAmt;
#X floatatom 749 -240 5 0 0 0 - - -, f 5;
#X obj 749 -261 * 20;
#X obj 1127 133 bng 15 250 50 0 empty empty empty 17 7 0 10 -262144
-1 -1;
#X obj 1262 12 bng 15 250 50 0 empty empty empty 17 7 0 10 -262144
-1 -1;
#X obj 1276 764 bng 15 250 50 0 empty empty empty 17 7 0 10 -262144
-1 -1;
#X obj 1147 656 bng 15 250 50 0 empty empty empty 17 7 0 10 -262144
-1 -1;
#X obj 941 430 delay 59;
#X obj 960 479 bng 15 250 50 0 empty empty empty 17 7 0 10 -262144
-1 -1;
#X obj 985 344 hsl 128 15 0 127 0 0 empty empty empty -2 -8 0 10 -262144
-1 -1 0 1;
#X floatatom 982 364 5 0 0 0 - - -, f 5;
#X obj 1027 543 hsl 128 15 0 1 0 0 empty empty empty -2 -8 0 10 -4034
-1 -1 0 1;
#X obj 872 693 *~;
#X obj 957 721 *~;
#X obj 1027 594 -;
#X msg 1029 565 1 \$1;
#X obj 319 554 tb_compressor~;
#X obj 189 557 tb_compressor~;
#X obj 359 700 tb_compressorUI;
#X obj -136 976 bng 15 250 50 0 empty empty empty 17 7 0 10 -262144
-1 -1;
#X obj 22 840 bng 15 250 50 0 empty empty empty 17 7 0 10 -262144 -1
-1;
#X floatatom -140 272 5 0 0 0 - - -, f 5;
#X floatatom -113 247 5 0 0 0 - - -, f 5;
#X connect 2 0 26 0;
#X connect 3 0 4 0;
#X connect 3 1 4 1;
#X connect 3 2 4 2;
#X connect 3 3 4 3;
#X connect 3 4 4 4;
#X connect 3 5 4 5;
#X connect 3 6 4 6;
#X connect 3 7 4 7;
#X connect 3 8 4 8;
#X connect 3 9 4 9;
#X connect 3 10 4 10;
#X connect 3 11 4 11;
#X connect 4 0 117 0;
#X connect 4 1 116 0;
#X connect 6 0 1 0;
#X connect 6 1 1 1;
#X connect 6 1 65 0;
#X connect 8 0 3 0;
#X connect 11 0 61 0;
#X connect 12 0 61 1;
#X connect 13 0 62 0;
#X connect 14 0 30 0;
#X connect 15 0 13 1;
#X connect 16 0 17 0;
#X connect 17 0 14 0;
#X connect 18 0 19 0;
#X connect 18 1 19 0;
#X connect 19 0 7 0;
#X connect 20 0 22 0;
#X connect 21 0 19 1;
#X connect 22 0 21 0;
#X connect 23 0 24 0;
#X connect 24 0 20 0;
#X connect 26 0 27 0;
#X connect 27 0 28 0;
#X connect 28 0 29 0;
#X connect 29 0 13 0;
#X connect 30 0 15 0;
#X connect 33 1 2 0;
#X connect 33 1 40 0;
#X connect 33 1 67 0;
#X connect 34 0 37 0;
#X connect 34 1 35 0;
#X connect 34 2 36 0;
#X connect 35 0 38 2;
#X connect 36 0 54 1;
#X connect 37 0 55 0;
#X connect 38 0 39 0;
#X connect 38 0 56 0;
#X connect 39 0 41 0;
#X connect 39 0 49 0;
#X connect 39 0 51 0;
#X connect 39 1 42 0;
#X connect 43 0 45 0;
#X connect 43 1 44 0;
#X connect 44 0 47 1;
#X connect 45 0 47 0;
#X connect 45 0 46 0;
#X connect 46 0 91 0;
#X connect 47 0 48 0;
#X connect 47 1 48 1;
#X connect 47 2 48 2;
#X connect 48 0 121 0;
#X connect 48 1 122 0;
#X connect 49 0 43 0;
#X connect 49 0 50 0;
#X connect 49 0 64 0;
#X connect 52 0 53 0;
#X connect 54 0 38 0;
#X connect 55 0 54 0;
#X connect 55 0 57 0;
#X connect 55 1 38 1;
#X connect 58 0 59 0;
#X connect 58 1 60 0;
#X connect 61 0 6 0;
#X connect 61 1 6 1;
#X connect 62 0 7 0;
#X connect 63 0 62 6;
#X connect 64 0 63 0;
#X connect 65 0 66 0;
#X connect 67 0 63 0;
#X connect 68 0 70 0;
#X connect 69 0 68 0;
#X connect 70 0 2 5;
#X connect 71 0 70 1;
#X connect 72 0 84 0;
#X connect 73 0 76 0;
#X connect 73 0 75 0;
#X connect 74 0 75 1;
#X connect 75 0 74 0;
#X connect 75 0 79 0;
#X connect 77 0 73 0;
#X connect 78 0 72 0;
#X connect 79 0 78 0;
#X connect 79 0 80 0;
#X connect 80 0 63 0;
#X connect 81 0 82 0;
#X connect 82 0 112 0;
#X connect 82 0 113 0;
#X connect 83 0 1 0;
#X connect 83 1 61 1;
#X connect 84 0 82 6;
#X connect 84 0 107 0;
#X connect 86 0 88 0;
#X connect 86 1 89 0;
#X connect 87 0 96 0;
#X connect 87 0 98 0;
#X connect 88 0 90 0;
#X connect 91 0 2 0;
#X connect 92 0 91 0;
#X connect 92 1 91 1;
#X connect 93 0 92 0;
#X connect 94 1 95 0;
#X connect 94 1 97 0;
#X connect 96 0 86 0;
#X connect 97 0 96 0;
#X connect 97 1 96 1;
#X connect 99 0 102 0;
#X connect 100 0 94 1;
#X connect 100 0 99 0;
#X connect 101 0 94 0;
#X connect 102 0 101 0;
#X connect 107 0 108 0;
#X connect 108 0 82 6;
#X connect 109 0 107 0;
#X connect 109 0 110 0;
#X connect 111 0 112 1;
#X connect 111 0 115 0;
#X connect 112 0 3 0;
#X connect 113 0 83 0;
#X connect 114 0 113 1;
#X connect 115 0 114 0;
#X connect 116 0 10 0;
#X connect 117 0 9 0;
#X connect 117 0 52 0;
#X connect 117 1 118 0;
#X connect 118 0 117 1;
#X connect 118 0 116 1;
