#N canvas 1938 116 1226 754 10;
#X obj 48 104 multi-osc~;
#X obj 227 470 output~;
#X obj 259 109 MetroGlobal;
#X obj 263 164 Snapshot;
#X obj 124 66 hsl 128 15 0 1 0 0 empty empty Duty -2 -8 0 10 -262144
-1 -1 0 1;
#X obj 122 82 sig~;
#X obj 55 568 AutoPan3~;
#X obj 45 409 AutoPhase3;
#X obj 285 442 catch~ \$0OutR;
#X obj 228 422 catch~ \$0OutL;
#X obj 77 743 throw~ \$0OutL;
#X obj 234 749 throw~ \$0OutR;
#X connect 0 0 7 0;
#X connect 4 0 5 0;
#X connect 5 0 0 2;
#X connect 6 0 10 0;
#X connect 6 1 11 0;
#X connect 7 0 6 0;
#X connect 7 1 6 1;
#X connect 7 2 6 2;
#X connect 8 0 1 1;
#X connect 9 0 1 0;
