#N canvas 1928 160 1401 754 10;
#X obj 48 104 multi-osc~;
#X obj 679 534 output~;
#X obj 144 -27 MetroGlobal;
#X obj -121 450 Snapshot;
#X obj 111 49 hsl 128 15 0 1 0 0 empty empty Duty -2 -8 0 10 -262144
-1 -1 5800 1;
#X obj 110 73 sig~;
#X obj 649 327 BillVerb~;
#X obj -278 -11 kbd;
#X floatatom 77 63 5 0 0 0 - - -;
#X floatatom -279 96 5 0 0 0 - - -;
#N canvas 2117 28 665 629 LFO 0;
#X obj 11 12 bendin;
#X floatatom 11 39 5 0 0 0 - - -;
#X obj 7 113 / 8192;
#X floatatom 8 142 5 0 0 0 - - -;
#X obj 7 165 - 1;
#X floatatom 8 191 5 0 0 0 - - -;
#X obj 107 143 hsl 60 15 0 24 0 0 empty empty semitones 5 8 0 10 -203904
-1 -1 0 1;
#X floatatom 172 143 5 0 0 0 - - -;
#X obj 59 104 int;
#X obj 15 228 *;
#X obj 51 182 t b f;
#X floatatom 15 296 5 0 0 0 - - -;
#X obj 448 16 ctlin;
#X floatatom 422 102 5 0 0 0 - - -;
#X floatatom 466 59 5 0 0 0 - - -;
#X floatatom 607 57 5 0 0 0 - - -;
#X obj 57 36 nbx 5 20 -1e+037 1e+037 0 0 empty empty channel 0 -8 0
15 -261234 -1 -1 0 256;
#X obj 264 85 osc~ 5;
#X obj 106 163 hsl 60 15 0 30 0 0 empty empty empty -2 -8 0 10 -262144
-1 -1 0 1;
#X floatatom 172 181 5 0 0 0 - - -;
#X obj 274 197 Snapshot;
#X obj 107 181 hsl 60 15 0 5 0 0 empty empty empty -2 -8 0 10 -262144
-1 -1 0 1;
#X obj 264 143 *~;
#X obj 15 324 outlet;
#X obj 184 351 outlet~;
#X msg 185 325 LFO out semitones;
#X msg 15 351 BendOnlySemitones;
#X obj 106 121 hsl 60 15 0 127 0 0 \$0MidiIn empty MIDI_In 5 8 0 10
-4032 -1 -1 0 1;
#X obj 166 17 inlet;
#X floatatom 468 111 5 0 0 0 - - -;
#X obj 466 85 expr ($f1 == 1) && ($f2 == 2);
#X obj 440 149 spigot;
#X obj 473 128 tgl 15 0 empty empty empty 17 7 0 10 -262144 -1 -1 0
1;
#X msg 503 60 controller #;
#X msg 645 54 MIDI channel;
#X obj 443 173 / 127;
#X floatatom 443 195 5 0 0 0 - - -;
#X obj 428 222 *;
#X floatatom 172 163 5 0 0 0 - - -;
#X obj 346 333 +;
#X obj 389 308 t f b;
#X obj 61 322 s \$0BendSemitones;
#X obj 389 288 r \$0BendSemitones;
#X obj 313 291 r \$0MidiIn;
#X obj 344 370 outlet;
#X connect 0 0 1 0;
#X connect 0 1 16 0;
#X connect 1 0 2 0;
#X connect 2 0 3 0;
#X connect 3 0 4 0;
#X connect 4 0 5 0;
#X connect 5 0 9 0;
#X connect 6 0 8 0;
#X connect 8 0 7 0;
#X connect 8 0 10 0;
#X connect 9 0 11 0;
#X connect 10 0 9 0;
#X connect 10 1 9 1;
#X connect 11 0 23 0;
#X connect 11 0 41 0;
#X connect 12 0 13 0;
#X connect 12 1 14 0;
#X connect 12 2 15 0;
#X connect 13 0 31 0;
#X connect 14 0 30 0;
#X connect 15 0 30 1;
#X connect 17 0 22 0;
#X connect 18 0 17 0;
#X connect 18 0 38 0;
#X connect 21 0 19 0;
#X connect 21 0 37 0;
#X connect 22 0 20 0;
#X connect 22 0 24 0;
#X connect 28 0 27 0;
#X connect 29 0 32 0;
#X connect 30 0 29 0;
#X connect 31 0 35 0;
#X connect 32 0 31 1;
#X connect 35 0 36 0;
#X connect 36 0 37 1;
#X connect 37 0 22 1;
#X connect 40 0 39 0;
#X connect 40 1 39 1;
#X connect 42 0 40 0;
#X connect 43 0 39 0;
#X coords 0 -1 1 1 110 100 1 100 100;
#X restore 847 99 pd LFO;
#X obj 59 460 vowellfilter1;
#X obj 270 88 FormantControl;
#X obj 285 276 keybender;
#X obj 350 558 AutoPan3~;
#X obj 370 410 AutoPhase3;
#X obj -163 220 metro 250;
#X obj -162 194 tgl 15 0 empty empty empty 17 7 0 10 -262144 -1 -1
1 1;
#X obj -162 256 random 127;
#X floatatom -162 281 5 0 0 0 - - -;
#X obj -90 254 random 127;
#X floatatom -90 280 5 0 0 0 - - -;
#X obj -17 254 random 127;
#X floatatom -19 278 5 0 0 0 - - -;
#X obj -160 336 mtof;
#X obj -91 329 mtof;
#X obj -23 329 mtof;
#X obj -113 355 pack f f f;
#X obj -40 402 mux;
#X obj -26 369 tgl 15 0 empty empty empty 17 7 0 10 -262144 -1 -1 1
1;
#X obj -96 192 hsl 128 15 1 127 1 0 empty empty Random_Range 7 8 0
10 -260160 -1 -1 8700 1;
#X obj -162 306 +;
#X obj -94 305 +;
#X obj -20 303 +;
#X obj -94 131 hsl 128 15 0 127 0 0 empty empty Random_Offset 7 8 0
10 -260160 -1 -1 5800 1;
#X floatatom -13 229 5 0 0 0 - - -;
#X obj -96 105 hsl 128 15 1000 10 0 0 empty empty Metro_Rate 6 8 0
10 -260160 -1 -1 10400 1;
#X obj -385 362 BillBangSeq;
#X obj -411 438 noise~;
#X obj -371 498 ADSR2;
#X obj -415 463 BillPan~;
#X obj -58 645 throw~;
#X obj -368 671 throw~ \$0ReverbInL;
#X obj -240 654 throw~ \$0ReverbInR;
#X obj 294 735 throw~ \$0ReverbInL;
#X obj 444 733 throw~ \$0ReverbInR;
#X obj 636 279 catch~ \$0ReverbInL;
#X obj 695 302 catch~ \$0ReverbInR;
#X obj -94 147 hsl 128 15 0 127 0 0 empty empty Random_Offset 7 8 0
10 -260160 -1 -1 7000 1;
#X obj -94 163 hsl 128 15 0 127 0 0 empty empty Random_Offset 7 8 0
10 -260160 -1 -1 7800 1;
#X connect 0 0 11 0;
#X connect 4 0 5 0;
#X connect 5 0 0 2;
#X connect 6 0 1 0;
#X connect 6 1 1 1;
#X connect 7 0 9 0;
#X connect 7 1 0 0;
#X connect 7 1 8 0;
#X connect 11 0 15 0;
#X connect 12 0 28 0;
#X connect 13 1 11 3;
#X connect 14 0 44 0;
#X connect 14 1 45 0;
#X connect 15 0 14 0;
#X connect 15 1 14 1;
#X connect 15 2 14 2;
#X connect 16 0 18 0;
#X connect 16 0 20 0;
#X connect 16 0 22 0;
#X connect 16 0 37 0;
#X connect 17 0 16 0;
#X connect 18 0 19 0;
#X connect 19 0 31 0;
#X connect 20 0 21 0;
#X connect 21 0 32 0;
#X connect 22 0 23 0;
#X connect 23 0 33 0;
#X connect 24 0 27 0;
#X connect 25 0 27 1;
#X connect 26 0 27 2;
#X connect 27 0 28 1;
#X connect 28 0 11 1;
#X connect 29 0 28 2;
#X connect 30 0 18 1;
#X connect 30 0 20 1;
#X connect 30 0 22 1;
#X connect 30 0 35 0;
#X connect 31 0 24 0;
#X connect 32 0 25 0;
#X connect 33 0 26 0;
#X connect 34 0 31 1;
#X connect 36 0 16 1;
#X connect 37 0 39 6;
#X connect 38 0 40 0;
#X connect 39 0 42 0;
#X connect 39 1 43 0;
#X connect 40 0 39 0;
#X connect 40 1 39 1;
#X connect 46 0 6 0;
#X connect 47 0 6 1;
#X connect 48 0 32 1;
#X connect 49 0 33 1;
