#N canvas 78 185 960 518 10;
#X obj 414 20 MetroGlobal;
#X obj 499 397 output~;
#X obj 226 -60 billverb~;
#X obj 225 61 AutoPhase12~;
#X obj 219 283 AutoPan12~;
#X obj -238 15 bng 15 250 50 0 empty empty empty 17 7 0 10 -262144
-1 -1;
#X obj 447 343 BHStereoEnhance~;
#X obj -1 482 s~ OscOut;
#X obj 229 -82 r~ OscOut;
#X obj 219 496 s~ PanOutL;
#X obj 372 496 s~ PanOutR;
#X obj 462 191 r~ PanOutL;
#X obj 556 187 r~ PanOutR;
#X obj -1 389 *~;
#X obj 50 321 tgl 15 0 empty empty empty 17 7 0 10 -262144 -1 -1 1
1;
#X obj 50 366 line~;
#X obj 50 271 loadbang;
#X msg 50 296 1, f 1;
#X obj -136 261 adc~;
#X obj -110 386 *~;
#X obj -69 283 tgl 15 0 empty empty empty 17 7 0 10 -262144 -1 -1 0
1;
#X obj -59 363 line~;
#X msg -59 339 \$1 100;
#X obj -69 233 loadbang;
#X msg -69 257 0, f 1;
#X text 455 444 1: Turn on the DAC;
#X obj 15 177 lop~ 8000;
#X obj 14 192 lop~ 8000;
#X obj 15 210 lop~ 8000;
#X obj 13 226 lop~ 8000;
#X msg 50 342 \$1 50;
#X text 65 320 Turn on test osc;
#X text -57 283 ADC on;
#X obj -65 308 hsl 40 15 0.01 1 1 0 empty empty empty -2 -8 0 10 -262144
-1 -1 0 1;
#X obj -182 361 pvu~;
#X obj -181 384 vu 15 120 empty empty -1 -8 0 10 -66577 -1 1 0;
#X obj 470 221 billverb~;
#X obj -134 13 notein;
#X floatatom -158 39 5 0 0 0 - - -, f 5;
#X floatatom -118 41 5 0 0 0 - - -, f 5;
#X floatatom -77 41 5 0 0 0 - - -, f 5;
#X obj -175 122 pack f f f;
#X obj -139 90 f;
#X obj -184 62 t b f;
#X obj -170 156 route 17 2;
#X obj -170 181 bng 15 250 50 0 empty empty empty 17 7 0 10 -262144
-1 -1;
#X obj -137 181 bng 15 250 50 0 empty empty empty 17 7 0 10 -262144
-1 -1;
#X connect 2 0 3 0;
#X connect 3 0 4 0;
#X connect 3 1 4 1;
#X connect 3 2 4 2;
#X connect 3 3 4 3;
#X connect 3 4 4 4;
#X connect 3 5 4 5;
#X connect 3 6 4 6;
#X connect 3 7 4 7;
#X connect 3 8 4 8;
#X connect 3 9 4 9;
#X connect 3 10 4 10;
#X connect 3 11 4 11;
#X connect 4 0 9 0;
#X connect 4 1 10 0;
#X connect 6 0 1 0;
#X connect 6 1 1 1;
#X connect 8 0 2 0;
#X connect 8 0 2 1;
#X connect 11 0 36 0;
#X connect 12 0 36 1;
#X connect 13 0 7 0;
#X connect 14 0 30 0;
#X connect 15 0 13 1;
#X connect 16 0 17 0;
#X connect 17 0 14 0;
#X connect 18 0 19 0;
#X connect 18 0 34 0;
#X connect 18 1 19 0;
#X connect 19 0 7 0;
#X connect 20 0 33 0;
#X connect 21 0 19 1;
#X connect 22 0 21 0;
#X connect 23 0 24 0;
#X connect 24 0 20 0;
#X connect 26 0 27 0;
#X connect 27 0 28 0;
#X connect 28 0 29 0;
#X connect 29 0 13 0;
#X connect 29 0 34 0;
#X connect 30 0 15 0;
#X connect 33 0 22 0;
#X connect 34 0 35 0;
#X connect 36 0 6 0;
#X connect 36 1 6 1;
#X connect 37 0 38 0;
#X connect 37 1 39 0;
#X connect 37 2 40 0;
#X connect 38 0 43 0;
#X connect 39 0 41 2;
#X connect 40 0 42 1;
#X connect 41 0 44 0;
#X connect 42 0 41 0;
#X connect 43 0 42 0;
#X connect 43 1 41 1;
#X connect 44 0 45 0;
#X connect 44 1 46 0;
