#N canvas 0 67 1200 701 10;
#X obj 473 323 multi-osc~;
#X obj 825 1009 output~;
#X obj 513 523 ADSR2;
#X obj 651 458 bng 15 250 50 0 empty empty empty 17 7 0 10 -262144
-1 -1;
#X obj 634 288 mtof;
#X msg 219 3 bend;
#X msg 173 1 LFO;
#X msg 85 0 Rate;
#X msg 30 1 Freq;
#X msg 272 6 noise;
#X msg 130 0 PW;
#X obj 475 183 sel 0 1 2 3;
#X obj 474 89 metro;
#X obj 473 66 tgl 15 0 empty empty empty 17 7 0 10 -262144 -1 -1 0
1;
#X obj 506 20 BPM;
#X msg 471 -2 126;
#X obj 474 113 f;
#X obj 518 111 + 1;
#X floatatom 388 133 5 0 0 0 - - -, f 5;
#X obj 170 645 vcf~;
#X obj 714 495 hsl 128 15 30 10000 1 0 empty empty Freq 10 7 0 10 -257985
-1 -1 6503 1;
#X obj 215 607 hsl 40 15 0.3 30 1 0 empty empty Q 10 7 0 10 -260097
-1 -1 2200 1;
#X obj 159 561 line~;
#X floatatom 293 531 5 0 0 0 - - -, f 5;
#X obj 721 433 hsl 128 15 6.5 80 1 0 empty empty empty -2 -8 0 10 -262144
-1 -1 4900 1;
#X obj 710 461 *;
#X floatatom 859 451 5 0 0 0 - - -, f 5;
#X obj 356 707 WetDry~;
#X obj 172 671 *~;
#X obj 721 700 pvu~;
#X obj 723 725 vu 15 120 empty empty -1 -8 0 10 -66577 -1 1 0;
#X obj 122 725 pvu~;
#X obj 120 757 vu 15 120 empty empty -1 -8 0 10 -66577 -1 1 0;
#X obj 309 620 hsl 128 15 0.05 5 1 0 empty empty VCF_Q_Comp 0 7 0 10
-262144 -1 -1 9779 1;
#X floatatom 304 643 5 0 0 0 - - -, f 5;
#X obj 358 784 delwrite~ DELAY 1000;
#X obj 199 887 sig~;
#X obj 245 808 hsl 128 15 10 1000 1 0 empty empty Delay_ms 10 7 0 10
-232576 -1 -1 7900 1;
#X obj 239 897 vd~ DELAY;
#X obj 239 920 s~ \$0DelayOut;
#X obj 879 830 r~ \$0DelayOut;
#X obj 471 712 r~ \$0DelayOut;
#X obj 474 757 *~;
#X obj 504 735 hsl 128 15 0.01 1 1 0 empty empty Regen 10 7 0 10 -261234
-1 -1 11600 1;
#X floatatom 356 828 5 0 0 0 - - -, f 5;
#X floatatom 501 755 5 0 0 0 - - -, f 5;
#X obj 619 257 f;
#X obj 585 256 f;
#X obj 682 259 f;
#X obj 648 258 f;
#X obj 637 582 bng 25 250 50 0 empty empty empty 17 7 0 10 -4034 -1
-1;
#X obj 605 169 r \$0Note1;
#X obj 618 188 r \$0Note2;
#X obj 647 207 r \$0Note3;
#X obj 666 230 r \$0Note4;
#X obj 388 107 % 32;
#X obj 478 159 % 4;
#X obj 704 155 sel 0 6;
#X obj 744 179 bng 15 250 50 0 empty empty empty 17 7 0 10 -262144
-1 -1;
#X floatatom 220 628 5 0 0 0 - - -, f 5;
#X msg 212 584 17;
#X msg 570 696 0.336;
#X msg 242 784 336.9;
#X msg 317 594 3.2;
#X floatatom 259 587 5 0 0 0 - - -, f 5;
#X obj -229 853 sqrt;
#X obj 351 570 / 1.4;
#X obj 351 594 + 0.3;
#X obj 350 544 sqrt;
#X obj 808 870 billverb~;
#X msg 242 831 \$1 1000;
#X obj 26 582 hsl 128 15 0.01 1 1 0 empty empty empty -2 -8 0 10 -262144
-1 -1 6000 1;
#X msg 34 559 0;
#X obj 45 642 delay~ 200;
#X obj 24 676 *~;
#X obj 14 620 r~ \$0DelayOut;
#X obj 23 778 osc~;
#X obj 63 863 hsl 128 15 0.001 1 1 0 empty empty empty -2 -8 0 10 -262144
-1 -1 6300 1;
#X msg 71 840 0;
#X obj 36 832 *~;
#X obj 700 132 % 2;
#X floatatom 709 402 5 0 0 0 - - -, f 5;
#X obj 811 291 +;
#X obj 765 259 +;
#X obj 829 267 +;
#X obj 709 380 + 0;
#X obj 755 217 random 10;
#X obj 834 218 random 10;
#X obj 811 244 random 10;
#X obj 889 238 random 10;
#X obj 770 385 hsl 128 15 -10 127 0 0 empty empty empty -2 -8 0 10
-262144 -1 -1 300 1;
#X obj -44 183 kbd;
#X floatatom -48 288 5 0 0 0 - - -, f 5;
#X floatatom 270 288 5 0 0 0 - - -, f 5;
#X msg 158 537 \$1 50;
#X obj -1 291 KeyBender;
#X floatatom -38 392 5 0 0 0 - - -, f 5;
#X floatatom 262 399 5 0 0 0 - - -, f 5;
#X obj 21 438 *;
#X obj 28 412 t b f;
#N canvas 61 369 450 300 MIDI 1;
#X obj 40 122 notein;
#X obj 29 147 poly 4 1;
#X obj 29 172 pack f f;
#X floatatom 27 228 5 0 0 0 - - -, f 5;
#X floatatom 73 276 5 0 0 0 - - -, f 5;
#X floatatom 48 252 5 0 0 0 - - -, f 5;
#X floatatom 86 306 5 0 0 0 - - -, f 5;
#X obj 27 197 route 1 2 3 4;
#X obj -24 270 s \$0Note1;
#X obj -10 292 s \$0Note2;
#X obj 13 315 s \$0Note3;
#X obj 33 339 s \$0Note4;
#X connect 0 0 1 0;
#X connect 0 1 1 1;
#X connect 1 0 2 0;
#X connect 1 1 2 1;
#X connect 2 0 7 0;
#X connect 3 0 8 0;
#X connect 4 0 10 0;
#X connect 5 0 9 0;
#X connect 6 0 11 0;
#X connect 7 0 3 0;
#X connect 7 1 5 0;
#X connect 7 2 4 0;
#X connect 7 3 6 0;
#X restore -26 152 pd MIDI routing;
#N canvas 1 67 450 300 ChordChange 0;
#X msg 240 111 36;
#X msg 277 110 48;
#X msg 314 111 60;
#X obj 122 121 bng 15 250 50 0 empty empty empty 17 7 0 10 -262144
-1 -1;
#X msg 349 109 48;
#X obj 103 122 bng 15 250 50 0 empty empty empty 17 7 0 10 -262144
-1 -1;
#X msg 327 156 48;
#X msg 218 158 34;
#X msg 257 159 46;
#X msg 288 158 58;
#X obj 232 184 s \$0Note1;
#X obj 242 205 s \$0Note2;
#X obj 311 180 s \$0Note3;
#X obj 336 204 s \$0Note4;
#X connect 0 0 10 0;
#X connect 0 0 13 0;
#X connect 1 0 11 0;
#X connect 1 0 13 0;
#X connect 2 0 12 0;
#X connect 2 0 13 0;
#X connect 3 0 1 0;
#X connect 3 0 2 0;
#X connect 3 0 4 0;
#X connect 3 0 0 0;
#X connect 4 0 13 0;
#X connect 5 0 8 0;
#X connect 5 0 9 0;
#X connect 5 0 6 0;
#X connect 5 0 7 0;
#X connect 7 0 10 0;
#X connect 8 0 11 0;
#X connect 9 0 12 0;
#X coords 0 -1 1 1 40 40 1 100 100;
#X restore -15 96 pd ChordChange;
#X obj 274 333 s \$0FilterFreq;
#X obj 70 389 r \$0FilterFreq;
#X msg 159 119 88;
#X msg 194 119 86;
#X msg 232 121 84;
#X msg 263 123 83;
#X msg 167 155 76;
#X msg 213 156 79;
#X msg 249 155 81;
#X msg 283 159 83;
#X obj 319 180 mtof;
#X msg 211 108 79;
#X obj 147 440 tgl 15 0 empty empty empty 17 7 0 10 -262144 -1 -1 0
1;
#X obj 113 471 spigot;
#X obj 238 852 line~;
#X obj 636 307 / 2;
#X obj 370 210 / 2;
#X connect 0 0 2 0;
#X connect 2 0 27 2;
#X connect 2 0 19 0;
#X connect 2 0 29 0;
#X connect 3 0 2 6;
#X connect 4 0 3 0;
#X connect 4 0 117 0;
#X connect 11 0 47 0;
#X connect 11 1 46 0;
#X connect 11 2 49 0;
#X connect 11 3 48 0;
#X connect 12 0 16 0;
#X connect 13 0 12 0;
#X connect 14 0 12 1;
#X connect 15 0 14 1;
#X connect 16 0 17 0;
#X connect 16 0 55 0;
#X connect 16 0 56 0;
#X connect 16 0 80 0;
#X connect 17 0 16 1;
#X connect 19 0 28 0;
#X connect 20 0 23 0;
#X connect 21 0 19 2;
#X connect 21 0 59 0;
#X connect 22 0 19 1;
#X connect 22 0 76 0;
#X connect 23 0 94 0;
#X connect 24 0 25 0;
#X connect 24 0 26 0;
#X connect 24 0 25 1;
#X connect 25 0 20 0;
#X connect 27 0 35 0;
#X connect 28 0 31 0;
#X connect 28 0 27 0;
#X connect 29 0 30 0;
#X connect 31 0 32 0;
#X connect 33 0 28 1;
#X connect 33 0 34 0;
#X connect 36 0 38 0;
#X connect 37 0 44 0;
#X connect 37 0 70 0;
#X connect 38 0 39 0;
#X connect 40 0 69 1;
#X connect 40 0 69 0;
#X connect 41 0 42 0;
#X connect 42 0 35 0;
#X connect 43 0 42 1;
#X connect 43 0 45 0;
#X connect 46 0 4 0;
#X connect 47 0 4 0;
#X connect 48 0 4 0;
#X connect 49 0 4 0;
#X connect 50 0 47 0;
#X connect 51 0 47 1;
#X connect 52 0 46 1;
#X connect 53 0 49 1;
#X connect 54 0 48 1;
#X connect 55 0 18 0;
#X connect 56 0 11 0;
#X connect 57 0 58 0;
#X connect 58 0 86 0;
#X connect 58 0 87 0;
#X connect 58 0 88 0;
#X connect 58 0 89 0;
#X connect 59 0 65 0;
#X connect 59 0 68 0;
#X connect 60 0 21 0;
#X connect 61 0 43 0;
#X connect 62 0 37 0;
#X connect 63 0 33 0;
#X connect 64 0 21 0;
#X connect 66 0 67 0;
#X connect 67 0 33 0;
#X connect 68 0 66 0;
#X connect 69 0 1 0;
#X connect 69 1 1 1;
#X connect 70 0 116 0;
#X connect 71 0 74 1;
#X connect 72 0 71 0;
#X connect 73 0 74 0;
#X connect 74 0 19 0;
#X connect 75 0 73 0;
#X connect 76 0 79 0;
#X connect 77 0 79 1;
#X connect 78 0 77 0;
#X connect 79 0 19 0;
#X connect 80 0 57 0;
#X connect 81 0 24 0;
#X connect 83 0 82 0;
#X connect 84 0 82 1;
#X connect 85 0 81 0;
#X connect 86 0 83 0;
#X connect 87 0 83 1;
#X connect 88 0 84 0;
#X connect 89 0 84 1;
#X connect 90 0 85 1;
#X connect 91 0 92 0;
#X connect 91 1 93 0;
#X connect 93 0 102 0;
#X connect 94 0 22 0;
#X connect 95 0 96 0;
#X connect 95 0 98 0;
#X connect 95 1 97 0;
#X connect 98 0 20 0;
#X connect 99 0 98 0;
#X connect 99 1 98 1;
#X connect 103 0 99 0;
#X connect 104 0 112 0;
#X connect 105 0 112 0;
#X connect 106 0 112 0;
#X connect 107 0 112 0;
#X connect 108 0 112 0;
#X connect 109 0 112 0;
#X connect 110 0 112 0;
#X connect 111 0 112 0;
#X connect 112 0 118 0;
#X connect 113 0 112 0;
#X connect 114 0 115 1;
#X connect 116 0 38 0;
#X connect 117 0 0 0;
#X connect 118 0 99 0;
