#N canvas 1916 0 1280 984 10;
#X obj 203 798 output~;
#X obj 52 132 metro 500;
#X obj 52 174 f;
#X obj 84 173 + 1;
#X obj 4 102 tgl 30 0 empty empty Start 5 10 0 15 -4034 -1 -1 1 1;
#X obj 106 89 hsl 128 15 0 1000 0 0 empty empty clock 7 7 0 10 -262144
-1 -1 5994 1;
#X floatatom 239 107 5 0 0 0 - - -;
#X obj 323 7 MetroGlobal;
#X obj 436 8 Snapshot;
#X obj 178 672 BillVerb~;
#X msg 104 64 543;
#X obj 63 540 AutoPhase~;
#X obj 665 274 kbd;
#X obj 670 393 KeyBender;
#X obj 567 543 expr $f2 * pow (1.059462 \, $f1);
#X msg 546 333 32;
#X msg 637 333 37;
#X msg 575 333 34;
#X msg 609 333 35;
#X obj 486 111 bng 25 250 50 0 empty empty Db 5 13 0 20 -260097 -1
-1;
#X obj 549 112 bng 25 250 50 0 empty empty empty 17 7 0 10 -260097
-1 -1;
#X obj 597 115 bng 25 250 50 0 empty empty empty 17 7 0 10 -260097
-1 -1;
#X obj 508 100 bng 25 250 50 0 empty empty Db 3 10 0 20 -260097 -1
-1;
#X msg 157 59 472;
#X msg 157 38 fast;
#X obj 320 179 bng 30 250 50 0 empty empty RESET -5 -5 1 20 -258113
-1 -4160;
#X floatatom 61 200 7 0 0 0 - - -;
#X obj 63 151 t b f;
#X msg 133 134 -1;
#N canvas 2382 493 617 342 LFO 0;
#X obj -74 157 osc~ 5;
#X obj 107 120 hsl 65 15 0.1 10 1 0 empty empty VibrotoSpeed 7 7 0
10 -261234 -1 -1 0 1;
#X floatatom 200 124 5 0 0 0 - - -;
#X obj -79 181 *~;
#X obj 108 141 hsl 65 15 0.006 0.6 1 0 empty empty VibAmt 7 7 0 10
-204800 -1 -1 0 1;
#X obj -114 202 snapshot~;
#X obj -137 104 r MetroGlobal;
#X floatatom 200 151 5 0 0 0 - - -;
#X obj -113 237 outlet;
#X connect 0 0 3 0;
#X connect 1 0 0 0;
#X connect 1 0 2 0;
#X connect 3 0 5 0;
#X connect 4 0 3 1;
#X connect 4 0 7 0;
#X connect 5 0 8 0;
#X connect 6 0 5 0;
#X coords 0 -1 1 1 85 60 1 100 100;
#X restore 567 462 pd LFO;
#X obj 320 144 loadbang;
#X obj 132 113 r RESETGLOBAL;
#X obj 158 13 r RESETGLOBAL;
#X msg 104 41 slow;
#X obj 316 217 s RESETGLOBAL;
#X obj -4 51 r RESETGLOBAL;
#X msg -9 78 0;
#N canvas 900 280 920 623 Delay 0;
#X obj -85 25 sig~;
#X obj 0 24 sig~;
#X obj -1 46 vd~ \$0delayR;
#X obj -86 48 vd~ \$0delayL;
#X msg -86 4 354.3;
#X msg -1 4 728.3;
#X obj -31 214 *~;
#X obj -2 213 *~;
#X obj 118 117 hsl 60 15 0 1 0 0 empty empty Loopback 7 7 0 10 -4032
-1 -1 4248 1;
#X obj -4 236 s~ \$0DelayIN1R;
#X obj -35 254 s~ \$0DelayIN1L;
#X obj 58 -79 loadbang;
#X floatatom 92 167 5 0 0 0 - - -;
#X obj 59 -97 r RESETGLOBAL;
#X obj -177 212 outlet~;
#X obj -148 194 outlet~;
#X obj -178 172 *~;
#X obj -149 171 *~;
#X obj 116 138 hsl 60 15 0 1 0 0 empty empty DelayOut 7 7 0 10 -260097
-1 -1 5015 1;
#X floatatom 140 163 5 0 0 0 - - -;
#X obj 57 -50 bng 15 250 50 0 empty empty empty 17 7 0 10 -258113 -1
-1;
#X msg 127 74 0.72;
#X msg 91 77 0.85;
#X obj 295 125 delwrite~ \$0delayL 5000;
#X obj 349 45 delwrite~ \$0delayR 5000;
#X obj 293 77 r~ \$0DelayIN1R;
#X obj 351 -7 r~ \$0DelayIN1L;
#X obj 365 19 r~ \$0DelayINR;
#X obj 309 99 r~ \$0DelayINL;
#X connect 0 0 3 0;
#X connect 1 0 2 0;
#X connect 2 0 7 0;
#X connect 2 0 17 0;
#X connect 3 0 6 0;
#X connect 3 0 16 0;
#X connect 4 0 0 0;
#X connect 5 0 1 0;
#X connect 6 0 10 0;
#X connect 7 0 9 0;
#X connect 8 0 7 1;
#X connect 8 0 6 1;
#X connect 8 0 12 0;
#X connect 11 0 20 0;
#X connect 13 0 11 0;
#X connect 16 0 14 0;
#X connect 17 0 15 0;
#X connect 18 0 17 1;
#X connect 18 0 16 1;
#X connect 18 0 19 0;
#X connect 20 0 4 0;
#X connect 20 0 5 0;
#X connect 20 0 21 0;
#X connect 20 0 22 0;
#X connect 21 0 8 0;
#X connect 22 0 18 0;
#X connect 25 0 23 0;
#X connect 26 0 24 0;
#X connect 27 0 24 0;
#X connect 28 0 23 0;
#X coords 0 -1 1 1 85 60 1 100 100;
#X restore 318 576 pd Delay;
#X obj 423 544 print FOO;
#X obj 424 526 bng 15 250 50 0 empty empty empty 17 7 0 10 -262144
-1 -1;
#X obj 735 487 r RESETGLOBAL;
#X floatatom 670 515 5 0 0 0 - - -;
#X msg 736 510 1;
#N canvas -4 -4 1920 1040 OSC1 0;
#X obj 339 241 % 8;
#X msg 518 277 0;
#X msg 553 280 5;
#X msg 586 279 4;
#X msg 523 252 Bb;
#X msg 555 252 Db;
#X msg 581 252 D;
#X msg 615 257 G;
#X msg 614 280 -3;
#X msg 642 250 C;
#X msg 641 281 2;
#X msg 668 258 Eb;
#X msg 667 281 5;
#X obj 340 768 s~ \$0DelayINL;
#X obj 501 769 s~ \$0DelayINR;
#X obj 338 732 BillPan~;
#X obj 350 262 sel 0 1 2 3 4 5 6 7;
#X obj 349 283 bng 15 250 50 0 empty empty empty 17 7 0 10 -262144
-1 -1;
#X obj 381 283 bng 15 250 50 0 empty empty empty 17 7 0 10 -262144
-1 -1;
#X obj 365 283 bng 15 250 50 0 empty empty empty 17 7 0 10 -262144
-1 -1;
#X obj 396 283 bng 15 250 50 0 empty empty empty 17 7 0 10 -262144
-1 -1;
#X obj 410 283 bng 15 250 50 0 empty empty empty 17 7 0 10 -262144
-1 -1;
#X obj 442 283 bng 15 250 50 0 empty empty empty 17 7 0 10 -262144
-1 -1;
#X obj 426 283 bng 15 250 50 0 empty empty empty 17 7 0 10 -262144
-1 -1;
#X obj 457 283 bng 15 250 50 0 empty empty empty 17 7 0 10 -262144
-1 -1;
#X msg 339 307 70;
#X msg 357 307 75;
#X msg 378 306 77;
#X msg 396 306 78;
#X msg 455 305 80;
#X msg 475 306 77;
#X obj 461 508 bng 15 250 50 0 empty empty empty 17 7 0 10 -262144
-1 -1;
#X msg 416 306 104;
#X msg 432 307 101;
#X obj 346 390 mtof;
#X floatatom 532 326 5 0 0 0 - - -;
#X obj 377 525 hsl 60 15 0 500 0 0 empty empty decay 6 7 0 10 -262144
-1 -1 1027 1;
#X floatatom 380 544 5 0 0 0 - - -;
#X msg 420 502 87;
#X obj 348 414 phasor~;
#X obj 330 541 *~;
#X obj 348 437 *~ 4;
#X obj 347 460 -~ 2;
#X obj 353 493 hsl 40 15 0 1 0 0 empty empty empty -2 -8 0 10 -262144
-1 -1 234 1;
#X floatatom 351 511 5 0 0 0 - - -;
#X msg 371 475 0.06;
#X obj 401 348 +;
#X msg 479 384 85;
#X msg 530 382 81;
#X msg 548 382 85;
#X msg 613 382 92;
#X msg 589 382 90;
#X msg 637 383;
#X obj 496 445 spigot;
#X obj 414 400 spigot;
#X obj 549 438 tgl 15 0 empty empty empty 17 7 0 10 -262144 -1 -1 0
1;
#X obj 450 372 tgl 15 0 empty empty empty 17 7 0 10 -262144 -1 -1 1
1;
#X msg 509 383 68;
#X msg 238 430 0;
#X msg 232 444 1;
#X msg 283 470 0;
#X msg 266 477 1;
#X obj 417 473 bng 15 250 50 0 empty empty empty 17 7 0 10 -262144
-1 -1;
#X msg 459 250 1;
#X msg 565 382 85;
#X obj 459 225 r RESETGLOBAL;
#X obj 514 508 r RESETGLOBAL;
#X obj 330 567 ADSR2;
#X obj 335 216 r \$0Clock;
#X obj 485 530 bng 15 250 50 0 empty empty empty 17 7 0 10 -258113
-1 -1;
#X obj 129 139 bng 15 250 50 0 empty empty empty 17 7 0 10 -258113
-1 -1;
#X obj 6 109 r RESETGLOBAL;
#X obj 540 147 sel 0 1 2 3 4 5;
#X obj 237 374 sel 0 1;
#X msg 181 318 0;
#X msg 209 318 1;
#X msg 542 104 0;
#X msg 572 103 1;
#X obj 489 197 bng 15 250 50 0 empty empty empty 17 7 0 10 -262144
-1 -1;
#X obj 505 197 bng 15 250 50 0 empty empty empty 17 7 0 10 -262144
-1 -1;
#X obj 521 198 bng 15 250 50 0 empty empty empty 17 7 0 10 -262144
-1 -1;
#X obj 566 198 bng 15 250 50 0 empty empty empty 17 7 0 10 -262144
-1 -1;
#X obj 536 198 bng 15 250 50 0 empty empty empty 17 7 0 10 -262144
-1 -1;
#X obj 551 198 bng 15 250 50 0 empty empty empty 17 7 0 10 -262144
-1 -1;
#X obj 238 95 inlet;
#X obj 286 97 inlet;
#X obj 108 120 hsl 80 15 0 1 0 0 empty empty Melody_Amt 7 7 0 10 -260097
-1 -1 6600 1;
#X msg 237 63 trigger;
#X msg 308 64 frequency index;
#X obj 258 757 outlet~;
#X connect 0 0 16 0;
#X connect 1 0 35 0;
#X connect 2 0 35 0;
#X connect 3 0 35 0;
#X connect 8 0 35 0;
#X connect 10 0 35 0;
#X connect 12 0 35 0;
#X connect 15 0 13 0;
#X connect 15 1 14 0;
#X connect 16 0 17 0;
#X connect 16 1 19 0;
#X connect 16 2 18 0;
#X connect 16 3 20 0;
#X connect 16 4 21 0;
#X connect 16 5 23 0;
#X connect 16 6 22 0;
#X connect 16 7 24 0;
#X connect 17 0 25 0;
#X connect 17 0 47 0;
#X connect 18 0 27 0;
#X connect 18 0 48 0;
#X connect 19 0 26 0;
#X connect 19 0 57 0;
#X connect 20 0 28 0;
#X connect 20 0 49 0;
#X connect 21 0 32 0;
#X connect 21 0 64 0;
#X connect 22 0 29 0;
#X connect 22 0 50 0;
#X connect 23 0 33 0;
#X connect 23 0 51 0;
#X connect 24 0 30 0;
#X connect 24 0 52 0;
#X connect 25 0 46 0;
#X connect 26 0 46 0;
#X connect 27 0 46 0;
#X connect 28 0 46 0;
#X connect 29 0 46 0;
#X connect 30 0 46 0;
#X connect 31 0 67 6;
#X connect 32 0 46 0;
#X connect 33 0 46 0;
#X connect 34 0 39 0;
#X connect 35 0 46 1;
#X connect 36 0 37 0;
#X connect 36 0 67 3;
#X connect 38 0 36 0;
#X connect 39 0 41 0;
#X connect 40 0 67 0;
#X connect 41 0 42 0;
#X connect 42 0 40 0;
#X connect 43 0 40 1;
#X connect 43 0 44 0;
#X connect 45 0 43 0;
#X connect 46 0 54 0;
#X connect 47 0 53 0;
#X connect 48 0 53 0;
#X connect 49 0 53 0;
#X connect 50 0 53 0;
#X connect 51 0 53 0;
#X connect 52 0 53 0;
#X connect 53 0 31 0;
#X connect 53 0 34 0;
#X connect 54 0 34 0;
#X connect 54 0 31 0;
#X connect 55 0 53 1;
#X connect 56 0 54 1;
#X connect 57 0 53 0;
#X connect 58 0 55 0;
#X connect 59 0 56 0;
#X connect 60 0 56 0;
#X connect 61 0 55 0;
#X connect 62 0 45 0;
#X connect 62 0 38 0;
#X connect 63 0 56 0;
#X connect 64 0 53 0;
#X connect 65 0 63 0;
#X connect 66 0 62 0;
#X connect 66 0 69 0;
#X connect 67 0 15 0;
#X connect 67 0 89 0;
#X connect 68 0 0 0;
#X connect 69 0 67 7;
#X connect 70 0 74 0;
#X connect 71 0 70 0;
#X connect 72 0 1 0;
#X connect 72 0 78 0;
#X connect 72 1 2 0;
#X connect 72 1 79 0;
#X connect 72 2 3 0;
#X connect 72 2 80 0;
#X connect 72 3 8 0;
#X connect 72 3 82 0;
#X connect 72 4 10 0;
#X connect 72 4 83 0;
#X connect 72 5 12 0;
#X connect 72 5 81 0;
#X connect 73 0 58 0;
#X connect 73 0 59 0;
#X connect 73 1 61 0;
#X connect 73 1 60 0;
#X connect 74 0 73 0;
#X connect 75 0 73 0;
#X connect 76 0 72 0;
#X connect 77 0 72 0;
#X connect 84 0 73 0;
#X connect 85 0 72 0;
#X connect 86 0 67 8;
#X coords 0 -1 1 1 95 60 1 100 100;
#X restore 245 401 pd OSC1;
#X msg 516 332 29;
#X obj 428 119 bng 25 250 50 0 empty empty Bb 5 13 0 20 -260097 -1
-1;
#X msg 212 369 0;
#X msg 244 371 1;
#X msg 334 373 0;
#N canvas 2106 167 943 583 OSC2 0;
#X obj -468 57 sel 0 1 2 3 4 5 6 7;
#X obj -473 80 bng 15 250 50 0 empty empty empty 17 7 0 10 -262144
-1 -1;
#X obj -441 80 bng 15 250 50 0 empty empty empty 17 7 0 10 -262144
-1 -1;
#X obj -457 80 bng 15 250 50 0 empty empty empty 17 7 0 10 -262144
-1 -1;
#X obj -426 80 bng 15 250 50 0 empty empty empty 17 7 0 10 -262144
-1 -1;
#X obj -412 80 bng 15 250 50 0 empty empty empty 17 7 0 10 -262144
-1 -1;
#X obj -380 80 bng 15 250 50 0 empty empty empty 17 7 0 10 -262144
-1 -1;
#X obj -396 80 bng 15 250 50 0 empty empty empty 17 7 0 10 -262144
-1 -1;
#X obj -365 80 bng 15 250 50 0 empty empty empty 17 7 0 10 -262144
-1 -1;
#X obj -468 230 mtof;
#X obj -456 269 bng 15 250 50 0 empty empty empty 17 7 0 10 -262144
-1 -1;
#X obj -491 38 % 4;
#X msg -388 119 70;
#X msg -349 118 58;
#X msg -313 119 65;
#X msg -281 119 58;
#X obj -349 277 phasor~;
#X obj -348 349 *~;
#X obj -291 278 comment 56 10 helvetica ? 0 0 0 0 Saw;
#X floatatom -351 227 5 0 0 0 - - -;
#X obj 107 154 hsl 128 15 0 0.3 0 0 empty empty Bounce_Level 7 7 0
10 -260097 -1 -1 0 1;
#X obj -348 302 *~ 2;
#X obj -348 324 -~ 1;
#X obj -483 178 f;
#X obj -457 178 f;
#X obj -429 178 f;
#X obj -403 179 f;
#X obj 117 172 bng 15 250 50 0 empty empty empty 17 7 0 10 -258113
-1 -1;
#X obj -39 161 osc~ 5;
#X obj -39 187 *~;
#X obj 107 135 hsl 128 15 0 10 0 0 empty empty Bounce_Vibrato_Amt 7
7 0 10 -257985 -1 -1 3683 1;
#X obj -349 252 +~;
#X floatatom 262 148 5 0 0 0 - - -;
#X floatatom 261 172 5 0 0 0 - - -;
#X msg 63 134 2.9;
#X obj -463 303 delay 350;
#X msg -313 152 68;
#X msg -281 152 61;
#X msg -254 151 73;
#X msg -228 151 61;
#X obj -203 135 bng 15 250 50 0 empty empty empty 17 7 0 10 -262144
-1 -1;
#X msg -535 364 87;
#X obj -521 301 bng 15 250 50 0 empty empty empty 17 7 0 10 -262144
-1 -1;
#X msg -507 364 0.35;
#X msg -477 362 95;
#X obj -30 22 r RESETGLOBAL;
#X obj -482 384 ADSR2;
#X obj -217 92 sel 0 1 3 4 5;
#X obj 108 115 hsl 128 15 0 10 0 0 empty empty Bounce_Vibrato_Rate
7 7 0 10 -257985 -1 -1 6350 1;
#X obj -579 5 inlet;
#X obj -481 552 outlet~;
#X msg 70 114 5;
#X obj -242 11 inlet;
#X msg -278 -8 pattern select;
#X msg -400 334 0.5;
#X msg 62 151 0;
#X connect 0 0 1 0;
#X connect 0 1 3 0;
#X connect 0 2 2 0;
#X connect 0 3 4 0;
#X connect 0 4 5 0;
#X connect 0 5 7 0;
#X connect 0 6 6 0;
#X connect 0 7 8 0;
#X connect 1 0 23 0;
#X connect 2 0 25 0;
#X connect 3 0 24 0;
#X connect 4 0 26 0;
#X connect 9 0 10 0;
#X connect 9 0 19 0;
#X connect 10 0 35 0;
#X connect 10 0 46 6;
#X connect 11 0 0 0;
#X connect 12 0 23 1;
#X connect 13 0 24 1;
#X connect 14 0 25 1;
#X connect 15 0 26 1;
#X connect 16 0 21 0;
#X connect 17 0 46 0;
#X connect 19 0 31 0;
#X connect 20 0 17 1;
#X connect 20 0 33 0;
#X connect 21 0 22 0;
#X connect 22 0 17 0;
#X connect 23 0 9 0;
#X connect 24 0 9 0;
#X connect 25 0 9 0;
#X connect 26 0 9 0;
#X connect 27 0 15 0;
#X connect 27 0 14 0;
#X connect 27 0 13 0;
#X connect 27 0 12 0;
#X connect 27 0 34 0;
#X connect 27 0 55 0;
#X connect 27 0 51 0;
#X connect 27 0 46 7;
#X connect 27 0 42 0;
#X connect 28 0 29 0;
#X connect 29 0 31 1;
#X connect 30 0 29 1;
#X connect 30 0 32 0;
#X connect 31 0 16 0;
#X connect 34 0 30 0;
#X connect 35 0 46 6;
#X connect 36 0 23 1;
#X connect 37 0 24 1;
#X connect 38 0 25 1;
#X connect 39 0 26 1;
#X connect 40 0 39 0;
#X connect 40 0 38 0;
#X connect 40 0 37 0;
#X connect 40 0 36 0;
#X connect 41 0 46 3;
#X connect 42 0 41 0;
#X connect 42 0 43 0;
#X connect 42 0 44 0;
#X connect 42 0 54 0;
#X connect 43 0 46 4;
#X connect 44 0 46 5;
#X connect 45 0 27 0;
#X connect 46 0 50 0;
#X connect 47 0 12 0;
#X connect 47 0 13 0;
#X connect 47 0 14 0;
#X connect 47 0 15 0;
#X connect 47 1 40 0;
#X connect 48 0 28 0;
#X connect 49 0 11 0;
#X connect 51 0 48 0;
#X connect 52 0 47 0;
#X connect 54 0 46 8;
#X connect 55 0 20 0;
#X coords 0 -1 1 1 145 90 1 100 100;
#X restore 1 356 pd OSC2;
#X obj 1 321 r \$0Clock;
#X obj 33 231 s \$0Clock;
#X msg 136 294 1;
#X msg 108 299 0;
#X msg 159 292 2;
#X obj 435 394 bng 15 250 50 0 empty empty empty 17 7 0 10 -4034 -1
-1;
#N canvas 911 268 851 587 OSC3 0;
#X obj 287 160 phasor~;
#X obj 288 232 *~;
#X obj 108 114 hsl 80 15 0 0.4 0 0 empty empty Low_Drone_Amt 0 7 0
10 -260097 -1 -1 3950 1;
#X obj 288 185 *~ 2;
#X obj 288 207 -~ 1;
#X floatatom 47 132 5 0 0 0 - - -;
#X obj 323 224 comment 24 10 helvetica ? 0 0 0 0 Saw;
#X obj 135 132 bng 15 250 50 0 empty empty empty 17 7 0 10 -4034 -1
-1;
#X obj 161 132 bng 15 250 50 0 empty empty empty 17 7 0 10 -258113
-1 -1;
#X obj 268 125 *~;
#X obj 166 -14 bng 15 250 50 0 empty empty empty 17 7 0 10 -258113
-1 -1;
#X msg 421 70 95;
#X msg 362 70 350;
#X msg 395 70 0.6;
#X obj 354 289 ADSR2;
#X obj 211 -31 r RESETGLOBAL;
#X obj 354 453 outlet~;
#X obj 657 326 print;
#X obj 655 301 bng 15 250 50 0 empty empty empty 17 7 0 10 -262144
-1 -1;
#X obj 442 -12 inlet;
#X floatatom 447 23 5 0 0 0 - - -;
#X msg 491 226 0.3;
#X obj 15 50 inlet;
#X obj 201 45 inlet;
#X floatatom 212 96 5 0 0 0 - - -;
#X obj 213 72 mtof;
#X msg 199 26 midi in;
#X msg 408 -31 lfo in ctl rate;
#X msg 14 25 trigger in;
#X msg 103 79 0.2;
#X connect 0 0 3 0;
#X connect 1 0 14 0;
#X connect 2 0 1 1;
#X connect 2 0 5 0;
#X connect 3 0 4 0;
#X connect 4 0 1 0;
#X connect 7 0 14 6;
#X connect 8 0 14 7;
#X connect 9 0 0 0;
#X connect 10 0 12 0;
#X connect 10 0 13 0;
#X connect 10 0 11 0;
#X connect 10 0 29 0;
#X connect 10 0 21 0;
#X connect 10 0 8 0;
#X connect 12 0 14 3;
#X connect 13 0 14 4;
#X connect 14 0 16 0;
#X connect 15 0 10 0;
#X connect 18 0 17 0;
#X connect 19 0 9 1;
#X connect 19 0 20 0;
#X connect 21 0 14 8;
#X connect 22 0 7 0;
#X connect 23 0 25 0;
#X connect 24 0 9 0;
#X connect 25 0 24 0;
#X connect 29 0 2 0;
#X coords 0 -1 1 1 95 50 1 100 100;
#X restore 434 449 pd OSC3;
#X msg 639 53 Bb;
#X msg 671 45 Db;
#X msg 697 53 D;
#X msg 728 55 G;
#X msg 758 47 C;
#X msg 784 59 Eb;
#X obj 555 243 r \$0ClockDelay;
#X obj 295 106 s \$0ClockDelay;
#X obj 520 268 pipe 472;
#X floatatom 544 289 5 0 0 0 - - -;
#X floatatom 470 299 5 0 0 0 - - -;
#X obj 431 241 unpack f f f f f;
#X msg 420 157 1 1 0 32 37;
#X msg 477 166 0 0 0 35 34;
#X msg 852 213 0 0 0 48 50;
#X msg 655 123 This is a PD patch inspired by Klaus Schulze's track
Crystal Lake from Mirage. If you can't load this due to missing abstractions
\, get them from http://TinyURL.com/BHPDToolkit;
#X msg 628 23 Scene Pattern:;
#X obj 803 592 KeyBender;
#X obj 684 803 expr $f2 * pow (1.059462 \, $f1);
#N canvas 2382 493 617 342 LFO 0;
#X obj -74 157 osc~ 5;
#X obj 107 120 hsl 65 15 0.1 10 1 0 empty empty VibrotoSpeed 7 7 0
10 -261234 -1 -1 0 1;
#X floatatom 200 124 5 0 0 0 - - -;
#X obj -79 181 *~;
#X obj 108 141 hsl 65 15 0.006 0.6 1 0 empty empty VibAmt 7 7 0 10
-204800 -1 -1 0 1;
#X obj -114 202 snapshot~;
#X obj -137 104 r MetroGlobal;
#X floatatom 200 151 5 0 0 0 - - -;
#X obj -113 237 outlet;
#X connect 0 0 3 0;
#X connect 1 0 0 0;
#X connect 1 0 2 0;
#X connect 3 0 5 0;
#X connect 4 0 3 1;
#X connect 4 0 7 0;
#X connect 5 0 8 0;
#X connect 6 0 5 0;
#X coords 0 -1 1 1 85 60 1 100 100;
#X restore 664 739 pd LFO;
#X obj 765 737 r RESETGLOBAL;
#X floatatom 818 698 5 0 0 0 - - -;
#X msg 771 767 1;
#X msg 486 188 0 0 0 32 34;
#X msg 592 195 0 0 1 36 38;
#X floatatom 349 349 5 0 0 0 - - -;
#X msg 880 58 This is Klaus.PD v.1 alpha WilliamAHuston@gmail.com 8-14-2015
Really it's KlausSchulzeMirageCrystalLake.pd;
#X connect 1 0 2 0;
#X connect 2 0 3 0;
#X connect 2 0 26 0;
#X connect 2 0 51 0;
#X connect 3 0 2 1;
#X connect 4 0 1 0;
#X connect 5 0 1 1;
#X connect 5 0 6 0;
#X connect 5 0 64 0;
#X connect 9 0 0 0;
#X connect 9 1 0 1;
#X connect 10 0 5 0;
#X connect 11 0 9 0;
#X connect 11 1 9 1;
#X connect 12 0 56 1;
#X connect 12 0 55 0;
#X connect 13 0 14 1;
#X connect 13 0 41 0;
#X connect 14 0 56 2;
#X connect 15 0 56 1;
#X connect 15 0 55 0;
#X connect 16 0 56 1;
#X connect 16 0 55 0;
#X connect 17 0 56 1;
#X connect 17 0 55 0;
#X connect 18 0 56 1;
#X connect 18 0 55 0;
#X connect 19 0 70 0;
#X connect 22 0 80 0;
#X connect 23 0 5 0;
#X connect 24 0 23 0;
#X connect 25 0 34 0;
#X connect 27 0 2 0;
#X connect 27 1 2 1;
#X connect 28 0 27 0;
#X connect 29 0 14 0;
#X connect 30 0 25 0;
#X connect 31 0 28 0;
#X connect 32 0 24 0;
#X connect 33 0 10 0;
#X connect 35 0 36 0;
#X connect 36 0 4 0;
#X connect 37 0 9 0;
#X connect 37 1 9 1;
#X connect 39 0 38 0;
#X connect 40 0 42 0;
#X connect 42 0 14 1;
#X connect 43 0 11 1;
#X connect 44 0 56 1;
#X connect 44 0 55 0;
#X connect 45 0 69 0;
#X connect 46 0 43 0;
#X connect 47 0 43 0;
#X connect 48 0 43 1;
#X connect 49 0 11 0;
#X connect 50 0 49 0;
#X connect 52 0 49 1;
#X connect 53 0 49 1;
#X connect 54 0 49 1;
#X connect 55 0 56 0;
#X connect 56 0 11 2;
#X connect 63 0 65 1;
#X connect 65 0 56 1;
#X connect 65 0 66 0;
#X connect 65 0 55 0;
#X connect 68 0 49 1;
#X connect 68 1 43 0;
#X connect 68 2 43 1;
#X connect 68 3 67 0;
#X connect 68 3 56 1;
#X connect 68 3 55 0;
#X connect 68 4 65 0;
#X connect 69 0 68 0;
#X connect 70 0 68 0;
#X connect 71 0 68 0;
#X connect 74 0 75 1;
#X connect 74 0 78 0;
#X connect 76 0 75 0;
#X connect 77 0 79 0;
#X connect 79 0 75 1;
#X connect 80 0 68 0;
#X connect 81 0 68 0;
#X connect 82 0 43 1;
