#N canvas 0 109 720 411 10;
#X obj 75 247 noise~;
#X obj 347 749 output~;
#X obj 153 152 bng 30 250 50 0 empty empty RESET 0 7 0 10 -4160 -258113
-257985;
#X obj 154 205 s \$0Init;
#X msg 136 -46 Machine Gun William Huston WilliamAHuston@gmail.com
(C) 2015 / CC-BY-NC;
#X obj 153 127 loadbang;
#N canvas 2280 54 702 536 DuckingReverb 0;
#X obj -128 239 freeverb~;
#X msg 10 109 roomsize \$1;
#X msg 13 135 damping \$1;
#X msg 13 161 width \$1;
#X msg 13 183 wet \$1;
#X msg 13 205 dry \$1;
#X obj 110 105 hsl 50 15 0 1 0 0 empty empty Roomsize 3 6 0 10 -204800
-1 -1 4395 1;
#X obj 110 124 hsl 50 15 0 1 0 0 empty empty Damping 3 6 0 10 -204800
-1 -1 3797 1;
#X obj 112 144 hsl 50 15 0 2 0 0 empty empty Width 4 6 0 10 -204800
-1 -1 1899 1;
#X obj 110 167 hsl 50 15 0 1 0 0 empty empty wet 3 6 0 10 -204800 -1
-1 490 1;
#X obj 109 191 hsl 50 15 0 1 0 0 empty empty Dry 3 6 0 10 -204800 -1
-1 4900 1;
#X floatatom 169 104 5 0 0 0 - - -;
#X floatatom 170 126 5 0 0 0 - - -;
#X floatatom 173 148 5 0 0 0 - - -;
#X floatatom 172 172 5 0 0 0 - - -;
#X floatatom 169 194 5 0 0 0 - - -;
#X msg 224 99 0.897;
#X msg 225 125 0.775;
#X msg 225 150 0.775;
#X msg 226 177 0.244;
#X msg 225 202 1;
#X obj 355 -36 r \$0Init;
#X obj 62 47 line;
#X msg 214 26 Duck;
#X msg 48 6 0.1 59;
#X obj -209 -69 inlet~;
#X obj -158 -67 inlet~;
#X obj 52 -62 inlet;
#X obj 97 -58 inlet;
#X obj -149 313 outlet~;
#X obj -88 310 outlet~;
#X obj 106 217 tgl 15 0 empty empty Duck 17 7 0 10 -260097 -1 -1 1
1;
#X obj 72 283 spigot;
#X obj 169 -48 hsl 40 15 500 3000 0 0 empty empty empty -2 -8 0 10
-262144 -1 -1 2340 1;
#X msg 243 -80 2000;
#X floatatom 207 -20 5 0 0 0 - - -;
#X msg 115 -23 0.8;
#X obj 86 -36 bng 15 250 50 0 empty empty empty 17 7 0 10 -262144 -1
-1;
#X floatatom 109 77 5 0 0 0 - - -;
#X obj 124 3 pack f f;
#X floatatom 352 140 5 0 0 0 - - -;
#X obj 350 114 line;
#X obj 145 57 print TO LINE;
#X msg 364 87 0 0;
#X obj 33 24 bng 15 250 50 0 empty empty empty 17 7 0 10 -262144 -1
-1;
#X obj 119 22 bng 15 250 50 0 empty empty empty 17 7 0 10 -262144 -1
-1;
#X obj 220 346 line;
#X msg 192 294 0.1 59;
#X floatatom 200 398 5 0 0 0 - - -;
#X msg 261 301 0.8 1679;
#X msg 118 51 0.8 1600;
#X connect 0 0 29 0;
#X connect 0 1 30 0;
#X connect 1 0 0 0;
#X connect 2 0 0 0;
#X connect 3 0 0 0;
#X connect 4 0 0 0;
#X connect 5 0 0 0;
#X connect 6 0 1 0;
#X connect 6 0 11 0;
#X connect 7 0 2 0;
#X connect 7 0 12 0;
#X connect 8 0 3 0;
#X connect 8 0 13 0;
#X connect 9 0 4 0;
#X connect 9 0 14 0;
#X connect 10 0 5 0;
#X connect 10 0 15 0;
#X connect 16 0 6 0;
#X connect 17 0 7 0;
#X connect 18 0 8 0;
#X connect 19 0 9 0;
#X connect 20 0 10 0;
#X connect 21 0 16 0;
#X connect 21 0 17 0;
#X connect 21 0 18 0;
#X connect 21 0 19 0;
#X connect 21 0 20 0;
#X connect 21 0 34 0;
#X connect 22 0 32 0;
#X connect 22 0 38 0;
#X connect 24 0 42 0;
#X connect 24 0 44 0;
#X connect 24 0 22 0;
#X connect 25 0 0 0;
#X connect 26 0 0 1;
#X connect 27 0 24 0;
#X connect 28 0 36 0;
#X connect 28 0 37 0;
#X connect 31 0 32 1;
#X connect 32 0 9 0;
#X connect 33 0 35 0;
#X connect 33 0 39 1;
#X connect 34 0 33 0;
#X connect 36 0 39 0;
#X connect 39 0 41 0;
#X connect 39 0 42 0;
#X connect 39 0 45 0;
#X connect 41 0 40 0;
#X connect 43 0 41 0;
#X connect 45 0 50 0;
#X connect 46 0 48 0;
#X connect 47 0 46 0;
#X connect 49 0 46 0;
#X connect 50 0 22 0;
#X coords 0 -1 1 1 105 140 1 100 100;
#X restore 321 597 pd DuckingReverb;
#N canvas 2066 193 839 615 impulse 0;
#X obj 278 340 bng 15 250 50 0 empty empty TriggerAttack 17 7 0 10
-262144 -1 -1;
#X obj 278 314 metro 700;
#X obj 277 289 tgl 15 0 empty empty empty 17 7 0 10 -262144 -1 -1 0
1;
#X obj 113 159 hsl 50 15 125 54 1 0 empty empty Speed -2 -8 0 10 -257985
-1 -1 4900 1;
#X obj 108 113 bng 30 250 50 0 \$0UserStart empty Start -5 -5 0 12
-4034 -1 -1;
#X obj 374 193 random 400;
#X floatatom 417 235 5 0 0 0 - - -;
#X obj 523 196 random 800;
#X floatatom 578 236 5 0 0 0 - - -;
#X obj 381 253 delay \$1;
#X obj 374 217 + 200;
#X obj 525 276 bng 15 250 50 0 empty empty Restart 17 7 0 10 -262144
-1 -1;
#X obj 525 251 delay \$1;
#X obj 525 225 + 1000;
#X obj 109 223 hsl 50 15 200 2000 0 0 empty empty Delay -2 -8 0 10
-257985 -1 -1 500 1;
#X obj 144 114 bng 30 250 50 0 \$0UserStop empty Stop 0 -5 0 12 -258113
-1 -1;
#X obj 634 286 tgl 15 0 empty empty Enable_Repeat 17 7 0 10 -262144
-1 -1 0 1;
#X obj 525 301 spigot;
#X obj 308 73 bng 15 250 50 0 empty empty Burst_Start 17 7 0 10 -262144
-1 -1;
#X floatatom 64 216 5 0 0 0 - - -;
#X floatatom 63 157 5 0 0 0 - - -;
#X obj 110 192 hsl 60 15 0 800 0 0 empty empty Shot_Duration -2 -8
0 10 -257985 -1 -1 4200 1;
#X floatatom 63 187 5 0 0 0 - - -;
#X obj 406 110 / 2;
#X msg 185 49 105;
#X obj 185 18 r \$0Init;
#X msg 631 259 1;
#X msg 271 253 0;
#X msg 45 41 555;
#X obj 47 18 r \$0Init;
#X msg 116 44 1300;
#X obj 113 19 r \$0Init;
#X obj 382 283 bng 15 250 50 0 empty empty Burst_Stop 17 7 0 10 -262144
-1 -1;
#X obj 280 396 bng 15 250 50 0 empty empty TriggerRelease 17 7 0 10
-262144 -1 -1;
#X obj 279 369 delay 100;
#X msg 663 260 0;
#X obj 308 48 r \$0UserStart;
#X obj 631 219 r \$0UserStart;
#X obj 663 237 r \$0UserStop;
#X obj 270 227 r \$0UserStop;
#X obj 240 479 outlet;
#X obj 383 479 outlet;
#X obj 284 479 outlet;
#X obj 105 242 bng 15 250 50 0 empty empty empty 17 7 0 10 -262144
-1 -1;
#X obj 134 241 bng 15 250 50 0 empty empty empty 17 7 0 10 -262144
-1 -1;
#X obj 164 241 bng 15 250 50 0 empty empty empty 17 7 0 10 -262144
-1 -1;
#X connect 0 0 34 0;
#X connect 0 0 40 0;
#X connect 0 0 43 0;
#X connect 1 0 0 0;
#X connect 2 0 1 0;
#X connect 3 0 1 1;
#X connect 3 0 20 0;
#X connect 5 0 10 0;
#X connect 7 0 13 0;
#X connect 9 0 32 0;
#X connect 10 0 6 0;
#X connect 10 0 9 0;
#X connect 11 0 17 0;
#X connect 12 0 11 0;
#X connect 13 0 8 0;
#X connect 13 0 12 0;
#X connect 14 0 7 1;
#X connect 14 0 19 0;
#X connect 14 0 13 1;
#X connect 16 0 17 1;
#X connect 17 0 18 0;
#X connect 18 0 7 0;
#X connect 18 0 5 0;
#X connect 18 0 2 0;
#X connect 21 0 22 0;
#X connect 21 0 23 0;
#X connect 21 0 5 1;
#X connect 23 0 10 1;
#X connect 24 0 3 0;
#X connect 25 0 24 0;
#X connect 26 0 16 0;
#X connect 27 0 2 0;
#X connect 28 0 21 0;
#X connect 29 0 28 0;
#X connect 30 0 14 0;
#X connect 31 0 30 0;
#X connect 32 0 2 0;
#X connect 32 0 41 0;
#X connect 32 0 45 0;
#X connect 33 0 42 0;
#X connect 33 0 44 0;
#X connect 34 0 33 0;
#X connect 35 0 16 0;
#X connect 36 0 18 0;
#X connect 37 0 26 0;
#X connect 38 0 35 0;
#X connect 39 0 27 0;
#X coords 0 -1 1 1 85 160 1 100 100;
#X restore 356 30 pd impulse logic;
#N canvas 2422 240 751 684 sound 0;
#X obj 37 64 bp~;
#X obj 39 96 bp~;
#X obj 112 117 hsl 128 15 50 5000 0 0 empty empty Freq2 -2 -8 0 10
-257985 -1 -1 1100 1;
#N canvas 1192 176 580 651 ADSR 0;
#X obj 107 116 vsl 15 128 0 300 0 0 empty empty A 0 -9 0 10 -261234
-1 -1 0 1;
#X obj 145 116 vsl 15 128 0 1 0 0 empty empty S 0 -9 0 10 -262130 -1
-1 3912 1;
#X obj 126 116 vsl 15 128 0 500 0 0 empty empty D 0 -9 0 10 -203904
-1 -1 4902 1;
#X obj 164 116 vsl 15 128 0 1000 0 0 empty empty R 0 -9 0 10 -204786
-1 -1 0 1;
#X obj 2 429 *~;
#X obj 56 391 vline~;
#X msg 221 425 0 \$2;
#X obj 44 325 pack f f f f;
#X floatatom 93 279 5 0 0 0 - - -;
#X floatatom 130 279 5 0 0 0 - - -;
#X floatatom 169 280 5 0 0 0 - - -;
#X floatatom 222 280 5 0 0 0 - - -;
#X obj 203 392 pack f f;
#X obj -28 31 inlet~;
#X obj -4 525 outlet~;
#X obj 220 34 inlet;
#X msg -24 1 audio;
#X msg 225 5 Note On;
#X msg 287 8 Note Off;
#X obj 288 32 inlet;
#X obj 24 27 inlet;
#X obj 64 29 inlet;
#X obj 101 29 inlet;
#X obj 142 30 inlet;
#X msg 27 -6 A;
#X msg 65 -4 D;
#X msg 104 0 S;
#X msg 137 2 R;
#X msg 46 348 1 \$2 \, \$4 \$3 \$2;
#X obj 184 116 vsl 15 128 0 10 0 0 empty empty G 0 -9 0 10 -258113
-1 -1 1270 1;
#X obj 2 476 *~;
#X floatatom 260 253 5 0 0 0 - - -;
#X msg 378 131 1;
#X obj 394 98 r \$0Init;
#X connect 0 0 8 0;
#X connect 1 0 10 0;
#X connect 2 0 9 0;
#X connect 3 0 11 0;
#X connect 4 0 30 0;
#X connect 5 0 4 1;
#X connect 6 0 5 0;
#X connect 7 0 28 0;
#X connect 8 0 7 1;
#X connect 9 0 7 2;
#X connect 10 0 7 3;
#X connect 11 0 12 1;
#X connect 12 0 6 0;
#X connect 13 0 4 0;
#X connect 15 0 7 0;
#X connect 19 0 12 0;
#X connect 20 0 0 0;
#X connect 21 0 2 0;
#X connect 22 0 1 0;
#X connect 23 0 3 0;
#X connect 28 0 5 0;
#X connect 29 0 30 1;
#X connect 29 0 31 0;
#X connect 30 0 14 0;
#X connect 32 0 29 0;
#X connect 33 0 32 0;
#X coords 0 -1 1 1 100 150 1 100 100;
#X restore 137 165 pd ADSR;
#N canvas 2265 240 708 619 Pan 0;
#X obj 360 30 inlet~;
#X obj 121 377 outlet~;
#X obj 279 377 outlet~;
#X obj 109 108 hsl 128 15 0 1 0 0 empty empty empty -2 -8 0 10 -262144
-1 -1 3810 1;
#X obj 107 36 loadbang;
#X msg 107 59 0.5;
#X obj 242 108 bng 15 250 50 0 empty empty empty 17 7 0 10 -262144
-1 -1;
#X obj 125 345 *~;
#X obj 281 346 *~;
#X floatatom 44 141 5 0 0 0 - - -;
#X obj 424 32 inlet;
#X obj 107 222 expr 1-pow($f1 \, 2) \; 1-pow(1-$f1 \, 2);
#X floatatom 81 273 5 0 0 0 - - -;
#X floatatom 218 270 5 0 0 0 - - -;
#X obj 107 190 line;
#X msg 103 152 \$1 50;
#X connect 0 0 8 0;
#X connect 0 0 7 0;
#X connect 3 0 9 0;
#X connect 3 0 15 0;
#X connect 4 0 5 0;
#X connect 5 0 3 0;
#X connect 6 0 5 0;
#X connect 7 0 1 0;
#X connect 8 0 2 0;
#X connect 10 0 3 0;
#X connect 11 0 12 0;
#X connect 11 0 7 1;
#X connect 11 1 13 0;
#X connect 11 1 8 1;
#X connect 14 0 11 0;
#X connect 15 0 14 0;
#X coords 0 -1 1 1 160 30 1 100 100;
#X restore 110 321 pd Pan;
#X obj 407 358 r \$0Init;
#X floatatom 272 -7 5 0 0 0 - - -;
#X obj 115 143 hsl 128 15 0.1 15 0 0 empty empty Q2 -2 -8 0 10 -257985
-1 -1 7099 1;
#X floatatom 269 24 5 0 0 0 - - -;
#X obj 54 122 *~;
#X obj 362 79 expr pow($f1/10 \, 2) * 4 + 0.05;
#X obj 312 106 r \$0Init;
#X msg 312 129 322.8;
#X msg 311 155 2.563;
#X obj -208 286 hsl 128 15 0 500 0 0 empty empty empty -2 -8 0 10 -203904
-1 -1 4902 1;
#X floatatom 431 193 5 0 0 0 - - -;
#X obj 447 138 r \$0Init;
#X msg 488 159 193;
#X obj -208 307 hsl 128 15 0 1 0 0 empty empty empty -2 -8 0 10 -262130
-1 -1 3912 1;
#X floatatom 432 219 5 0 0 0 - - -;
#X msg 471 182 0.308;
#X msg 364 51 Q Compensation;
#X msg 240 276 ADSR;
#X obj -69 -112 inlet~;
#X obj 121 413 outlet~;
#X obj 189 413 outlet~;
#X obj 144 -131 inlet;
#X obj 202 -128 inlet;
#X msg 406 380 0.3;
#X connect 0 0 1 0;
#X connect 1 0 9 0;
#X connect 2 0 0 1;
#X connect 2 0 1 1;
#X connect 2 0 6 0;
#X connect 3 0 4 0;
#X connect 4 0 24 0;
#X connect 4 1 25 0;
#X connect 5 0 28 0;
#X connect 7 0 8 0;
#X connect 7 0 0 2;
#X connect 7 0 1 2;
#X connect 7 0 10 0;
#X connect 9 0 3 0;
#X connect 10 0 9 1;
#X connect 11 0 12 0;
#X connect 11 0 13 0;
#X connect 12 0 2 0;
#X connect 13 0 7 0;
#X connect 14 0 15 0;
#X connect 14 0 3 2;
#X connect 16 0 17 0;
#X connect 16 0 20 0;
#X connect 17 0 14 0;
#X connect 18 0 19 0;
#X connect 18 0 3 3;
#X connect 20 0 18 0;
#X connect 23 0 0 0;
#X connect 26 0 3 5;
#X connect 27 0 3 6;
#X connect 28 0 4 1;
#X coords 0 -1 1 1 170 260 1 100 100;
#X restore 463 317 pd sound;
#N canvas 2084 119 751 684 sound 0;
#X obj 37 64 bp~;
#X obj 39 96 bp~;
#X obj 112 117 hsl 128 15 50 5000 0 0 empty empty Freq2 -2 -8 0 10
-257985 -1 -1 6799 1;
#N canvas 2212 224 580 651 ADSR 0;
#X obj 107 116 vsl 15 128 0 300 0 0 empty empty A 0 -9 0 10 -261234
-1 -1 0 1;
#X obj 145 116 vsl 15 128 0 1 0 0 empty empty S 0 -9 0 10 -262130 -1
-1 787 1;
#X obj 126 116 vsl 15 128 0 500 0 0 empty empty D 0 -9 0 10 -203904
-1 -1 700 1;
#X obj 164 116 vsl 15 128 0 1000 0 0 empty empty R 0 -9 0 10 -204786
-1 -1 0 1;
#X obj 2 429 *~;
#X obj 56 391 vline~;
#X msg 221 425 0 \$2;
#X obj 44 325 pack f f f f;
#X floatatom 93 279 5 0 0 0 - - -;
#X floatatom 130 279 5 0 0 0 - - -;
#X floatatom 169 280 5 0 0 0 - - -;
#X floatatom 222 280 5 0 0 0 - - -;
#X obj 203 392 pack f f;
#X obj -28 31 inlet~;
#X obj -4 525 outlet~;
#X obj 220 34 inlet;
#X msg -24 1 audio;
#X msg 225 5 Note On;
#X msg 287 8 Note Off;
#X obj 288 32 inlet;
#X obj 24 27 inlet;
#X obj 64 29 inlet;
#X obj 101 29 inlet;
#X obj 142 30 inlet;
#X msg 27 -6 A;
#X msg 65 -4 D;
#X msg 104 0 S;
#X msg 137 2 R;
#X msg 46 348 1 \$2 \, \$4 \$3 \$2;
#X obj 184 116 vsl 15 128 0 10 0 0 empty empty G 0 -9 0 10 -258113
-1 -1 3300 1;
#X obj 2 476 *~;
#X floatatom 260 253 5 0 0 0 - - -;
#X msg 388 141 1;
#X obj 404 108 r \$0Init;
#X connect 0 0 8 0;
#X connect 1 0 10 0;
#X connect 2 0 9 0;
#X connect 3 0 11 0;
#X connect 4 0 30 0;
#X connect 5 0 4 1;
#X connect 6 0 5 0;
#X connect 7 0 28 0;
#X connect 8 0 7 1;
#X connect 9 0 7 2;
#X connect 10 0 7 3;
#X connect 11 0 12 1;
#X connect 12 0 6 0;
#X connect 13 0 4 0;
#X connect 15 0 7 0;
#X connect 19 0 12 0;
#X connect 20 0 0 0;
#X connect 21 0 2 0;
#X connect 22 0 1 0;
#X connect 23 0 3 0;
#X connect 28 0 5 0;
#X connect 29 0 30 1;
#X connect 29 0 31 0;
#X connect 30 0 14 0;
#X connect 32 0 29 0;
#X connect 33 0 32 0;
#X coords 0 -1 1 1 100 150 1 100 100;
#X restore 137 165 pd ADSR;
#N canvas 2265 240 708 619 Pan 0;
#X obj 360 30 inlet~;
#X obj 121 377 outlet~;
#X obj 279 377 outlet~;
#X obj 109 108 hsl 128 15 0 1 0 0 empty empty empty -2 -8 0 10 -262144
-1 -1 3900 1;
#X obj 107 36 loadbang;
#X msg 107 59 0.5;
#X obj 242 108 bng 15 250 50 0 empty empty empty 17 7 0 10 -262144
-1 -1;
#X obj 125 345 *~;
#X obj 281 346 *~;
#X floatatom 44 141 5 0 0 0 - - -;
#X obj 424 32 inlet;
#X obj 107 222 expr 1-pow($f1 \, 2) \; 1-pow(1-$f1 \, 2);
#X floatatom 81 273 5 0 0 0 - - -;
#X floatatom 218 270 5 0 0 0 - - -;
#X obj 107 190 line;
#X msg 103 152 \$1 50;
#X connect 0 0 8 0;
#X connect 0 0 7 0;
#X connect 3 0 9 0;
#X connect 3 0 15 0;
#X connect 4 0 5 0;
#X connect 5 0 3 0;
#X connect 6 0 5 0;
#X connect 7 0 1 0;
#X connect 8 0 2 0;
#X connect 10 0 3 0;
#X connect 11 0 12 0;
#X connect 11 0 7 1;
#X connect 11 1 13 0;
#X connect 11 1 8 1;
#X connect 14 0 11 0;
#X connect 15 0 14 0;
#X coords 0 -1 1 1 160 30 1 100 100;
#X restore 110 321 pd Pan;
#X msg 406 380 0.7;
#X obj 407 358 r \$0Init;
#X floatatom 272 -7 5 0 0 0 - - -;
#X obj 115 143 hsl 128 15 0.1 15 0 0 empty empty Q2 -2 -8 0 10 -257985
-1 -1 8236 1;
#X floatatom 269 24 5 0 0 0 - - -;
#X obj 54 122 *~;
#X obj 362 79 expr pow($f1/10 \, 2) * 4 + 0.05;
#X obj 312 106 r \$0Init;
#X obj -120 331 hsl 128 15 0 500 0 0 empty empty empty -2 -8 0 10 -203904
-1 -1 1219 1;
#X floatatom -206 274 5 0 0 0 - - -;
#X obj -192 198 r \$0Init;
#X obj -120 352 hsl 128 15 0 1 0 0 empty empty empty -2 -8 0 10 -262130
-1 -1 787 1;
#X floatatom -205 300 5 0 0 0 - - -;
#X msg 364 51 Q Compensation;
#X msg 278 277 ADSR;
#X obj -69 -112 inlet~;
#X obj 121 413 outlet~;
#X obj 189 413 outlet~;
#X obj 144 -131 inlet;
#X obj 202 -128 inlet;
#X msg -143 250 48;
#X msg -168 278 0.062;
#X msg 312 129 3012;
#X msg 311 155 3.897;
#X connect 0 0 1 0;
#X connect 1 0 10 0;
#X connect 2 0 0 1;
#X connect 2 0 1 1;
#X connect 2 0 7 0;
#X connect 3 0 4 0;
#X connect 4 0 21 0;
#X connect 4 1 22 0;
#X connect 5 0 4 1;
#X connect 6 0 5 0;
#X connect 8 0 9 0;
#X connect 8 0 0 2;
#X connect 8 0 1 2;
#X connect 8 0 11 0;
#X connect 10 0 3 0;
#X connect 11 0 10 1;
#X connect 12 0 27 0;
#X connect 12 0 28 0;
#X connect 13 0 14 0;
#X connect 13 0 3 2;
#X connect 15 0 25 0;
#X connect 15 0 26 0;
#X connect 16 0 17 0;
#X connect 16 0 3 3;
#X connect 20 0 0 0;
#X connect 23 0 3 5;
#X connect 24 0 3 6;
#X connect 25 0 13 0;
#X connect 26 0 16 0;
#X connect 27 0 2 0;
#X connect 28 0 8 0;
#X coords 0 -1 1 1 170 260 1 100 100;
#X restore 153 307 pd sound;
#X obj 596 172 hsl 128 15 0 300 0 0 empty empty empty -2 -8 0 10 -262144
-1 -1 4100 1;
#X floatatom 617 197 5 0 0 0 - - -;
#X obj 570 250 pipe 300;
#X obj 488 267 pipe 300;
#X connect 0 0 9 0;
#X connect 0 0 8 0;
#X connect 2 0 3 0;
#X connect 5 0 2 0;
#X connect 6 0 1 0;
#X connect 6 1 1 1;
#X connect 7 0 6 2;
#X connect 7 0 9 1;
#X connect 7 0 13 0;
#X connect 7 1 9 2;
#X connect 7 1 12 0;
#X connect 7 2 6 3;
#X connect 8 0 6 0;
#X connect 8 1 6 1;
#X connect 9 0 6 0;
#X connect 9 1 6 1;
#X connect 10 0 11 0;
#X connect 10 0 12 1;
#X connect 10 0 13 1;
#X connect 12 0 8 2;
#X connect 13 0 8 1;
