#N canvas 2165 44 883 805 10;
#X floatatom -118 -3 5 0 0 0 - - -;
#X floatatom -81 -2 5 0 0 0 - - -;
#X floatatom -37 -4 5 0 0 0 - - -;
#X obj -105 -40 ctlin;
#X obj -26 634 ctlout;
#X obj 58 -17 metro 1000;
#X floatatom -104 353 5 0 0 0 - - -;
#X obj 59 -41 tgl 15 0 empty empty empty 17 7 0 10 -262144 -1 -1 1
1;
#X obj 35 7 bng 15 250 50 0 empty empty empty 17 7 0 10 -262144 -1
-1;
#X obj 449 44 hsl 128 15 1 8 0 0 empty empty Num_Steps -2 -8 0 20 -4032
-1 -1 12700 1;
#X floatatom 446 83 5 0 0 0 - - -;
#X obj -45 464 + 32;
#X floatatom -47 485 5 0 0 0 - - -;
#X obj 242 604 ctlout;
#X floatatom 250 487 5 0 0 0 - - -;
#X obj 250 463 + 48;
#X obj 576 623 ctlout;
#X floatatom 531 487 5 0 0 0 - - -;
#X obj 531 462 + 64;
#X obj 250 435 % 8;
#X obj 531 435 % 8;
#X obj -42 434 % 8;
#X obj 531 401 +;
#X obj 580 376 hsl 40 15 0 7 0 0 empty empty Advance_3 -2 -8 0 10 -262144
-1 -1 2900 1;
#X obj 247 391 +;
#X obj 267 362 hsl 40 15 0 7 0 0 empty empty Advance_2 -2 -8 0 10 -262144
-1 -1 0 1;
#X obj -54 388 +;
#X obj -18 366 hsl 40 15 0 7 0 0 empty empty Advance_1 -2 -8 0 10 -262144
-1 -1 1800 1;
#X obj 373 -93 * 7.87;
#X obj 446 64 int;
#X obj 268 52 hsl 128 15 0 1000 0 0 empty empty Pulse_Width -2 -8 0
20 -260097 -1 -1 600 1;
#X obj 452 -16 + 1;
#X obj 451 8 / 16;
#X obj 452 -40 ctlin 18 0;
#X obj 358 -117 ctlin 17 0;
#X obj 267 -13 ctlin 16 0;
#X floatatom 278 76 5 0 0 0 - - -;
#X obj 266 9 * 2;
#X floatatom 476 429 5 0 0 0 - - -;
#X floatatom 577 442 5 0 0 0 - - -;
#N canvas 2526 569 450 300 count 0;
#X obj 226 85 f;
#X floatatom 229 123 5 0 0 0 - - -;
#X obj 260 88 + 1;
#X obj 228 180 %;
#X floatatom 236 211 5 0 0 0 - - -;
#X obj 205 44 inlet;
#X obj 306 52 inlet;
#X obj 238 242 outlet;
#X obj 102 102 cnv 15 80 55 empty empty empty 20 12 0 14 -260097 -66577
0;
#X obj 105 103 comment 0 15 helvetica ? 0 0 0 0 CLK -- Mod;
#X connect 0 0 1 0;
#X connect 0 0 2 0;
#X connect 1 0 3 0;
#X connect 2 0 0 1;
#X connect 3 0 4 0;
#X connect 4 0 7 0;
#X connect 5 0 0 0;
#X connect 6 0 3 1;
#X coords 0 -1 1 1 85 60 1 100 100;
#X restore -102 73 pd count;
#X floatatom -99 141 5 0 0 0 - - -;
#N canvas 2305 0 704 976 BPM 0;
#X obj 107 108 hsl 128 15 0.1 1000 0 0 empty empty BPM 95 7 0 20 -257985
-1 -258113 11900 1;
#X floatatom 364 105 5 0 0 0 - - -;
#X obj 109 132 hsl 128 15 50 10000 1 0 empty empty uS 5 7 0 20 -4034
-1 -258113 593 1;
#X msg 255 205 set \$1;
#X msg 138 34 60;
#X obj 269 154 /;
#X floatatom 267 176 5 0 0 0 - - -;
#X msg 169 34 6;
#X msg 202 33 600;
#X msg 264 131 60000 \$1;
#X floatatom 224 141 5 0 0 0 - - -;
#X floatatom 116 257 7 0 0 0 - - -;
#X msg 331 180 10000;
#X msg 383 182 1000;
#X msg 445 186 100;
#X obj 116 229 /;
#X msg 113 204 60000 \$1;
#X msg 72 348 set \$1;
#X obj 272 336 outlet;
#X obj 47 62 inlet;
#X floatatom 321 290 5 0 0 0 - - -;
#X obj 251 229 bng 15 250 50 0 empty empty empty 17 7 0 10 -262144
-1 -1;
#X connect 0 0 1 0;
#X connect 0 0 9 0;
#X connect 2 0 10 0;
#X connect 2 0 16 0;
#X connect 2 0 18 0;
#X connect 3 0 2 0;
#X connect 3 0 10 0;
#X connect 3 0 21 0;
#X connect 4 0 0 0;
#X connect 5 0 6 0;
#X connect 6 0 3 0;
#X connect 6 0 18 0;
#X connect 7 0 0 0;
#X connect 8 0 0 0;
#X connect 9 0 5 0;
#X connect 11 0 17 0;
#X connect 12 0 2 0;
#X connect 13 0 2 0;
#X connect 14 0 2 0;
#X connect 15 0 11 0;
#X connect 16 0 15 0;
#X connect 17 0 0 0;
#X connect 19 0 0 0;
#X coords 0 -1 1 1 160 60 1 100 100;
#X restore 88 -115 pd BPM;
#X floatatom 102 -41 5 0 0 0 - - -;
#X msg -15 50 99999;
#X obj -25 -69 initbang;
#X obj 445 111 s \$0NumSteps;
#X obj 604 407 r \$0NumSteps;
#X obj 309 404 r \$0NumSteps;
#X obj 5 408 r \$0NumSteps;
#X obj -102 169 s \$0Count;
#X obj -104 332 r \$0Count;
#X floatatom 163 354 5 0 0 0 - - -;
#X obj 163 333 r \$0Count;
#X floatatom 478 353 5 0 0 0 - - -;
#X obj 478 332 r \$0Count;
#X obj 226 75 s \$0PW;
#X msg -53 558 127 \$1 1;
#X msg 17 566 0 \$1 1;
#X obj 21 543 pipe 500;
#X obj 65 517 r \$0PW;
#X msg 208 542 127 \$1 1;
#X msg 278 550 0 \$1 1;
#X obj 282 527 pipe 500;
#X obj 326 501 r \$0PW;
#X msg 479 542 127 \$1 1;
#X msg 549 550 0 \$1 1;
#X obj 547 523 pipe 500;
#X obj 594 496 r \$0PW;
#X connect 3 0 0 0;
#X connect 3 1 1 0;
#X connect 3 2 2 0;
#X connect 5 0 8 0;
#X connect 6 0 26 0;
#X connect 7 0 5 0;
#X connect 8 0 40 0;
#X connect 9 0 29 0;
#X connect 10 0 46 0;
#X connect 11 0 12 0;
#X connect 12 0 57 0;
#X connect 12 0 59 0;
#X connect 14 0 63 0;
#X connect 14 0 61 0;
#X connect 15 0 14 0;
#X connect 17 0 65 0;
#X connect 17 0 67 0;
#X connect 18 0 17 0;
#X connect 19 0 15 0;
#X connect 20 0 18 0;
#X connect 20 0 39 0;
#X connect 21 0 11 0;
#X connect 22 0 20 0;
#X connect 22 0 38 0;
#X connect 23 0 22 1;
#X connect 24 0 19 0;
#X connect 25 0 24 1;
#X connect 26 0 21 0;
#X connect 27 0 26 1;
#X connect 28 0 42 0;
#X connect 29 0 10 0;
#X connect 30 0 36 0;
#X connect 30 0 56 0;
#X connect 31 0 32 0;
#X connect 32 0 9 0;
#X connect 33 0 31 0;
#X connect 34 0 28 0;
#X connect 35 0 37 0;
#X connect 37 0 30 0;
#X connect 40 0 41 0;
#X connect 41 0 50 0;
#X connect 42 0 43 0;
#X connect 43 0 5 1;
#X connect 44 0 40 1;
#X connect 45 0 44 0;
#X connect 47 0 20 1;
#X connect 48 0 19 1;
#X connect 49 0 21 1;
#X connect 51 0 6 0;
#X connect 52 0 24 0;
#X connect 53 0 52 0;
#X connect 54 0 22 0;
#X connect 55 0 54 0;
#X connect 57 0 4 0;
#X connect 58 0 4 0;
#X connect 59 0 58 0;
#X connect 60 0 59 1;
#X connect 61 0 13 0;
#X connect 62 0 13 0;
#X connect 63 0 62 0;
#X connect 64 0 63 1;
#X connect 65 0 16 0;
#X connect 66 0 16 0;
#X connect 67 0 66 0;
#X connect 68 0 67 1;
