#N canvas 0 95 1200 673 10;
#X obj 40 677 output~;
#X obj 226 734 hip~ 5;
#X obj 55 746 hip~ 5;
#X obj 1441 -1 MetroGlobal;
#X obj 356 -17 r notes;
#X obj 356 5 unpack f f f;
#X floatatom 330 28 5 0 0 0 - - -, f 5;
#X floatatom 378 28 5 0 0 0 - - -, f 5;
#X floatatom 432 28 5 0 0 0 - - -, f 5;
#X obj 301 55 mtof;
#X obj 359 56 mtof;
#X obj 440 55 mtof;
#N canvas 1 109 1185 687 phase 0;
#X obj 225 328 outlet~;
#X obj 302 327 outlet~;
#X obj 383 334 outlet~;
#X obj 294 159 osc~;
#X obj 345 158 osc~;
#X obj 386 159 osc~;
#X obj 345 181 +~ 1;
#X obj 394 181 +~ 1;
#X obj 107 113 hsl 40 15 0.01 50 1 0 empty empty speed -2 -8 0 10 -204786
-1 -1 1500 1;
#X obj 287 178 +~ 1;
#X obj 254 215 *~ 0.5;
#X obj 318 218 *~ 0.5;
#X obj 382 208 *~ 0.5;
#X obj 108 142 hsl 40 15 0 1 0 0 empty empty sep -2 -8 0 10 -13381
-262144 -45076 3900 1;
#X obj 287 63 * 0.3333;
#X obj 354 64 * 0.6666;
#X floatatom 253 98 5 0 0 0 - - -, f 5;
#X floatatom 366 99 5 0 0 0 - - -, f 5;
#X floatatom 302 100 5 0 0 0 - - -, f 5;
#X msg 252 65 0;
#X obj 107 170 hsl 40 15 0 0.5 0 0 empty empty amt -2 -8 0 10 -260097
-262144 -45076 2106 1;
#X obj 108 200 hsl 40 15 0 1 0 0 empty empty offset -2 -8 0 10 -4034
-4160 -45076 1209 1;
#X obj 247 264 +~;
#X obj 317 267 +~;
#X obj 390 260 +~;
#X obj 226 293 clip~ 0 1;
#X obj 304 299 clip~ 0 1;
#X obj 387 302 clip~ 0 1;
#X obj 228 130 sig~;
#X floatatom 16 228 5 0 0 0 - - -, f 5;
#X floatatom 17 253 5 0 0 0 - - -, f 5;
#X floatatom 15 276 5 0 0 0 - - -, f 5;
#X floatatom 13 298 5 0 0 0 - - -, f 5;
#X msg 26 11 0.51;
#X msg 27 66 0.27;
#X msg 27 97 0.31;
#X obj 14 -27 loadbang;
#X obj 83 -33 loadbang;
#X obj 155 112 bng 15 250 50 0 empty empty empty 17 7 0 10 -262144
-1 -1;
#X msg 24 39 1;
#X connect 3 0 9 0;
#X connect 4 0 6 0;
#X connect 5 0 7 0;
#X connect 6 0 11 0;
#X connect 7 0 12 0;
#X connect 8 0 28 0;
#X connect 8 0 29 0;
#X connect 9 0 10 0;
#X connect 10 0 22 0;
#X connect 11 0 23 0;
#X connect 12 0 24 0;
#X connect 13 0 14 0;
#X connect 13 0 15 0;
#X connect 13 0 19 0;
#X connect 13 0 30 0;
#X connect 14 0 18 0;
#X connect 14 0 4 1;
#X connect 15 0 17 0;
#X connect 15 0 5 1;
#X connect 19 0 16 0;
#X connect 19 0 3 1;
#X connect 20 0 10 1;
#X connect 20 0 11 1;
#X connect 20 0 12 1;
#X connect 20 0 31 0;
#X connect 21 0 22 1;
#X connect 21 0 23 1;
#X connect 21 0 24 1;
#X connect 21 0 32 0;
#X connect 22 0 25 0;
#X connect 23 0 26 0;
#X connect 24 0 27 0;
#X connect 25 0 0 0;
#X connect 26 0 1 0;
#X connect 27 0 2 0;
#X connect 28 0 3 0;
#X connect 28 0 4 0;
#X connect 28 0 5 0;
#X connect 33 0 8 0;
#X connect 34 0 20 0;
#X connect 35 0 21 0;
#X connect 36 0 38 0;
#X connect 37 0 38 0;
#X connect 38 0 33 0;
#X connect 38 0 39 0;
#X connect 38 0 34 0;
#X connect 38 0 35 0;
#X connect 39 0 13 0;
#X coords 0 -1 1 1 70 120 1 100 100;
#X restore 914 377 pd phase;
#N canvas 1 109 705 460 chord 0;
#X obj 108 104 bng 15 250 50 0 empty empty empty 17 7 0 10 -159808
-1 -1;
#X obj 131 105 bng 15 250 50 0 empty empty empty 17 7 0 10 -260097
-1 -1;
#X obj 152 106 bng 15 250 50 0 empty empty empty 17 7 0 10 -257985
-1 -1;
#X obj 177 106 bng 15 250 50 0 empty empty empty 17 7 0 10 -258113
-1 -1;
#X obj 202 106 bng 15 250 50 0 empty empty empty 17 7 0 10 -4032 -1
-1;
#N canvas 104 380 450 300 sendnotes 0;
#X obj 159 155 pack f f f;
#X obj 160 182 s notes;
#X obj 107 34 inlet;
#X obj 149 35 inlet;
#X obj 201 35 inlet;
#X obj 102 75 f;
#X obj 151 71 t b f;
#X obj 207 75 t b f;
#X connect 0 0 1 0;
#X connect 2 0 5 0;
#X connect 3 0 6 0;
#X connect 4 0 7 0;
#X connect 5 0 0 0;
#X connect 6 0 0 0;
#X connect 6 1 0 1;
#X connect 7 0 0 0;
#X connect 7 1 0 2;
#X restore 412 329 pd sendnotes;
#X msg 408 11 45;
#X msg 438 7 48;
#X msg 482 2 52;
#X msg 430 89 45;
#X msg 468 89 48;
#X msg 531 80 55;
#X msg 615 119 45;
#X msg 654 119 50;
#X msg 687 118 54;
#X msg 501 136 42;
#X msg 534 138 45;
#X msg 565 139 50;
#X msg 422 174 33;
#X msg 456 174 40;
#X msg 495 173 45;
#X obj 26 367 delay 1000;
#X obj 112 130 hsl 100 15 0 3000 0 0 empty empty Note_Duration 5 6
0 10 -262144 -1 -1 3500 1;
#X floatatom 111 152 5 0 0 0 - - -, f 5;
#X obj 157 152 tgl 15 0 empty empty empty 17 7 0 10 -262144 -1 -1 0
1;
#X obj 50 429 spigot;
#X obj 50 470 outlet;
#X obj -64 130 s \$0-outlet;
#X obj -33 468 outlet;
#X obj 237 135 r \$0-outlet;
#X obj 178 152 bng 15 250 50 0 empty empty empty 17 7 0 10 -4034 -1
-1;
#X obj 202 152 bng 15 250 50 0 empty empty empty 17 7 0 10 -258113
-1 -1;
#X obj 111 172 hsl 100 15 0 5 0 0 empty empty Transpose 10 6 0 10 -1
-262144 -262144 3800 1;
#X floatatom 49 200 5 0 0 0 - - -, f 5;
#X obj 206 203 int;
#X floatatom 216 170 5 0 0 0 - - -, f 5;
#X obj 403 204 f;
#X obj 437 203 f;
#X obj 472 204 f;
#X obj 101 9 inlet;
#X obj 409 289 +;
#X obj 332 251 * 12;
#X obj 449 288 +;
#X obj 485 289 +;
#X obj 211 235 t b f;
#X obj 101 29 sel 0 1 2 3 4 5;
#X obj 229 105 bng 15 250 50 0 empty empty empty 17 7 0 10 -159808
-1 -1;
#X msg 412 47 45;
#X msg 442 43 48;
#X msg 486 39 50;
#X connect 0 0 6 0;
#X connect 0 0 7 0;
#X connect 0 0 8 0;
#X connect 0 0 27 0;
#X connect 1 0 9 0;
#X connect 1 0 10 0;
#X connect 1 0 11 0;
#X connect 1 0 27 0;
#X connect 2 0 12 0;
#X connect 2 0 13 0;
#X connect 2 0 14 0;
#X connect 2 0 27 0;
#X connect 3 0 15 0;
#X connect 3 0 16 0;
#X connect 3 0 17 0;
#X connect 3 0 27 0;
#X connect 4 0 18 0;
#X connect 4 0 19 0;
#X connect 4 0 20 0;
#X connect 4 0 27 0;
#X connect 6 0 36 0;
#X connect 7 0 37 0;
#X connect 8 0 38 0;
#X connect 9 0 36 0;
#X connect 10 0 37 0;
#X connect 11 0 38 0;
#X connect 12 0 36 0;
#X connect 13 0 37 0;
#X connect 14 0 38 0;
#X connect 15 0 36 0;
#X connect 16 0 37 0;
#X connect 17 0 38 0;
#X connect 18 0 36 0;
#X connect 19 0 37 0;
#X connect 20 0 38 0;
#X connect 21 0 25 0;
#X connect 22 0 21 1;
#X connect 22 0 23 0;
#X connect 24 0 25 1;
#X connect 25 0 26 0;
#X connect 25 0 31 0;
#X connect 29 0 30 0;
#X connect 30 0 21 0;
#X connect 30 0 28 0;
#X connect 32 0 33 0;
#X connect 32 0 34 0;
#X connect 34 0 35 0;
#X connect 34 0 44 0;
#X connect 36 0 40 0;
#X connect 37 0 42 0;
#X connect 38 0 43 0;
#X connect 39 0 45 0;
#X connect 40 0 5 0;
#X connect 41 0 40 1;
#X connect 41 0 42 1;
#X connect 41 0 43 1;
#X connect 42 0 5 1;
#X connect 43 0 5 2;
#X connect 44 0 40 0;
#X connect 44 0 42 0;
#X connect 44 0 43 0;
#X connect 44 1 41 0;
#X connect 45 0 0 0;
#X connect 45 1 1 0;
#X connect 45 2 2 0;
#X connect 45 3 3 0;
#X connect 45 4 4 0;
#X connect 46 0 47 0;
#X connect 46 0 48 0;
#X connect 46 0 49 0;
#X connect 47 0 36 0;
#X connect 48 0 37 0;
#X connect 49 0 38 0;
#X coords 0 -1 1 1 150 90 1 100 100;
#X restore 338 383 pd chord;
#X obj 916 529 s~ \$0Duty1;
#X obj 992 513 s~ \$0Duty3;
#X obj 965 542 s~ \$0Duty2;
#X obj 196 112 r~ \$0Duty1;
#X obj 421 123 r~ \$0Duty2;
#N canvas 142 131 545 460 LFO 0;
#X obj 38 153 osc~ 5;
#X obj 92 297 s~ \$0LFO;
#X obj 112 105 hsl 60 15 0.05 127 1 0 empty empty Rate 10 7 0 10 -262144
-1 -1 1700 1;
#X floatatom 146 121 5 0 0 0 - - -, f 5;
#X obj 90 215 *~;
#X obj 112 141 hsl 60 15 0 20 0 0 empty empty Amt 10 7 0 10 -262144
-1 -1 0 1;
#X floatatom 146 157 5 0 0 0 - - -, f 5;
#X obj 45 36 loadbang;
#X obj 163 272 Snapshot~;
#X obj 226 225 r MetroGlobal;
#X obj 164 299 s \$0LFO-CTL;
#X msg 102 69 3;
#X msg 57 108 0;
#X connect 0 0 4 0;
#X connect 2 0 0 0;
#X connect 2 0 3 0;
#X connect 4 0 1 0;
#X connect 4 0 8 0;
#X connect 5 0 4 1;
#X connect 5 0 6 0;
#X connect 7 0 11 0;
#X connect 7 0 12 0;
#X connect 8 0 10 0;
#X connect 9 0 8 0;
#X connect 11 0 2 0;
#X connect 12 0 5 0;
#X coords 0 -1 1 1 85 75 1 100 100;
#X restore 491 374 pd LFO;
#X obj 173 401 AutoPhase3;
#X obj 115 618 billverb~;
#X obj 614 116 r~ \$0Duty3;
#X obj 283 113 r \$0LFO-CTL;
#X obj 28 266 adc~;
#X obj 75 355 pvu~;
#X obj 78 387 vu 15 120 empty empty -1 -8 0 10 -66577 -1 1 0;
#X obj 523 606 KeyBender;
#X floatatom 527 718 5 0 0 0 - - -, f 5;
#X floatatom 766 723 5 0 0 0 - - -, f 5;
#X obj 579 709 s \$0BendFactor;
#X obj 131 67 r \$0BendFactor;
#X obj 129 114 *;
#X obj 131 90 t b f;
#X obj 563 69 r \$0BendFactor;
#X obj 561 116 *;
#X obj 563 92 t b f;
#X obj 367 81 r \$0BendFactor;
#X obj 365 128 *;
#X obj 367 104 t b f;
#X obj 72 308 *~;
#X msg 41 109 1.5;
#X obj 353 160 multi-osc~;
#X obj 133 145 multi-osc~;
#X obj 562 156 multi-osc~;
#X obj 839 152 multi-osc~;
#X obj 1049 154 notein;
#X floatatom 1037 187 5 0 0 0 - - -, f 5;
#X floatatom 1072 189 5 0 0 0 - - -, f 5;
#X floatatom 1115 193 5 0 0 0 - - -, f 5;
#X obj 73 219 hsl 40 15 0 10 0 0 empty empty empty -2 -8 0 10 -204786
-1 -1 0 1;
#X obj 19 413 dac~;
#X msg -19 217 ---;
#X obj 772 -22 notein;
#X floatatom 810 18 5 0 0 0 - - -, f 5;
#X floatatom 722 32 5 0 0 0 - - -, f 5;
#X obj 726 101 mtof;
#X obj 365 527 BillPan1~;
#X obj 741 376 ADSR2;
#X obj 732 136 bng 15 250 50 0 empty empty empty 17 7 0 10 -262144
-1 -1;
#X obj 723 10 stripnote;
#X obj 908 -10 LFO1;
#X obj 726 76 +;
#X obj 770 47 t b f;
#X obj 1560 1 DVM~;
#X connect 1 0 0 1;
#X connect 2 0 0 0;
#X connect 4 0 5 0;
#X connect 5 0 6 0;
#X connect 5 1 7 0;
#X connect 5 1 6 0;
#X connect 5 2 8 0;
#X connect 6 0 9 0;
#X connect 7 0 10 0;
#X connect 8 0 11 0;
#X connect 9 0 32 0;
#X connect 10 0 38 0;
#X connect 11 0 35 0;
#X connect 12 0 14 0;
#X connect 12 1 16 0;
#X connect 12 2 15 0;
#X connect 17 0 43 2;
#X connect 18 0 42 2;
#X connect 20 0 21 0;
#X connect 20 1 21 1;
#X connect 21 0 2 0;
#X connect 21 1 1 0;
#X connect 22 0 44 2;
#X connect 23 0 42 3;
#X connect 23 0 43 3;
#X connect 23 0 44 3;
#X connect 24 0 40 0;
#X connect 24 1 40 0;
#X connect 25 0 26 0;
#X connect 27 0 28 0;
#X connect 27 0 30 0;
#X connect 27 1 29 0;
#X connect 31 0 33 0;
#X connect 32 0 43 0;
#X connect 33 0 32 0;
#X connect 33 1 32 1;
#X connect 34 0 36 0;
#X connect 35 0 44 0;
#X connect 36 0 35 0;
#X connect 36 1 35 1;
#X connect 37 0 39 0;
#X connect 38 0 42 0;
#X connect 39 0 38 0;
#X connect 39 1 38 1;
#X connect 40 0 25 0;
#X connect 40 0 20 0;
#X connect 41 0 50 0;
#X connect 42 0 20 0;
#X connect 43 0 20 0;
#X connect 44 0 20 0;
#X connect 45 0 58 0;
#X connect 45 0 57 0;
#X connect 46 0 47 0;
#X connect 46 1 48 0;
#X connect 46 2 49 0;
#X connect 50 0 40 1;
#X connect 53 0 60 0;
#X connect 53 1 60 1;
#X connect 53 2 54 0;
#X connect 55 0 62 0;
#X connect 56 0 45 0;
#X connect 56 0 59 0;
#X connect 57 0 21 0;
#X connect 57 1 21 1;
#X connect 60 0 55 0;
#X connect 61 1 63 0;
#X connect 62 0 56 0;
#X connect 63 0 62 0;
#X connect 63 1 62 1;
