#N canvas 14 111 1185 575 10;
#X obj 331 1102 output~;
#X obj 423 1079 hip~ 5;
#X obj 292 1073 hip~ 5;
#X obj 869 -246 MetroGlobal;
#X obj 283 -287 r notes;
#X obj -44 307 adc~;
#X obj -25 370 pvu~;
#X obj -26 403 vu 15 120 empty empty -1 -8 0 10 -66577 -1 1 0;
#X obj 587 598 KeyBender;
#X floatatom 524 708 5 0 0 0 - - -, f 5;
#X floatatom 766 723 5 0 0 0 - - -, f 5;
#X obj 579 709 s \$0BendFactor;
#X obj 56 -156 *;
#X obj 58 -180 t b f;
#X obj -25 341 *~;
#X obj 1049 154 notein;
#X floatatom 1037 187 5 0 0 0 - - -, f 5;
#X floatatom 1072 189 5 0 0 0 - - -, f 5;
#X floatatom 1115 193 5 0 0 0 - - -, f 5;
#X obj -6 251 hsl 40 15 0 4 0 0 empty empty empty -2 -8 0 10 -204786
-1 -1 0 1;
#X msg -71 204 ---;
#X obj 699 -292 notein;
#X floatatom 737 -252 5 0 0 0 - - -, f 5;
#X obj 1061 26 Snapshot;
#N canvas 0 161 1185 687 phase 0;
#X obj 225 328 outlet~;
#X obj 302 327 outlet~;
#X obj 383 334 outlet~;
#X obj 294 159 osc~;
#X obj 345 158 osc~;
#X obj 386 159 osc~;
#X obj 345 181 +~ 1;
#X obj 394 181 +~ 1;
#X obj 107 113 hsl 40 15 0.01 50 1 0 empty empty speed -2 -8 0 10 -204786
-1 -1 1800 1;
#X obj 287 178 +~ 1;
#X obj 254 215 *~ 0.5;
#X obj 318 218 *~ 0.5;
#X obj 382 208 *~ 0.5;
#X obj 108 142 hsl 40 15 0 1 0 0 empty empty sep -2 -8 0 10 -13381
-262144 -45076 3900 1;
#X obj 287 63 * 0.3333;
#X obj 354 64 * 0.6666;
#X floatatom 253 98 5 0 0 0 - - -, f 5;
#X floatatom 366 99 5 0 0 0 - - -, f 5;
#X floatatom 302 100 5 0 0 0 - - -, f 5;
#X msg 252 65 0;
#X obj 107 170 hsl 40 15 0 0.5 0 0 empty empty amt -2 -8 0 10 -260097
-262144 -45076 2106 1;
#X obj 108 200 hsl 40 15 0 1 0 0 empty empty offset -2 -8 0 10 -4034
-4160 -45076 1209 1;
#X obj 247 264 +~;
#X obj 317 267 +~;
#X obj 390 260 +~;
#X obj 226 293 clip~ 0 1;
#X obj 304 299 clip~ 0 1;
#X obj 387 302 clip~ 0 1;
#X obj 228 130 sig~;
#X floatatom 16 228 5 0 0 0 - - -, f 5;
#X floatatom 17 253 5 0 0 0 - - -, f 5;
#X floatatom 15 276 5 0 0 0 - - -, f 5;
#X floatatom 13 298 5 0 0 0 - - -, f 5;
#X msg 26 11 0.51;
#X msg 27 66 0.27;
#X msg 27 97 0.31;
#X obj 88 23 loadbang;
#X obj 155 112 bng 15 250 50 0 empty empty empty 17 7 0 10 -262144
-1 -1;
#X msg 24 39 1;
#X connect 3 0 9 0;
#X connect 4 0 6 0;
#X connect 5 0 7 0;
#X connect 6 0 11 0;
#X connect 7 0 12 0;
#X connect 8 0 28 0;
#X connect 8 0 29 0;
#X connect 9 0 10 0;
#X connect 10 0 22 0;
#X connect 11 0 23 0;
#X connect 12 0 24 0;
#X connect 13 0 14 0;
#X connect 13 0 15 0;
#X connect 13 0 19 0;
#X connect 13 0 30 0;
#X connect 14 0 18 0;
#X connect 14 0 4 1;
#X connect 15 0 17 0;
#X connect 15 0 5 1;
#X connect 19 0 16 0;
#X connect 19 0 3 1;
#X connect 20 0 10 1;
#X connect 20 0 11 1;
#X connect 20 0 12 1;
#X connect 20 0 31 0;
#X connect 21 0 22 1;
#X connect 21 0 23 1;
#X connect 21 0 24 1;
#X connect 21 0 32 0;
#X connect 22 0 25 0;
#X connect 23 0 26 0;
#X connect 24 0 27 0;
#X connect 25 0 0 0;
#X connect 26 0 1 0;
#X connect 27 0 2 0;
#X connect 28 0 3 0;
#X connect 28 0 4 0;
#X connect 28 0 5 0;
#X connect 33 0 8 0;
#X connect 34 0 20 0;
#X connect 35 0 21 0;
#X connect 36 0 37 0;
#X connect 37 0 33 0;
#X connect 37 0 38 0;
#X connect 37 0 34 0;
#X connect 37 0 35 0;
#X connect 38 0 13 0;
#X coords 0 -1 1 1 70 120 1 100 100;
#X restore 954 385 pd phase;
#X obj 952 537 s~ \$0Duty1;
#X obj 1028 521 s~ \$0Duty3;
#X obj 1001 550 s~ \$0Duty2;
#X obj 709 -112 multi-osc~;
#X obj 870 341 bng 15 250 50 0 empty empty empty 17 7 0 10 -4034 -1
-1;
#X obj 877 486 bng 15 250 50 0 empty empty empty 17 7 0 10 -258113
-1 -1;
#X obj 887 368 delay 500;
#X obj 1052 351 metro 600;
#X obj 1053 329 tgl 15 0 empty empty empty 17 7 0 10 -262144 -1 -1
0 1;
#X obj 1052 368 bng 15 250 50 0 empty empty empty 17 7 0 10 -262144
-1 -1;
#X obj 1115 318 hsl 128 15 5 1000 1 0 empty empty empty -2 -8 0 10
-262144 -1 -1 0 0;
#X obj 1052 390 f;
#X obj 1082 390 + 1, f 4;
#X floatatom 1052 410 5 0 0 0 - - -, f 5;
#X floatatom 1112 336 5 0 0 0 - - -, f 5;
#X msg 1113 300 600;
#X obj 283 -265 unpack f f f;
#X floatatom 257 -242 5 0 0 0 - - -, f 5;
#X floatatom 305 -242 5 0 0 0 - - -, f 5;
#X floatatom 359 -242 5 0 0 0 - - -, f 5;
#X obj 228 -215 mtof;
#X obj 286 -214 mtof;
#X obj 367 -215 mtof;
#N canvas 0 101 720 419 chord 0;
#X obj 108 104 bng 15 250 50 0 empty empty empty 17 7 0 10 -159808
-1 -1;
#X obj 131 105 bng 15 250 50 0 empty empty empty 17 7 0 10 -260097
-1 -1;
#X obj 152 106 bng 15 250 50 0 empty empty empty 17 7 0 10 -257985
-1 -1;
#X obj 177 106 bng 15 250 50 0 empty empty empty 17 7 0 10 -258113
-1 -1;
#X obj 202 106 bng 15 250 50 0 empty empty empty 17 7 0 10 -4032 -1
-1;
#N canvas 104 380 450 300 sendnotes 0;
#X obj 159 155 pack f f f;
#X obj 160 182 s notes;
#X obj 107 34 inlet;
#X obj 149 35 inlet;
#X obj 201 35 inlet;
#X obj 102 75 f;
#X obj 151 71 t b f;
#X obj 207 75 t b f;
#X connect 0 0 1 0;
#X connect 2 0 5 0;
#X connect 3 0 6 0;
#X connect 4 0 7 0;
#X connect 5 0 0 0;
#X connect 6 0 0 0;
#X connect 6 1 0 1;
#X connect 7 0 0 0;
#X connect 7 1 0 2;
#X restore 412 329 pd sendnotes;
#X msg 408 11 45;
#X msg 438 7 48;
#X msg 482 2 52;
#X msg 430 89 45;
#X msg 468 89 48;
#X msg 531 80 55;
#X msg 615 119 45;
#X msg 654 119 50;
#X msg 687 118 54;
#X msg 501 136 42;
#X msg 534 138 45;
#X msg 565 139 50;
#X msg 422 174 33;
#X msg 456 174 40;
#X msg 495 173 45;
#X obj 26 367 delay 1000;
#X obj 112 130 hsl 100 15 0 3000 0 0 empty empty Note_Duration 5 6
0 10 -262144 -1 -1 0 1;
#X floatatom 111 152 5 0 0 0 - - -, f 5;
#X obj 157 152 tgl 15 0 empty empty empty 17 7 0 10 -262144 -1 -1 0
1;
#X obj 50 429 spigot;
#X obj 50 470 outlet;
#X obj -64 130 s \$0-outlet;
#X obj -33 468 outlet;
#X obj 237 135 r \$0-outlet;
#X obj 178 152 bng 15 250 50 0 empty empty empty 17 7 0 10 -4034 -1
-1;
#X obj 202 152 bng 15 250 50 0 empty empty empty 17 7 0 10 -258113
-1 -1;
#X obj 111 172 hsl 100 15 0 5 0 0 empty empty Transpose 10 6 0 10 -1
-262144 -262144 4200 1;
#X floatatom 49 200 5 0 0 0 - - -, f 5;
#X obj 206 203 int;
#X floatatom 216 170 5 0 0 0 - - -, f 5;
#X obj 403 204 f;
#X obj 437 203 f;
#X obj 472 204 f;
#X obj 101 9 inlet;
#X obj 409 289 +;
#X obj 332 251 * 12;
#X obj 449 288 +;
#X obj 485 289 +;
#X obj 211 235 t b f;
#X obj 101 29 sel 0 1 2 3 4 5;
#X obj 229 105 bng 15 250 50 0 empty empty empty 17 7 0 10 -159808
-1 -1;
#X msg 412 47 45;
#X msg 442 43 48;
#X msg 486 39 50;
#X obj 548 233 unpack f f f;
#X floatatom 588 256 5 0 0 0 - - -, f 5;
#X floatatom 629 258 5 0 0 0 - - -, f 5;
#X floatatom 544 260 5 0 0 0 - - -, f 5;
#X msg 555 216;
#X connect 0 0 6 0;
#X connect 0 0 7 0;
#X connect 0 0 8 0;
#X connect 0 0 27 0;
#X connect 1 0 9 0;
#X connect 1 0 10 0;
#X connect 1 0 11 0;
#X connect 1 0 27 0;
#X connect 2 0 12 0;
#X connect 2 0 13 0;
#X connect 2 0 14 0;
#X connect 2 0 27 0;
#X connect 3 0 15 0;
#X connect 3 0 16 0;
#X connect 3 0 17 0;
#X connect 3 0 27 0;
#X connect 4 0 18 0;
#X connect 4 0 19 0;
#X connect 4 0 20 0;
#X connect 4 0 27 0;
#X connect 6 0 36 0;
#X connect 7 0 37 0;
#X connect 8 0 38 0;
#X connect 9 0 36 0;
#X connect 10 0 37 0;
#X connect 11 0 38 0;
#X connect 12 0 36 0;
#X connect 13 0 37 0;
#X connect 14 0 38 0;
#X connect 15 0 36 0;
#X connect 16 0 37 0;
#X connect 17 0 38 0;
#X connect 18 0 36 0;
#X connect 19 0 37 0;
#X connect 20 0 38 0;
#X connect 21 0 25 0;
#X connect 22 0 21 1;
#X connect 22 0 23 0;
#X connect 24 0 25 1;
#X connect 25 0 26 0;
#X connect 25 0 31 0;
#X connect 29 0 30 0;
#X connect 30 0 21 0;
#X connect 30 0 28 0;
#X connect 32 0 33 0;
#X connect 32 0 34 0;
#X connect 34 0 35 0;
#X connect 34 0 44 0;
#X connect 36 0 40 0;
#X connect 37 0 42 0;
#X connect 38 0 43 0;
#X connect 39 0 45 0;
#X connect 40 0 5 0;
#X connect 41 0 40 1;
#X connect 41 0 42 1;
#X connect 41 0 43 1;
#X connect 42 0 5 1;
#X connect 43 0 5 2;
#X connect 44 0 40 0;
#X connect 44 0 42 0;
#X connect 44 0 43 0;
#X connect 44 1 41 0;
#X connect 45 0 0 0;
#X connect 45 1 1 0;
#X connect 45 2 2 0;
#X connect 45 3 3 0;
#X connect 45 4 4 0;
#X connect 46 0 47 0;
#X connect 46 0 48 0;
#X connect 46 0 49 0;
#X connect 47 0 36 0;
#X connect 48 0 37 0;
#X connect 49 0 38 0;
#X connect 50 0 53 0;
#X connect 50 1 51 0;
#X connect 50 2 52 0;
#X connect 54 0 50 0;
#X coords 0 -1 1 1 150 90 1 100 100;
#X restore 569 410 pd chord;
#X obj 119 -186 r~ \$0Duty1;
#X obj 365 -170 r~ \$0Duty2;
#N canvas 140 151 545 460 LFO 0;
#X obj 38 153 osc~ 5;
#X obj 92 297 s~ \$0LFO;
#X obj 112 105 hsl 60 15 0.05 127 1 0 empty empty Rate 10 7 0 10 -262144
-1 -1 3081 1;
#X floatatom 146 121 5 0 0 0 - - -, f 5;
#X obj 90 215 *~;
#X obj 112 141 hsl 60 15 0 20 0 0 empty empty Amt 10 7 0 10 -262144
-1 -1 0 1;
#X floatatom 146 157 5 0 0 0 - - -, f 5;
#X obj 45 36 loadbang;
#X obj 163 272 Snapshot~;
#X obj 226 225 r MetroGlobal;
#X obj 164 299 s \$0LFO-CTL;
#X msg 102 69 3;
#X msg 57 108 0;
#X connect 0 0 4 0;
#X connect 2 0 0 0;
#X connect 2 0 3 0;
#X connect 4 0 1 0;
#X connect 4 0 8 0;
#X connect 5 0 4 1;
#X connect 5 0 6 0;
#X connect 7 0 11 0;
#X connect 7 0 12 0;
#X connect 8 0 10 0;
#X connect 9 0 8 0;
#X connect 11 0 2 0;
#X connect 12 0 5 0;
#X coords 0 -1 1 1 85 75 1 100 100;
#X restore 643 328 pd LFO;
#X obj 173 401 AutoPhase3;
#X obj 548 -179 r~ \$0Duty3;
#X obj 210 -157 r \$0LFO-CTL;
#X obj 58 -203 r \$0BendFactor;
#X obj 490 -201 r \$0BendFactor;
#X obj 488 -154 *;
#X obj 490 -178 t b f;
#X obj 294 -189 r \$0BendFactor;
#X obj 292 -142 *;
#X obj 294 -166 t b f;
#X obj 489 -126 multi-osc~;
#X floatatom 649 -238 5 0 0 0 - - -, f 5;
#X obj 653 -169 mtof;
#X obj 643 -149 bng 15 250 50 0 empty empty empty 17 7 0 10 -262144
-1 -1;
#X obj 650 -260 stripnote;
#X obj 653 -194 +;
#X obj 708 -213 t b f;
#X msg 716 -236 0;
#X obj 282 -128 multi-osc~;
#X obj 67 -128 multi-osc~;
#X obj 1059 883 BillBangSeq;
#X floatatom 1096 843 5 0 0 0 - - -, f 5;
#X floatatom 1004 971 5 0 0 0 - - -, f 5;
#X obj 1001 947 - 16, f 6;
#X obj 884 580 ADSR2;
#X obj 877 551 noise~;
#X obj 1058 849 % 30;
#X msg 5 229 0;
#X msg -42 224 0.04;
#X floatatom -5 271 5 0 0 0 - - -, f 5;
#X obj 872 451 spigot;
#X obj 898 433 tgl 15 0 empty empty empty 17 7 0 10 -262144 -1 -1 0
1;
#X obj 41 308 hsl 50 15 0.0002 2 1 0 empty empty empty -2 -8 0 10 -261682
-1 -1 4000 1;
#X floatatom 40 400 5 0 0 0 - - -, f 5;
#X floatatom 71 358 5 0 0 0 - - -, f 5;
#X msg 40 332 \$1 250;
#X obj 165 564 AutoPan3~;
#X msg 1087 250 0;
#X obj 1083 222 bng 15 250 50 0 empty empty empty 17 7 0 10 -262144
-1 -1;
#X obj 488 -268 tgl 15 0 empty empty empty 17 7 0 10 -262144 -1 -1
0 1;
#X obj 532 -162 spigot~;
#X obj 361 -149 spigot~;
#X obj 136 -158 spigot~;
#X obj 786 -193 r~ \$0Duty3;
#X obj 791 -144 spigot~;
#X obj 839 -167 tgl 15 0 empty empty empty 17 7 0 10 -262144 -1 -1
0 1;
#X obj 1479 526 bng 15 250 50 0 empty empty empty 17 7 0 10 -262144
-1 -1;
#X obj 1062 961 BillBangSeq;
#X msg 38 286 0;
#X obj 701 544 BillPan1~;
#X obj 1225 401 notein;
#X floatatom 1225 423 5 0 0 0 - - -, f 5;
#X floatatom 1282 437 5 0 0 0 - - -, f 5;
#X floatatom 1353 414 5 0 0 0 - - -, f 5;
#X obj 1119 473 BillValSeq2;
#X obj 1119 591 bng 15 250 50 0 empty empty empty 17 7 0 10 -262144
-1 -1;
#X floatatom 1263 593 5 0 0 0 - - -, f 5;
#X msg 498 543 0;
#X msg 544 545 2;
#X msg 589 546 -4, f 2;
#X msg 624 546 -5;
#X obj 1410 592 bng 15 250 50 0 empty empty empty 17 7 0 10 -262144
-1 -1;
#X obj 1111 714 f;
#X obj 1161 727 + 1;
#X floatatom 1112 772 5 0 0 0 - - -, f 5;
#X msg 1107 681 0;
#X obj 499 522 bng 15 250 50 0 empty empty empty 17 7 0 10 -262144
-1 -1;
#X obj 539 522 bng 15 250 50 0 empty empty empty 17 7 0 10 -262144
-1 -1;
#X obj 590 524 bng 15 250 50 0 empty empty empty 17 7 0 10 -262144
-1 -1;
#X obj 626 523 bng 15 250 50 0 empty empty empty 17 7 0 10 -262144
-1 -1;
#X msg 1295 346 69 81 81 69;
#X obj 511 500 sel 0 4 8 12 16 20 24 28;
#X msg 656 545 -2;
#X obj 656 522 bng 15 250 50 0 empty empty empty 17 7 0 10 -262144
-1 -1;
#X obj 1111 747 % 32;
#X obj 299 836 billverb~;
#X obj 690 -237 tgl 15 0 empty empty empty 17 7 0 10 -262144 -1 -1
0 1;
#X obj 647 -218 spigot;
#X obj 1123 644 spigot;
#X obj 1166 628 tgl 15 0 empty empty empty 17 7 0 10 -262144 -1 -1
0 1;
#X obj 1156 581 random 1000;
#X floatatom 1202 603 5 0 0 0 - - -, f 5;
#X obj 1207 626 > 600;
#X obj 347 331 vowellfilter1;
#X obj 707 191 KeyBender;
#X obj 330 122 FormantControl;
#X obj 114 69 RingMod~;
#X obj 117 1045 bng 15 250 50 0 empty empty empty 17 7 0 10 -262144
-1 -1;
#X obj 113 1215 bng 15 250 50 0 empty empty empty 17 7 0 10 -262144
-1 -1;
#X obj 1724 1127 bng 15 250 50 0 empty empty empty 17 7 0 10 -262144
-1 -1;
#X obj 1574 1129 bng 15 250 50 0 empty empty empty 17 7 0 10 -262144
-1 -1;
#X obj 1372 -273 bng 15 250 50 0 empty empty empty 17 7 0 10 -262144
-1 -1;
#X obj 1372 -417 bng 15 250 50 0 empty empty empty 17 7 0 10 -262144
-1 -1;
#X obj 289 964 BHStereoEnhance~;
#X obj 748 371 ADSR2;
#X obj 233 1020 pvu~;
#X obj 232 1039 vu 15 120 empty empty -1 -8 0 10 -66577 -1 1 0;
#X obj 107 758 pvu~;
#X obj 109 786 vu 15 120 empty empty -1 -8 0 10 -66577 -1 1 0;
#X obj 44 86 *~, f 4;
#X obj 40 376 line;
#X obj 417 516 pvu~;
#X obj 418 550 vu 15 120 empty empty -1 -8 0 10 -66577 -1 1 0;
#X obj 517 361 *~;
#X obj 517 386 *~ 0.2;
#X obj 517 334 phasor~ 0.1;
#X msg 1309 322 69 78 78 69;
#X msg 1473 363 1 1 1 1;
#X msg 1311 295 67 76 76 67;
#X msg 1407 322 67 78 78 67;
#X msg 1301 249 69 74 74 69;
#X msg 1300 272 62 74 74 62;
#X obj 1241 146 bendin;
#X floatatom 1243 163 5 0 0 0 - - -, f 5;
#X floatatom 1247 206 5 0 0 0 - - -, f 5;
#X obj 1241 229 - 24;
#X obj 1243 183 / 341.333;
#X connect 1 0 0 1;
#X connect 2 0 0 0;
#X connect 4 0 41 0;
#X connect 5 0 14 0;
#X connect 5 1 14 0;
#X connect 6 0 7 0;
#X connect 8 0 9 0;
#X connect 8 0 11 0;
#X connect 8 1 10 0;
#X connect 12 0 71 0;
#X connect 13 0 12 0;
#X connect 13 1 12 1;
#X connect 14 0 6 0;
#X connect 14 0 138 0;
#X connect 15 0 16 0;
#X connect 15 1 17 0;
#X connect 15 2 18 0;
#X connect 17 0 90 0;
#X connect 19 0 14 1;
#X connect 19 0 81 0;
#X connect 21 0 66 0;
#X connect 21 1 66 1;
#X connect 21 2 22 0;
#X connect 24 0 25 0;
#X connect 24 1 27 0;
#X connect 24 2 26 0;
#X connect 28 0 146 0;
#X connect 29 0 31 0;
#X connect 29 0 146 6;
#X connect 30 0 146 7;
#X connect 31 0 82 0;
#X connect 32 0 34 0;
#X connect 33 0 32 0;
#X connect 34 0 36 0;
#X connect 34 0 76 6;
#X connect 35 0 32 1;
#X connect 35 0 39 0;
#X connect 36 0 37 0;
#X connect 36 0 38 0;
#X connect 37 0 36 1;
#X connect 40 0 35 0;
#X connect 41 0 42 0;
#X connect 41 1 43 0;
#X connect 41 1 42 0;
#X connect 41 2 44 0;
#X connect 42 0 45 0;
#X connect 43 0 46 0;
#X connect 44 0 47 0;
#X connect 45 0 12 0;
#X connect 46 0 60 0;
#X connect 47 0 57 0;
#X connect 49 0 94 0;
#X connect 50 0 93 0;
#X connect 52 0 88 0;
#X connect 52 1 88 1;
#X connect 52 2 88 2;
#X connect 53 0 92 0;
#X connect 54 0 62 3;
#X connect 54 0 70 3;
#X connect 54 0 71 3;
#X connect 55 0 13 0;
#X connect 56 0 58 0;
#X connect 57 0 62 0;
#X connect 58 0 57 0;
#X connect 58 1 57 1;
#X connect 59 0 61 0;
#X connect 60 0 70 0;
#X connect 61 0 60 0;
#X connect 61 1 60 1;
#X connect 62 0 151 0;
#X connect 63 0 129 0;
#X connect 64 0 65 0;
#X connect 64 0 28 0;
#X connect 66 0 63 0;
#X connect 67 0 64 0;
#X connect 68 0 67 0;
#X connect 68 1 67 1;
#X connect 69 0 68 0;
#X connect 70 0 151 0;
#X connect 71 0 151 0;
#X connect 72 1 98 0;
#X connect 75 0 74 0;
#X connect 75 0 99 0;
#X connect 76 0 135 0;
#X connect 77 0 76 0;
#X connect 78 0 72 0;
#X connect 78 0 73 0;
#X connect 78 0 75 0;
#X connect 79 0 19 0;
#X connect 80 0 19 0;
#X connect 82 0 30 0;
#X connect 83 0 82 1;
#X connect 84 0 87 0;
#X connect 84 0 86 0;
#X connect 87 0 152 0;
#X connect 88 0 127 0;
#X connect 88 0 149 0;
#X connect 88 1 127 1;
#X connect 89 0 36 1;
#X connect 90 0 89 0;
#X connect 91 0 92 1;
#X connect 91 0 93 1;
#X connect 91 0 94 1;
#X connect 92 0 62 2;
#X connect 93 0 70 2;
#X connect 94 0 71 2;
#X connect 95 0 96 0;
#X connect 96 0 28 2;
#X connect 97 0 96 1;
#X connect 100 0 84 0;
#X connect 101 0 127 0;
#X connect 101 1 127 1;
#X connect 102 0 103 0;
#X connect 102 1 104 0;
#X connect 102 2 105 0;
#X connect 106 0 107 0;
#X connect 106 1 108 0;
#X connect 106 1 64 0;
#X connect 106 2 113 0;
#X connect 107 0 130 0;
#X connect 107 0 132 0;
#X connect 109 0 8 0;
#X connect 110 0 8 0;
#X connect 111 0 8 0;
#X connect 112 0 8 0;
#X connect 113 0 114 0;
#X connect 114 0 115 0;
#X connect 114 0 126 0;
#X connect 115 0 114 1;
#X connect 117 0 114 0;
#X connect 118 0 109 0;
#X connect 119 0 110 0;
#X connect 120 0 111 0;
#X connect 121 0 112 0;
#X connect 122 0 106 3;
#X connect 123 0 118 0;
#X connect 123 1 119 0;
#X connect 123 2 120 0;
#X connect 123 3 125 0;
#X connect 123 4 118 0;
#X connect 123 5 119 0;
#X connect 123 6 120 0;
#X connect 123 7 121 0;
#X connect 124 0 8 0;
#X connect 125 0 124 0;
#X connect 126 0 116 0;
#X connect 127 0 145 0;
#X connect 127 1 145 1;
#X connect 128 0 129 1;
#X connect 129 0 67 0;
#X connect 130 0 29 0;
#X connect 131 0 130 1;
#X connect 132 0 133 0;
#X connect 133 0 134 0;
#X connect 135 0 52 0;
#X connect 135 0 153 0;
#X connect 136 1 135 3;
#X connect 137 0 135 1;
#X connect 137 1 135 2;
#X connect 138 0 135 0;
#X connect 145 0 2 0;
#X connect 145 0 147 0;
#X connect 145 1 1 0;
#X connect 146 0 101 0;
#X connect 147 0 148 0;
#X connect 149 0 150 0;
#X connect 151 0 138 0;
#X connect 152 0 85 0;
#X connect 152 0 151 1;
#X connect 153 0 154 0;
#X connect 155 0 156 0;
#X connect 157 0 155 0;
#X connect 157 0 155 1;
#X connect 158 0 106 3;
#X connect 159 0 106 2;
#X connect 160 0 106 3;
#X connect 161 0 106 3;
#X connect 162 0 106 3;
#X connect 163 0 106 3;
#X connect 164 0 165 0;
#X connect 165 0 168 0;
#X connect 166 0 167 0;
#X connect 167 0 136 0;
#X connect 168 0 166 0;
