#N canvas 0 95 1200 673 10;
#X obj 409 509 vu 15 120 empty empty -1 -8 0 10 -66577 -1 1 0;
#X obj 553 508 vu 15 120 empty empty -1 -8 0 10 -66577 -1 1 0;
#X obj 408 483 pvu~;
#X obj 552 483 pvu~;
#X floatatom 552 653 5 0 0 0 - - -, f 5;
#X floatatom 408 655 5 0 0 0 - - -, f 5;
#X msg 598 -29 \; pd dsp 1;
#X msg 598 4 \; pd dsp 0;
#X obj 301 36 osc~ 440;
#N canvas 1 109 1028 595 tone2 0;
#X obj 108 123 vu 15 120 empty empty -1 -8 0 10 -66577 -1 1 0;
#X obj 107 97 pvu~;
#X floatatom 106 252 5 0 0 0 - - -, f 5;
#X obj 107 71 *~;
#X obj 165 239 line~;
#X floatatom 165 191 0 0 0 0 - - -;
#X obj 166 133 sel 0 1 2 3;
#X msg 165 161 0;
#X msg 200 161 0.25;
#X msg 244 160 0.5;
#X obj 166 112 hradio 15 1 0 4 empty empty empty 0 -8 0 10 -262144
-1 -1 2;
#X obj 165 218 pack f 100;
#X msg 281 160 1;
#X obj 29 114 outlet~;
#X obj 108 47 inlet~;
#X connect 0 0 2 0;
#X connect 1 0 0 0;
#X connect 3 0 1 0;
#X connect 3 0 13 0;
#X connect 4 0 3 1;
#X connect 5 0 11 0;
#X connect 6 0 7 0;
#X connect 6 1 8 0;
#X connect 6 2 9 0;
#X connect 6 3 12 0;
#X connect 7 0 5 0;
#X connect 8 0 5 0;
#X connect 9 0 5 0;
#X connect 10 0 6 0;
#X connect 11 0 4 0;
#X connect 12 0 5 0;
#X connect 14 0 3 0;
#X coords 0 -1 1 1 150 170 1 100 100;
#X restore 496 47 pd tone2;
#N canvas 1 109 1028 595 tone1 0;
#X obj 108 123 vu 15 120 empty empty -1 -8 0 10 -66577 -1 1 0;
#X obj 107 97 pvu~;
#X floatatom 106 252 5 0 0 0 - - -, f 5;
#X obj 107 71 *~;
#X obj 165 239 line~;
#X floatatom 165 191 0 0 0 0 - - -;
#X obj 166 133 sel 0 1 2 3;
#X msg 165 161 0;
#X msg 200 161 0.25;
#X msg 244 160 0.5;
#X obj 166 112 hradio 15 1 0 4 empty empty empty 0 -8 0 10 -262144
-1 -1 3;
#X obj 165 218 pack f 100;
#X msg 281 160 1;
#X obj 29 114 outlet~;
#X obj 108 47 inlet~;
#X connect 0 0 2 0;
#X connect 1 0 0 0;
#X connect 3 0 1 0;
#X connect 3 0 13 0;
#X connect 4 0 3 1;
#X connect 5 0 11 0;
#X connect 6 0 7 0;
#X connect 6 1 8 0;
#X connect 6 2 9 0;
#X connect 6 3 12 0;
#X connect 7 0 5 0;
#X connect 8 0 5 0;
#X connect 9 0 5 0;
#X connect 10 0 6 0;
#X connect 11 0 4 0;
#X connect 12 0 5 0;
#X connect 14 0 3 0;
#X coords 0 -1 1 1 150 170 1 100 100;
#X restore 295 68 pd tone1;
#X obj 391 395 BHStereoEnhance~;
#X obj 495 20 osc~ 660;
#X obj 465 486 output~;
#X obj 844 83 MetroGlobal;
#X obj 268 248 AutoPan1~;
#X obj 500 237 AutoPan1~;
#X obj 59 44 osc~ 110;
#N canvas 1 109 1028 595 tone1 0;
#X obj 108 123 vu 15 120 empty empty -1 -8 0 10 -66577 -1 1 0;
#X obj 107 97 pvu~;
#X floatatom 106 252 5 0 0 0 - - -, f 5;
#X obj 107 71 *~;
#X obj 165 239 line~;
#X floatatom 165 191 0 0 0 0 - - -;
#X obj 166 133 sel 0 1 2 3;
#X msg 165 161 0;
#X msg 200 161 0.25;
#X msg 244 160 0.5;
#X obj 166 112 hradio 15 1 0 4 empty empty empty 0 -8 0 10 -262144
-1 -1 1;
#X obj 165 218 pack f 100;
#X msg 281 160 1;
#X obj 29 114 outlet~;
#X obj 108 47 inlet~;
#X connect 0 0 2 0;
#X connect 1 0 0 0;
#X connect 3 0 1 0;
#X connect 3 0 13 0;
#X connect 4 0 3 1;
#X connect 5 0 11 0;
#X connect 6 0 7 0;
#X connect 6 1 8 0;
#X connect 6 2 9 0;
#X connect 6 3 12 0;
#X connect 7 0 5 0;
#X connect 8 0 5 0;
#X connect 9 0 5 0;
#X connect 10 0 6 0;
#X connect 11 0 4 0;
#X connect 12 0 5 0;
#X connect 14 0 3 0;
#X coords 0 -1 1 1 150 170 1 100 100;
#X restore 58 82 pd tone1;
#X connect 0 0 5 0;
#X connect 1 0 4 0;
#X connect 2 0 0 0;
#X connect 3 0 1 0;
#X connect 8 0 10 0;
#X connect 9 0 16 0;
#X connect 10 0 15 0;
#X connect 11 0 2 0;
#X connect 11 0 13 0;
#X connect 11 1 3 0;
#X connect 11 1 13 1;
#X connect 12 0 9 0;
#X connect 15 0 11 0;
#X connect 15 1 11 1;
#X connect 16 0 11 0;
#X connect 16 1 11 1;
#X connect 17 0 18 0;
#X connect 18 0 11 0;
#X connect 18 0 11 1;
