#N canvas 1 123 912 581 10;
#X obj 90 25 notein;
#X obj 90 73 bng 15 250 50 0 empty empty empty 17 7 0 10 -262144 -1
-1;
#X obj 90 49 stripnote;
#X obj 90 121 timer;
#X obj 90 96 t b b;
#X obj 377 57 f;
#X floatatom 383 107 7 0 0 0 - - -, f 7;
#X obj 90 145 f;
#X floatatom 89 166 7 0 0 0 - - -, f 7;
#X obj 370 27 t f b;
#X obj 313 57 f;
#X floatatom 319 107 7 0 0 0 - - -, f 7;
#X obj 312 28 t f b;
#X obj 250 58 f;
#X floatatom 256 108 7 0 0 0 - - -, f 7;
#X obj 249 29 t f b;
#X obj 188 56 f;
#X floatatom 194 106 7 0 0 0 - - -, f 7;
#X obj 187 27 t f b;
#X obj 71 267 spigot;
#X obj 110 242 tgl 15 0 empty empty empty 17 7 0 10 -262144 -1 -1 1
1;
#X obj 71 241 f;
#X obj 104 214 t b f;
#X msg 628 150 10;
#X msg 664 150 20;
#X msg 699 151 30;
#X msg 630 175 100;
#X msg 666 175 200;
#X msg 701 176 300;
#X msg 628 125 1;
#X msg 663 125 2;
#X msg 699 126 3;
#X obj 613 207 f;
#X obj 281 171 +;
#X obj 415 159 +;
#X obj 263 220 +;
#X floatatom 263 266 5 0 0 0 - - -, f 5;
#X obj 296 385 metro 500;
#X obj 263 290 t b f;
#X obj 327 418 bng 15 250 50 0 empty empty empty 17 7 0 10 -262144
-1 -1;
#X obj 247 290 bng 15 250 50 0 empty empty empty 17 7 0 10 -262144
-1 -1;
#X obj 71 291 s \$0DelayMS;
#X obj 370 3 r \$0DelayMS;
#X obj 613 232 s \$0DelayMS;
#X obj 384 130 * 10;
#X obj 319 128 * 9;
#X obj 256 128 * 8;
#X obj 195 127 * 7;
#X obj 395 418 noise~;
#X obj 466 408 line;
#X msg 516 378 0 100;
#X obj 516 336 bng 15 250 50 0 empty empty empty 17 7 0 10 -262144
-1 -1;
#X obj 443 450 *~;
#X obj 431 499 output~;
#X msg 466 379 1;
#X obj 516 355 delay 10;
#X obj 392 269 /;
#X floatatom 392 291 5 0 0 0 - - -, f 5;
#X obj 105 191 < 1200, f 7;
#X msg 391 247 1000 \$1;
#X obj 393 310 * 60;
#X floatatom 392 332 5 0 0 0 - - -, f 5;
#X obj 264 244 / 44;
#X obj 445 129 * 10;
#X obj 281 196 +;
#X floatatom 296 364 5 0 0 0 - - -, f 5;
#X msg 296 317 \$1 1000;
#X obj 479 111 comment 0 20 helvetica ? 0 0 0 0 Moving Avg Weights
;
#X obj 211 364 tgl 15 0 empty empty empty 17 7 0 10 -262144 -1 -1 1
1;
#X msg 233 324 stop;
#X floatatom 211 385 5 0 0 0 - - -, f 5;
#X obj 170 471 spigot;
#X obj 209 453 tgl 15 0 empty empty empty 17 7 0 10 -262144 -1 -1 0
1;
#X msg 209 405 1 \$1;
#X obj 209 426 -;
#X msg 170 494 1;
#X obj 35 97 s tap;
#X obj 156 448 r tap;
#X obj 170 516 s start;
#X obj 171 338 r start;
#X msg 236 342 0;
#X obj 327 440 s beat;
#X obj 516 315 r beat;
#X obj 311 288 s ms;
#X obj 391 226 r ms;
#X obj 296 341 line;
#X obj 303 243 comment 0 12 helvetica ? 0 0 0 0 Weight Sum;
#X obj 434 325 comment 0 20 helvetica ? 0 0 0 0 BPM;
#X obj 170 304 loadbang;
#X connect 0 0 2 0;
#X connect 0 1 2 1;
#X connect 1 0 4 0;
#X connect 1 0 76 0;
#X connect 2 0 1 0;
#X connect 3 0 7 0;
#X connect 4 0 3 0;
#X connect 4 1 3 1;
#X connect 5 0 6 0;
#X connect 6 0 12 0;
#X connect 6 0 44 0;
#X connect 7 0 8 0;
#X connect 8 0 21 1;
#X connect 8 0 58 0;
#X connect 9 0 5 1;
#X connect 9 0 63 0;
#X connect 9 1 5 0;
#X connect 10 0 11 0;
#X connect 11 0 15 0;
#X connect 11 0 45 0;
#X connect 12 0 10 1;
#X connect 12 1 10 0;
#X connect 13 0 14 0;
#X connect 14 0 18 0;
#X connect 14 0 46 0;
#X connect 15 0 13 1;
#X connect 15 1 13 0;
#X connect 16 0 17 0;
#X connect 17 0 47 0;
#X connect 18 0 16 1;
#X connect 18 1 16 0;
#X connect 19 0 41 0;
#X connect 20 0 19 1;
#X connect 21 0 19 0;
#X connect 22 0 21 0;
#X connect 22 1 20 0;
#X connect 23 0 32 0;
#X connect 24 0 32 0;
#X connect 25 0 32 0;
#X connect 26 0 32 0;
#X connect 27 0 32 0;
#X connect 28 0 32 0;
#X connect 29 0 32 0;
#X connect 30 0 32 0;
#X connect 31 0 32 0;
#X connect 32 0 43 0;
#X connect 33 0 64 0;
#X connect 34 0 64 1;
#X connect 35 0 62 0;
#X connect 36 0 38 0;
#X connect 36 0 40 0;
#X connect 36 0 83 0;
#X connect 37 0 39 0;
#X connect 38 1 66 0;
#X connect 39 0 37 0;
#X connect 39 0 81 0;
#X connect 42 0 9 0;
#X connect 44 0 34 0;
#X connect 45 0 33 1;
#X connect 46 0 33 0;
#X connect 47 0 35 0;
#X connect 48 0 52 0;
#X connect 49 0 52 1;
#X connect 50 0 49 0;
#X connect 51 0 54 0;
#X connect 51 0 55 0;
#X connect 52 0 53 0;
#X connect 52 0 53 1;
#X connect 54 0 49 0;
#X connect 55 0 50 0;
#X connect 56 0 57 0;
#X connect 57 0 60 0;
#X connect 58 0 22 0;
#X connect 59 0 56 0;
#X connect 60 0 61 0;
#X connect 62 0 36 0;
#X connect 63 0 34 1;
#X connect 64 0 35 1;
#X connect 66 0 85 0;
#X connect 68 0 37 0;
#X connect 68 0 70 0;
#X connect 69 0 80 0;
#X connect 70 0 73 0;
#X connect 71 0 75 0;
#X connect 72 0 71 1;
#X connect 73 0 74 0;
#X connect 74 0 72 0;
#X connect 75 0 78 0;
#X connect 77 0 71 0;
#X connect 79 0 68 0;
#X connect 80 0 68 0;
#X connect 82 0 51 0;
#X connect 84 0 59 0;
#X connect 85 0 37 1;
#X connect 85 0 65 0;
#X connect 88 0 69 0;
