#N canvas 1916 0 1280 984 10;
#X obj 106 99 looperV3.0~;
#X obj 66 1154 output~;
#X obj 48 33 openpanel;
#X obj 44 5 bng 15 250 50 0 empty empty empty 17 7 0 10 -262144 -1
-1;
#X msg 528 84 This patch is part of my BH PD Toolkit http://tinyurl.com/BHPDToolkit
WilliamAHuston@gmail.com;
#X msg 194 54 MIDICTL: SpeedChan: 0;
#X obj 31 1024 BillVerb~;
#X obj 540 691 unpack;
#X floatatom 539 727 5 0 0 0 - - -;
#X floatatom 621 717 5 0 0 0 - - -;
#X floatatom 414 539 5 0 0 0 - - -;
#X obj 463 540 bng 15 250 50 0 empty empty empty 17 7 0 10 -262144
-1 -1;
#X obj 433 785 osc~;
#X obj 467 1066 output~;
#X floatatom 493 583 5 0 0 0 - - -;
#X obj 493 535 dbtorms;
#X obj 443 823 *~;
#X obj 491 797 line~;
#X msg 489 773 \$1 100;
#X obj 598 540 route 1 2 3 4;
#X obj 689 718 unpack;
#X floatatom 688 754 5 0 0 0 - - -;
#X floatatom 732 757 5 0 0 0 - - -;
#X obj 802 706 unpack;
#X floatatom 800 738 5 0 0 0 - - -;
#X floatatom 842 744 5 0 0 0 - - -;
#X obj 975 646 unpack;
#X floatatom 960 692 5 0 0 0 - - -;
#X floatatom 1070 728 5 0 0 0 - - -;
#X obj 568 777 osc~;
#X obj 578 815 *~;
#X obj 623 804 line~;
#X msg 624 765 \$1 100;
#X obj 682 797 osc~;
#X obj 692 835 *~;
#X obj 740 809 line~;
#X msg 739 785 \$1 100;
#X obj 799 794 osc~;
#X obj 809 832 *~;
#X obj 857 806 line~;
#X msg 855 782 \$1 100;
#X obj 960 750 osc~;
#X obj 964 809 *~;
#X obj 1066 799 line~;
#X msg 1064 762 \$1 100;
#X obj 659 935 BillPan~;
#X obj 393 723 limit 0 70 0;
#X obj 688 778 limit 100 1000 0;
#X obj 538 753 limit 0 200 0;
#X obj 437 484 fiddle~ 1024 1 20 3;
#X obj 518 876 ADSR2;
#X obj 583 843 bng 15 250 50 0 empty empty empty 17 7 0 10 -262144
-1 -1;
#X obj 800 764 limit 200 1000 0;
#X obj 951 720 limit 50 3000 0;
#X obj 777 273 multi-osc~;
#X obj 550 431 * 1;
#X obj 570 335 MetroGlobal;
#X obj 255 1035 AutoPan3~;
#X obj 260 871 AutoPhase3;
#X obj 34 537 RingMod~;
#X msg 177 -21 Get the wave file here: https://archive.org/details/VicFurmanCrestwoodWnbfNov302014
;
#X symbolatom 10 107 10 0 0 0 - - -;
#X msg 4 59;
#X obj 28 157 print;
#X obj 144 61 bng 15 250 50 0 empty empty empty 17 7 0 10 -262144 -1
-1;
#X obj 613 199 print foo;
#X obj 612 166 bng 15 250 50 0 empty empty empty 17 7 0 10 -262144
-1 -1;
#X msg 161 14 LOAD: C:/Users/BH/Music/vic furman crestwood wnbf nov
30 2014 train wreck;
#X msg 76 71 LOAD: \$1;
#X connect 0 0 59 0;
#X connect 0 1 49 0;
#X connect 0 1 59 1;
#X connect 2 0 68 0;
#X connect 2 0 61 0;
#X connect 2 0 62 0;
#X connect 3 0 2 0;
#X connect 5 0 0 0;
#X connect 6 0 1 0;
#X connect 6 1 1 1;
#X connect 7 0 8 0;
#X connect 7 1 9 0;
#X connect 8 0 48 0;
#X connect 9 0 32 0;
#X connect 10 0 46 0;
#X connect 11 0 51 0;
#X connect 12 0 16 0;
#X connect 14 0 18 0;
#X connect 15 0 14 0;
#X connect 16 0 50 0;
#X connect 17 0 16 1;
#X connect 18 0 17 0;
#X connect 19 0 7 0;
#X connect 19 1 20 0;
#X connect 19 2 23 0;
#X connect 19 3 26 0;
#X connect 20 0 21 0;
#X connect 20 1 22 0;
#X connect 21 0 47 0;
#X connect 23 0 24 0;
#X connect 23 1 25 0;
#X connect 24 0 52 0;
#X connect 25 0 40 0;
#X connect 26 0 27 0;
#X connect 26 1 28 0;
#X connect 27 0 53 0;
#X connect 28 0 44 0;
#X connect 29 0 30 0;
#X connect 30 0 50 0;
#X connect 31 0 30 1;
#X connect 32 0 31 0;
#X connect 33 0 34 0;
#X connect 34 0 50 0;
#X connect 35 0 34 1;
#X connect 36 0 35 0;
#X connect 37 0 38 0;
#X connect 38 0 50 0;
#X connect 39 0 38 1;
#X connect 40 0 39 0;
#X connect 41 0 42 0;
#X connect 42 0 50 0;
#X connect 43 0 42 1;
#X connect 44 0 43 0;
#X connect 46 0 12 0;
#X connect 47 0 33 0;
#X connect 48 0 29 0;
#X connect 49 0 10 0;
#X connect 49 0 55 0;
#X connect 49 1 11 0;
#X connect 49 2 15 0;
#X connect 49 4 19 0;
#X connect 50 0 13 0;
#X connect 50 0 13 1;
#X connect 51 0 50 6;
#X connect 52 0 37 0;
#X connect 53 0 41 0;
#X connect 54 0 58 0;
#X connect 57 0 6 0;
#X connect 57 1 6 1;
#X connect 58 0 57 0;
#X connect 58 1 57 1;
#X connect 58 2 57 2;
#X connect 59 0 58 0;
#X connect 66 0 65 0;
#X connect 67 0 68 0;
#X connect 67 0 64 0;
#X connect 68 0 0 0;
#X connect 68 0 63 0;
