#N canvas 18 136 1135 588 10;
#X obj 1441 -1 MetroGlobal;
#X obj 1560 1 Snapshot;
#X obj 1185 421 metro 500;
#X obj 1168 521 f;
#X obj 1181 449 bng 15 250 50 0 empty empty empty 17 7 0 10 -262144
-1 -1;
#X floatatom 1171 546 5 0 0 0 - - -, f 5;
#X obj 1198 383 tgl 15 0 empty empty empty 17 7 0 10 -262144 -1 -1
1 1;
#X obj 1196 489 + 1;
#X obj 1102 321 metro 600;
#X obj 1103 299 tgl 15 0 empty empty empty 17 7 0 10 -262144 -1 -1
1 1;
#X obj 1103 350 bng 15 250 50 0 empty empty empty 17 7 0 10 -262144
-1 -1;
#X obj 1180 288 hsl 128 15 5 1000 1 0 empty empty empty -2 -8 0 10
-262144 -1 -1 0 1;
#X obj 1081 381 f;
#X obj 1128 416 + 1, f 6;
#X floatatom 1052 415 5 0 0 0 - - -, f 5;
#X floatatom 1177 309 5 0 0 0 - - -, f 5;
#X obj 1040 454 % 16;
#X msg 1181 253 600;
#X msg 1209 453 1;
#X connect 2 0 4 0;
#X connect 3 0 5 0;
#X connect 3 0 7 0;
#X connect 4 0 18 0;
#X connect 6 0 2 0;
#X connect 7 0 3 1;
#X connect 8 0 10 0;
#X connect 9 0 8 0;
#X connect 10 0 12 0;
#X connect 11 0 8 1;
#X connect 11 0 15 0;
#X connect 12 0 13 0;
#X connect 12 0 14 0;
#X connect 13 0 12 1;
#X connect 14 0 16 0;
#X connect 17 0 11 0;
#X connect 18 0 3 1;
