#N canvas 0 0 1920 1040 10;
#X obj 159 216 multi-osc~;
#X obj 205 1522 MetroGlobal;
#X obj 539 598 AutoPan3~;
#X obj 559 421 AutoPhase3;
#X obj 165 545 RingMod~;
#X obj 389 590 ADSR2;
#X obj 484 53 Kbd;
#X obj 157 94 BillValSeq2;
#X obj 877 415 keybender;
#X obj 546 785 BillEchoVerb~;
#X obj 1229 199 looperV3.0~;
#X obj 738 236 FormantControl;
#X obj 476 207 BillBangSeq;
#X obj 489 290 BillPan2~;
#X obj 1233 553 FixedFilter~;
#X obj 393 362 VCF;
#X obj 797 529 StereoFormant~;
#X obj 68 509 output~;
#X connect 0 0 17 1;
#X connect 3 0 2 0;
#X connect 3 1 2 1;
#X connect 3 2 2 2;
#X connect 8 1 16 5;
#X connect 11 0 16 3;
#X connect 11 0 16 2;
