#N canvas 769 112 612 508 10;
#X obj 99 248 nbx 5 20 -1e+37 1e+37 0 0 \$0BPM \$0BPMIn BPM 100 10
0 20 -257985 -1 -1 46.875 256;
#X obj 267 236 nbx 5 20 -1e+37 1e+37 0 0 \$0MetroMs \$0MetroMsIn ms
50 10 0 20 -204800 -1 -1 1280 256;
#X floatatom 270 285 5 0 0 0 - - -, f 5;
#X obj 269 262 expr 60000/$f1;
#X msg 270 309 set \$1;
#X obj 269 333 s \$0BPMIn;
#X floatatom 100 296 5 0 0 0 - - -, f 5;
#X msg 100 316 set \$1;
#X obj 100 339 s \$0MetroMsIn;
#X obj 100 274 expr ($f1)/6*100;
#X connect 0 0 9 0;
#X connect 1 0 3 0;
#X connect 2 0 4 0;
#X connect 3 0 2 0;
#X connect 4 0 5 0;
#X connect 6 0 7 0;
#X connect 7 0 8 0;
#X connect 9 0 6 0;
