#N canvas 1 95 1032 544 10;
#X obj 236 102 snapshot~;
#X floatatom 156 119 7 0 0 0 - - -, f 7;
#X obj 236 76 dbtorms~;
#X obj 384 158 snapshot~;
#X floatatom 155 175 7 0 0 0 - - -, f 7;
#X obj 310 128 snapshot~;
#X floatatom 155 146 7 0 0 0 - - -, f 7;
#X obj 460 186 snapshot~;
#X floatatom 156 203 7 0 0 0 - - -, f 7;
#X obj 310 101 rmstodb~;
#X obj 384 131 dbtopow~;
#X obj 460 159 powtodb~;
#X obj 267 19 inlet~;
#X obj 481 97 metro 100;
#X obj 481 75 tgl 15 0 empty empty empty 17 7 0 10 -262144 -1 -1 1
1;
#X obj 480 12 loadbang;
#X obj 481 31 bng 15 250 50 0 empty empty empty 17 7 0 10 -262144 -1
-1;
#X msg 481 52 1;
#X obj 480 118 bng 15 250 50 0 empty empty empty 17 7 0 10 -262144
-1 -1;
#X obj 553 79 hsl 128 15 10 1000 1 0 empty empty empty -2 -8 0 10 -262144
-1 -1 0 1;
#X obj 105 77 pvu~;
#X obj 108 122 vu 15 120 empty empty -1 -8 0 10 -66577 -1 1 0;
#X floatatom 156 231 5 0 0 0 - - -, f 5;
#X connect 0 0 1 0;
#X connect 2 0 0 0;
#X connect 3 0 4 0;
#X connect 5 0 6 0;
#X connect 7 0 8 0;
#X connect 9 0 5 0;
#X connect 10 0 3 0;
#X connect 11 0 7 0;
#X connect 12 0 2 0;
#X connect 12 0 9 0;
#X connect 12 0 10 0;
#X connect 12 0 11 0;
#X connect 12 0 20 0;
#X connect 13 0 18 0;
#X connect 13 0 0 0;
#X connect 14 0 13 0;
#X connect 15 0 16 0;
#X connect 16 0 17 0;
#X connect 17 0 14 0;
#X connect 18 0 7 0;
#X connect 18 0 3 0;
#X connect 18 0 5 0;
#X connect 19 0 13 0;
#X connect 20 0 21 0;
#X connect 21 0 22 0;
#X coords 0 -1 1 1 125 150 1 100 100;
